<?xml version="1.0" standalone="no"?>
<!DOCTYPE svg PUBLIC "-//W3C//DTD SVG 20010904//EN"
 "http://www.w3.org/TR/2001/REC-SVG-20010904/DTD/svg10.dtd">
<svg version="1.0" xmlns="http://www.w3.org/2000/svg"
 width="566.000000pt" height="800.000000pt" viewBox="0 0 566.000000 800.000000"
 preserveAspectRatio="xMidYMid meet">
<metadata>
Created by potrace 1.16, written by Peter Selinger 2001-2019
</metadata>
<g transform="translate(0.000000,800.000000) scale(0.100000,-0.100000)"
fill="#000000" stroke="none">
<path d="M0 7895 l0 -105 1125 0 1125 0 0 -175 0 -175 -1125 0 -1125 0 0
-3501 0 -3502 1148 6 c631 4 1371 7 1645 7 l497 0 0 26 c0 14 4 23 10 19 6 -3
10 -14 10 -24 0 -10 8 -21 18 -23 9 -3 538 -6 1175 -7 l1157 -2 0 1397 c0
1209 -2 1395 -15 1391 -9 -4 -22 7 -35 29 -12 18 -26 34 -31 34 -5 0 -9 5 -9
10 0 9 -108 128 -152 168 -13 12 -14 19 -6 29 7 9 7 13 -1 13 -6 0 -11 6 -11
13 0 7 -9 23 -21 36 -12 12 -19 25 -16 28 13 13 50 -13 102 -72 31 -36 63 -65
71 -65 8 0 25 -10 37 -22 12 -13 37 -36 55 -52 l32 -30 0 2047 0 2047 -1442 2
-1441 3 1 170 2 170 1440 3 1440 2 0 105 0 105 -2830 0 -2830 0 0 -105z m3680
-885 l0 -70 -85 0 -85 0 0 70 0 70 85 0 85 0 0 -70z m-2720 -535 l0 -546 -82
3 -83 3 -3 543 -2 542 85 0 85 0 0 -545z m-303 359 c28 -16 48 -38 63 -70 26
-54 42 -177 38 -296 l-3 -83 -149 -3 -149 -3 5 -139 c5 -154 15 -180 68 -180
44 0 55 24 60 129 l5 96 80 0 80 0 -4 -89 c-5 -144 -32 -211 -100 -246 -94
-48 -231 -32 -289 34 -54 62 -57 83 -57 416 0 293 1 307 22 345 11 22 35 53
52 69 61 58 194 68 278 20z m752 26 c94 -18 146 -77 158 -183 l6 -52 13 63 c7
34 20 74 29 90 40 67 143 102 240 82 103 -21 144 -83 152 -230 l5 -85 -73 1
-74 2 -6 77 c-4 60 -9 81 -24 91 -67 49 -120 -36 -81 -130 8 -18 59 -78 113
-132 107 -106 136 -153 154 -247 13 -70 -1 -156 -34 -205 -45 -68 -157 -98
-258 -68 -95 27 -131 86 -137 224 l-4 92 74 0 75 0 5 -75 c5 -82 24 -115 64
-115 37 0 54 26 54 83 -1 77 -27 123 -125 218 -96 92 -131 145 -144 210 -7 35
-9 21 -10 -73 l-1 -118 -145 0 -145 0 0 -138 c0 -155 9 -182 59 -182 45 0 55
23 61 129 l5 96 80 0 80 0 -2 -98 c-3 -105 -25 -177 -66 -215 -27 -25 -106
-52 -151 -52 -57 0 -134 29 -169 64 -56 56 -62 95 -62 416 0 251 2 291 18 332
23 59 83 115 134 123 21 4 43 8 48 10 18 6 31 5 84 -5z m1479 -22 c98 -47 113
-125 109 -593 l-2 -310 -82 -3 -83 -3 0 43 -1 43 -17 -28 c-26 -42 -90 -69
-142 -61 -99 16 -135 88 -135 274 0 114 2 129 24 167 31 54 76 85 182 127 l84
33 -1 86 c-1 95 -11 117 -53 117 -46 0 -55 -14 -59 -89 l-4 -71 -86 0 -85 0 7
70 c3 38 13 88 22 110 21 51 74 97 121 105 21 4 45 8 53 10 30 7 106 -7 148
-27z m494 0 c23 -13 46 -39 64 -72 24 -44 28 -64 32 -158 l5 -108 -82 0 -81 0
0 93 c0 107 -13 137 -60 137 -21 0 -35 -8 -47 -27 -16 -24 -18 -56 -18 -308 0
-254 2 -283 18 -309 15 -22 25 -27 50 -24 45 4 57 35 57 146 l0 92 81 0 82 0
-5 -107 c-6 -125 -24 -178 -74 -222 -43 -38 -104 -55 -172 -47 -111 13 -159
55 -187 165 -14 51 -16 110 -13 334 3 262 4 274 27 325 13 29 37 62 54 74 70
50 194 57 269 16z m665 11 c45 -14 99 -79 117 -140 23 -77 23 -548 0 -630 -32
-114 -117 -169 -241 -156 -83 9 -132 41 -168 111 l-30 60 -3 267 c-4 294 5
361 54 426 56 73 159 97 271 62z m-1844 -28 l-1 -33 34 33 c30 29 42 34 98 37
59 4 65 2 99 -28 57 -50 67 -99 74 -350 7 -271 -6 -414 -43 -478 -48 -82 -154
-105 -228 -48 l-33 25 1 -107 1 -107 -82 -3 -83 -3 0 551 0 551 83 -3 82 -3
-2 -34z m1477 -426 l0 -466 -82 3 -83 3 -2 450 c-2 248 -1 456 2 463 3 8 30
12 85 12 l80 0 0 -465z m712 -916 c55 -12 205 -76 196 -84 -2 -3 -23 4 -46 15
-29 14 -58 20 -91 18 -27 -2 -47 -6 -45 -9 2 -5 -198 -4 -241 1 -5 0 2 8 18
16 15 8 27 17 27 19 0 8 -54 -18 -65 -31 -13 -15 -77 -54 -89 -54 -28 0 126
106 165 113 47 9 118 7 171 -4z m214 -253 c10 -43 -3 -64 -46 -71 -22 -4 -44
-4 -50 0 -5 3 -73 8 -151 10 -77 2 -143 6 -147 9 -3 3 9 6 27 6 18 0 30 4 27
9 -3 5 4 11 17 14 12 3 37 10 55 15 22 8 30 8 26 0 -8 -12 45 -7 151 16 39 8
73 15 77 15 4 1 10 -10 14 -23z m-1387 -290 c-3 -3 -54 -30 -114 -61 -180 -93
-215 -123 -167 -145 27 -12 27 -12 8 9 -18 20 -10 31 9 12 12 -11 75 13 75 29
0 5 7 10 15 10 8 0 15 5 15 11 0 5 4 7 10 4 5 -3 35 8 65 24 31 17 59 30 63
29 18 -4 100 28 123 49 26 24 49 30 49 14 0 -5 -9 -13 -20 -16 -11 -3 -20 -11
-20 -16 0 -5 -6 -9 -14 -9 -8 0 -21 -6 -28 -12 -7 -7 -30 -27 -50 -45 -23 -19
-32 -33 -24 -36 8 -3 11 -18 8 -41 -3 -28 -17 -48 -63 -93 -32 -31 -56 -60
-53 -65 3 -4 0 -8 -6 -8 -6 0 -8 -4 -5 -10 12 -19 -11 -9 -85 37 -41 25 -90
52 -108 60 -18 7 -30 18 -27 23 4 6 -1 7 -11 3 -11 -4 -15 -3 -10 5 5 8 -11
10 -54 7 -33 -2 -60 0 -60 4 0 5 27 21 61 36 34 15 138 65 233 111 150 74 201
95 185 80z m-2699 -258 c0 -25 -3 -28 -34 -28 -40 0 -36 14 -66 -205 -29 -209
-24 -195 -69 -195 -46 0 -40 -16 -75 215 -15 94 -29 180 -31 193 -5 20 -2 22
30 22 21 0 35 -5 35 -12 1 -30 38 -269 42 -273 2 -3 10 50 17 118 17 164 17
167 51 167 15 0 30 6 33 14 4 9 18 14 36 14 27 -1 31 -5 31 -30z m2162 -89
c35 -19 65 -36 68 -39 21 -22 119 -88 124 -83 3 4 6 -2 6 -11 0 -15 -5 -17
-27 -12 -27 6 -27 6 -9 -9 11 -8 23 -15 27 -15 4 0 7 -10 6 -22 -1 -23 -14
-38 -32 -38 -5 0 -4 4 4 9 9 6 10 11 2 15 -6 4 -27 -2 -46 -14 -28 -17 -35
-19 -35 -7 0 9 11 29 25 45 14 17 25 34 25 39 0 4 -34 25 -75 47 -117 59 -239
68 -299 22 -18 -14 -36 -22 -39 -19 -4 3 -12 -6 -18 -21 -7 -14 -16 -26 -21
-26 -4 0 -7 -3 -6 -7 1 -5 -3 -18 -10 -29 -11 -20 -26 -104 -36 -199 -2 -22
-3 14 -2 80 2 110 5 126 33 186 67 145 189 184 335 108z m-2099 -1 c4 -18 12
-80 19 -138 l13 -105 6 75 c3 41 10 103 14 138 7 60 8 62 36 62 24 0 29 -4 29
-25 l0 -24 25 24 c33 34 93 34 125 0 18 -19 24 -39 28 -95 l5 -70 -62 0 -61 0
0 -52 c0 -60 11 -84 34 -75 11 4 16 19 16 47 0 39 1 40 35 40 39 0 41 -6 25
-75 -11 -49 -32 -65 -85 -65 -68 0 -86 28 -94 147 l-6 98 -14 -110 c-7 -60
-16 -116 -18 -122 -3 -7 -22 -13 -43 -13 l-38 0 -11 68 c-6 37 -17 108 -25
157 l-14 90 -1 -157 -1 -158 -35 0 -35 0 0 178 c0 98 3 182 7 185 3 4 32 7 64
7 56 0 57 0 62 -32z m372 22 c4 -6 15 -5 30 2 33 15 69 3 83 -27 8 -16 12 -84
12 -180 l0 -155 -35 0 -34 0 -3 153 c-3 144 -4 152 -23 152 -19 0 -20 -8 -23
-152 l-3 -153 -34 0 -35 0 0 185 0 185 29 0 c17 0 32 -4 36 -10z m270 4 c24
-10 45 -58 45 -104 0 -41 -1 -41 -32 -38 -31 3 -33 6 -36 46 -3 34 -7 42 -23
42 -19 0 -19 -6 -17 -127 3 -106 6 -128 18 -128 10 0 17 14 20 45 5 42 7 45
38 48 31 3 32 3 32 -38 0 -46 -21 -94 -45 -104 -32 -12 -83 -6 -106 13 -22 18
-24 27 -27 141 -4 136 0 162 28 190 20 20 71 27 105 14z m123 -181 l2 -183
-35 0 -35 0 0 186 0 185 33 -3 32 -3 3 -182z m166 166 c14 -11 26 -30 26 -42
1 -18 3 -16 15 10 39 90 165 62 165 -37 0 -38 -2 -40 -30 -40 -26 0 -30 3 -30
29 0 36 -22 57 -39 37 -16 -19 -5 -43 50 -103 63 -71 75 -136 31 -185 -10 -12
-30 -18 -60 -18 -50 0 -82 21 -82 52 0 11 -4 17 -8 14 -5 -3 -7 -19 -4 -36 4
-29 3 -30 -32 -30 -21 0 -36 5 -36 12 0 9 -3 9 -12 0 -7 -7 -27 -12 -45 -12
-41 0 -63 37 -63 107 0 60 16 84 75 112 38 18 45 26 45 50 0 35 -21 56 -38 39
-7 -7 -12 -22 -12 -35 0 -19 -5 -23 -30 -23 -28 0 -30 3 -30 35 0 74 84 111
144 64z m1394 -286 c19 -4 23 -11 19 -30 -2 -13 0 -26 4 -29 22 -13 -23 -31
-94 -37 -42 -3 -91 -13 -108 -21 -63 -31 -75 -13 -38 54 16 28 32 41 63 50 22
7 46 14 51 15 18 6 80 5 103 -2z m-2468 -337 l0 -215 -75 0 c-103 0 -105 4
-105 180 0 124 2 139 22 164 18 23 27 26 55 22 32 -6 33 -5 33 29 0 32 2 34
35 34 l35 0 0 -214z m170 129 c20 -21 25 -39 28 -95 l4 -70 -61 0 -61 0 0 -52
c0 -60 11 -84 34 -75 11 4 16 19 16 47 0 39 1 40 35 40 32 0 35 -2 35 -30 0
-48 -25 -98 -53 -105 -45 -12 -89 -1 -108 25 -16 21 -19 45 -20 150 0 69 3
133 6 143 19 48 108 61 145 22z m150 -133 c3 -83 8 -154 12 -157 4 -4 14 -5
22 -2 13 5 16 33 18 159 l3 153 30 0 30 0 3 -182 2 -183 -35 0 c-21 0 -35 5
-35 12 0 9 -3 9 -12 0 -7 -7 -27 -12 -46 -12 -51 0 -62 37 -62 214 0 142 0
145 23 149 12 2 27 3 32 2 6 -1 12 -64 15 -153z m202 145 c11 -12 16 -12 26 0
14 14 50 17 68 5 28 -18 34 -56 34 -206 l0 -156 -35 0 -34 0 -3 153 c-3 144
-4 152 -23 152 -19 0 -20 -8 -23 -152 l-3 -153 -34 0 -35 0 0 185 0 185 24 0
c14 0 31 -6 38 -13z m278 3 c11 -6 24 -19 30 -30 13 -25 23 -210 15 -277 -6
-50 -8 -53 -36 -53 -16 0 -29 5 -29 12 0 9 -3 9 -12 0 -7 -7 -27 -12 -44 -12
-45 0 -64 30 -64 100 0 68 17 95 77 121 43 18 45 21 39 51 -8 38 -11 42 -31
35 -8 -4 -15 -18 -15 -32 0 -22 -4 -25 -36 -25 l-36 0 6 38 c12 66 80 102 136
72z m2090 -231 l25 -6 -27 -7 c-19 -6 -25 -13 -23 -27 2 -10 0 -21 -5 -24 -4
-3 -11 -24 -15 -47 -4 -23 -16 -56 -26 -74 -10 -19 -14 -36 -10 -39 13 -8 2
-125 -15 -157 -23 -44 -66 -79 -81 -66 -15 12 -18 68 -3 68 6 0 10 -6 10 -14
0 -23 37 -15 51 10 13 24 5 109 -12 119 -15 10 -10 28 5 22 13 -5 13 -1 2 31
-7 20 -19 66 -26 102 l-13 65 31 33 c17 18 43 39 58 47 26 13 28 12 38 -8 6
-11 22 -24 36 -28z m-2630 -224 l0 -35 55 0 c35 0 55 -4 55 -12 0 -6 7 -4 18
5 25 23 42 21 42 -3 0 -20 0 -20 29 1 35 26 88 20 117 -12 17 -19 19 -38 19
-160 0 -128 -2 -140 -22 -160 -14 -15 -34 -22 -63 -23 -34 -1 -46 4 -66 27
-23 27 -24 35 -24 158 0 71 -4 129 -9 129 -39 0 -41 -9 -41 -161 l0 -149 -80
0 c-68 0 -81 3 -90 19 -5 11 -10 81 -10 155 0 90 -4 136 -11 136 -6 0 -9 -14
-7 -32 3 -31 1 -33 -29 -36 -32 -3 -33 -2 -33 32 0 29 -4 36 -20 36 -37 0 -26
-51 21 -95 22 -22 47 -52 55 -67 15 -28 19 -85 8 -113 -10 -26 -61 -47 -99
-39 -40 7 -55 22 -65 67 -7 30 -8 29 -9 -15 -1 -48 -1 -48 -36 -48 -19 0 -35
5 -35 10 0 6 -11 3 -24 -5 -19 -13 -28 -13 -50 -4 -31 14 -39 36 -38 107 0 62
23 94 78 112 31 11 34 15 34 51 0 32 -3 39 -20 39 -16 0 -20 -7 -20 -30 0 -28
-3 -30 -35 -30 -30 0 -35 3 -35 25 0 100 134 133 171 42 l13 -31 8 30 c12 48
82 70 123 40 26 -19 55 0 55 35 0 33 7 39 42 39 25 0 28 -3 28 -35z m1035 0
c0 -20 6 -33 18 -37 22 -9 20 -53 -2 -53 -13 0 -16 -66 -11 -242 0 -7 7 -13
15 -13 12 0 15 13 15 58 0 65 18 92 78 113 29 10 32 15 32 50 0 32 -3 39 -20
39 -16 0 -20 -7 -20 -30 0 -28 -3 -30 -35 -30 -39 0 -43 13 -24 68 13 37 55
57 104 48 56 -11 65 -39 65 -216 l0 -152 -37 3 c-21 1 -49 -1 -62 -5 -17 -6
-31 -2 -52 13 -28 21 -29 21 -29 2 0 -17 -6 -19 -42 -15 -23 2 -45 7 -50 12
-4 4 -9 72 -10 151 -2 105 -6 146 -15 149 -10 3 -13 -32 -13 -152 l0 -156 -35
0 c-19 0 -35 4 -35 10 0 5 -13 2 -29 -7 -27 -16 -30 -16 -54 0 -34 22 -39 52
-35 222 3 150 0 141 53 136 12 -1 15 -28 17 -153 3 -145 4 -153 23 -153 19 0
20 8 23 153 l3 152 49 0 50 0 0 36 c0 34 1 35 33 32 28 -3 32 -6 32 -33z
m-615 -47 c0 -5 10 -2 22 6 30 21 54 20 78 -4 18 -18 20 -33 20 -185 l0 -165
-35 0 -36 0 1 133 c1 187 3 177 -19 177 -28 0 -31 -18 -31 -171 l0 -139 -35 0
-35 0 0 179 c0 132 3 180 12 183 19 7 58 -3 58 -14z m287 -2 l28 -24 3 -161 3
-161 -35 0 c-22 0 -36 5 -36 13 0 8 -3 8 -9 -2 -13 -21 -71 -18 -87 4 -20 27
-28 99 -14 139 9 29 21 40 61 58 47 22 50 25 47 58 -2 24 -9 36 -20 38 -14 3
-18 -3 -18 -27 0 -29 -3 -31 -35 -31 -32 0 -35 2 -35 31 0 57 31 87 92 88 15
1 40 -10 55 -23z m2519 -208 c21 -149 14 -254 -27 -382 -44 -141 -84 -230
-139 -311 -48 -70 -153 -181 -131 -138 6 12 17 26 25 30 20 12 97 127 140 208
46 87 100 262 117 377 9 68 9 112 0 200 -6 62 -14 124 -17 138 -4 21 -4 22 6
8 6 -9 18 -68 26 -130z m-1068 -600 c-1 -18 -10 -38 -18 -45 -13 -10 -11 -12
13 -13 28 0 34 -14 17 -40 -8 -12 -11 -13 -19 -1 -11 17 -19 3 -25 -46 -5 -37
-2 -44 42 -88 26 -26 39 -45 30 -42 -27 10 -21 -2 6 -13 38 -14 29 -71 -20
-121 -48 -49 -76 -50 -237 -9 -65 17 -120 30 -122 30 -16 0 -1 23 25 39 16 10
27 20 24 24 -3 3 4 10 15 17 12 6 21 16 21 22 0 12 90 98 102 98 5 0 8 5 8 11
0 6 11 25 25 43 14 18 25 41 25 50 0 9 11 28 25 42 14 14 33 36 41 50 22 32
26 30 22 -8z m-520 -360 c27 2 42 0 42 -7 0 -6 -5 -11 -12 -11 -6 0 -8 -3 -5
-6 4 -4 12 -2 19 3 16 12 52 3 55 -14 3 -13 -16 -13 -89 2 -24 4 -38 3 -38 -3
0 -5 6 -9 13 -8 6 0 46 -8 87 -19 l75 -20 -40 -5 c-36 -6 -37 -7 -12 -11 34
-5 40 -23 9 -27 -20 -3 -23 -8 -18 -27 8 -32 -13 -43 -89 -46 -41 -1 -70 3
-93 15 -19 10 -41 15 -50 11 -20 -7 -32 12 -32 53 0 46 23 95 56 119 25 18 32
19 54 9 14 -7 44 -11 68 -8z m-91 -233 c21 -8 65 -21 99 -29 33 -9 83 -25 110
-37 l49 -22 -55 -18 c-76 -25 -116 -24 -131 2 -6 13 -14 17 -18 12 -3 -6 -15
-12 -26 -15 -13 -2 -2 -8 30 -17 28 -7 58 -17 67 -22 10 -5 27 -9 38 -9 11 0
20 -5 20 -11 0 -6 -7 -9 -14 -6 -10 4 -13 1 -9 -9 3 -7 0 -14 -7 -14 -7 0 -10
-7 -7 -14 8 -21 -19 -9 -29 12 -6 12 -9 4 -13 -28 -6 -42 -4 -48 34 -86 23
-23 47 -39 56 -36 19 4 59 -34 59 -56 0 -8 18 -31 41 -51 34 -30 40 -42 42
-78 1 -23 5 -39 9 -37 13 8 9 -11 -4 -25 -10 -11 -10 -13 0 -7 8 5 12 0 13
-16 0 -22 1 -22 9 -3 4 12 15 27 25 35 13 11 12 4 -6 -33 -20 -40 -27 -47 -53
-48 -30 -1 -31 -1 -6 -10 17 -5 -3 -7 -63 -6 -87 2 -103 -4 -70 -29 20 -14 12
-31 -9 -18 -7 5 -25 7 -40 5 -18 -1 -28 2 -28 11 0 10 -2 10 -9 -1 -7 -10 -20
-12 -57 -6 -27 5 -52 8 -56 7 -5 -1 -9 15 -9 35 -1 21 -3 53 -5 71 -4 38 -4
38 38 12 43 -26 58 -25 58 4 0 14 5 28 10 31 16 10 12 35 -6 35 -12 0 -13 5
-7 23 4 12 8 51 7 87 0 67 0 67 -87 220 -30 54 -52 148 -43 184 8 31 5 30 53
11z m-14 -789 c12 -7 53 -22 90 -31 37 -10 71 -23 74 -28 3 -6 1 -7 -5 -3 -7
4 -12 5 -12 2 0 -3 19 -15 41 -27 56 -28 66 -39 61 -66 -5 -27 1 -26 -84 -9
-140 30 -228 71 -228 106 0 12 31 70 38 70 1 0 13 -6 25 -14z"/>
<path d="M484 6705 c-12 -19 -18 -55 -22 -126 l-5 -99 67 0 66 0 0 98 c0 116
-12 146 -57 150 -25 3 -35 -2 -49 -23z"/>
<path d="M1306 6708 c-12 -17 -16 -48 -16 -125 l0 -103 60 0 60 0 0 103 c0
118 -12 147 -60 147 -18 0 -34 -8 -44 -22z"/>
<path d="M2770 6401 c-25 -15 -51 -40 -58 -55 -18 -41 -16 -236 4 -264 24 -35
70 -30 94 11 18 29 20 48 19 185 0 83 -4 152 -7 152 -4 0 -27 -13 -52 -29z"/>
<path d="M3909 6713 c-20 -23 -25 -586 -6 -623 19 -38 70 -40 94 -4 16 26 18
55 18 309 0 252 -2 284 -18 308 -20 31 -66 37 -88 10z"/>
<path d="M2230 6710 c-23 -23 -23 -26 -21 -359 1 -267 5 -286 61 -286 30 0 38
5 52 35 16 31 18 66 18 280 -1 252 -8 326 -31 341 -24 15 -58 10 -79 -11z"/>
<path d="M5128 309 c-25 -14 -26 -130 -2 -150 21 -18 48 0 52 35 4 30 -15 36
-20 6 -6 -43 -23 -18 -23 35 0 54 17 81 23 38 5 -31 22 -29 22 3 0 14 4 23 10
19 6 -3 10 -37 10 -76 0 -91 18 -89 22 3 4 100 26 105 30 6 3 -63 6 -73 22
-76 31 -6 46 26 46 95 0 50 -3 63 -16 63 -9 0 -14 -8 -13 -17 1 -10 1 -42 0
-70 -2 -82 -21 -63 -21 20 l0 73 -50 -6 c-28 -4 -53 -3 -56 2 -7 10 -15 10
-36 -3z"/>
</g>
</svg>
