<?xml version="1.0" standalone="no"?>
<!DOCTYPE svg PUBLIC "-//W3C//DTD SVG 20010904//EN"
 "http://www.w3.org/TR/2001/REC-SVG-20010904/DTD/svg10.dtd">
<svg version="1.0" xmlns="http://www.w3.org/2000/svg"
 width="353.000000pt" height="480.000000pt" viewBox="0 0 353.000000 480.000000"
 preserveAspectRatio="xMidYMid meet">
<metadata>
Created by potrace 1.16, written by Peter Selinger 2001-2019
</metadata>
<g transform="translate(0.000000,480.000000) scale(0.100000,-0.100000)"
fill="#000000" stroke="none">
<path d="M0 4585 c0 -184 2 -215 15 -215 8 0 15 -5 15 -11 0 -6 -7 -9 -15 -5
-8 3 -15 1 -15 -4 0 -6 7 -10 15 -10 21 0 19 -18 -3 -23 -16 -4 -16 -5 1 -6
12 -1 17 -10 17 -32 0 -27 -2 -30 -15 -19 -12 10 -15 10 -15 -4 0 -9 7 -16 15
-16 18 0 19 -12 3 -28 -9 -9 -9 -12 0 -12 7 0 11 -14 10 -35 -1 -22 -6 -35
-15 -35 -7 0 -13 -5 -13 -11 0 -5 4 -8 9 -4 15 9 24 -16 11 -28 -10 -9 -11 -9
-5 2 6 10 4 12 -4 7 -9 -6 -9 -11 -1 -21 17 -21 20 -53 4 -59 -20 -8 -18 -26
4 -26 15 -1 16 -2 1 -13 -23 -17 -24 -106 -2 -114 15 -6 14 -7 -3 -14 -17 -7
-17 -8 -1 -8 22 -1 22 -20 -1 -38 -13 -10 -13 -13 -2 -11 16 3 20 -28 9 -74
-5 -19 -3 -28 8 -32 8 -4 11 -11 6 -18 -4 -7 -6 -23 -5 -35 2 -14 -3 -23 -15
-26 -16 -4 -17 -5 0 -6 21 -1 23 -21 2 -21 -8 0 -15 -7 -15 -17 0 -9 3 -13 7
-10 3 4 11 3 17 -2 6 -5 69 -36 141 -69 72 -33 166 -77 210 -97 44 -20 102
-46 128 -56 78 -31 208 -92 204 -96 -2 -2 -44 13 -93 32 -95 38 -94 38 -195
84 -37 17 -74 31 -83 31 -9 0 -16 4 -16 8 0 4 -17 14 -37 21 -21 7 -56 21 -78
31 -79 36 -130 58 -151 64 -22 7 -25 0 -25 -56 0 -20 -5 -28 -17 -29 -14 0
-13 -2 3 -8 l20 -8 -20 -5 c-13 -4 -15 -6 -4 -7 11 -1 16 -13 17 -43 1 -23 4
-49 7 -58 5 -17 111 -70 140 -70 10 0 37 -11 61 -25 24 -14 54 -26 68 -27 13
-1 23 -5 21 -9 -3 -3 38 -18 90 -34 52 -15 100 -34 106 -41 13 -16 39 -19 39
-5 0 12 34 -5 80 -41 19 -14 57 -34 85 -43 82 -28 248 -105 242 -112 -3 -2
-94 32 -203 75 -110 44 -260 103 -334 131 -74 29 -198 79 -276 112 -78 32
-144 59 -148 59 -11 0 -7 -1488 4 -1495 6 -4 63 -7 128 -8 160 -2 172 4 496
215 60 39 133 97 165 131 31 33 68 73 83 88 32 35 38 49 27 71 -7 13 -5 15 10
11 10 -3 22 0 25 6 5 7 14 8 24 3 9 -5 36 -10 58 -11 31 -2 43 2 48 15 4 9 9
14 13 11 3 -4 12 -2 20 4 10 9 13 8 13 -1 0 -6 -9 -14 -19 -17 -11 -3 -24 -18
-30 -34 -10 -28 -9 -29 17 -23 15 3 34 15 44 25 20 23 28 24 28 3 0 -12 6 -15
24 -10 19 5 29 0 45 -23 14 -19 29 -29 46 -29 14 0 35 -8 47 -18 15 -14 22
-16 25 -6 3 6 9 12 15 12 6 0 8 -6 5 -14 -3 -8 -1 -17 6 -19 7 -2 9 -8 5 -12
-4 -4 -14 -2 -23 5 -13 10 -15 9 -15 -10 0 -15 24 -45 70 -90 69 -65 100 -81
100 -52 0 9 -6 12 -16 8 -11 -4 -15 -2 -11 8 3 8 -7 23 -24 37 -16 12 -29 27
-29 32 0 7 5 6 12 -1 7 -7 21 -12 31 -12 11 0 44 -25 74 -56 53 -54 117 -104
134 -104 4 0 10 8 12 18 4 14 5 15 6 1 1 -17 41 -35 41 -19 0 5 -8 11 -17 13
-15 4 -14 5 3 6 11 0 26 -5 33 -11 11 -11 13 -10 7 5 -3 10 -6 23 -6 28 0 6
-5 7 -10 4 -5 -3 -10 -2 -10 4 0 5 4 13 10 16 5 3 10 1 10 -4 0 -6 7 -11 16
-11 9 0 18 -9 21 -20 6 -24 62 -60 92 -60 22 0 70 -26 83 -44 4 -6 10 -7 14
-3 4 4 -1 14 -12 22 -12 9 -14 14 -6 15 8 0 12 6 10 12 -6 18 19 41 34 32 10
-6 11 -4 1 7 -16 16 -17 33 -2 24 6 -4 5 2 -3 14 -13 22 -28 28 -28 12 0 -5 6
-11 12 -13 7 -3 3 -7 -9 -10 -15 -4 -31 2 -48 18 -15 14 -32 21 -41 17 -12 -4
-15 0 -12 18 2 17 -4 27 -26 38 -22 12 -30 13 -33 4 -3 -7 -11 -13 -19 -13 -8
0 -14 6 -14 13 -1 7 -6 5 -14 -5 -14 -19 -28 -24 -24 -9 3 10 -67 61 -84 61
-6 0 -8 9 -5 20 3 13 -5 30 -24 51 -16 17 -29 35 -29 40 0 5 -7 9 -15 9 -18 0
-18 -1 -5 -34 6 -16 6 -27 0 -31 -16 -10 -11 -22 13 -30 17 -6 19 -8 6 -12
-14 -3 -15 -11 -9 -40 11 -47 17 -52 73 -55 26 -2 47 -7 47 -12 0 -5 7 -2 17
5 14 12 16 12 11 -1 -2 -8 -19 -18 -36 -22 -18 -5 -32 -15 -32 -23 0 -8 -3
-15 -7 -15 -15 1 -78 39 -65 40 16 0 16 20 -1 20 -7 0 -18 9 -25 20 -7 12 -17
18 -22 15 -6 -3 -7 1 -4 9 4 11 0 16 -10 16 -9 0 -20 10 -25 23 -5 13 -16 29
-25 36 -10 8 -13 18 -8 25 5 6 9 21 10 33 0 17 -6 23 -36 28 -20 3 -58 3 -84
0 -50 -6 -83 5 -105 34 -20 26 -15 33 12 15 14 -9 25 -15 26 -13 1 2 3 26 5
53 5 54 8 61 22 52 6 -3 7 -20 2 -41 -10 -46 5 -55 106 -61 46 -2 84 -10 100
-21 l25 -16 -7 29 c-10 41 -11 43 -35 37 -18 -5 -20 -2 -17 23 2 16 8 27 13
24 6 -3 9 -8 8 -11 -1 -4 7 -9 17 -12 21 -5 29 16 10 28 -5 3 -6 13 -3 23 6
15 5 15 -10 4 -9 -8 -21 -11 -27 -7 -15 9 -12 35 5 41 8 4 15 13 15 21 0 8 -4
12 -9 9 -5 -3 -14 8 -20 24 -5 17 -15 30 -20 30 -6 0 -11 7 -11 15 0 13 4 13
26 -2 l27 -17 -17 32 c-9 17 -20 31 -24 29 -12 -4 -15 7 -8 30 4 12 23 32 42
43 19 12 32 25 29 29 -2 5 7 18 20 29 14 12 25 31 25 42 0 11 7 23 15 26 10 4
13 13 10 25 -4 11 -2 19 3 19 17 0 7 89 -12 107 -18 17 -18 17 -14 -3 6 -25
-17 -62 -25 -41 -3 8 -1 20 4 28 13 22 12 24 -28 39 -33 11 -35 14 -18 21 28
11 37 11 30 -1 -4 -7 2 -9 19 -4 15 3 32 2 39 -3 8 -7 18 -4 29 8 16 17 16 19
-9 38 -24 20 -50 20 -38 0 11 -16 -7 -9 -21 9 -21 27 -17 32 23 32 53 0 37 7
-42 20 -108 17 -155 19 -155 4 0 -7 -5 -16 -10 -19 -7 -4 -9 2 -4 19 5 20 2
26 -10 26 -9 0 -16 7 -16 16 0 11 6 14 23 9 24 -8 24 -8 51 -6 20 1 20 1 0 17
-10 8 -13 13 -6 9 6 -3 12 -1 12 5 0 6 -7 13 -15 16 -8 4 -13 9 -11 13 2 3 -6
6 -17 7 -12 0 -31 4 -41 9 -14 6 -17 5 -12 -3 14 -22 -8 -12 -31 15 -13 14
-26 23 -30 19 -5 -4 0 -12 9 -17 16 -9 14 -49 -2 -49 -5 0 -14 -16 -20 -35 -6
-19 -16 -38 -22 -41 -14 -9 -3 83 13 102 7 8 9 28 6 49 -3 19 -2 37 3 40 4 3
6 14 3 26 -5 17 -11 20 -34 15 -21 -4 -29 -2 -29 8 0 8 6 17 13 19 9 4 8 8 -3
16 -13 9 -13 12 -1 20 10 6 11 17 6 37 -5 16 -9 38 -9 49 -1 11 -5 26 -9 33
-5 8 -2 14 10 18 53 17 67 25 53 34 -7 4 -20 6 -28 3 -11 -5 -13 -1 -7 16 4
14 2 23 -9 27 -9 3 -16 12 -16 19 0 7 -10 11 -25 10 -14 -2 -23 1 -19 6 3 5
-2 9 -10 9 -19 0 -19 -2 -3 46 7 22 13 45 13 52 2 36 5 42 20 42 11 0 15 6 11
20 -3 11 -1 18 4 14 5 -3 9 -14 9 -25 0 -13 6 -20 18 -18 29 4 53 -12 47 -31
-6 -19 14 -29 69 -36 17 -2 33 -10 38 -17 10 -16 10 -9 -1 31 -7 21 -6 32 1
32 5 0 8 6 5 13 -3 7 1 21 9 32 8 10 14 22 14 27 0 4 -89 8 -198 8 l-198 0 4
-62 c2 -35 8 -70 13 -79 4 -9 5 -19 2 -23 -11 -11 -13 -39 -3 -51 5 -6 9 -80
9 -165 1 -85 2 -185 4 -223 1 -37 -2 -69 -8 -71 -5 -3 -2 -5 9 -5 15 -1 17 -6
11 -28 -3 -15 -12 -31 -18 -35 -8 -5 -8 -14 1 -33 9 -19 9 -32 2 -46 -14 -25
-23 -25 -15 1 4 11 2 20 -4 20 -6 0 -11 -19 -11 -42 0 -36 2 -39 13 -25 11 16
13 16 24 -3 11 -16 10 -22 -8 -39 -12 -11 -19 -25 -16 -33 4 -9 6 -8 6 3 1 13
11 17 42 17 39 1 41 -1 36 -24 -3 -16 1 -28 9 -31 8 -3 14 -10 14 -15 0 -6 -7
-8 -15 -4 -17 6 -19 -2 -5 -24 10 -17 -5 -40 -23 -36 -7 1 -9 1 -4 -1 4 -3 7
-12 7 -21 0 -15 2 -15 11 -2 9 13 10 13 6 0 -2 -8 -13 -14 -24 -12 -12 2 -32
-12 -55 -37 -32 -36 -34 -41 -19 -54 24 -21 45 -32 38 -20 -4 6 2 18 13 28 18
16 18 16 13 -6 -5 -17 -3 -20 8 -14 12 8 12 6 0 -8 -11 -14 -11 -17 0 -17 10
-1 8 -5 -5 -15 -10 -7 -15 -18 -12 -24 4 -5 2 -12 -4 -16 -5 -3 -10 1 -10 9 0
22 -27 20 -39 -1 -7 -14 -13 -15 -21 -7 -13 13 -4 54 11 54 6 0 7 -4 4 -10 -3
-5 0 -10 8 -10 7 0 14 7 14 14 0 8 -3 15 -6 14 -20 -2 -54 4 -44 8 14 6 6 34
-10 34 -6 0 -8 -3 -4 -6 3 -3 1 -17 -4 -31 -8 -21 -7 -24 5 -20 10 4 13 1 9
-8 -3 -8 -9 -13 -13 -10 -5 3 -15 -4 -23 -15 -9 -13 -20 -18 -31 -14 -24 9
-14 28 20 35 32 7 31 8 -5 15 -16 3 -28 -1 -34 -11 -4 -8 -12 -13 -18 -10 -5
3 -6 -1 -3 -10 5 -11 2 -14 -10 -9 -9 3 -16 12 -16 19 0 8 -4 16 -9 19 -12 8
-7 -22 6 -35 6 -6 19 -12 29 -13 20 -3 53 -50 43 -61 -12 -12 -37 7 -32 24 3
12 -2 20 -16 24 -12 3 -19 1 -16 -3 3 -5 1 -11 -5 -15 -5 -3 -10 0 -10 7 0 11
-2 11 -9 0 -6 -10 -10 -10 -20 1 -9 12 -8 16 3 20 9 4 12 15 9 31 -4 20 -9 24
-18 16 -8 -7 -17 -4 -30 10 -17 19 -17 20 0 20 11 0 15 5 11 16 -3 8 -2 12 4
9 6 -3 10 -1 10 4 0 6 7 11 15 11 17 0 20 17 4 22 -7 2 -4 10 7 18 16 14 17
13 11 -4 -6 -16 -5 -17 8 -6 12 10 15 10 15 -3 0 -8 -7 -17 -15 -21 -24 -9
-17 -24 11 -22 22 1 25 5 22 28 -4 23 -2 25 14 17 10 -5 18 -8 19 -7 0 2 2 12
4 23 4 20 39 55 56 55 5 0 9 -7 9 -16 0 -9 5 -12 13 -8 8 5 8 3 -2 -9 -7 -9
-17 -14 -22 -11 -13 8 -11 -10 4 -25 10 -11 9 -13 -3 -9 -18 5 -54 -28 -40
-37 6 -4 10 -11 10 -16 0 -6 -4 -7 -10 -4 -6 3 -7 -1 -4 -10 5 -12 9 -13 20
-4 8 6 14 17 14 25 0 18 51 64 63 57 6 -4 8 3 5 15 -4 13 -1 22 5 22 6 0 1 9
-11 20 -26 24 -24 9 -27 225 -2 94 -6 242 -9 330 -3 88 -6 240 -6 337 l-1 178
-335 0 -334 0 0 50 0 50 330 0 330 0 0 25 c0 22 -4 24 -58 27 -54 3 -56 4 -29
15 l27 13 0 125 c0 124 0 126 -25 137 -38 17 -30 29 16 22 40 -7 41 -6 37 22
l-3 29 -241 2 c-223 2 -293 -2 -280 -15 3 -2 -4 -18 -15 -33 -24 -34 -23 -34
27 -13 41 17 177 16 193 -2 5 -5 11 -30 14 -56 6 -59 -15 -67 -33 -13 -14 42
-35 55 -89 55 -62 0 -101 -48 -101 -126 0 -90 59 -143 144 -129 22 4 47 12 54
18 15 12 26 3 19 -16 -7 -19 -90 -47 -138 -47 -55 0 -105 25 -134 67 -20 30
-25 50 -26 103 l0 65 -17 -34 c-9 -19 -32 -51 -49 -70 -18 -20 -33 -39 -33
-43 0 -5 -7 -8 -15 -8 -9 0 -15 -6 -14 -12 3 -25 -1 -38 -12 -38 -8 0 -8 5 1
15 7 8 10 15 8 15 -5 0 -65 -44 -96 -71 -7 -6 -16 -8 -20 -4 -4 3 2 11 13 18
26 14 134 123 165 166 14 19 31 40 38 47 6 7 12 20 12 30 0 9 7 22 17 29 17
13 9 40 -9 29 -7 -4 -8 -2 -4 5 4 6 11 9 15 6 5 -2 17 5 27 16 16 17 16 22 4
29 -22 14 -30 12 -23 -6 4 -11 2 -15 -6 -13 -7 3 -11 8 -9 13 2 4 -8 14 -22
21 -23 13 -23 14 -5 16 11 0 35 0 53 -1 17 -1 32 3 32 9 0 11 -13 15 -37 12
-7 -1 -13 2 -13 8 0 5 -3 18 -6 28 -5 16 -4 16 10 -1 9 -11 16 -15 16 -9 0 6
11 9 25 8 14 -2 27 1 30 5 3 5 12 7 20 3 8 -3 15 0 15 6 0 6 -5 11 -11 11 -8
0 -8 4 -1 13 6 7 9 23 5 35 -4 16 -1 22 12 22 12 0 15 -5 10 -22 -8 -25 -8
-24 -6 -55 1 -13 8 -22 19 -22 9 -1 41 -1 70 -2 41 -1 52 -4 52 -18 0 -14 -2
-14 -10 -1 -6 10 -10 11 -10 2 0 -6 -3 -11 -7 -11 -32 5 -113 -3 -113 -11 0
-6 87 -10 243 -10 212 1 240 2 223 15 -10 8 -23 12 -27 9 -5 -3 -9 1 -9 8 0 8
-3 9 -8 3 -12 -17 -52 -18 -52 -1 0 12 9 15 40 13 35 -3 68 11 56 24 -6 6 -18
57 -21 89 -1 14 -4 32 -8 40 -14 36 -47 131 -47 135 0 3 10 3 23 1 12 -3 24
-5 27 -5 3 -1 0 -5 -7 -9 -21 -13 -1 -65 28 -73 16 -5 18 -7 7 -8 -19 -1 -24
-16 -8 -26 5 -3 7 -12 3 -20 -6 -17 23 -20 47 -5 12 8 12 10 -3 16 -23 8 -22
24 2 24 13 0 21 -8 23 -22 2 -15 13 -25 35 -32 18 -5 35 -17 38 -27 8 -23 25
-25 25 -4 0 8 -5 15 -11 15 -6 0 -8 9 -4 20 4 12 1 27 -5 35 -10 12 -10 15 0
15 7 0 4 7 -7 18 -10 9 -13 13 -6 8 21 -14 26 0 8 18 -10 10 -14 24 -10 34 4
11 -4 25 -27 44 -22 18 -28 28 -17 28 9 0 24 10 35 22 10 12 13 18 6 14 -7 -4
-15 0 -19 11 -4 10 -16 26 -28 35 -17 15 -18 19 -5 28 12 8 12 10 -5 10 -12 0
-26 -5 -33 -12 -9 -9 -12 -9 -12 0 0 7 -23 11 -69 11 l-69 0 8 -35 c4 -18 17
-52 29 -74 16 -31 18 -40 7 -40 -8 0 -20 17 -27 38 -6 20 -15 42 -19 47 -4 6
-10 22 -14 38 l-6 27 -121 0 c-115 0 -120 -1 -128 -22 -5 -13 -7 -26 -4 -30 2
-5 -6 -8 -19 -8 -15 0 -19 -3 -11 -8 10 -7 10 -14 0 -35 -6 -15 -16 -27 -21
-27 -8 0 -6 19 6 105 3 19 -3 20 -239 23 l-243 2 0 -215z m847 -359 c4 -3 -1
-6 -10 -6 -38 0 -47 -27 -47 -140 0 -121 4 -140 30 -140 11 0 22 -4 25 -10 4
-6 -25 -10 -79 -10 -51 0 -86 4 -86 10 0 6 9 10 20 10 27 0 32 28 27 154 -3
104 -10 125 -39 126 -5 0 -8 3 -8 8 0 8 159 7 167 -2z"/>
<path d="M1239 4773 c-18 -32 -8 -87 24 -135 10 -15 16 -31 13 -36 -3 -6 2 -9
11 -8 11 0 21 -11 27 -29 6 -16 20 -38 31 -47 17 -15 18 -19 5 -28 -13 -8 -13
-10 3 -10 11 0 17 -8 17 -22 0 -25 22 -93 33 -104 4 -4 7 -14 7 -22 0 -12 -3
-12 -15 -2 -24 20 -47 71 -56 124 -7 44 -39 99 -39 69 0 -6 6 -13 12 -15 9 -3
8 -10 -5 -23 -13 -12 -16 -26 -12 -45 4 -19 2 -29 -9 -33 -9 -4 -12 -14 -9
-27 4 -15 11 -19 25 -14 18 5 20 2 16 -30 l-4 -35 280 -1 c154 0 282 -2 284
-5 3 -3 -95 -5 -217 -5 -218 0 -222 0 -216 -20 7 -22 -2 -25 -25 -10 -13 9
-13 10 0 11 8 1 -7 5 -35 9 -27 4 -51 6 -53 4 -2 -1 13 -19 32 -39 41 -42 45
-50 16 -35 -16 9 -19 8 -13 -7 5 -12 2 -15 -10 -10 -11 4 -14 2 -11 -8 4 -11
12 -12 32 -4 36 14 70 3 75 -24 3 -15 5 -12 6 11 0 18 -3 31 -8 28 -10 -6 -47
31 -39 40 6 5 16 5 96 1 35 -1 43 -16 13 -24 -17 -4 -19 -14 -19 -68 0 -47 4
-62 13 -59 19 8 45 -24 45 -56 0 -16 5 -32 10 -35 6 -4 10 -12 9 -18 -3 -16
22 -67 33 -67 4 0 8 -9 8 -20 0 -20 7 -20 835 -20 l835 0 0 -50 0 -50 -830 0
c-756 0 -830 -1 -830 -16 0 -10 6 -14 14 -11 20 8 28 -4 15 -20 -8 -9 -8 -17
0 -26 6 -8 8 -16 5 -19 -3 -3 6 -18 20 -33 24 -25 27 -53 5 -40 -5 4 -9 -1 -9
-10 0 -9 7 -15 17 -13 12 2 21 -10 34 -44 24 -66 32 -115 19 -123 -6 -4 -10 4
-10 19 0 14 -4 26 -9 26 -5 0 -9 -40 -8 -90 1 -49 5 -90 9 -90 5 0 8 16 8 37
0 20 3 33 6 30 6 -6 6 -53 -1 -162 -9 -137 -15 -322 -11 -341 4 -14 34 -33
103 -64 54 -24 122 -56 151 -72 48 -26 52 -26 52 -8 0 10 4 21 9 25 6 3 6 -7
1 -26 -12 -41 -14 -43 -37 -30 -73 42 -267 130 -274 125 -13 -8 -2 -108 17
-162 9 -23 25 -49 37 -57 l21 -15 -22 0 c-12 0 -22 -4 -22 -9 0 -5 9 -7 19 -4
22 6 26 -5 36 -92 4 -33 13 -74 22 -92 8 -17 13 -42 11 -56 -1 -14 8 -38 25
-60 15 -20 27 -40 27 -46 0 -5 12 -19 27 -30 14 -12 24 -24 20 -27 -3 -3 11
-20 31 -38 32 -29 43 -33 80 -30 33 3 44 0 49 -13 6 -15 7 -15 14 3 7 17 8 17
8 -3 1 -27 -46 -44 -59 -22 -7 10 -12 10 -23 1 -7 -7 -18 -8 -22 -4 -5 4 -5 1
-1 -6 4 -6 12 -12 17 -12 14 0 70 -41 92 -68 14 -17 29 -22 62 -22 25 0 46 -5
49 -12 4 -7 4 -3 2 8 -3 19 -1 21 23 14 38 -11 45 -13 54 -10 19 6 33 5 40 -5
6 -7 10 -7 13 1 3 7 20 8 49 4 52 -8 77 8 44 28 -11 7 -17 17 -13 23 5 8 9 8
14 0 6 -11 36 -18 79 -20 7 -1 11 -7 7 -16 -3 -8 -1 -15 4 -15 5 0 7 -7 4 -15
-8 -21 -42 -19 -47 3 -4 16 -5 16 -6 0 -1 -21 -17 -24 -24 -5 -3 9 -9 8 -21
-4 -17 -16 -81 -14 -70 2 3 5 1 9 -5 9 -5 0 -11 -6 -14 -12 -3 -10 -7 -10 -20
1 -10 7 -17 9 -17 4 0 -5 -16 -9 -35 -10 -23 0 -33 3 -28 11 5 8 3 8 -8 -1
-17 -13 -69 -12 -69 2 0 6 -4 4 -9 -3 -5 -8 -19 -14 -32 -13 -13 0 -43 0 -66
1 -27 0 -43 5 -43 13 0 6 -5 4 -11 -6 -7 -12 -7 -22 -1 -30 5 -7 6 -21 1 -32
-12 -30 -10 -38 6 -32 8 4 17 2 20 -3 4 -6 14 -6 27 1 18 9 24 8 35 -7 7 -10
13 -12 13 -5 0 7 5 9 10 6 20 -12 10 -35 -15 -35 -17 0 -25 6 -26 18 0 13 -2
12 -9 -5 -6 -15 -15 -20 -29 -16 -12 3 -18 9 -15 14 3 5 0 9 -5 9 -6 0 -11 -6
-12 -12 0 -7 -4 -3 -9 10 -9 21 -30 31 -30 13 0 -5 -9 -7 -20 -4 -16 4 -20 0
-20 -20 0 -13 7 -30 15 -37 8 -7 12 -16 9 -21 -3 -5 6 -23 20 -40 l26 -31 0
26 c0 13 -4 28 -10 31 -5 3 -10 12 -9 18 0 9 2 9 6 0 2 -7 10 -13 18 -13 18 0
41 -30 29 -38 -11 -8 -38 -50 -46 -73 -5 -13 -2 -16 15 -11 12 3 16 7 9 10
-25 8 -11 17 28 17 22 1 40 -3 40 -7 0 -5 9 -4 19 2 26 14 31 13 31 -6 0 -14
1 -14 16 0 19 20 104 22 104 4 0 -9 3 -9 9 1 5 8 19 12 35 9 23 -5 26 -2 26
22 0 27 21 46 35 32 4 -4 12 -7 18 -7 22 0 12 -28 -10 -30 -24 -2 -45 -15 -25
-15 7 0 12 -11 12 -25 0 -21 -5 -25 -27 -25 l-28 1 25 15 c14 8 18 13 9 10 -9
-2 -21 0 -27 6 -7 7 -10 4 -9 -8 2 -15 -6 -20 -37 -22 -24 -2 -42 2 -47 10 -7
10 -9 10 -10 -2 0 -10 -3 -8 -9 5 l-9 20 -1 -20 -1 -20 -16 20 c-12 15 -14 16
-10 3 5 -13 0 -17 -21 -15 -15 1 -30 7 -34 12 -5 6 -8 5 -8 -3 0 -8 -10 -13
-27 -12 -49 3 -64 0 -57 -11 3 -6 17 -8 30 -5 14 4 24 2 24 -4 0 -7 8 -9 20
-5 11 4 20 2 20 -4 0 -6 12 -5 33 3 19 8 69 12 125 12 52 -1 96 2 99 7 2 4 11
3 19 -4 16 -13 76 -21 69 -9 -2 4 19 5 48 2 29 -3 53 -8 55 -13 2 -4 10 -5 18
-2 9 3 14 -2 14 -14 0 -30 -58 -30 -70 0 -6 16 -9 18 -9 5 -1 -26 -22 -33 -38
-13 -11 16 -13 17 -13 3 0 -22 -40 -19 -41 2 0 13 -1 13 -7 0 -10 -21 -41 -24
-48 -5 -3 8 -11 15 -16 15 -6 0 -5 -6 2 -15 10 -12 10 -15 0 -15 -6 0 -14 9
-17 20 -3 11 -9 20 -14 20 -5 0 -6 -7 -3 -15 4 -8 1 -15 -5 -15 -6 0 -11 6
-12 13 0 6 -4 3 -9 -8 -8 -19 -8 -19 -19 5 -10 23 -11 23 -7 3 5 -30 -14 -30
-22 -1 -5 20 -6 20 -12 4 -9 -27 -61 -31 -67 -5 -6 23 -25 26 -21 3 2 -10 -3
-19 -11 -22 -9 -3 -11 0 -6 8 6 9 3 9 -14 1 -18 -10 -20 -9 -14 6 5 15 3 15
-10 -2 l-16 -20 -1 20 c-1 19 -1 19 -15 1 -8 -11 -21 -16 -30 -13 -8 4 -15 2
-15 -3 0 -5 71 -9 163 -10 273 -2 282 -2 279 -22 -2 -12 4 -18 16 -18 11 0 27
-11 37 -24 10 -13 24 -22 32 -19 20 8 16 23 -6 23 -11 0 -23 5 -26 11 -4 6
-15 13 -26 17 -13 5 -16 11 -9 21 7 12 12 12 33 -2 22 -14 26 -14 31 -2 6 17
71 21 81 5 3 -5 12 -10 18 -10 7 0 6 4 -3 10 -11 7 -2 10 33 10 26 0 47 -2 47
-5 0 -7 -52 -29 -62 -27 -5 1 -8 -3 -8 -8 0 -6 4 -10 9 -10 14 0 21 -42 10
-62 -8 -15 -5 -20 18 -29 15 -6 38 -9 50 -6 15 3 23 -2 26 -15 3 -10 1 -18 -4
-18 -5 0 -9 5 -9 10 0 6 -8 10 -17 9 -11 0 -13 -3 -5 -6 23 -9 12 -20 -18 -15
-17 2 -30 10 -30 18 0 8 -5 14 -11 14 -6 0 -9 -7 -5 -15 4 -11 -1 -15 -19 -15
-16 0 -25 6 -25 15 0 8 -4 15 -10 15 -5 0 -10 -7 -10 -15 0 -20 -59 -20 -66 0
-4 8 -10 15 -15 15 -4 0 -6 -6 -3 -13 3 -10 -6 -14 -36 -15 -22 -1 -40 3 -40
8 0 6 -8 10 -17 10 -15 0 -16 -2 -3 -10 11 -7 3 -10 -30 -11 -59 -2 -74 1 -82
14 -6 9 -8 9 -8 0 0 -19 -21 -16 -36 5 -12 15 -13 15 -14 1 0 -19 -70 -25 -82
-6 -6 9 -8 9 -8 0 0 -7 -11 -13 -24 -13 -14 0 -28 -5 -32 -11 -4 -8 -9 -8 -13
-1 -10 17 -63 19 -69 3 -3 -8 0 -11 7 -7 6 4 21 4 32 1 16 -5 18 -9 9 -15 -7
-5 -20 -5 -29 -2 -13 5 -14 4 -1 -10 12 -13 17 -13 28 -1 19 19 32 16 32 -7 0
-11 -5 -20 -11 -20 -5 0 -7 5 -4 10 9 14 -8 13 -23 -2 -8 -8 -15 -8 -27 2 -40
33 -65 -85 -41 -190 9 -36 16 -77 16 -91 0 -15 10 -37 23 -50 13 -13 29 -44
36 -69 20 -69 125 -336 177 -448 13 -29 24 -55 24 -58 0 -4 -57 -1 -87 5 -2 1
-3 11 -3 23 0 20 -1 21 -13 4 -11 -16 -14 -11 -26 36 -7 29 -20 75 -30 101
-14 42 -14 49 -1 57 11 7 12 15 5 36 -6 15 -16 29 -23 32 -7 2 -10 -2 -6 -12
3 -9 1 -16 -5 -16 -6 0 -11 -7 -11 -16 0 -16 -26 -43 -42 -44 -10 0 3 32 20
49 12 12 12 15 -1 23 -9 4 -18 22 -22 38 -4 17 -11 30 -17 30 -6 0 -8 9 -5 20
3 11 1 18 -4 14 -10 -6 -10 -5 -14 41 -2 17 -1 24 2 17 3 -6 9 -10 14 -6 20
12 7 31 -36 48 -25 11 -50 25 -56 32 -13 16 -27 10 -40 -20 -8 -17 -8 -14 -4
14 5 33 5 33 -11 15 -13 -17 -15 -17 -10 -2 3 9 1 17 -4 17 -6 0 -10 14 -10
30 0 17 -4 30 -10 30 -5 0 -10 5 -10 10 0 6 7 10 15 10 8 0 15 -7 15 -15 0 -8
4 -15 9 -15 12 0 20 150 10 170 -5 9 -9 -7 -9 -42 l0 -56 -30 15 c-17 8 -39
33 -51 56 -26 52 -25 50 -39 42 -8 -5 -6 -14 5 -31 12 -18 13 -29 5 -42 -9
-15 -10 -15 -8 3 2 14 -4 21 -19 23 -13 2 -23 -2 -23 -8 0 -6 5 -8 10 -5 6 4
10 -7 10 -25 0 -22 8 -38 30 -57 16 -13 30 -31 30 -38 0 -7 5 -15 11 -17 7 -2
7 -12 -1 -32 -7 -20 -8 -32 0 -40 5 -5 10 -13 10 -17 0 -9 -41 1 -56 13 -17
13 -24 -15 -9 -35 6 -9 15 -14 18 -10 4 3 15 -5 26 -18 15 -19 22 -21 32 -12
10 10 9 16 -2 29 -9 12 -10 15 -1 10 6 -4 12 -3 12 3 0 6 7 8 15 5 8 -4 13 -9
10 -14 -2 -4 1 -21 8 -39 10 -28 9 -33 -15 -57 l-26 -26 -11 35 c-7 20 -20 37
-31 40 -23 6 -24 3 -11 -22 6 -10 6 -23 0 -32 -7 -11 -9 -9 -9 9 0 12 -4 22
-9 22 -13 0 -36 70 -32 98 1 14 -3 22 -12 22 -18 0 -30 -27 -17 -35 14 -9 12
-45 -2 -42 -7 1 -14 -11 -17 -27 -3 -16 -12 -31 -20 -34 -8 -3 -11 0 -7 6 3 6
-1 18 -10 27 -19 18 -23 97 -6 103 13 4 -8 62 -23 62 -5 0 -4 4 3 9 10 6 7 12
-13 25 -23 15 -26 15 -32 0 -3 -9 0 -20 8 -25 8 -4 15 -16 16 -26 1 -10 4 -31
7 -48 5 -30 -12 -101 -21 -91 -3 3 -9 36 -13 74 -4 40 -15 80 -25 93 -17 24
-17 24 -12 -20 3 -24 11 -47 17 -51 9 -6 9 -9 -1 -13 -9 -4 -10 -8 -4 -14 9
-7 10 -20 6 -64 -2 -28 -36 -29 -48 -3 -6 13 -7 24 -2 24 4 0 6 7 2 15 -3 9 2
22 13 29 15 12 16 16 5 30 -7 9 -11 29 -9 45 3 22 0 31 -13 34 -25 7 -32 -4
-11 -19 9 -7 14 -16 10 -20 -4 -4 -14 -2 -21 5 -21 16 -45 -14 -30 -37 5 -9 7
-26 3 -37 -7 -19 -7 -19 -14 3 -4 13 -10 21 -13 19 -7 -8 9 -77 17 -72 4 3 13
-9 19 -25 5 -17 7 -30 4 -30 -3 0 0 -6 6 -14 9 -11 9 -15 0 -18 -20 -7 -2 -38
21 -38 11 0 20 -5 20 -11 0 -6 -9 -8 -20 -4 -17 5 -20 2 -20 -24 0 -20 6 -31
18 -34 15 -4 15 -5 0 -6 -12 -1 -15 -8 -12 -29 3 -16 0 -41 -5 -55 -8 -21 -7
-28 7 -36 22 -13 7 -14 -17 -2 -15 8 -17 5 -17 -19 0 -21 3 -27 15 -22 14 5
14 3 3 -10 -7 -9 -12 -25 -10 -35 2 -13 -4 -19 -25 -21 -27 -3 -28 -2 -22 35
4 21 13 55 21 76 16 43 18 87 4 87 -5 0 -13 -19 -16 -41 l-7 -41 -41 5 c-23 3
-141 21 -262 41 -261 41 -406 59 -644 81 -216 19 -242 23 -234 36 3 6 29 7 62
4 112 -12 477 -32 489 -28 8 3 19 1 26 -4 6 -6 39 -11 71 -11 32 -1 95 -7 140
-13 68 -9 124 -14 236 -20 42 -2 130 -23 130 -30 0 -5 7 -9 15 -9 8 0 15 9 15
20 0 11 6 20 14 20 20 0 26 66 8 92 -10 13 -17 16 -22 9 -4 -7 -7 7 -8 30 -1
23 -7 48 -13 55 -14 17 -34 107 -53 233 -13 83 -24 118 -58 184 -47 91 -108
164 -140 169 -12 2 -24 9 -26 17 -3 10 0 12 14 7 15 -6 16 -5 7 5 -18 18 -202
28 -228 12 -19 -11 -122 -52 -185 -73 -90 -30 -200 -115 -225 -175 -8 -16 -37
-59 -66 -95 -126 -156 -170 -242 -254 -498 l-60 -182 -52 0 -53 0 0 -170 0
-170 1765 0 1765 0 0 616 c0 377 -4 613 -9 609 -5 -3 -12 -1 -15 4 -3 5 1 11
9 15 13 5 15 44 15 266 0 277 -4 298 -47 284 -15 -5 -15 -4 -3 5 8 6 23 11 32
11 16 0 17 31 18 428 0 361 -2 431 -15 448 -11 16 -12 29 -5 55 14 47 13 52
-17 73 -23 17 -26 17 -20 3 3 -9 3 -17 -1 -17 -12 0 -36 65 -56 148 -19 80
-13 102 28 102 15 0 17 3 8 8 -7 5 -10 16 -6 25 3 10 1 17 -5 17 -6 0 -11 6
-11 14 0 8 -5 18 -11 22 -7 4 -10 -4 -9 -22 3 -42 1 -54 -9 -54 -5 0 -12 16
-15 35 -8 39 -26 57 -26 25 0 -17 -4 -20 -17 -15 -10 4 -24 8 -30 8 -16 0 -17
27 -2 27 6 0 8 9 4 20 -4 11 -2 20 4 20 13 0 7 48 -12 84 l-15 28 -12 -22 c-7
-13 -8 -20 -2 -16 6 3 13 2 17 -4 3 -5 -4 -14 -17 -19 -13 -5 -30 -16 -37 -25
-19 -22 -38 -20 -44 6 -5 17 -9 19 -21 9 -10 -8 -16 -9 -21 -1 -6 10 1 14 18
11 5 -1 11 8 14 19 3 11 9 20 13 20 18 0 40 33 35 50 -3 10 -1 21 5 25 5 3 10
17 10 31 0 28 6 30 26 9 19 -18 68 -20 61 -2 -2 6 -16 12 -30 12 -15 -1 -27 2
-27 6 0 4 -8 10 -17 12 -13 3 -11 5 7 7 l25 2 -27 7 -27 6 54 58 c31 31 62 57
70 57 22 0 18 21 -10 50 -24 25 -25 29 -11 54 l14 28 18 -21 c10 -11 26 -21
36 -21 12 0 18 -8 18 -21 0 -11 5 -17 10 -14 15 9 12 -21 -4 -34 -8 -7 -12
-25 -9 -46 3 -34 -10 -48 -20 -22 -3 6 -6 2 -6 -11 -1 -29 -26 -38 -57 -22
-27 15 -48 4 -21 -11 9 -6 17 -19 17 -29 0 -11 5 -20 10 -20 12 0 13 -62 2
-75 -5 -6 -13 -21 -19 -35 -9 -23 -8 -25 18 -27 27 -2 41 11 19 19 -5 2 -7 13
-4 25 5 17 10 21 22 14 20 -11 22 -52 3 -67 -9 -7 -11 -20 -6 -42 8 -38 22
-50 21 -19 -2 38 29 26 32 -12 2 -19 9 -43 17 -55 7 -12 16 -51 20 -87 3 -36
13 -78 21 -93 7 -15 15 -52 16 -81 4 -88 18 -51 18 46 0 66 -3 88 -12 87 -9
-2 -13 11 -14 38 0 22 -4 46 -8 53 -12 18 -25 127 -19 151 5 20 6 20 18 -3 12
-24 16 -44 16 -89 0 -15 4 -30 9 -33 6 -4 10 50 9 142 0 137 -2 145 -14 108
-11 -34 -13 -36 -15 -15 -1 14 -3 36 -4 49 -2 13 3 37 11 52 17 33 28 147 19
184 -5 21 -12 26 -26 22 -26 -7 -25 1 3 31 l22 24 3 539 3 539 -1138 0 -1139
0 -15 -27z m620 -589 c2 -52 -10 -57 -30 -11 -11 25 -21 33 -46 35 l-33 3 0
-131 0 -130 28 -12 c26 -12 26 -13 -21 -16 -26 -2 -67 -2 -90 0 -42 4 -42 4
-14 16 l27 12 0 130 0 131 -32 -3 c-26 -2 -36 -10 -47 -35 -8 -18 -19 -33 -24
-33 -7 0 -8 74 -1 90 1 3 65 4 141 2 l139 -3 3 -45z m179 34 l-28 -10 0 -134
c0 -126 1 -134 19 -134 11 0 23 -4 26 -10 4 -6 -25 -10 -80 -10 -55 0 -84 4
-80 10 3 6 12 10 19 10 19 0 25 29 24 136 0 112 -4 131 -29 139 -42 14 -15 20
68 16 72 -3 83 -5 61 -13z m312 -29 c0 -45 -12 -51 -28 -14 -10 23 -17 25 -72
25 l-60 0 0 -50 0 -50 39 0 c31 0 41 4 46 20 12 38 25 20 25 -35 0 -55 -13
-73 -25 -35 -5 16 -15 20 -46 20 l-40 0 3 -62 c3 -54 6 -63 23 -66 11 -2 24
-8 30 -13 5 -5 -28 -9 -84 -9 -59 0 -90 4 -86 10 3 6 15 10 26 10 18 0 19 8
19 134 l0 134 -25 6 c-56 14 -10 21 119 18 l136 -3 0 -40z m169 27 c-23 -11
-24 -16 -27 -139 l-3 -127 26 -10 c14 -5 25 -12 25 -15 0 -3 -39 -5 -86 -5
-54 0 -83 4 -79 10 3 6 15 10 26 10 18 0 19 8 19 135 l0 135 -25 6 c-47 12
-17 19 66 16 72 -3 79 -5 58 -16z m324 13 c36 -10 37 -11 37 -59 0 -57 -14
-64 -33 -17 -19 45 -41 60 -88 60 -98 0 -144 -138 -73 -222 32 -39 80 -48 139
-28 74 24 68 -6 -8 -38 -72 -30 -158 -14 -207 40 -22 24 -25 35 -25 105 0 76
1 80 35 115 19 19 48 40 65 44 42 13 113 13 158 0z m324 -130 c39 -84 73 -142
90 -156 l28 -23 -85 0 c-75 1 -83 2 -66 15 15 11 16 19 9 42 -9 26 -14 28 -66
31 -53 3 -57 2 -71 -27 -20 -37 -20 -41 -2 -41 8 0 18 -4 21 -10 4 -6 -16 -10
-52 -10 -56 0 -57 1 -37 18 12 9 33 42 47 72 13 30 38 84 55 120 16 36 33 75
37 88 4 13 12 21 18 19 6 -2 40 -64 74 -138z m-952 -1500 c17 -2 37 -9 45 -15
13 -11 64 -35 80 -38 3 -1 12 -6 20 -11 8 -5 44 -9 80 -10 46 0 64 -4 63 -13
-4 -18 24 -15 31 3 4 13 10 14 26 5 13 -7 20 -7 20 0 0 15 24 8 32 -10 5 -12
7 -12 7 3 1 9 6 17 12 17 6 0 9 -7 5 -15 -3 -9 0 -15 9 -15 8 0 12 6 9 13 -7
20 36 14 47 -5 8 -14 1 -17 -46 -20 -30 -1 -55 0 -55 4 0 4 -7 5 -16 1 -9 -3
-20 0 -25 8 -6 10 -9 10 -9 2 0 -8 -13 -13 -30 -13 -17 0 -30 5 -30 13 0 9 -2
9 -8 0 -5 -7 -31 -14 -59 -15 -39 -2 -57 2 -74 17 -17 16 -21 16 -17 4 5 -13
-2 -16 -33 -17 -25 -1 -39 3 -39 11 0 8 -4 7 -10 -3 -5 -8 -10 -12 -10 -8 0 4
-14 2 -31 -4 -26 -9 -33 -8 -41 6 -5 9 -14 16 -21 16 -7 0 -6 -4 3 -10 11 -7
4 -10 -27 -10 -24 0 -43 5 -43 11 0 5 4 7 10 4 5 -3 7 0 4 8 -4 12 10 13 83 9
48 -2 94 -9 101 -14 7 -6 15 -8 19 -4 3 3 0 6 -8 7 -9 0 -8 3 4 7 14 6 -1 17
-63 47 -44 21 -80 43 -80 47 0 5 8 5 18 -1 9 -5 31 -10 47 -12z m113 -906 c13
-20 21 -40 19 -46 -2 -8 -44 -12 -121 -12 -94 0 -120 3 -124 14 -4 11 -7 11
-12 -4 -6 -17 -7 -18 -13 -1 -5 13 -1 19 13 23 24 6 27 23 3 23 -14 0 -13 3 5
20 15 15 29 19 47 14 20 -5 24 -3 19 9 -5 13 5 17 58 19 45 2 66 -1 73 -11 6
-7 20 -29 33 -48z m40 -416 c8 -6 16 -7 20 -1 11 15 62 17 62 2 0 -10 2 -10 8
-1 11 17 117 22 117 6 0 -7 11 -20 24 -29 23 -16 23 -16 11 6 -10 18 -9 24 1
31 8 5 20 7 27 4 8 -3 17 -5 22 -5 5 0 11 -8 14 -17 3 -10 16 -29 28 -43 13
-14 23 -31 24 -37 1 -7 2 -20 3 -28 1 -19 31 -20 31 -1 0 8 -6 16 -12 19 -10
3 -10 7 0 20 11 13 11 21 -2 46 -21 40 -21 41 14 41 17 0 30 -4 30 -9 0 -5 6
-16 13 -23 6 -7 19 -33 27 -58 13 -37 20 -45 38 -43 18 2 27 -7 48 -55 34 -73
63 -147 76 -192 5 -19 16 -42 24 -51 8 -8 14 -33 14 -53 0 -121 78 -357 139
-420 17 -18 31 -36 31 -40 0 -15 -211 -1 -221 15 -6 10 -11 11 -16 3 -10 -14
-51 -24 -69 -17 -12 4 -12 8 -2 20 10 12 9 18 -7 29 -27 20 -37 17 -25 -7 21
-38 7 -45 -88 -47 -65 -2 -91 1 -94 10 -3 7 -36 105 -73 218 -104 315 -156
412 -304 571 -44 48 -77 89 -74 93 4 3 -1 6 -10 6 -9 0 -17 5 -17 11 0 6 -7 3
-16 -5 -22 -22 -33 -20 -44 10 -6 14 -10 27 -10 29 0 16 219 8 238 -8z"/>
<path d="M2800 810 c6 -11 15 -20 20 -20 6 0 10 -5 10 -11 0 -6 -8 -9 -18 -7
-10 3 -26 0 -35 -7 -15 -11 -16 -14 -2 -25 12 -10 15 -10 15 1 0 11 2 11 10
-1 5 -9 5 -19 -1 -26 -7 -8 0 -22 22 -44 28 -27 31 -35 21 -51 -7 -11 -9 -18
-5 -17 5 1 20 -5 35 -12 22 -10 25 -16 17 -27 -9 -10 -4 -16 24 -28 54 -22 75
-20 73 9 0 13 -4 22 -7 20 -10 -6 -19 23 -19 58 0 23 -4 29 -15 24 -8 -3 -15
-2 -15 2 0 4 -9 13 -20 20 -17 10 -20 10 -20 -4 0 -8 4 -13 9 -9 5 3 12 -4 16
-15 3 -11 11 -20 17 -20 6 0 9 -2 6 -5 -11 -11 -66 21 -94 54 l-28 34 62 -5
c34 -4 62 -3 62 1 0 15 -128 131 -145 131 -3 0 -1 -9 5 -20z"/>
<path d="M1145 4160 c3 -5 -2 -10 -12 -10 -15 0 -14 -2 5 -16 12 -8 20 -20 17
-25 -4 -5 0 -9 7 -9 24 0 -15 -20 -41 -20 -16 0 -21 -4 -18 -14 3 -8 -1 -22
-9 -33 -13 -17 -15 -17 -25 0 -5 9 -14 15 -20 12 -5 -4 -9 1 -9 10 0 11 -7 15
-22 13 -20 -3 -23 -10 -26 -60 l-3 -58 54 0 c48 0 57 3 72 26 9 14 14 32 11
40 -6 15 3 18 20 6 13 -8 26 -54 13 -47 -4 3 -12 -9 -17 -27 -8 -32 -10 -33
-66 -34 -34 -1 -63 -7 -69 -15 -7 -8 -8 -10 -3 -6 5 3 14 0 20 -9 10 -13 25
-14 89 -8 42 4 77 11 77 15 0 5 5 9 11 9 5 0 7 -4 4 -10 -3 -5 3 -11 14 -11
12 -1 27 -2 34 -3 6 -1 18 3 26 8 10 7 13 8 9 1 -5 -7 32 -11 108 -13 63 -1
114 0 114 3 0 10 -105 109 -114 107 -4 -2 -15 3 -23 10 -12 9 -16 9 -24 -3 -6
-10 -9 -11 -9 -1 0 7 -5 10 -12 6 -7 -5 -8 -3 -4 5 6 9 -1 12 -25 9 -24 -2
-33 -7 -30 -18 2 -8 4 -21 4 -29 0 -8 9 -16 19 -19 10 -2 18 -11 18 -18 0 -11
-16 -14 -65 -14 -51 0 -65 3 -65 15 0 8 9 15 20 15 17 0 20 7 20 45 0 40 -3
45 -22 45 -22 1 -22 1 -3 12 11 6 23 16 27 22 12 18 9 83 -4 93 -18 13 -81 16
-73 3z"/>
<path d="M1546 3496 c4 -11 0 -16 -14 -16 -29 0 -36 -17 -12 -30 21 -11 29
-60 9 -60 -6 0 -8 9 -4 21 6 16 4 20 -6 14 -8 -5 -11 -5 -7 -1 8 9 -35 56 -51
56 -5 0 -13 -5 -17 -12 -5 -8 -2 -9 9 -5 14 5 17 0 17 -28 0 -21 6 -37 17 -43
14 -9 14 -10 -5 -16 -12 -4 -27 -4 -32 -1 -7 4 -8 -3 -4 -22 9 -36 14 -42 14
-16 0 20 25 39 34 25 2 -4 7 -22 11 -39 5 -28 11 -33 35 -33 15 0 30 -6 33
-14 4 -9 14 -12 27 -9 11 3 18 8 15 11 -3 3 2 16 11 30 8 13 13 26 10 30 -3 3
-6 0 -6 -6 0 -7 -9 -12 -20 -12 -29 0 -25 18 6 26 22 6 24 10 18 38 -8 41 -32
67 -58 64 -12 -2 -21 2 -21 7 0 6 12 10 28 10 43 0 36 8 -36 43 -4 2 -4 -3 -1
-12z"/>
<path d="M1667 2664 c8 -14 11 -24 5 -24 -16 0 -19 -53 -4 -65 8 -6 10 -18 6
-29 -5 -13 -9 -14 -14 -5 -6 8 -14 6 -31 -10 -13 -12 -32 -20 -41 -17 -37 9
-30 -32 13 -75 15 -15 19 -16 19 -4 0 18 5 19 30 3 16 -11 23 -8 45 17 14 17
23 23 20 14 -6 -16 18 -49 36 -49 5 0 9 7 9 15 0 8 -6 12 -14 9 -21 -8 -26 8
-10 30 11 16 16 17 29 6 13 -11 14 -10 9 4 -6 16 -15 20 -47 17 -26 -3 -50 25
-42 49 4 12 1 27 -5 35 -10 12 -9 15 3 15 12 0 15 10 14 44 -2 38 -5 44 -24
44 -21 0 -21 -2 -6 -24z"/>
<path d="M1191 2198 c-1 -23 -54 -75 -59 -59 -2 7 -11 0 -18 -15 -8 -15 -11
-30 -6 -33 4 -3 8 -16 8 -28 0 -12 -2 -20 -4 -18 -10 10 -42 -17 -42 -36 0
-11 5 -17 10 -14 6 3 10 -1 10 -9 0 -9 -7 -16 -15 -16 -8 0 -15 -4 -15 -10 0
-5 7 -10 16 -10 10 0 14 -6 10 -15 -3 -9 0 -15 10 -15 10 0 13 -7 8 -25 -5
-20 -2 -25 14 -25 11 0 25 7 32 15 9 11 16 13 24 5 13 -13 29 -13 21 0 -7 12
5 13 22 2 8 -5 9 -13 3 -22 -6 -8 -10 -18 -10 -22 0 -12 58 -10 65 2 3 6 13
10 22 10 8 0 28 9 43 20 43 30 52 4 11 -32 -32 -29 -33 -33 -14 -101 4 -17 6
-17 22 -3 12 11 20 13 28 5 22 -22 88 29 80 61 -3 11 -1 23 4 26 5 3 5 12 0
23 -5 9 -9 23 -9 31 2 35 -3 50 -17 50 -8 0 -16 7 -16 15 -1 8 -3 20 -4 25 -1
6 -3 15 -4 20 0 6 -12 10 -26 10 -20 0 -25 -5 -25 -25 0 -16 -6 -25 -16 -25
-8 0 -12 -5 -9 -10 4 -6 16 -8 28 -5 16 5 18 4 8 -3 -11 -8 -11 -10 0 -15 10
-4 9 -6 -3 -6 -10 -1 -18 -5 -18 -11 0 -5 -6 -10 -13 -10 -17 0 -40 91 -26
105 16 16 10 63 -8 68 -17 4 -17 5 0 6 17 1 17 3 3 29 -8 15 -17 35 -20 45 -7
23 -39 19 -44 -6 -2 -12 3 -17 17 -17 24 0 29 -28 6 -36 -8 -4 -15 -17 -15
-29 0 -14 -7 -25 -17 -28 -14 -4 -13 -5 4 -6 12 0 24 5 27 12 3 6 4 -2 2 -19
-2 -17 -11 -44 -19 -60 l-16 -29 -1 38 c0 37 0 37 -24 22 -21 -14 -25 -14 -36
0 -7 8 -10 21 -7 30 4 8 -1 19 -11 24 -14 9 -13 10 11 11 15 0 27 4 27 8 0 5
12 14 26 21 19 8 24 16 19 29 -4 9 -7 25 -7 35 0 10 -7 17 -18 17 -11 0 -20 9
-23 23 -3 13 -5 16 -6 5z"/>
<path d="M834 2007 c4 -12 -2 -21 -19 -29 -14 -6 -25 -15 -25 -19 0 -4 -3 -14
-6 -22 -4 -12 0 -14 15 -10 13 3 21 1 21 -6 0 -7 -4 -9 -10 -6 -5 3 -10 2 -10
-2 0 -5 12 -14 28 -21 25 -10 24 -11 -15 -7 -31 3 -43 1 -43 -9 0 -8 -10 -11
-30 -8 -16 2 -30 0 -30 -6 0 -9 -47 -27 -62 -24 -5 1 -8 -3 -8 -8 0 -17 -38
-11 -49 7 -9 16 -11 16 -30 -6 -12 -13 -21 -36 -21 -50 0 -21 -2 -23 -11 -11
-8 11 -12 12 -16 3 -2 -7 -11 -13 -19 -13 -8 0 -14 -4 -14 -10 0 -15 -62 -28
-94 -19 -34 10 -39 7 -41 -24 -1 -12 -4 -20 -6 -18 -7 8 -49 -19 -49 -32 0 -9
2 -9 8 0 9 14 76 19 110 8 23 -8 30 -29 12 -40 -5 -3 -10 -1 -10 4 0 22 -17
10 -38 -27 l-21 -39 34 1 c19 1 35 4 35 7 0 9 57 6 66 -4 4 -4 -1 -14 -12 -21
-26 -20 -13 -29 14 -10 13 9 19 21 15 30 -5 13 -1 15 23 10 19 -4 41 0 64 12
37 20 103 44 130 47 63 7 80 28 80 100 0 13 10 27 25 35 14 7 25 17 25 21 0 4
13 10 29 14 16 3 37 17 45 30 15 22 14 25 -5 38 -11 8 -20 21 -19 28 4 29 -1
37 -30 47 -20 8 -28 16 -24 26 3 8 0 23 -6 33 -11 17 -11 17 -6 0z"/>
</g>
</svg>
