<?xml version="1.0" standalone="no"?>
<!DOCTYPE svg PUBLIC "-//W3C//DTD SVG 20010904//EN"
 "http://www.w3.org/TR/2001/REC-SVG-20010904/DTD/svg10.dtd">
<svg version="1.0" xmlns="http://www.w3.org/2000/svg"
 width="640.000000pt" height="966.000000pt" viewBox="0 0 640.000000 966.000000"
 preserveAspectRatio="xMidYMid meet">
<metadata>
Created by potrace 1.16, written by Peter Selinger 2001-2019
</metadata>
<g transform="translate(0.000000,966.000000) scale(0.100000,-0.100000)"
fill="#000000" stroke="none">
<path d="M261 9643 c-10 -12 -8 -13 13 -7 20 5 26 2 26 -9 0 -23 -41 -33 -52
-13 -12 21 -28 20 -28 -1 0 -14 2 -15 9 -4 7 11 10 9 16 -9 7 -23 -6 -40 -32
-40 -7 0 -13 -7 -13 -15 0 -8 -7 -15 -15 -15 -8 0 -15 4 -15 10 0 5 -7 7 -16
3 -11 -4 -12 -8 -4 -13 8 -5 2 -11 -16 -18 -16 -6 -23 -11 -15 -11 11 -1 10
-5 -4 -15 -17 -12 -18 -18 -7 -40 6 -14 16 -26 22 -26 7 0 4 7 -4 16 -20 20
-21 44 -1 44 8 0 15 6 15 14 0 13 20 26 40 26 5 0 11 -9 15 -20 4 -14 -2 -27
-21 -45 -26 -24 -22 -31 11 -19 13 5 14 8 3 15 -10 7 -9 9 5 9 9 0 17 -7 17
-15 0 -8 -7 -15 -15 -15 -8 0 -15 -7 -15 -16 0 -11 -6 -15 -19 -11 -17 4 -18
1 -9 -29 5 -19 7 -38 3 -43 -3 -5 5 -7 17 -4 19 4 20 3 8 -6 -13 -9 -13 -11 3
-11 9 0 17 -7 17 -15 0 -8 -4 -15 -9 -15 -19 0 -66 21 -73 33 -5 8 -8 6 -8 -5
0 -21 -26 -24 -34 -5 -3 6 -3 0 0 -15 4 -19 2 -28 -7 -28 -7 0 -9 -3 -6 -7 4
-3 17 4 28 16 16 17 28 21 48 16 14 -4 29 -11 32 -17 4 -6 14 -3 27 10 11 11
28 25 38 31 16 9 14 10 -10 5 -26 -6 -29 -5 -23 15 3 11 1 19 -4 15 -5 -3 -9
1 -9 8 0 10 -2 10 -9 -1 -7 -11 -10 -9 -16 9 -9 30 16 48 27 20 10 -27 17 -25
12 3 -3 17 -1 16 8 -5 7 -16 16 -28 20 -28 5 0 20 -12 33 -26 14 -15 25 -22
25 -16 0 6 -8 16 -17 21 -14 8 -15 11 -3 11 8 1 2 7 -15 14 l-30 13 24 7 c16
6 26 4 32 -5 7 -11 9 -11 9 -1 0 7 -7 15 -16 19 -13 5 -13 7 -2 14 10 7 9 9
-4 9 -10 0 -18 -7 -18 -15 0 -8 -6 -15 -14 -15 -18 0 -32 40 -18 49 7 4 8 12
2 21 -6 8 -10 22 -10 30 0 13 1 13 10 0 8 -13 10 -13 10 2 0 9 6 19 13 22 6 3
0 3 -15 0 -18 -4 -28 -2 -28 5 0 14 48 61 62 61 13 0 58 -51 58 -65 0 -17 -30
-28 -31 -12 0 7 -6 -1 -13 -17 -9 -20 -15 -25 -19 -15 -4 10 -6 11 -6 1 -1 -8
-6 -10 -13 -6 -7 4 -4 -2 7 -13 l20 -20 11 31 11 31 7 -28 c3 -15 4 -33 0 -40
-4 -7 2 -3 13 8 15 15 16 21 6 23 -18 5 -17 29 3 36 12 4 14 14 9 36 -5 23 -3
30 8 30 8 0 18 -7 21 -16 3 -8 10 -13 15 -10 5 4 12 -7 16 -24 6 -26 8 -28 21
-15 20 19 40 19 48 -1 9 -25 7 -41 -4 -24 -6 9 -10 10 -10 3 0 -6 -3 -20 -7
-30 -7 -17 -6 -17 11 0 23 23 33 22 61 -9 14 -15 25 -23 25 -18 0 5 -13 21
-28 34 -39 34 -58 70 -38 70 23 0 29 19 15 52 -10 25 -10 31 2 39 8 5 9 9 4 9
-6 0 -18 -9 -28 -20 -23 -28 -45 -25 -53 6 -4 16 -9 22 -14 14 -5 -8 -9 -7
-13 4 -4 9 -2 16 3 16 6 0 10 6 10 14 0 8 -11 13 -30 12 -25 -1 -28 -3 -15
-12 13 -9 13 -13 3 -17 -8 -4 -7 -6 5 -6 9 -1 17 -6 17 -11 0 -16 -51 -60 -69
-60 -14 0 -14 2 -1 10 13 8 12 10 -2 10 -25 0 -22 27 3 35 14 5 25 2 30 -6 7
-11 9 -11 9 -1 0 7 -7 15 -16 19 -10 3 -12 8 -5 12 6 4 -2 12 -17 17 -21 8
-31 7 -41 -3z"/>
<path d="M3380 7065 c-7 -8 -18 -15 -26 -15 -21 0 -36 -37 -25 -58 12 -22 11
-62 -1 -78 -9 -12 -20 -107 -18 -159 1 -16 2 -97 3 -180 1 -87 6 -153 12 -157
5 -4 21 -8 34 -8 22 0 23 -3 18 -36 -7 -40 -85 -123 -97 -104 -5 8 -20 6 -48
-5 -39 -16 -44 -16 -124 9 -72 22 -84 23 -98 11 -40 -36 -105 -47 -180 -30 -3
1 -35 5 -72 9 -50 6 -74 14 -93 32 -18 16 -34 23 -51 20 -16 -3 -27 0 -31 10
-3 8 -10 14 -16 14 -6 0 -21 12 -33 27 l-21 27 -41 -18 c-39 -18 -40 -18 -60
2 -11 11 -17 23 -14 27 4 4 -4 6 -18 5 -62 -5 -71 7 -85 122 -5 40 -10 49 -31
54 -29 7 -58 -2 -49 -16 3 -5 1 -10 -4 -10 -6 0 -10 -3 -10 -7 8 -51 -23 -61
-108 -32 -47 15 -68 19 -71 10 -2 -6 -7 -9 -11 -7 -4 3 -28 -1 -52 -8 -25 -8
-72 -12 -104 -11 -33 2 -53 0 -46 -4 10 -6 9 -10 -3 -14 -9 -4 -16 -14 -15
-24 0 -16 1 -16 9 2 7 16 9 17 9 3 1 -19 -21 -37 -26 -21 -2 6 -38 -7 -81 -28
-42 -22 -86 -39 -98 -39 -12 0 -42 -9 -68 -21 -25 -11 -51 -17 -56 -14 -6 3
-16 3 -22 -2 -7 -4 -22 -9 -33 -10 -11 -2 -22 -8 -23 -13 -2 -6 -7 -8 -11 -6
-8 5 -10 -3 -14 -48 -1 -13 -5 -22 -9 -19 -5 2 -8 -1 -8 -7 0 -7 -8 -9 -20 -5
-11 3 -20 2 -20 -4 0 -6 -11 -6 -32 0 -41 11 -41 11 -33 -1 9 -14 -27 1 -45
18 -13 14 -20 31 -22 60 -1 6 -5 12 -10 12 -5 0 -6 5 -3 10 3 6 1 10 -4 10 -6
0 -11 7 -11 15 0 8 -8 16 -17 17 -49 4 -79 2 -85 -6 -10 -15 -59 11 -65 34 -3
11 -10 20 -16 20 -6 0 -8 3 -4 6 3 3 -2 14 -11 23 -34 34 -212 69 -197 38 4
-7 0 -5 -7 3 -7 8 -35 26 -62 40 -27 13 -55 30 -62 37 -13 14 -48 7 -38 -8 3
-5 -7 -4 -21 1 -24 9 -26 8 -21 -12 3 -13 3 -17 0 -10 -3 6 -12 12 -21 12 -12
0 -12 2 1 16 20 19 20 20 0 28 -12 5 -15 2 -10 -11 5 -16 5 -16 -7 -2 -12 17
-77 21 -77 6 0 -5 -5 -5 -10 -2 -6 4 -33 8 -61 11 -29 2 -69 9 -91 15 -22 6
-47 8 -55 5 -8 -3 -11 -2 -8 3 3 6 -16 9 -44 7 -27 -1 -48 1 -45 5 2 4 -13 10
-34 15 -36 7 -45 8 -77 5 -13 -1 -15 -378 -15 -3326 l0 -3325 3200 0 3201 0
-2 3268 -2 3268 -26 -4 c-26 -3 -26 -2 -26 60 -1 120 -11 160 -45 191 -25 22
-38 27 -61 22 -16 -4 -29 -3 -29 2 0 14 -58 7 -73 -9 -7 -7 -12 -19 -9 -27 3
-8 -3 -20 -14 -28 -13 -10 -14 -13 -3 -13 8 0 10 -3 4 -8 -5 -4 -11 -16 -12
-27 -1 -11 -6 -55 -13 -98 -6 -42 -8 -81 -5 -87 3 -5 -4 -7 -15 -5 -11 2 -20
0 -20 -6 0 -5 -3 -8 -7 -8 -23 4 -33 -4 -44 -36 -14 -36 -15 -37 -94 -38 -33
0 -41 4 -43 21 -5 34 -24 43 -65 31 -21 -5 -35 -14 -32 -19 3 -6 -1 -7 -11 -3
-9 3 -24 23 -33 44 -18 38 -18 39 -38 19 -12 -10 -24 -16 -27 -13 -3 4 -6 1
-6 -5 0 -19 -28 -14 -40 8 -6 11 -19 20 -29 20 -10 0 -29 8 -42 19 -13 10 -38
21 -55 25 -31 7 -32 6 -36 -33 -2 -24 1 -41 7 -41 5 0 3 -4 -5 -10 -9 -6 -17
-5 -22 3 -4 7 -8 7 -8 2 0 -6 -21 -11 -47 -12 -27 0 -53 -2 -60 -2 -6 -1 -15
-10 -18 -21 -4 -11 -11 -18 -16 -15 -5 4 -9 1 -9 -5 0 -6 -4 -9 -9 -6 -10 7
-103 -23 -111 -35 -9 -13 -70 33 -76 58 -6 21 -40 38 -49 23 -2 -4 -16 -5 -30
-2 -21 4 -25 0 -27 -19 0 -13 -2 -30 -2 -38 -3 -47 -178 -18 -206 34 -8 14
-22 25 -34 25 -16 0 -18 2 -7 9 11 7 10 11 -6 20 -11 5 -23 8 -26 4 -4 -3 -4
5 -2 17 l4 23 -27 -24 c-40 -35 -41 -38 -39 -96 1 -29 -2 -53 -6 -53 -5 0 -6
-3 -4 -7 6 -10 -69 -9 -107 2 -21 6 -27 5 -22 -3 5 -8 1 -10 -9 -6 -9 4 -21 0
-28 -9 -7 -8 -29 -20 -49 -27 -21 -6 -38 -16 -38 -21 0 -6 -8 -5 -20 1 -11 6
-20 7 -20 3 0 -4 -15 -9 -32 -9 -18 -1 -48 -3 -66 -4 -23 -2 -37 3 -46 16 -13
17 -18 18 -47 7 -28 -11 -34 -10 -45 5 -7 9 -14 32 -14 50 0 25 -5 34 -22 40
-19 6 -152 7 -168 1 -3 -1 -9 -1 -13 0 -4 1 -32 -5 -62 -13 -30 -7 -56 -12
-59 -9 -2 3 -11 1 -18 -3 -7 -5 -22 -10 -32 -11 -11 -2 -27 -10 -35 -17 -23
-19 -39 -9 -33 20 3 15 -2 32 -12 43 -9 10 -13 20 -10 24 3 3 -3 18 -14 34
-31 45 -58 103 -87 188 -14 44 -33 90 -41 103 -8 13 -12 31 -9 41 3 10 -1 34
-10 54 -18 45 -18 47 -1 47 19 0 58 87 51 111 -16 50 -87 77 -115 44z m502
-1479 c4 -6 8 -7 8 -2 0 5 7 3 15 -4 8 -7 30 -14 49 -15 19 -2 57 -11 85 -19
28 -8 60 -13 71 -11 11 2 20 -1 20 -6 0 -6 5 -7 10 -4 13 8 180 -44 180 -55 0
-5 13 -11 29 -15 16 -3 35 -13 41 -21 7 -7 16 -11 21 -8 5 3 9 1 9 -4 0 -4 24
-16 53 -25 28 -9 76 -32 105 -52 30 -19 57 -35 62 -35 4 0 10 -7 14 -15 3 -8
11 -15 17 -15 6 0 31 -19 55 -42 71 -69 89 -83 96 -81 5 2 8 -1 8 -7 0 -5 9
-18 21 -29 12 -11 18 -24 14 -30 -3 -7 -3 -10 2 -9 13 3 53 -13 53 -21 0 -13
48 -61 61 -61 6 0 8 -7 5 -16 -6 -14 -4 -15 9 -4 9 7 15 9 14 4 -4 -23 2 -45
11 -39 6 3 10 1 10 -5 0 -6 5 -8 10 -5 6 4 9 3 8 -2 -4 -12 28 -54 35 -46 4 3
7 1 7 -6 0 -6 20 -31 45 -55 24 -24 41 -46 38 -50 -4 -3 -1 -6 6 -6 8 0 11 -6
7 -16 -3 -8 -2 -12 4 -9 5 3 13 0 19 -7 6 -7 22 -26 36 -42 14 -16 23 -36 20
-44 -5 -13 -3 -13 12 -1 9 8 14 9 10 3 -4 -7 0 -17 8 -24 8 -7 15 -19 15 -26
0 -8 5 -14 11 -14 5 0 7 -4 4 -10 -3 -5 -1 -10 5 -10 6 0 8 -4 5 -10 -3 -5 -1
-10 5 -10 7 0 9 -7 6 -16 -4 -10 -2 -13 6 -8 7 5 9 2 5 -9 -3 -9 -2 -17 3 -19
6 -2 1 -31 -9 -65 -10 -34 -16 -62 -12 -61 13 3 61 -15 61 -22 0 -5 9 -12 20
-15 11 -3 20 -11 20 -16 0 -6 12 -21 26 -34 15 -14 23 -25 19 -25 -4 0 4 -11
18 -24 15 -14 23 -26 18 -28 -5 -2 -4 -14 1 -27 6 -17 12 -21 19 -14 11 11 59
5 59 -8 0 -4 11 -20 25 -35 14 -15 23 -34 21 -41 -3 -7 -1 -13 4 -13 5 0 16
-13 25 -30 12 -23 13 -30 3 -31 -10 0 -10 -2 -1 -6 7 -2 15 -3 17 -1 6 4 56
-70 56 -82 0 -6 4 -10 9 -10 4 0 2 -20 -7 -45 -17 -53 -11 -75 21 -75 24 0 49
-20 46 -36 -3 -21 2 -45 9 -41 4 3 7 -9 6 -26 0 -18 3 -36 7 -42 9 -14 20 -63
25 -110 3 -22 6 -49 8 -59 1 -11 -8 -30 -21 -42 -15 -14 -25 -37 -29 -65 -10
-91 -11 -139 -2 -139 5 0 6 -4 3 -10 -3 -5 -3 -10 2 -10 4 0 16 -21 27 -46 18
-43 18 -47 1 -92 -10 -26 -30 -65 -44 -87 -14 -22 -26 -53 -27 -70 -2 -16 -8
-61 -14 -100 -7 -38 -11 -83 -10 -100 5 -66 2 -82 -20 -130 -13 -28 -22 -55
-21 -62 2 -15 -36 -36 -49 -28 -10 6 -14 -6 -10 -38 2 -23 -20 -88 -28 -83 -4
2 -13 -2 -20 -10 -10 -11 -10 -14 0 -14 7 0 -2 -9 -20 -20 -18 -11 -41 -20
-52 -20 -11 0 -20 -4 -20 -9 0 -5 -9 -12 -19 -16 -13 -4 -18 -12 -14 -21 3 -8
-2 -23 -11 -33 -22 -24 -29 -62 -11 -55 18 7 31 -16 14 -27 -8 -5 -23 -8 -35
-6 -17 3 -21 -1 -20 -22 1 -14 -2 -36 -6 -47 -4 -12 -4 -25 0 -28 10 -11 11
-36 1 -42 -5 -3 -9 -12 -9 -20 0 -8 4 -13 10 -9 5 3 5 -7 -1 -25 -6 -16 -15
-27 -20 -24 -12 7 -15 -28 -7 -91 2 -11 11 -26 21 -33 9 -7 17 -20 17 -28 0
-8 9 -32 20 -54 11 -22 20 -48 20 -59 0 -11 7 -27 16 -35 8 -9 12 -16 8 -16
-4 0 1 -9 10 -19 10 -11 15 -25 11 -30 -3 -6 -2 -11 4 -11 12 0 33 -69 25 -82
-3 -4 0 -8 5 -8 31 0 -4 -165 -41 -200 -12 -11 -18 -20 -12 -20 5 -1 -4 -8
-21 -17 -16 -10 -33 -16 -37 -15 -5 1 -8 -3 -8 -9 0 -5 -4 -7 -10 -4 -5 3 -10
3 -10 -2 0 -10 -48 -8 -148 6 -82 11 -120 2 -141 -30 -16 -27 -41 -109 -33
-109 4 0 7 -15 7 -34 0 -19 -2 -32 -4 -30 -3 2 -11 -15 -19 -38 -16 -47 -31
-65 -80 -93 -31 -18 -53 -55 -32 -55 4 0 7 -22 7 -48 0 -51 -16 -85 -39 -81
-34 4 -40 -1 -35 -29 7 -35 -4 -55 -26 -46 -9 3 -17 2 -17 -3 0 -5 -12 -10
-26 -11 -24 -2 -73 -38 -74 -54 0 -4 -5 -19 -12 -35 -6 -15 -10 -32 -9 -37 1
-4 -4 -14 -10 -22 -6 -8 -9 -14 -5 -14 3 0 -2 -9 -11 -19 -9 -11 -19 -18 -22
-16 -3 2 -6 -22 -5 -53 1 -65 -4 -85 -19 -75 -5 3 -7 1 -3 -5 6 -10 -34 -62
-48 -62 -7 0 -20 -10 -51 -37 -21 -19 -66 -35 -102 -35 -18 0 -33 -3 -33 -7 0
-16 -108 -3 -155 19 -28 13 -53 22 -57 22 -5 -1 -8 4 -8 11 0 8 -4 7 -10 -3
-6 -10 -10 -11 -10 -3 0 15 -42 33 -132 58 -38 10 -68 23 -68 28 0 6 -3 8 -6
4 -3 -3 -27 5 -52 18 -26 12 -77 32 -115 45 -41 13 -65 26 -61 32 5 7 0 9 -13
6 -16 -4 -19 -2 -16 13 3 11 0 19 -6 19 -7 0 -10 -4 -6 -9 3 -6 -9 -9 -29 -8
-19 1 -32 6 -28 11 3 5 -5 7 -16 4 -12 -4 -22 -2 -22 2 0 19 -158 45 -171 28
-3 -5 -17 -9 -32 -10 -15 -1 -27 -5 -27 -9 0 -11 -89 -41 -101 -33 -8 4 -9 3
-5 -4 4 -7 2 -12 -4 -12 -6 0 -8 -5 -5 -10 3 -6 -1 -13 -9 -16 -9 -3 -21 -25
-28 -48 -7 -22 -14 -43 -18 -46 -14 -13 -30 -52 -30 -73 0 -13 -3 -27 -7 -31
-4 -4 -9 -26 -10 -48 -1 -22 -4 -46 -6 -53 -4 -9 -251 -12 -1107 -12 l-1102
-1 6 21 c3 12 6 30 6 39 0 10 19 30 43 44 23 15 44 31 45 36 2 4 8 6 13 2 5
-3 10 3 11 13 2 23 6 77 9 125 l3 38 72 16 c80 17 97 30 96 72 0 15 6 51 14
80 8 29 12 57 9 63 -16 25 19 76 90 132 42 33 76 67 77 78 5 55 7 76 12 94 2
11 5 20 6 20 1 0 3 7 5 15 8 38 11 46 22 55 15 11 65 167 67 205 0 14 6 28 11
32 6 5 6 8 -2 8 -19 0 -8 32 16 44 12 7 19 15 15 19 -4 3 4 4 17 2 34 -7 78
14 84 39 3 11 8 59 11 106 3 47 7 96 8 110 3 23 -25 48 -59 54 -6 1 -21 9 -33
18 -20 14 -24 25 -25 89 -2 76 -4 78 -47 68 -9 -3 -14 3 -14 13 1 11 -3 15 -9
11 -6 -4 -33 -6 -59 -5 -42 1 -52 -4 -84 -33 -32 -30 -38 -33 -51 -20 -8 8
-19 15 -24 15 -19 0 -70 65 -65 83 2 10 0 14 -7 10 -6 -4 -8 0 -4 10 3 9 1 17
-5 19 -7 3 -7 15 0 41 6 20 7 39 2 42 -4 3 -6 14 -3 25 4 14 -1 21 -20 25 -14
4 -31 4 -38 -1 -8 -5 -9 -3 -4 6 5 9 2 10 -13 6 -12 -4 -36 -3 -54 2 -35 9
-61 6 -53 -8 3 -4 -2 -11 -10 -14 -11 -4 -19 3 -26 21 -5 14 -17 32 -26 38 -9
7 -14 19 -11 27 4 8 3 19 0 24 -11 15 -85 34 -109 28 -24 -7 -66 12 -58 26 3
4 1 20 -5 35 -11 30 -2 85 11 64 5 -8 13 5 22 37 10 33 11 53 5 62 -7 8 -7 12
0 12 14 0 2 41 -23 75 -39 53 -60 71 -82 67 -16 -2 -37 11 -73 48 -28 28 -58
62 -66 76 -15 23 -15 26 -1 37 16 12 20 87 5 87 -3 0 -4 9 -1 20 3 11 0 20 -6
20 -8 0 -9 5 -1 19 8 16 6 21 -13 27 -12 5 -24 8 -27 9 -82 15 -97 26 -83 62
4 10 2 14 -4 10 -13 -8 -20 24 -19 81 1 23 -2 42 -6 42 -10 0 3 44 17 55 17
14 36 77 32 106 -2 13 2 42 10 64 10 29 11 47 3 69 -12 35 16 146 37 146 7 0
13 7 13 15 0 12 4 13 18 6 17 -9 20 -4 29 34 7 33 7 45 -1 45 -7 0 -7 3 -1 8
13 9 17 27 20 90 1 28 -2 52 -7 52 -5 0 -6 9 -3 20 4 13 2 20 -7 20 -7 0 11
14 39 31 29 17 54 38 54 47 1 9 3 36 4 60 2 24 6 46 9 49 3 3 -2 12 -10 21 -9
9 -11 17 -6 21 6 3 15 25 21 49 7 24 19 46 27 49 7 3 14 11 14 19 0 8 7 15 15
15 8 1 20 3 25 4 6 1 15 3 20 4 6 0 10 6 10 12 0 6 9 24 20 39 14 19 19 37 15
53 -10 37 46 91 83 82 15 -4 30 -12 34 -18 4 -7 8 -7 8 -2 0 6 5 3 10 -5 8
-12 15 -9 39 20 17 19 30 31 31 27 0 -8 14 2 52 37 23 21 50 27 59 14 3 -5 22
3 42 16 33 22 85 27 72 6 -3 -5 4 -12 16 -15 15 -5 25 -2 31 8 5 9 15 14 22
11 20 -8 125 25 145 45 10 10 25 17 34 15 9 -1 17 1 17 4 0 7 105 5 202 -4 50
-5 58 -3 68 15 6 12 8 21 5 21 -2 0 4 23 15 50 23 58 25 81 8 78 -17 -4 -16
84 1 145 10 36 17 44 31 40 15 -4 21 4 31 39 16 54 38 77 64 67 11 -4 32 -8
48 -8 20 -1 27 4 27 18 0 11 -6 22 -12 24 -8 3 -6 6 5 6 9 1 17 8 17 17 0 10
5 14 16 10 10 -4 13 -2 8 6 -5 8 -2 9 9 5 12 -4 17 -1 17 11 0 14 2 14 9 3 7
-11 10 -9 16 8 3 12 11 19 16 16 5 -4 9 -1 9 5 0 6 5 8 10 5 6 -3 10 0 10 8 0
8 12 23 28 33 15 9 35 27 46 38 10 12 22 20 27 19 5 -2 9 4 9 13 0 8 5 12 10
9 6 -3 10 -2 10 3 0 6 9 8 20 5 12 -3 20 0 20 6 0 7 4 10 9 6 5 -3 12 4 16 15
4 11 11 17 17 14 6 -4 8 -3 5 3 -7 11 48 75 57 66 3 -4 6 1 6 11 0 9 5 14 10
11 6 -3 10 -2 10 3 0 12 70 37 98 35 27 -3 56 21 66 54 4 12 16 25 27 28 10 4
19 10 19 14 0 4 9 7 21 8 29 3 89 23 89 32 0 3 18 6 40 6 22 0 40 3 40 7 0 4
9 5 20 3 11 -2 20 1 20 7 0 6 9 8 20 5 11 -3 20 -1 20 3 0 4 9 6 20 3 11 -3
20 -1 20 3 0 5 10 10 23 11 49 4 103 12 122 17 11 3 34 9 50 13 17 5 51 9 78
8 26 0 47 2 47 5 0 7 47 9 218 11 79 1 167 7 195 13 56 13 136 3 149 -18z"/>
<path d="M3657 2463 c-3 -5 -4 -29 -3 -56 2 -32 -1 -44 -8 -37 -6 6 -10 30
-10 53 1 40 1 41 -9 13 l-10 -29 -13 24 c-9 17 -13 19 -14 8 0 -9 -7 -19 -15
-23 -8 -3 -15 -11 -14 -18 0 -10 2 -10 6 0 7 17 32 15 40 -4 5 -13 7 -13 14
-2 7 10 9 8 9 -6 0 -13 -5 -17 -20 -13 -11 3 -18 1 -14 -4 3 -5 1 -9 -5 -9 -5
0 -12 6 -14 13 -4 9 -6 9 -6 -1 -1 -7 6 -15 15 -19 12 -5 13 -7 3 -14 -8 -5
-17 -3 -21 4 -5 8 -8 6 -8 -6 0 -14 5 -16 25 -11 16 4 25 2 25 -5 0 -9 5 -9
21 -1 11 7 27 9 35 6 8 -3 14 0 14 7 0 8 3 8 9 -1 6 -10 10 -6 15 14 6 22 9
25 17 13 5 -7 9 -21 9 -29 0 -13 -1 -13 -11 0 -9 13 -10 13 -6 0 2 -8 12 -14
22 -12 10 2 22 -2 26 -10 7 -10 9 -9 9 4 0 13 8 16 35 15 19 -1 35 -5 35 -9 0
-5 7 -8 15 -8 8 0 15 5 15 10 0 16 51 60 69 60 14 0 14 -2 1 -10 -9 -6 -10
-10 -3 -10 7 0 17 9 22 19 8 15 7 20 -5 25 -25 10 -34 7 -34 -9 0 -8 -7 -15
-15 -15 -8 0 -15 -7 -15 -16 0 -14 -1 -14 -16 0 -17 18 -39 22 -29 6 3 -5 1
-10 -4 -10 -6 0 -11 -7 -11 -15 0 -8 -8 -15 -17 -15 -14 0 -15 2 -4 9 11 7 11
9 0 14 -10 4 -9 6 4 6 9 1 17 7 17 15 0 14 21 26 43 26 7 0 6 -4 -3 -10 -13
-9 -13 -10 0 -10 8 0 21 4 28 9 10 6 6 10 -14 15 -20 5 -24 10 -15 16 19 11 3
33 -20 27 -10 -3 -20 0 -23 7 -3 7 -5 7 -5 -2 -1 -7 -5 -10 -11 -7 -5 3 -10 1
-10 -6 0 -8 12 -10 38 -6 20 3 31 3 25 0 -7 -2 -13 -12 -13 -20 0 -10 -6 -14
-19 -10 -15 4 -23 -3 -34 -31 -13 -33 -15 -34 -21 -14 -5 13 -12 20 -19 16 -7
-4 -7 -2 1 7 11 12 14 12 22 -1 6 -9 10 -10 10 -3 0 7 -10 17 -21 24 -12 6
-19 7 -15 1 3 -5 -4 -12 -17 -16 -31 -8 -44 -7 -29 3 10 6 6 10 -14 15 -22 6
-25 9 -13 17 12 7 11 9 -3 9 -11 0 -18 7 -18 18 0 14 2 15 10 2 6 -9 10 -10
10 -3 0 15 -17 26 -23 16z"/>
<path d="M3333 2263 c3 -3 1 -11 -6 -18 -9 -10 -14 -9 -25 4 -7 9 -11 10 -7 4
3 -7 2 -13 -4 -13 -5 0 -12 6 -15 13 -3 6 -3 0 0 -15 5 -21 2 -28 -10 -28 -9
0 -16 -5 -16 -11 0 -5 4 -8 9 -5 5 4 12 0 14 -6 4 -10 6 -10 6 -1 1 9 8 10 27
3 14 -6 36 -7 50 -4 16 4 24 2 25 -7 0 -8 4 -5 9 6 5 11 9 14 9 7 1 -7 6 -10
11 -7 6 3 10 1 10 -5 0 -6 7 -4 16 5 14 13 19 14 25 3 5 -7 9 -8 9 -3 0 6 11
10 24 10 13 0 22 -4 19 -9 -3 -4 8 -5 24 -2 22 5 32 3 36 -8 4 -9 15 -13 28
-11 33 7 42 20 14 20 -14 0 -25 -4 -25 -10 0 -5 -5 -3 -10 5 -5 8 -10 22 -10
30 0 13 1 13 10 0 8 -13 10 -12 10 3 0 9 -7 17 -15 17 -8 0 -15 8 -15 18 0 9
-4 13 -8 7 -10 -14 -75 -15 -85 -1 -4 6 -5 -2 -2 -19 4 -24 3 -26 -4 -10 -5
11 -10 16 -11 10 0 -5 -7 -1 -15 9 -11 14 -15 16 -15 5 -1 -10 -3 -9 -11 4 -5
9 -15 17 -22 17 -9 0 -9 -2 -1 -8 6 -4 15 -18 19 -31 6 -21 5 -22 -8 -10 -8 8
-13 17 -11 21 2 3 -6 4 -18 1 -17 -3 -19 -2 -10 5 11 7 9 11 -8 15 -12 3 -20
3 -17 0z"/>
<path d="M3154 1832 c-6 -4 -14 -18 -18 -32 -5 -16 -4 -20 2 -12 6 9 12 6 20
-13 7 -14 12 -32 12 -40 0 -8 4 -17 10 -20 6 -4 7 1 3 10 -6 17 11 35 34 35 6
0 16 -12 22 -27 l11 -28 -5 28 c-4 21 -2 27 6 21 8 -5 10 -2 5 7 -4 8 -1 6 7
-3 8 -10 19 -18 25 -18 6 0 12 -3 15 -7 2 -5 3 -3 1 3 -1 7 8 14 21 16 21 5
23 3 14 -21 -8 -22 -7 -24 4 -9 10 12 15 13 23 5 5 -7 8 -11 7 -9 -3 6 31 42
39 42 5 0 8 -8 8 -17 0 -16 -2 -16 -11 -3 -9 13 -10 13 -6 0 2 -10 16 -15 39
-15 20 0 34 3 32 7 -2 4 6 10 18 14 15 4 25 1 35 -12 10 -13 13 -14 13 -3 0
12 2 12 9 0 5 -8 16 -16 25 -17 12 -2 14 4 9 23 -5 23 -3 25 16 20 17 -4 21
-2 17 10 -3 8 -6 17 -6 19 0 2 -8 4 -17 4 -15 0 -16 2 -3 10 13 8 12 10 -2 10
-22 0 -23 -16 -2 -28 14 -8 11 -11 -16 -21 -40 -13 -50 -14 -30 -1 13 8 13 11
1 22 -8 7 -11 8 -8 2 4 -7 0 -14 -8 -17 -9 -4 -12 -1 -8 9 4 12 1 13 -22 4
-15 -6 -30 -8 -33 -5 -3 3 -1 5 5 5 6 0 13 9 16 19 3 14 1 18 -10 14 -8 -3
-20 3 -28 13 -13 18 -14 17 -9 -6 5 -20 4 -22 -6 -10 -9 12 -10 10 -4 -10 7
-27 21 -40 44 -40 13 0 13 -2 1 -9 -11 -7 -21 -3 -38 15 -12 13 -27 24 -32 24
-6 0 -14 12 -17 26 -5 19 -9 22 -15 12 -5 -7 -9 -8 -9 -2 0 7 -10 9 -25 6 -21
-4 -24 -8 -19 -31 4 -18 3 -22 -4 -12 -8 11 -10 11 -15 0 -3 -8 -7 -3 -12 14
-8 29 -21 33 -45 16 -12 -9 -11 -10 7 -6 13 3 24 -1 27 -9 3 -8 1 -14 -4 -14
-5 0 -16 -7 -24 -16 -14 -13 -16 -13 -16 0 0 8 6 16 13 19 6 2 -1 2 -18 0 -23
-3 -27 -2 -15 6 13 10 13 11 0 11 -13 0 -13 2 0 11 13 9 12 10 -2 5 -11 -3
-18 0 -18 7 0 8 -3 8 -9 -2 -5 -8 -10 -9 -12 -2 -2 5 -9 7 -15 3z"/>
</g>
</svg>
