<?xml version="1.0" standalone="no"?>
<!DOCTYPE svg PUBLIC "-//W3C//DTD SVG 20010904//EN"
 "http://www.w3.org/TR/2001/REC-SVG-20010904/DTD/svg10.dtd">
<svg version="1.0" xmlns="http://www.w3.org/2000/svg"
 width="474.000000pt" height="754.000000pt" viewBox="0 0 474.000000 754.000000"
 preserveAspectRatio="xMidYMid meet">
<metadata>
Created by potrace 1.16, written by Peter Selinger 2001-2019
</metadata>
<g transform="translate(0.000000,754.000000) scale(0.100000,-0.100000)"
fill="#000000" stroke="none">
<path d="M265 4248 c1 -1613 3 -2963 3 -3000 2 -63 4 -68 25 -68 20 1 21 2 4
14 -20 16 -15 36 15 55 18 11 20 11 15 -3 -4 -9 -1 -16 6 -16 7 0 18 14 24 31
10 26 15 29 31 20 11 -6 22 -7 26 -4 3 3 6 -1 6 -10 0 -31 41 -17 54 18 7 18
10 16 30 -17 13 -21 26 -35 29 -31 4 3 2 12 -4 20 -9 10 -7 13 9 13 12 0 24 5
27 10 5 8 11 7 20 0 17 -14 38 -4 29 13 -5 9 -4 9 5 1 19 -18 103 -5 124 19 9
11 17 16 17 11 0 -6 -5 -15 -11 -21 -8 -8 -4 -11 14 -10 14 1 23 5 21 8 -7 11
22 18 36 9 17 -11 100 30 155 76 22 18 65 53 95 77 44 35 56 50 61 80 4 23 1
47 -7 62 -7 14 -9 27 -4 30 5 3 3 20 -5 39 -14 33 -11 68 8 96 9 12 9 13 -3 3
-19 -18 -30 -16 -30 5 0 9 -7 25 -15 35 -13 18 -15 18 -46 -5 -18 -12 -43 -34
-54 -47 -25 -28 -55 -23 -55 9 0 12 5 18 10 15 6 -3 10 4 10 16 0 13 10 43 21
67 18 36 19 46 8 53 -7 4 -10 11 -7 15 4 3 -4 16 -18 29 -13 12 -24 26 -24 30
0 5 11 -2 24 -14 18 -17 25 -19 30 -9 4 10 7 10 12 1 4 -8 13 -9 29 -3 12 5
26 6 30 2 4 -4 5 -1 3 7 -5 22 69 42 133 35 50 -6 58 -4 79 17 17 18 21 19 17
7 -4 -12 1 -21 15 -29 16 -9 26 -7 49 10 16 12 29 17 29 11 0 -6 -11 -16 -25
-22 -42 -19 -29 -31 26 -24 34 5 49 4 44 -4 -3 -5 -12 -10 -20 -10 -8 0 -17
-5 -21 -11 -5 -8 3 -10 24 -7 39 6 31 -9 -11 -21 l-32 -9 38 -1 c23 -1 36 -5
32 -11 -9 -14 41 -13 68 2 20 10 21 10 8 -5 -7 -9 -29 -19 -48 -23 -25 -5 -31
-9 -21 -15 19 -13 72 -11 86 3 9 9 12 9 12 1 0 -16 -18 -26 -60 -33 -35 -7
-35 -7 -10 -18 22 -9 23 -11 5 -13 -11 0 -29 0 -40 1 l-20 2 20 -17 c19 -16
19 -16 -10 -10 -16 3 -41 9 -54 12 -17 4 -22 2 -19 -8 9 -26 75 -30 138 -9 68
23 117 25 189 8 47 -10 54 -10 80 10 56 41 100 53 195 50 61 -1 99 3 116 12
l25 13 -19 -22 c-11 -12 -32 -21 -50 -22 l-31 -1 33 -14 c18 -8 66 -20 107
-26 68 -11 76 -10 95 7 11 10 18 25 15 32 -2 8 0 11 5 8 33 -20 -10 -74 -60
-76 -24 0 -24 -1 -3 -9 29 -12 82 -7 113 10 23 12 24 12 12 -3 -8 -9 -22 -19
-33 -22 -10 -4 -19 -11 -19 -16 0 -16 26 -10 56 13 l29 21 -27 -28 c-24 -25
-35 -29 -100 -32 -40 -2 -98 1 -130 8 -63 13 -98 7 -58 -9 l25 -11 -30 0 c-42
-1 -184 87 -167 103 3 4 1 11 -6 15 -16 10 -62 2 -62 -10 0 -5 11 -7 25 -3 20
5 24 3 19 -10 -3 -9 -7 -16 -8 -16 0 0 -15 4 -32 9 -49 14 -58 1 -35 -50 12
-24 21 -54 21 -66 0 -53 33 -69 77 -38 20 14 53 11 53 -5 0 -4 13 -13 29 -20
23 -9 46 -9 102 -1 79 13 95 10 50 -9 -32 -13 -32 -40 0 -40 10 0 19 -5 19
-11 0 -14 -80 -5 -116 14 -70 36 -172 45 -162 15 5 -15 56 -29 64 -17 8 14 24
11 24 -6 0 -8 8 -15 18 -15 18 -1 52 -22 52 -34 0 -10 -42 0 -116 29 -82 33
-83 33 -64 46 11 8 8 8 -10 3 -14 -4 -26 -11 -28 -15 -6 -14 -28 -10 -42 6 -9
11 -15 12 -20 5 -8 -13 -90 16 -90 31 0 16 -41 9 -95 -16 -68 -33 -90 -38
-140 -37 -65 1 -74 3 -80 13 -4 5 -20 -5 -38 -22 -17 -18 -61 -45 -97 -61 -36
-16 -78 -39 -95 -52 -16 -12 -51 -34 -78 -49 -61 -36 -61 -52 -2 -63 16 -3 23
0 21 8 -1 7 -1 10 1 6 7 -11 43 -10 43 2 0 5 21 7 50 4 31 -3 50 -1 50 6 0 5
5 10 11 10 5 0 7 -5 3 -11 -5 -9 4 -10 32 -4 44 9 70 13 132 19 24 3 47 7 50
10 3 3 12 -3 20 -15 17 -24 16 -25 -28 -34 -19 -4 -47 -9 -63 -12 -15 -3 -34
0 -42 7 -8 7 -15 8 -15 3 0 -9 -210 -27 -292 -26 -16 0 -28 -3 -28 -7 0 -4
-15 -7 -32 -7 -18 -1 -57 -5 -86 -10 -33 -7 -52 -7 -52 0 0 5 -7 7 -14 4 -11
-4 -13 -1 -10 11 5 15 4 15 -6 0 -6 -10 -19 -18 -28 -18 -18 -1 -124 -50 -108
-50 6 0 4 -6 -2 -12 -10 -10 -15 -10 -21 1 -6 9 -11 10 -15 2 -4 -6 0 -14 8
-17 26 -10 18 -24 -11 -20 -16 2 -20 1 -10 -1 10 -3 21 -11 24 -19 3 -8 9 -14
15 -14 5 0 7 4 4 9 -6 9 35 24 43 16 2 -3 -1 -5 -8 -5 -7 0 -9 -5 -6 -10 4 -7
13 -7 24 0 10 5 43 11 73 13 31 3 61 8 67 11 6 4 15 5 21 1 8 -5 47 11 60 25
3 3 21 6 40 7 69 2 120 10 134 22 11 9 16 9 21 0 6 -8 9 -8 15 1 4 7 18 14 31
16 13 2 49 6 79 10 30 4 60 10 65 14 20 15 58 23 50 11 -7 -12 13 -10 80 9 17
5 50 7 75 4 25 -2 65 0 90 6 25 5 84 12 133 16 49 3 87 10 87 16 0 7 -40 8
-117 3 -180 -10 -200 -12 -213 -20 -9 -5 -10 -3 -2 11 5 11 8 25 6 32 -1 7 0
8 3 2 3 -7 12 -5 24 6 13 12 19 13 19 4 0 -9 3 -10 13 -1 8 6 17 7 22 3 4 -4
4 4 1 18 -4 14 -4 20 1 14 11 -14 73 -26 73 -14 0 6 10 6 26 0 34 -13 47 -13
38 3 -6 9 -5 9 7 0 15 -12 104 -12 116 1 3 3 17 3 29 0 16 -4 24 -2 24 6 0 8
6 9 18 5 9 -4 27 -7 40 -6 12 0 22 -4 22 -9 0 -12 37 -13 44 -1 3 4 28 9 56
10 28 0 60 5 70 11 15 8 20 8 20 -2 0 -10 2 -10 9 0 7 11 9 11 14 -2 5 -13 10
-14 39 -2 18 8 47 12 63 10 59 -9 106 -11 109 -5 8 12 367 -2 433 -17 23 -5
43 -6 45 -1 2 4 23 4 48 -2 24 -6 53 -8 62 -6 23 6 23 -5 0 -26 -16 -14 -58
-18 -298 -23 -153 -3 -317 -10 -364 -15 -47 -5 -92 -9 -100 -10 -8 0 -22 -3
-30 -6 -8 -3 -49 -7 -90 -9 -41 -2 -97 -6 -125 -10 -27 -3 -71 -5 -97 -5 -27
0 -48 -4 -48 -8 0 -4 -30 -7 -67 -6 -38 1 -83 -2 -100 -7 -18 -4 -50 -12 -70
-18 -24 -6 -41 -6 -47 0 -15 15 -42 12 -56 -5 -9 -11 -16 -12 -25 -5 -9 8 -15
7 -19 -2 -5 -10 -7 -10 -12 0 -3 6 -15 12 -27 11 -12 0 -16 -3 -9 -6 16 -6 6
-23 -14 -23 -8 0 -12 5 -9 10 3 6 -4 10 -17 10 -18 0 -20 -2 -8 -10 13 -8 12
-10 -2 -10 -10 0 -18 6 -18 13 0 9 -3 8 -9 -2 -5 -8 -14 -10 -21 -6 -7 4 -16
2 -20 -4 -7 -13 -15 -15 -110 -26 -60 -8 -216 -49 -267 -71 -17 -8 -38 -14
-47 -14 -22 0 -87 -32 -109 -53 -11 -11 -27 -17 -38 -14 -13 3 -19 0 -19 -10
0 -10 -6 -14 -20 -10 -11 3 -23 -1 -28 -8 -4 -7 -31 -26 -61 -42 -86 -45 -95
-51 -111 -70 -8 -10 -32 -27 -53 -38 -21 -11 -50 -33 -65 -50 -27 -30 -27 -30
-30 -215 -2 -105 1 -191 7 -199 8 -12 97 -14 558 -13 301 1 673 2 825 2 l277
0 3 23 c2 17 11 23 36 25 19 2 53 14 77 26 31 17 47 21 60 13 15 -8 17 -6 12
15 -5 20 -1 28 18 38 14 7 25 22 25 33 0 17 5 19 40 13 31 -5 40 -3 40 8 0 7
15 17 33 22 22 6 -28 10 -159 12 -145 2 -195 6 -203 16 -13 15 -17 194 -4 207
10 10 916 15 932 5 6 -4 11 -29 11 -56 0 -38 4 -50 18 -53 16 -4 16 -5 0 -6
-10 0 -18 -5 -18 -10 0 -15 49 -22 70 -9 15 10 22 10 32 0 9 -9 9 -12 -2 -12
-13 0 -13 -2 0 -10 11 -7 11 -10 2 -10 -7 0 -11 -4 -7 -10 3 -5 11 -8 18 -6 7
1 9 1 5 -1 -14 -8 -8 -25 6 -20 8 3 17 3 21 -1 4 -4 23 -7 43 -7 21 0 38 -3
39 -8 5 -17 29 -34 41 -30 8 3 10 0 7 -10 -10 -24 44 -33 61 -10 8 11 13 13
14 6 0 -18 20 -16 20 2 0 8 7 15 15 15 8 0 15 -7 15 -15 0 -8 4 -15 9 -15 5 0
12 -8 14 -17 4 -17 5 -17 6 0 0 9 5 17 11 17 5 0 6 -8 3 -17 -5 -13 -2 -15 11
-10 10 4 26 7 36 7 16 0 18 6 13 33 -4 26 -2 34 10 34 12 0 13 -4 4 -18 -8
-13 -7 -23 5 -41 19 -29 57 -33 50 -6 -2 10 -8 18 -13 18 -5 0 -9 5 -9 11 0 8
6 7 17 -2 15 -13 16 -12 11 9 -4 12 -2 22 3 22 5 0 9 -5 9 -11 0 -5 4 -8 9 -5
4 3 17 -1 27 -10 18 -14 18 -15 -3 -9 -14 4 -23 2 -23 -4 0 -6 5 -11 12 -11 6
0 8 -3 5 -6 -4 -4 -13 -1 -22 6 -12 10 -15 10 -15 -4 0 -9 4 -16 10 -16 5 0 7
-7 4 -15 -4 -8 -1 -15 5 -15 6 0 11 5 11 10 0 6 10 8 24 4 16 -4 25 -1 30 12
4 9 4 19 1 22 -3 3 -5 1 -5 -5 0 -6 -7 -13 -15 -17 -19 -7 -19 -4 3 22 l18 21
16 -27 c8 -15 14 -36 13 -48 -1 -17 4 -21 27 -20 19 1 28 6 28 18 0 12 -5 16
-17 12 -15 -5 -15 -4 -3 4 17 13 41 -3 34 -22 -3 -8 2 -16 11 -20 13 -5 15 -1
10 15 -6 18 -4 19 12 10 11 -5 25 -16 32 -24 6 -8 27 -18 46 -21 46 -9 45 -26
-2 -27 -35 0 -36 -1 -14 -10 14 -5 31 -7 38 -5 7 3 13 1 13 -3 0 -16 34 -22
45 -8 14 19 40 27 56 16 11 -7 9 -9 -8 -9 -13 0 -23 -4 -23 -9 0 -5 143 -9
319 -10 l318 -2 2 159 c2 130 -1 161 -12 165 -20 7 -28 58 -12 73 7 7 15 10
19 7 3 -4 6 5 6 18 0 20 -9 29 -42 44 -36 16 -68 20 -198 21 -99 0 -180 6
-225 16 -73 16 -300 32 -444 30 -83 -1 -135 10 -101 22 8 2 74 7 145 10 167 8
287 25 282 40 -2 6 -13 12 -25 14 -40 6 -23 22 22 22 48 0 68 13 38 25 -9 4
-98 8 -197 10 -204 4 -271 16 -287 51 -6 13 -19 24 -29 24 -10 0 -20 4 -23 9
-3 5 -18 12 -33 16 -15 3 -30 10 -33 15 -3 5 -73 11 -155 14 -83 3 -190 12
-240 21 -49 9 -137 18 -195 21 -58 3 -116 7 -130 9 -14 1 -34 3 -44 4 -11 0
-17 3 -14 6 3 3 69 8 147 11 112 5 141 4 139 -6 -2 -7 8 -14 22 -15 33 -3 237
-14 373 -21 102 -4 130 -11 168 -42 10 -7 33 -14 53 -15 28 -2 35 -6 30 -17
-3 -8 -6 -19 -7 -24 -4 -23 80 -35 294 -41 123 -3 228 -10 232 -14 4 -4 -15
-31 -43 -60 -27 -28 -50 -55 -50 -60 0 -5 21 -12 47 -16 26 -4 61 -14 78 -23
24 -13 59 -15 180 -13 83 1 164 3 180 5 17 2 38 4 48 5 10 0 16 5 13 10 -4 5
-1 11 6 13 7 3 9 12 4 23 -6 16 -9 17 -16 5 -6 -10 -10 -11 -10 -3 0 7 9 21
21 32 21 19 21 26 22 458 1 241 1 681 0 978 -3 1210 -3 1402 -3 1905 0 289 3
972 6 1518 5 950 4 992 -13 992 -16 1 -16 2 -2 10 13 8 16 36 18 185 l1 175
-2108 0 -2109 0 2 -2932z m2638 2762 c5 -19 14 -20 168 -20 208 0 199 7 199
-150 0 -106 -2 -119 -21 -136 -20 -18 -49 -19 -879 -19 -830 0 -859 1 -879 19
-19 17 -21 30 -21 130 0 85 4 117 16 134 l15 22 690 0 c682 0 689 0 689 20 0
11 4 20 9 20 5 0 11 -9 14 -20z m-447 -506 c50 -6 52 -8 50 -36 -2 -19 2 -27
10 -24 7 3 32 10 56 17 l43 11 53 -58 c29 -33 58 -71 65 -86 6 -16 16 -28 20
-28 9 0 0 -197 -9 -231 -7 -26 34 -32 49 -8 17 28 119 89 159 95 27 5 41 0 73
-26 65 -51 78 -92 79 -252 1 -132 0 -137 -24 -163 -29 -32 -94 -64 -130 -65
-18 0 -43 17 -80 54 -30 30 -58 52 -62 50 -18 -11 -28 44 -28 150 l0 116 -29
0 c-17 0 -32 -4 -36 -9 -3 -5 -31 -19 -62 -31 l-56 -21 -28 31 c-16 17 -33 38
-38 48 -5 9 -11 15 -13 12 -3 -3 -1 -63 4 -134 4 -71 6 -131 4 -134 -3 -2 -14
13 -25 35 l-20 38 -1 -152 c0 -84 -4 -153 -8 -153 -5 0 -15 15 -24 33 l-15 32
-6 -40 c-3 -22 -9 -89 -13 -148 -3 -60 -10 -105 -14 -100 -4 4 -25 109 -45
233 -21 124 -40 231 -42 237 -8 20 15 15 26 -4 5 -10 11 -16 14 -13 4 5 -22
194 -38 279 -5 28 -4 33 9 27 9 -3 23 -9 32 -12 17 -7 17 -10 -17 246 -26 200
-28 190 24 190 23 0 65 -3 93 -6z m-611 -133 c3 -15 5 -32 4 -37 -4 -23 4 -24
36 -4 35 22 55 20 55 -5 0 -20 32 -85 42 -85 4 0 8 -6 8 -14 0 -12 -86 -76
-102 -76 -3 0 -6 17 -6 38 -2 53 -7 75 -20 80 -13 4 -14 -30 -12 -283 1 -71 5
-134 11 -139 5 -6 9 -12 9 -15 0 -8 -180 -4 -188 3 -3 4 5 17 17 30 22 23 23
34 28 227 5 151 3 200 -5 195 -7 -4 -12 -3 -12 2 0 12 108 112 120 112 5 0 11
-13 15 -29z m-745 5 c0 -2 -6 -19 -14 -38 -9 -21 -16 -82 -18 -171 l-3 -138
25 5 c25 5 102 9 149 7 l25 -1 -29 -30 -28 -29 13 -78 c14 -88 25 -110 47 -92
11 10 13 49 13 195 -1 101 -5 184 -8 184 -4 0 -25 -10 -47 -23 -29 -16 -41
-30 -43 -50 -2 -15 -6 -27 -10 -27 -9 0 -62 94 -62 109 0 13 70 59 112 73 28
10 32 7 83 -48 30 -33 58 -68 61 -79 4 -11 12 -23 18 -27 7 -5 12 -57 13 -145
2 -127 4 -138 20 -135 11 2 -1 -15 -32 -47 -54 -56 -69 -61 -93 -31 -17 21
-17 21 -54 -5 -33 -22 -38 -23 -52 -10 -8 8 -19 15 -24 15 -11 0 -62 143 -62
172 0 9 12 31 26 48 l27 31 -29 -7 c-57 -14 -56 -8 -52 -260 l3 -232 27 -18
c36 -25 23 -34 -32 -24 -25 5 -78 9 -117 10 -40 0 -73 3 -73 7 0 4 9 16 20 28
11 12 24 45 30 73 10 56 11 315 1 310 -3 -2 -34 -14 -68 -27 l-63 -24 0 -142
c0 -136 1 -143 22 -157 20 -13 12 -15 -87 -11 -61 2 -120 6 -133 9 -23 5 -23
5 8 35 30 30 30 32 30 134 0 57 3 110 6 118 4 11 -4 17 -25 22 -38 8 -107 63
-126 99 -14 25 -13 27 12 37 15 5 38 9 52 7 26 -3 26 -3 -7 -18 -17 -8 -31
-19 -29 -25 4 -10 96 -64 111 -65 5 0 5 88 1 203 -6 189 -8 203 -28 219 -20
15 -16 16 84 20 108 4 131 -1 110 -26 -9 -10 -12 -68 -10 -206 2 -216 -6 -203
88 -147 l53 32 -4 178 c-3 116 -9 182 -16 189 -24 24 -10 28 88 28 55 0 100
-2 100 -4z m2177 -68 c0 -72 1 -72 27 -73 41 0 64 -45 24 -45 -13 0 -28 -4
-34 -8 -8 -5 -14 -100 -18 -286 l-8 -279 29 -23 c15 -12 25 -25 21 -29 -12
-12 -158 87 -164 111 -3 11 -2 101 3 200 5 98 7 209 5 247 l-4 67 -44 0 c-24
0 -44 3 -44 8 0 4 27 27 60 50 33 24 77 64 98 88 20 24 40 43 43 44 4 0 6 -32
6 -72z m-1725 25 c0 -10 2 -23 2 -30 2 -22 16 -26 40 -14 26 15 62 11 59 -6
-3 -14 21 -70 43 -100 15 -21 14 -23 -26 -48 -63 -40 -66 -40 -67 3 -1 22 -8
55 -17 73 -14 33 -14 32 -15 -56 -1 -116 17 -327 30 -339 20 -21 5 -26 -88
-26 l-96 0 21 23 c21 22 22 32 22 230 l0 206 -42 3 -41 3 69 47 c74 50 103 59
106 31z m1927 -10 c-1 -10 -1 -51 0 -90 l1 -73 45 0 c38 0 45 -3 45 -20 0 -17
-7 -20 -41 -20 l-41 0 3 -264 4 -264 43 -21 c41 -20 44 -20 69 -4 23 16 24 17
7 24 -11 4 -31 8 -46 8 -16 1 -28 6 -28 12 0 8 17 9 53 5 28 -3 62 -6 75 -6
32 0 27 -21 -17 -64 l-38 -37 -63 21 c-70 23 -123 49 -158 77 -23 19 -23 19
-20 266 3 260 4 253 -39 248 -22 -3 -14 13 36 73 27 32 60 78 73 102 24 45 41
57 37 27z m518 -103 c-9 -40 2 -43 53 -14 24 14 46 21 50 17 4 -4 15 -29 25
-55 9 -26 23 -49 31 -52 8 -3 14 -12 14 -20 0 -23 -114 -116 -127 -103 -3 4 0
13 6 21 10 12 10 27 0 71 -25 110 -34 58 -34 -188 l0 -236 45 -20 c25 -11 54
-23 65 -27 46 -19 -71 -14 -155 5 -48 12 -99 21 -114 21 -14 0 -26 2 -26 4 0
3 14 18 30 34 l30 30 0 206 c0 181 -2 206 -16 206 -9 0 -14 4 -12 10 3 9 129
120 137 120 2 0 1 -13 -2 -30z m-221 -52 c36 -19 43 -27 47 -61 3 -22 15 -54
28 -70 20 -28 21 -32 6 -56 -18 -29 -31 -30 -116 -12 -30 6 -57 9 -59 6 -3 -3
-6 -57 -6 -119 l-1 -115 28 -16 c16 -9 30 -15 31 -13 2 1 11 28 20 58 10 30
20 62 23 70 3 10 11 2 24 -24 l19 -39 -38 -49 c-35 -47 -39 -49 -74 -45 -25 3
-46 15 -67 38 -30 33 -41 56 -21 44 6 -3 10 -2 10 4 0 15 -18 23 -22 10 -2 -7
-11 -7 -28 1 -25 11 -25 11 -23 142 1 73 4 142 7 154 8 30 114 113 146 114 14
0 44 -10 66 -22z m-1552 -24 c13 -5 12 -13 -10 -57 -54 -107 -187 -335 -240
-409 -49 -70 -58 -78 -87 -78 -54 0 -180 28 -232 51 -28 12 -53 23 -57 23 -19
3 -15 16 14 49 32 36 34 37 83 29 38 -7 45 -11 30 -16 -55 -20 -65 -27 -65
-40 0 -18 27 -25 130 -32 l86 -7 44 68 c24 37 43 77 43 88 -3 33 -76 251 -90
268 -20 24 -6 29 81 29 50 0 76 -4 67 -9 -11 -7 -12 -21 -5 -67 4 -33 8 -66 7
-74 -1 -9 6 -16 17 -17 13 -1 30 21 64 89 44 85 45 91 29 104 -16 12 -13 13
29 14 25 0 53 -3 62 -6z m594 -851 c-2 -10 -17 -20 -38 -24 -40 -9 -65 -36
-79 -86 -13 -47 -6 -56 36 -48 30 5 34 4 31 -12 -2 -10 -12 -19 -23 -19 -11
-1 -28 -2 -37 -3 -15 -1 -18 -10 -18 -50 0 -27 4 -61 9 -74 7 -18 6 -30 -4
-43 -21 -30 -30 -8 -30 77 0 59 -4 82 -15 89 -12 8 -12 11 2 27 8 10 18 34 22
53 3 19 14 49 25 66 30 49 127 87 119 47z m985 11 c13 -13 -7 -34 -33 -34 -36
0 -75 -40 -88 -91 -12 -46 -1 -56 44 -45 21 6 25 4 22 -11 -2 -11 -13 -18 -28
-19 -50 -1 -50 -1 -45 -65 3 -34 8 -66 11 -71 10 -16 -7 -49 -24 -46 -14 3
-16 16 -13 91 2 58 -1 87 -8 87 -6 0 -11 7 -11 15 0 8 4 15 10 15 5 0 13 18
16 39 3 22 15 53 25 70 29 47 101 86 122 65z m-1667 -103 c0 -36 5 -65 13 -75
11 -13 11 -19 1 -31 -10 -12 -10 -34 -1 -102 8 -63 8 -90 0 -100 -17 -20 -29
-6 -29 33 0 33 -1 34 -22 23 -34 -18 -81 -13 -100 12 -41 50 -4 133 71 159
l43 15 -6 56 c-7 55 -3 69 19 69 8 0 12 -19 11 -59z m-868 -56 c34 -10 44 -39
48 -141 3 -87 1 -95 -18 -105 -19 -10 -20 -9 -16 20 4 28 2 31 -16 24 -33 -11
-77 -7 -87 8 -20 33 28 95 82 106 30 6 34 11 21 29 -15 23 -51 35 -72 24 -16
-9 -20 -8 -20 5 0 9 6 22 13 30 12 14 17 14 65 0z m252 0 c0 -12 9 -13 44 -9
39 6 48 3 70 -19 30 -30 32 -44 12 -91 -9 -23 -32 -44 -70 -67 l-55 -34 -1
-53 c0 -44 -3 -53 -17 -50 -14 3 -16 19 -15 131 1 81 -2 126 -8 122 -6 -3 -10
1 -10 9 0 9 5 16 10 16 6 0 10 11 10 23 0 13 3 27 7 30 11 12 23 8 23 -8z
m932 -7 c25 -20 34 -75 28 -163 -4 -62 -8 -80 -20 -80 -10 0 -14 8 -12 27 3
26 1 27 -25 17 -39 -14 -71 -4 -79 27 -8 31 24 68 73 86 60 22 31 66 -39 59
-31 -3 -37 13 -10 28 24 14 65 13 84 -1z m1409 -7 c23 -18 24 -26 24 -127 0
-98 -2 -109 -19 -112 -16 -3 -18 1 -14 27 2 17 3 31 2 31 -2 0 -15 -5 -29 -12
-19 -8 -31 -8 -50 0 -55 25 -17 104 57 119 54 11 24 55 -37 55 -22 0 -35 5
-35 13 0 28 70 32 101 6z m-3067 -38 c9 -27 25 -61 36 -78 l19 -30 33 73 c23
49 38 72 51 72 9 0 17 -3 17 -6 0 -3 -18 -36 -40 -74 -22 -38 -40 -73 -40 -78
0 -5 -13 -36 -30 -68 -16 -32 -30 -64 -30 -71 0 -17 -14 -23 -29 -13 -11 6 -7
19 18 62 l31 55 -44 90 c-33 67 -41 94 -33 102 18 18 25 13 41 -36z m1138 35
c17 -15 29 -53 22 -73 -3 -8 -22 -11 -57 -9 -61 3 -89 -9 -80 -34 11 -29 36
-41 86 -42 41 0 47 -3 47 -21 0 -21 -4 -21 -62 -16 -73 6 -98 28 -98 84 0 84
88 153 142 111z m1242 -14 c29 -28 35 -49 26 -87 -14 -66 -58 -97 -137 -97
-46 0 -49 2 -67 40 -19 40 -19 41 0 88 11 27 30 52 44 59 36 18 115 16 134 -3z
m396 -4 c29 -29 35 -67 17 -106 -42 -86 -176 -99 -207 -20 -14 39 8 102 44
126 42 27 119 27 146 0z m324 -256 c9 -3 14 -10 11 -14 -3 -4 2 -10 10 -14 10
-4 15 1 15 16 0 17 2 18 15 8 10 -9 15 -9 15 -1 0 6 5 11 12 11 9 0 9 -3 0
-12 -15 -15 -16 -55 -1 -64 8 -4 9 0 4 15 -4 12 -2 21 4 21 6 0 11 6 11 14 0
8 5 18 12 22 8 5 9 2 5 -9 -4 -10 -1 -17 6 -18 9 0 9 -2 0 -6 -20 -8 -15 -17
16 -31 22 -10 31 -22 36 -49 7 -37 28 -62 53 -63 7 0 10 4 7 10 -3 6 1 7 9 4
9 -3 16 -10 16 -15 0 -5 5 -9 11 -9 8 0 8 4 0 14 -15 17 -4 46 18 46 9 0 25
-7 36 -16 18 -13 17 -14 -15 -7 -32 6 -34 5 -21 -11 8 -9 20 -15 28 -12 8 3
16 -1 19 -9 4 -8 11 -12 16 -9 6 4 8 -2 3 -16 -6 -20 -5 -21 14 -11 18 10 21
9 21 -7 0 -10 -5 -23 -12 -30 -9 -9 -8 -12 4 -12 16 0 21 -13 34 -84 4 -26 3
-28 -11 -16 -13 11 -15 10 -9 -4 6 -16 -10 -23 -19 -8 -2 4 -2 0 1 -8 3 -8 4
-23 4 -32 0 -11 5 -15 16 -11 14 4 14 3 2 -5 -8 -6 -18 -8 -24 -5 -5 4 -7 -2
-4 -13 10 -33 10 -39 9 -60 -1 -13 -10 -24 -22 -27 -13 -4 -18 -10 -13 -18 5
-9 1 -10 -16 -6 -16 4 -20 3 -12 -5 14 -14 4 -38 -13 -32 -7 3 -15 -4 -18 -15
-3 -13 -13 -21 -26 -21 -12 0 -21 -4 -21 -9 0 -10 -50 -20 -122 -24 -38 -3
-45 -1 -36 10 15 19 2 29 -17 13 -12 -10 -19 -10 -27 -2 -15 15 -48 16 -48 2
0 -5 8 -10 18 -10 9 0 24 -5 32 -10 11 -8 7 -9 -14 -4 -18 4 -27 3 -23 -3 4
-6 -4 -8 -20 -5 -16 3 -24 1 -20 -5 4 -6 -2 -13 -13 -16 -27 -7 -33 4 -11 19
10 7 19 25 19 40 0 14 -3 22 -7 17 -3 -6 -17 -13 -31 -16 -19 -5 -29 -1 -39
15 -8 12 -16 17 -20 11 -4 -7 -11 -6 -19 3 -7 8 -8 14 -3 14 6 0 8 7 5 15 -4
10 0 15 15 15 12 0 21 5 21 11 0 5 -8 9 -17 8 -33 -3 -49 1 -69 16 -19 15 -19
15 1 9 19 -5 19 -5 2 9 -15 12 -16 20 -9 34 8 13 6 23 -6 37 -9 11 -11 16 -4
12 6 -4 12 -3 12 3 0 5 3 18 7 28 7 17 6 17 -11 0 -25 -24 -39 -11 -19 19 11
17 12 24 3 22 -7 -2 -15 3 -17 10 -3 8 2 10 14 6 16 -5 16 -4 -2 11 -21 17
-21 45 -2 57 7 5 3 8 -10 8 -24 0 -31 14 -12 25 6 4 8 23 5 46 -5 34 -3 39 14
39 13 0 20 7 20 18 0 10 3 21 6 24 8 9 44 -3 38 -13 -3 -5 1 -9 10 -9 8 0 16
-5 18 -12 5 -13 28 -2 28 13 0 6 -4 8 -8 5 -11 -6 -58 31 -49 40 3 4 20 7 36
6 23 0 29 3 24 15 -4 11 -3 14 6 9 7 -5 21 0 33 11 21 18 21 18 14 -2 -6 -16
-5 -18 5 -7 10 9 10 15 1 24 -10 10 -7 15 10 25 27 14 31 15 52 7z m-2785
-546 c11 17 41 -13 44 -44 5 -43 30 -102 79 -189 13 -22 40 -70 60 -106 21
-37 45 -70 54 -73 25 -10 29 1 5 14 -12 6 -19 15 -16 20 3 4 2 10 -2 12 -5 1
-23 33 -41 70 -27 54 -31 71 -22 85 10 16 10 16 5 -3 -3 -11 1 -29 9 -40 13
-17 15 -18 21 -2 6 15 9 16 21 3 22 -21 84 -118 84 -130 0 -5 -14 11 -31 38
-30 45 -49 59 -49 37 0 -6 7 -13 15 -16 8 -3 24 -22 37 -42 67 -108 78 -128
78 -142 0 -13 -1 -13 -11 0 -9 13 -10 13 -6 0 2 -8 9 -15 16 -15 17 0 31 -27
25 -50 -5 -18 -4 -19 6 -2 9 14 4 32 -29 93 -23 42 -41 79 -41 82 0 13 68 -94
89 -140 23 -52 26 -68 11 -68 -5 0 -10 5 -10 11 0 5 -4 8 -9 5 -4 -3 -6 -18
-4 -33 3 -23 0 -20 -18 15 -12 23 -24 41 -26 38 -2 -2 3 -18 12 -35 11 -22 13
-37 6 -48 -7 -14 -11 -9 -22 25 -7 23 -15 42 -19 42 -5 0 -11 11 -14 25 -4 14
-11 25 -17 25 -6 0 -8 4 -5 9 6 10 -42 66 -50 58 -3 -3 -1 -15 6 -26 9 -17 8
-21 -4 -21 -10 0 -13 6 -10 15 4 8 2 15 -4 15 -5 0 -9 8 -8 18 0 9 -5 16 -11
14 -7 -1 -13 2 -13 8 0 5 -5 10 -11 10 -5 0 -7 -6 -3 -12 12 -21 -30 25 -54
60 -23 32 -18 44 7 20 11 -10 10 -8 0 10 -8 12 -21 22 -30 22 -9 0 -22 6 -28
13 -8 10 -7 14 4 14 8 0 15 -5 15 -10 0 -6 2 -8 5 -5 12 12 -7 34 -27 33 -33
-2 -32 -19 2 -67 16 -24 38 -54 48 -68 9 -13 28 -35 40 -47 13 -12 21 -27 17
-33 -5 -8 -16 -2 -34 17 -33 34 -76 103 -64 103 4 0 0 5 -10 11 -16 9 -82 114
-82 131 0 3 -3 10 -7 14 -11 10 -10 24 1 24 5 0 12 -12 15 -26 5 -17 12 -24
21 -20 8 3 15 1 15 -3 0 -5 -4 -11 -10 -13 -6 -2 -6 -9 0 -18 7 -11 12 -12 21
-3 6 6 18 9 25 6 8 -3 14 -2 14 2 0 11 -43 79 -52 83 -5 2 -5 8 -2 13 7 11 30
-18 63 -81 14 -25 35 -59 48 -76 13 -17 23 -38 23 -47 0 -10 5 -17 10 -17 20
0 9 34 -23 74 -41 50 -62 87 -59 104 2 6 -2 12 -8 12 -6 0 -9 4 -5 9 3 5 -2
16 -10 24 -8 9 -15 21 -15 27 0 6 -4 9 -9 6 -5 -4 -7 2 -5 11 3 10 -9 46 -26
81 -16 34 -30 66 -29 70 0 4 3 1 6 -7 3 -8 8 -9 12 -3z m-24 -308 c72 -106
137 -189 150 -190 6 0 30 -30 55 -65 46 -67 54 -73 66 -54 4 7 15 1 30 -17 13
-16 23 -24 24 -18 0 6 -16 29 -36 50 -20 22 -34 31 -31 22 4 -12 2 -15 -8 -11
-8 3 -12 10 -8 17 3 6 3 8 -2 4 -12 -11 -35 11 -35 34 0 16 4 19 23 14 12 -4
31 -8 42 -9 19 -2 100 -125 89 -136 -3 -3 -9 1 -14 9 -8 12 -10 12 -16 -3 -9
-24 -23 -21 -34 8 -5 14 -14 25 -20 25 -6 0 -8 -4 -5 -10 16 -26 -16 -6 -44
28 -47 56 -47 55 -78 84 -43 39 -195 254 -210 297 -9 25 0 13 62 -79z m2193
68 c10 -10 14 -10 20 -1 6 9 19 2 45 -23 20 -20 37 -33 37 -29 0 4 8 -3 19
-16 22 -29 25 -85 5 -113 -14 -20 -14 -20 -15 -1 -1 20 -1 18 -15 -25 -4 -12
-7 -12 -13 -1 -7 10 -10 9 -16 -8 -5 -16 -12 -20 -26 -16 -11 4 -19 2 -19 -4
0 -15 -11 -13 -34 4 -14 11 -19 26 -18 55 1 28 -4 46 -18 60 -25 25 -47 25
-85 0 -36 -24 -39 -24 -59 -4 -21 21 -21 25 12 59 58 61 150 93 180 63z m-266
-105 c-2 -23 2 -44 7 -48 6 -3 11 -1 11 5 0 6 4 9 9 6 5 -4 12 0 15 6 3 9 9 8
20 -6 11 -13 14 -31 9 -62 -5 -37 -2 -46 20 -68 33 -33 67 -33 104 -2 39 33
60 21 44 -24 -6 -18 -11 -46 -11 -61 0 -33 -19 -48 -34 -27 -21 28 -36 9 -29
-34 4 -30 3 -39 -6 -34 -6 4 -9 11 -6 16 3 5 -3 14 -14 20 -17 9 -23 6 -37
-15 -22 -34 -12 -60 17 -45 28 16 33 8 9 -17 -10 -12 -16 -23 -14 -26 3 -3 -3
-10 -14 -16 -15 -8 -20 -25 -25 -73 -3 -35 -26 -128 -51 -208 -25 -80 -46
-162 -46 -182 0 -27 -4 -38 -15 -38 -8 0 -15 4 -15 9 0 5 -17 12 -37 16 -21 4
-32 10 -25 12 6 3 12 9 12 14 0 6 -4 8 -9 5 -4 -3 -16 3 -25 13 -12 13 -14 21
-6 26 5 3 8 11 4 16 -3 6 3 20 14 32 21 24 72 109 72 121 0 4 -4 4 -10 1 -19
-12 -10 17 20 59 16 24 26 46 23 50 -4 3 1 14 10 24 44 46 67 76 67 87 0 6
-13 21 -30 33 -29 22 -29 22 -40 2 -13 -24 -30 -26 -30 -4 0 9 9 18 20 21 25
7 25 12 0 98 -17 55 -20 85 -15 140 4 39 2 82 -4 97 -5 14 -7 29 -3 33 7 6 8
11 10 53 2 17 7 22 20 20 13 -3 16 -12 14 -45z m-805 -24 c67 -27 231 -69 266
-69 22 0 36 -4 32 -10 -3 -5 -12 -7 -20 -4 -8 3 -21 -1 -30 -9 -9 -9 -32 -15
-59 -15 -25 1 -52 -5 -60 -12 -13 -10 -17 -9 -22 4 -3 9 -17 16 -30 16 -13 0
-24 4 -24 9 0 5 -19 7 -41 5 -33 -4 -45 -1 -60 15 -13 14 -29 19 -49 17 -17
-2 -30 1 -30 7 0 5 -7 4 -15 -3 -9 -7 -19 -10 -23 -6 -10 11 28 36 54 36 12 0
27 7 34 15 15 18 38 19 77 4z m529 -519 c-2 -17 -15 -48 -30 -70 -15 -23 -25
-44 -22 -49 3 -4 -4 -15 -14 -24 -21 -18 -60 -138 -60 -184 0 -27 -5 -31 -42
-42 -24 -7 -51 -15 -60 -17 -10 -3 -18 -1 -18 5 0 6 21 17 48 24 34 10 48 20
50 34 3 18 -2 20 -30 17 -31 -4 -33 -2 -32 29 1 40 12 67 36 90 15 15 23 43
19 70 0 4 3 7 8 7 5 0 11 14 15 31 4 19 13 33 26 36 11 3 18 9 15 12 -2 4 11
15 30 24 19 9 35 21 35 27 0 5 7 10 15 10 10 0 14 -9 11 -30z m-366 -108 c0
-4 -4 -12 -9 -17 -4 -6 -14 -53 -20 -105 -11 -90 -57 -250 -71 -250 -4 0 -15
9 -25 20 -14 16 -15 19 -4 15 13 -5 15 1 13 32 -3 50 -4 53 -14 23 l-8 -25 -1
26 c-1 15 6 32 14 39 9 7 14 19 11 25 -2 7 -1 29 4 48 5 25 4 37 -4 40 -7 3
-5 14 7 36 10 18 16 39 13 47 -3 7 -1 14 5 14 6 0 8 9 4 20 -6 18 -2 20 39 20
25 0 46 -4 46 -8z m-1270 -260 c30 -30 37 -63 21 -99 -8 -18 -21 -33 -28 -33
-7 0 -12 -3 -11 -7 4 -19 -16 -64 -32 -73 -18 -10 -49 -4 -51 9 0 3 -1 26 -3
51 -1 26 -6 52 -11 60 -6 10 -4 11 6 4 8 -5 22 -7 32 -5 10 1 27 -5 38 -15 10
-9 22 -14 25 -11 12 11 -18 37 -41 37 -16 0 -24 7 -27 23 -4 18 0 23 16 23 17
-1 20 4 18 25 -3 30 23 36 48 11z m1531 -94 c5 -35 11 -81 15 -103 3 -22 8
-49 9 -60 2 -11 4 -22 5 -25 1 -3 1 -15 0 -27 -1 -13 3 -23 8 -23 5 0 6 -17 3
-37 -5 -28 -13 -41 -34 -51 -16 -8 -30 -12 -33 -9 -2 2 -6 30 -9 63 -8 86 -27
168 -41 177 -7 4 -11 14 -8 22 4 9 0 15 -10 15 -20 0 -19 7 5 45 10 17 24 41
31 55 29 59 49 45 59 -42z m346 58 c5 -4 11 -53 27 -201 4 -36 18 -75 28 -75
5 0 6 -6 1 -12 -12 -20 -13 -81 -1 -95 7 -9 7 -13 0 -13 -6 0 -16 14 -24 30
-7 17 -20 30 -29 30 -18 0 -41 52 -33 73 2 7 -2 30 -11 51 -9 21 -13 47 -9 58
4 14 2 18 -5 14 -7 -4 -9 -1 -5 7 7 19 -14 33 -29 18 -16 -16 -37 -14 -37 4 0
23 37 55 70 62 16 3 27 9 25 13 -3 5 1 11 7 14 7 3 -15 4 -49 3 -60 -3 -62 -3
-46 15 13 15 27 18 66 14 27 -3 51 -7 54 -10z m-912 -403 c17 -54 54 -110 55
-84 0 14 -14 63 -31 109 -5 14 -5 22 1 22 12 0 24 -27 40 -90 11 -43 38 -85
88 -137 29 -31 28 -37 -8 -29 -18 3 -30 1 -30 -5 0 -6 -4 -7 -10 -4 -5 3 -10
2 -10 -4 0 -5 -9 -9 -20 -8 -13 1 -25 15 -36 42 -11 26 -19 34 -21 24 -2 -10
6 -38 18 -63 23 -49 22 -74 -1 -31 -7 14 -17 25 -21 25 -8 0 -20 33 -39 108
-9 34 -18 47 -43 58 -31 14 -31 15 -4 9 27 -6 28 -5 21 30 -7 37 13 103 26 88
4 -4 15 -32 25 -60z m472 -34 c45 -2 52 -6 58 -26 3 -13 10 -23 15 -23 13 0
13 7 0 31 -7 13 -7 19 0 19 5 0 10 -7 10 -16 0 -14 3 -14 16 -4 13 12 14 10 3
-13 -14 -30 -1 -109 26 -160 8 -15 10 -25 4 -22 -5 4 -19 25 -30 48 -39 76
-54 72 -65 -15 l-9 -63 -5 55 c-3 30 -2 63 3 73 9 20 0 38 -11 21 -4 -6 -14
-13 -22 -16 -8 -3 -21 -27 -28 -53 -7 -26 -15 -45 -18 -43 -7 8 19 98 28 98 4
0 8 7 8 15 0 8 -4 15 -10 15 -5 0 -10 -4 -10 -10 0 -5 -3 -9 -7 -8 -13 4 -48
-25 -68 -55 -10 -15 -20 -25 -23 -23 -8 9 62 95 78 96 11 0 11 3 2 12 -13 13
-17 82 -4 74 5 -3 31 -6 59 -7z m-937 -48 c25 -11 51 -21 59 -21 15 0 96 -88
96 -104 0 -6 9 -16 20 -22 11 -6 19 -15 18 -21 -1 -6 10 -14 24 -18 19 -4 23
-9 14 -14 -9 -6 -10 -11 -2 -15 6 -4 14 0 17 8 3 9 12 16 20 16 8 0 11 -6 7
-16 -5 -13 -2 -15 15 -9 25 7 26 6 12 -29 -7 -19 -6 -26 2 -26 6 0 9 -3 5 -6
-3 -3 -14 -1 -23 4 -14 8 -21 6 -31 -6 -11 -16 -12 -16 -13 1 0 9 -4 17 -9 17
-5 0 -8 -7 -7 -16 0 -9 -5 -19 -13 -22 -8 -3 -12 1 -9 9 3 8 -1 19 -8 26 -16
17 -24 16 -24 -1 0 -9 -7 -12 -20 -9 -11 3 -19 13 -18 22 3 38 -3 52 -19 49
-10 -2 -17 3 -16 10 4 16 -12 15 -29 -2 -8 -7 -25 -16 -38 -20 -21 -6 -22 -5
-7 4 9 6 15 15 12 21 -4 5 3 9 14 9 12 0 21 5 21 11 0 7 -10 9 -26 5 -22 -6
-24 -5 -15 13 15 28 14 31 -13 31 -14 0 -27 4 -30 9 -4 5 5 8 19 6 14 -1 25 2
25 8 0 5 -9 7 -20 4 -11 -3 -23 -1 -26 5 -4 6 -10 5 -15 -3 -4 -7 -11 -10 -15
-6 -4 3 -3 12 3 19 17 23 13 57 -8 63 -27 9 -24 28 4 20 19 -5 20 -4 4 5 -9 6
-21 9 -26 6 -5 -3 -14 1 -21 9 -10 12 -7 13 17 6 15 -5 48 -18 73 -30z m1841
-98 c7 -20 6 -21 -17 -13 -21 8 -26 6 -34 -15 -5 -14 -15 -25 -22 -25 -13 -1
-8 -5 41 -40 13 -9 21 -26 22 -45 0 -29 1 -29 10 -7 5 13 7 28 3 33 -3 5 1 9
8 9 10 0 10 2 -1 9 -10 6 -10 10 -1 16 7 4 19 0 28 -9 11 -10 12 -16 4 -16 -7
0 -12 -5 -12 -10 0 -6 6 -10 13 -9 29 4 36 -3 43 -36 6 -36 -6 -124 -13 -92
-6 22 -33 23 -33 1 0 -12 -4 -14 -12 -7 -7 6 -22 9 -33 7 -11 -1 -22 2 -26 8
-4 6 -10 2 -14 -11 -8 -25 -41 -46 -50 -31 -10 16 -25 12 -19 -5 9 -23 -13
-18 -31 8 -16 21 -16 21 -11 1 9 -30 -37 -72 -59 -54 -13 11 -19 8 -40 -14
-13 -14 -29 -27 -35 -27 -5 -1 -14 -2 -19 -3 -5 0 -21 -13 -36 -28 -18 -18
-38 -28 -57 -28 -21 0 -31 -6 -38 -25 -6 -15 -17 -25 -29 -25 -11 0 -26 -7
-35 -15 -8 -8 -24 -15 -35 -15 -19 0 -61 -35 -61 -51 0 -16 -71 -28 -91 -16
-13 8 -22 9 -27 2 -10 -14 -49 -35 -66 -35 -8 0 -16 6 -19 13 -3 9 -9 9 -25 0
-21 -13 -32 -8 -32 14 0 8 -7 21 -15 30 -13 12 -18 13 -31 2 -17 -14 -20 -11
-58 46 -12 17 -15 18 -31 5 -22 -18 -45 -22 -39 -5 8 20 -25 27 -49 10 -30
-21 -37 -19 -37 10 0 18 5 25 20 25 11 0 20 5 20 11 0 6 14 8 33 6 28 -3 32
-7 30 -33 0 -16 1 -23 4 -16 2 6 8 10 13 7 4 -3 7 3 6 12 -2 10 -1 13 1 7 4
-12 43 -27 43 -17 0 13 -49 50 -53 40 -2 -6 -6 -1 -9 11 -4 12 -2 20 3 16 5
-3 9 0 9 5 0 6 7 11 15 11 14 0 13 3 -2 24 -16 22 -41 27 -28 6 3 -5 1 -11 -5
-15 -5 -3 -10 -14 -10 -24 0 -19 -48 -34 -111 -35 -16 -1 -25 -6 -22 -12 2 -7
0 -15 -6 -19 -6 -3 -11 0 -11 8 0 8 -9 22 -20 32 -23 20 -28 44 -6 26 12 -10
13 -8 9 8 -3 12 -10 21 -15 21 -5 0 -7 4 -4 9 7 11 46 2 46 -10 0 -5 -5 -9
-11 -9 -8 0 -8 -5 1 -15 11 -14 14 -13 25 1 6 9 18 15 25 12 9 -3 8 -8 -5 -21
-9 -10 -15 -21 -11 -24 3 -4 13 2 22 13 8 10 13 13 9 7 -4 -9 1 -13 14 -13 12
0 20 5 18 12 -1 6 7 16 18 22 11 6 20 17 21 24 3 37 5 42 18 42 8 0 18 9 21
20 3 11 12 20 20 20 7 0 20 3 29 6 11 4 16 1 16 -10 0 -9 4 -16 9 -16 5 0 7 8
4 18 -3 13 6 23 35 37 35 17 38 21 23 32 -14 11 -14 12 0 13 8 0 20 -5 26 -11
8 -8 16 -8 30 0 17 10 17 10 1 11 -10 0 -18 5 -18 10 0 14 16 12 29 -4 9 -11
8 -17 -4 -29 -20 -21 -19 -27 5 -27 12 0 20 7 20 17 0 14 4 12 25 -7 19 -18
25 -20 25 -8 0 9 -7 19 -16 22 -17 7 -10 26 10 26 16 0 58 -35 50 -43 -3 -3
-1 -8 4 -11 6 -3 12 1 16 9 3 8 1 15 -4 15 -21 0 -9 21 23 40 27 17 29 20 10
20 -12 0 -23 -6 -26 -12 -3 -9 -11 -7 -28 8 -13 12 -31 24 -39 27 -8 3 -2 6
14 6 16 1 34 -5 40 -13 9 -13 17 -13 48 -2 27 10 38 10 42 2 3 -7 8 -6 16 4
10 13 11 13 7 -2 -8 -23 13 -28 41 -10 20 13 22 13 22 -3 0 -11 5 -15 15 -11
8 3 21 9 29 12 10 4 16 -2 19 -18 4 -21 4 -20 6 5 1 25 31 42 31 16 0 -5 -4
-7 -10 -4 -5 3 -10 -1 -10 -10 0 -12 6 -15 23 -10 29 9 46 25 26 25 -9 0 -16
7 -16 15 0 8 6 15 14 15 7 0 13 5 13 10 0 6 9 10 20 10 11 0 20 -4 20 -10 0
-5 4 -10 8 -10 5 0 6 15 4 33 -3 17 -7 26 -9 20 -3 -7 -9 -13 -15 -13 -7 0 -7
5 1 13 6 8 7 17 3 22 -4 4 3 1 16 -6 14 -9 21 -21 18 -31 -2 -10 0 -18 4 -18
5 0 17 -3 27 -6 16 -6 15 -5 -2 9 -11 8 -17 18 -13 22 4 4 18 -2 32 -12 19
-15 22 -23 13 -32 -6 -6 -19 -11 -29 -11 -10 0 -18 -5 -18 -10 0 -6 16 -3 38
6 41 18 42 18 91 16 25 -2 32 -6 27 -18 -3 -9 -2 -12 5 -8 6 3 8 15 6 26 -4
12 -1 18 6 15 7 -2 12 -13 11 -25 0 -12 4 -18 9 -15 5 3 6 14 3 26 -3 11 0 30
6 41 10 18 9 19 -4 8 -13 -10 -17 -10 -22 3 -3 9 -2 13 4 10 9 -5 9 4 1 44 -1
2 -8 -2 -16 -9 -12 -10 -19 -10 -27 -2 -9 9 -9 12 1 12 18 0 38 23 33 38 -2 6
1 12 6 12 6 0 12 -6 14 -12 3 -9 11 -8 29 4 31 22 50 19 60 -9z m-1382 -123
c19 -19 32 -29 28 -22 -5 6 -4 12 2 12 6 0 11 -5 11 -10 0 -10 41 -7 60 5 5 3
10 13 10 21 0 8 -4 13 -9 10 -5 -4 -8 0 -7 8 3 23 48 52 83 54 31 2 57 -20 89
-74 10 -17 11 -17 17 0 4 10 3 15 -3 11 -6 -3 -10 1 -10 9 0 21 19 20 37 -1 9
-11 12 -12 7 -3 -4 8 3 5 15 -7 23 -24 27 -43 10 -43 -5 0 -8 4 -4 9 3 5 1 12
-5 16 -5 3 -10 -1 -10 -9 0 -8 -9 -18 -20 -21 -11 -3 -23 -17 -26 -30 -3 -13
-17 -34 -30 -46 -19 -18 -23 -19 -18 -6 5 15 3 16 -21 7 -39 -15 -60 -12 -86
10 -20 16 -22 21 -9 29 8 6 11 13 7 17 -4 4 -13 2 -19 -4 -15 -15 -69 -15 -88
1 -22 17 -53 66 -67 107 -17 47 -16 51 4 15 9 -16 32 -46 52 -65z m11 -1120
c0 -6 -12 -15 -27 -21 -16 -6 -51 -26 -80 -45 -40 -26 -62 -34 -98 -34 -43 0
-47 -2 -61 -35 -7 -19 -14 -37 -14 -40 0 -3 30 -6 68 -6 73 -1 68 -4 -20 -14
-52 -6 -59 -9 -64 -33 -4 -15 -11 -32 -16 -39 -5 -7 -6 -18 -2 -24 5 -8 3 -9
-5 -5 -7 5 -20 1 -29 -7 -33 -29 -128 -59 -218 -67 -96 -10 -124 -17 -124 -31
0 -12 27 -11 67 0 24 7 32 6 30 -2 -1 -7 16 -14 38 -18 l40 -5 -30 -12 c-16
-7 -37 -17 -45 -22 -8 -6 -23 -13 -32 -16 -10 -4 -18 -11 -18 -16 0 -5 8 -7
18 -4 10 4 26 0 35 -6 16 -12 14 -13 -10 -15 -15 0 -29 -6 -31 -12 -2 -6 -11
-11 -21 -11 -17 0 -41 -18 -41 -31 0 -4 10 -9 23 -11 12 -2 -12 -10 -53 -18
-70 -13 -73 -14 -46 -25 34 -14 23 -20 -58 -30 -58 -8 -141 9 -131 26 3 4 -11
6 -31 5 -25 -2 -46 -14 -73 -40 -43 -42 -67 -49 -29 -8 14 15 33 39 43 54 17
27 16 29 -19 92 -32 57 -39 96 -17 96 4 0 25 -13 47 -30 21 -16 47 -30 56 -30
9 0 19 -6 21 -12 3 -7 6 -4 6 8 1 11 4 24 9 28 4 4 7 11 8 14 4 38 18 81 24
77 5 -3 6 4 3 16 -4 13 -8 17 -13 9 -4 -6 -13 8 -20 35 -13 46 -40 72 -63 59
-6 -4 -9 -3 -4 1 4 5 -30 19 -75 32 -83 24 -120 43 -83 43 37 0 190 -24 195
-31 3 -3 31 -14 64 -23 68 -20 108 -14 145 20 18 17 34 23 51 20 14 -3 19 -3
13 0 -18 8 -16 24 2 24 8 0 15 -4 15 -10 0 -15 19 -12 37 5 8 8 19 12 25 9 6
-4 5 -10 -3 -15 -11 -7 -10 -9 4 -9 9 0 17 5 17 10 0 14 43 30 55 20 21 -17
52 -14 74 7 13 12 31 19 40 16 12 -4 13 -3 2 5 -18 13 1 25 48 29 19 2 41 9
47 14 7 6 35 11 62 12 28 1 48 5 45 10 -5 8 -4 8 52 11 22 1 67 17 100 34 66
34 75 37 75 22z m37 -176 c3 -8 12 -13 19 -10 7 3 16 0 20 -6 5 -7 9 -7 13 1
9 15 131 27 131 14 0 -6 -16 -14 -35 -17 -19 -4 -35 -11 -35 -17 0 -5 -6 -9
-13 -7 -6 2 -26 -7 -42 -18 -17 -12 -65 -38 -107 -58 -61 -28 -89 -36 -135
-36 -66 0 -89 10 -80 35 4 9 11 14 17 10 5 -3 19 3 31 14 12 11 27 17 34 15 7
-3 22 7 33 21 12 15 25 24 30 21 6 -3 12 3 15 14 4 14 14 20 35 20 17 0 34 5
37 10 9 15 25 12 32 -6z"/>
<path d="M2543 6409 l-32 -9 -3 -156 -3 -156 35 6 c19 3 46 6 59 6 l24 0 -7
98 c-12 176 -18 222 -30 221 -6 0 -25 -5 -43 -10z"/>
<path d="M2918 6015 c-21 -12 -25 -21 -23 -47 1 -18 4 -84 5 -146 3 -96 6
-114 21 -122 24 -13 49 -2 60 27 10 28 12 172 3 251 -7 57 -18 63 -66 37z"/>
<path d="M3049 5085 c-31 -17 -42 -48 -27 -80 25 -55 114 -51 144 7 15 29 15
32 -4 57 -23 31 -73 38 -113 16z"/>
<path d="M3447 5093 c-9 -2 -24 -17 -32 -33 -12 -23 -13 -34 -3 -55 13 -28 39
-38 89 -33 44 4 77 54 58 90 -7 13 -17 26 -23 30 -12 8 -60 9 -89 1z"/>
</g>
</svg>
