<?xml version="1.0" standalone="no"?>
<!DOCTYPE svg PUBLIC "-//W3C//DTD SVG 20010904//EN"
 "http://www.w3.org/TR/2001/REC-SVG-20010904/DTD/svg10.dtd">
<svg version="1.0" xmlns="http://www.w3.org/2000/svg"
 width="641.000000pt" height="1024.000000pt" viewBox="0 0 641.000000 1024.000000"
 preserveAspectRatio="xMidYMid meet">
<metadata>
Created by potrace 1.16, written by Peter Selinger 2001-2019
</metadata>
<g transform="translate(0.000000,1024.000000) scale(0.100000,-0.100000)"
fill="#000000" stroke="none">
<path d="M0 5120 l0 -5120 1638 2 1637 3 0 28 c1 17 8 33 18 38 9 6 17 17 17
25 0 9 12 31 27 51 23 30 27 46 29 107 3 90 -1 103 -37 122 -24 12 -29 19 -23
37 8 29 34 57 50 57 8 0 20 -13 29 -30 19 -36 30 -37 97 -6 29 14 61 27 72 31
18 5 18 6 1 25 -14 15 -17 36 -16 106 1 48 4 91 7 95 9 15 62 10 68 -7 10 -25
7 -156 -5 -196 -5 -21 -20 -50 -33 -64 -19 -23 -25 -25 -44 -15 -16 9 -30 8
-62 -5 -44 -18 -53 -41 -17 -46 18 -2 23 -10 25 -42 2 -21 -2 -51 -8 -67 -9
-21 -9 -36 0 -65 12 -37 12 -37 -34 -78 -48 -43 -57 -63 -31 -72 8 -4 15 -12
15 -20 0 -12 224 -14 1495 -14 l1495 0 0 5120 0 5120 -3205 0 -3205 0 0 -5120z
m4011 4020 c16 -9 19 -22 19 -95 0 -46 -3 -90 -6 -99 -7 -19 -45 -21 -62 -4
-19 19 -16 173 4 192 18 19 20 19 45 6z m-1970 -67 c13 -73 16 -70 33 30 4 23
12 37 21 37 12 0 15 -20 15 -106 0 -79 -3 -105 -12 -102 -7 3 -15 15 -19 29
l-6 24 -4 -24 c-6 -38 -24 -35 -36 6 l-10 38 -2 -37 c0 -21 -5 -38 -11 -38 -6
0 -10 42 -10 105 0 83 3 105 14 105 9 0 18 -23 27 -67z m1060 40 c15 -37 6
-163 -12 -174 -8 -5 -26 -9 -41 -9 l-28 0 0 105 0 105 35 0 c29 0 37 -5 46
-27z m631 -35 l15 -63 13 63 c8 39 18 62 26 62 11 0 14 -23 14 -105 0 -102 -8
-125 -29 -87 -10 16 -10 16 -11 -1 0 -29 -25 -14 -29 19 l-4 29 -6 -29 c-3
-16 -12 -31 -18 -34 -10 -3 -13 22 -13 102 0 85 3 106 14 106 9 0 19 -22 28
-62z m760 12 c4 -25 4 -69 1 -98 -4 -44 -9 -53 -29 -58 -49 -12 -54 -3 -54
106 l0 101 38 -3 c36 -3 37 -5 44 -48z m-2342 -375 c23 -28 2 -59 -78 -112
-54 -37 -87 -53 -110 -53 -18 0 -32 5 -32 12 0 6 35 47 78 90 81 81 115 96
142 63z m3158 3 c7 -7 12 -22 12 -34 0 -31 -152 -134 -197 -134 -18 0 -33 4
-33 8 0 5 35 45 78 90 80 83 111 99 140 70z m-4123 -249 c6 -6 21 -47 35 -92
l26 -82 52 -8 c29 -5 59 -6 67 -4 7 3 25 43 40 89 15 46 32 89 38 96 12 15
246 17 249 2 4 -32 0 -35 -42 -40 -45 -5 -45 -5 -48 -47 -3 -38 0 -43 30 -60
91 -48 190 -63 258 -39 32 12 38 20 70 107 32 83 39 94 62 97 23 3 28 -3 47
-53 12 -31 21 -58 21 -61 0 -2 14 -41 31 -86 l31 -81 68 5 c55 4 72 2 91 -13
13 -10 31 -19 40 -19 9 0 28 -12 43 -27 27 -26 111 -134 118 -151 7 -17 134
-112 150 -112 25 0 58 53 58 93 0 42 -36 77 -105 101 -25 9 -65 23 -90 32 -93
33 -135 91 -135 187 0 112 74 187 185 187 29 0 70 -7 91 -16 29 -12 43 -13 56
-5 44 27 49 17 46 -86 -3 -84 -6 -98 -20 -101 -13 -3 -24 12 -43 55 -31 70
-73 103 -131 103 -37 0 -79 -19 -96 -44 -4 -6 -8 -28 -8 -48 0 -46 13 -55 130
-93 47 -16 101 -38 121 -51 87 -55 105 -214 34 -318 -17 -25 -21 -38 -12 -40
6 -2 34 -10 61 -17 36 -9 64 -26 100 -61 33 -32 45 -49 35 -52 -8 -2 -39 -9
-69 -15 -31 -6 -90 -22 -130 -35 l-75 -24 65 -1 c36 -1 70 -5 76 -9 7 -4 13
-41 14 -87 3 -105 3 -105 -20 -105 -15 0 -26 12 -39 43 -10 23 -31 53 -45 67
-25 22 -36 25 -114 25 l-87 0 0 -115 0 -115 34 2 c39 2 66 29 75 75 4 22 11
28 31 28 l25 0 0 -140 0 -140 -25 0 c-21 0 -26 7 -36 46 -9 36 -18 49 -44 61
-57 27 -61 19 -64 -121 l-2 -126 89 0 c75 0 93 3 116 21 28 22 66 91 66 120 0
24 22 39 49 32 14 -4 20 -11 17 -20 -3 -8 -6 -57 -6 -109 l0 -94 -50 0 c-33 0
-50 -4 -51 -12 0 -10 -2 -10 -6 0 -3 9 -59 12 -230 12 l-224 0 3 23 c2 18 10
23 46 25 l42 3 -5 265 c-2 146 -7 270 -11 275 -3 6 -18 10 -32 9 -46 -3 -52
-1 -52 25 0 15 10 31 26 41 17 12 21 19 14 24 -8 5 -9 10 -2 14 7 4 6 21 -5
51 -15 44 -16 45 -59 45 -33 0 -46 5 -54 20 -9 18 -20 20 -86 19 -42 -1 -80 3
-85 8 -5 5 -35 6 -72 1 -34 -4 -105 -7 -157 -7 -129 2 -170 -7 -170 -36 0 -25
-17 -35 -59 -35 -15 0 -32 -5 -38 -11 -7 -7 -12 -1 -16 20 -6 28 -10 31 -46
31 -24 0 -43 6 -48 14 -4 8 -17 15 -28 18 -12 2 -20 11 -20 22 0 10 9 24 20
30 11 6 23 16 27 21 4 6 13 10 20 10 13 0 15 36 7 127 -3 33 -4 35 -17 20 -12
-15 -13 -13 -8 16 3 18 1 32 -4 32 -6 0 -10 -9 -10 -21 0 -11 -4 -18 -9 -15
-10 6 -16 -8 -65 -149 -30 -86 -32 -90 -61 -90 -33 0 -23 -23 -135 330 -17 55
-36 104 -41 110 -5 5 -9 -68 -9 -187 l0 -197 43 -3 c37 -3 42 -6 42 -28 0 -25
-1 -25 -100 -28 -118 -3 -145 2 -145 27 0 22 19 31 61 31 l29 0 -2 273 -3 272
-42 3 c-34 3 -43 7 -43 22 0 10 7 23 15 27 19 11 237 4 250 -8z m2355 -276
c56 -164 107 -304 113 -311 7 -9 33 -12 86 -10 l76 3 3 278 2 277 -45 0 c-41
0 -45 2 -45 25 l0 25 163 -2 c154 -3 162 -4 162 -23 0 -16 -8 -21 -45 -25
l-45 -5 0 -275 0 -275 24 -3 c14 -2 53 -1 88 3 97 10 123 39 148 158 4 22 11
28 28 25 27 -4 32 -44 22 -155 l-7 -73 -429 0 c-422 0 -429 0 -429 20 0 17 7
20 40 20 46 0 47 4 24 76 -25 75 -26 75 -123 72 l-86 -3 -22 -60 c-30 -83 -30
-85 17 -85 34 0 40 -3 40 -20 0 -20 -5 -21 -107 -18 -88 2 -108 6 -108 18 0
10 12 16 37 18 29 3 38 8 46 30 44 122 177 489 193 535 19 50 25 57 49 57 26
0 29 -6 130 -297z m1780 -13 l106 -305 37 -3 c29 -3 37 -7 37 -23 0 -19 -7
-19 -157 -17 -133 3 -158 5 -158 18 0 10 13 16 43 18 48 4 49 5 19 87 l-22 60
-91 3 -92 3 -21 -63 c-28 -83 -27 -86 16 -90 27 -2 39 -8 41 -20 3 -16 -7 -18
-107 -18 -104 0 -111 1 -111 20 0 16 7 20 35 20 23 0 38 6 44 18 5 9 47 123
94 252 137 378 125 352 155 348 24 -3 31 -20 132 -308z m-690 275 c0 -23 -4
-25 -45 -25 l-45 0 0 -281 0 -282 78 6 c44 2 93 12 110 21 33 17 72 80 72 115
0 32 11 51 30 51 11 0 21 -4 24 -9 3 -5 3 -57 -1 -115 l-6 -106 -274 0 c-256
0 -274 1 -271 18 2 12 15 18 46 20 l42 3 0 280 0 279 -39 0 c-42 0 -57 11 -47
35 4 12 35 15 166 15 l160 0 0 -25z m-1260 -794 c0 -16 44 -21 56 -7 8 12 12
11 23 -6 11 -17 19 -19 63 -13 34 5 48 4 44 -3 -4 -7 15 -13 50 -18 32 -4 58
-12 61 -20 3 -8 9 -11 14 -8 16 9 119 -26 119 -41 0 -7 9 -16 19 -20 12 -3 18
-12 15 -20 -3 -7 3 -16 15 -20 12 -3 21 -12 21 -20 0 -11 7 -12 39 -6 2 1 -3
9 -10 18 -12 15 -12 16 2 11 18 -7 26 6 61 100 17 46 23 52 48 52 26 0 29 -5
65 -107 20 -60 50 -138 65 -174 35 -79 52 -124 48 -124 -1 0 8 -17 20 -37 13
-21 21 -42 17 -47 -3 -6 8 -17 24 -26 44 -22 50 -39 13 -33 -26 4 -29 2 -22
-13 6 -11 17 -15 35 -11 18 3 32 -2 46 -17 11 -11 24 -21 29 -21 8 0 16 63 11
92 0 4 4 19 9 33 13 35 47 33 61 -2 19 -55 45 -95 71 -114 82 -59 194 -14 205
83 7 60 -22 87 -140 128 -156 54 -192 98 -185 222 4 72 20 104 71 142 38 28
148 34 202 12 26 -11 42 -13 49 -6 5 5 20 10 33 10 22 0 23 -3 23 -94 0 -77
-3 -95 -16 -100 -23 -9 -32 0 -46 46 -36 122 -186 155 -235 53 -16 -33 -16
-39 -2 -63 12 -22 35 -34 122 -63 59 -19 119 -44 134 -55 85 -63 92 -239 14
-328 -49 -55 -162 -75 -248 -44 -39 14 -43 14 -59 -3 -17 -19 -41 -15 -59 8
-9 12 -16 11 -44 -3 l-34 -17 24 -18 c14 -11 18 -19 10 -19 -7 0 -25 12 -38
26 -13 14 -27 23 -30 20 -4 -3 2 -13 13 -20 10 -8 16 -17 13 -21 -4 -3 -19 5
-34 19 -28 26 -85 36 -85 15 0 -8 -4 -8 -12 -1 -18 14 -161 12 -170 -2 -6 -8
-8 -8 -8 1 0 24 47 62 79 65 38 3 44 8 25 26 -12 11 -15 10 -20 -2 -4 -9 -18
-16 -33 -16 -14 0 -21 4 -15 8 6 4 15 17 19 30 4 15 12 21 21 18 24 -9 16 23
-11 40 -16 11 -34 14 -55 9 -19 -4 -30 -3 -30 4 0 6 -18 11 -40 11 -29 0 -42
-5 -50 -19 -13 -25 -13 -61 0 -61 6 0 10 -5 10 -10 0 -6 -8 -10 -17 -8 -10 2
-19 -4 -21 -14 -2 -13 5 -17 35 -20 32 -3 38 -7 38 -26 0 -23 -4 -24 -80 -27
-44 -1 -92 -6 -107 -10 -19 -5 -28 -3 -28 5 0 18 -110 7 -125 -14 -17 -23 -27
-20 -20 7 5 20 5 20 -7 5 -11 -13 -18 -14 -33 -5 -13 8 -83 13 -190 14 -93 1
-176 2 -182 3 -7 0 -13 7 -13 15 0 9 -7 18 -15 21 -23 9 -18 44 8 53 12 5 23
5 25 0 6 -15 20 -10 25 9 4 15 6 14 12 -5 8 -26 35 -39 35 -18 0 8 -5 15 -12
15 -6 0 -8 3 -5 7 4 3 2 13 -5 20 -9 11 -9 16 0 21 22 14 29 59 26 177 -1 66
-3 158 -3 203 l-1 84 -40 -6 c-29 -4 -42 -2 -46 7 -8 22 -64 8 -74 -17 -10
-27 -36 -50 -48 -42 -6 3 -13 18 -17 33 -3 15 -12 31 -18 35 -7 4 12 8 41 8
32 0 69 8 95 20 23 11 58 21 79 22 21 1 38 5 38 11 0 5 24 6 59 2 38 -4 61 -3
65 4 9 13 26 15 26 2z m-1405 -32 c33 -6 73 -18 88 -26 48 -24 113 -90 132
-133 10 -22 21 -40 24 -40 4 0 6 -51 6 -112 -1 -132 -17 -178 -87 -247 -79
-80 -137 -93 -373 -89 -162 3 -170 4 -170 23 0 16 8 21 43 23 l42 3 0 274 0
274 -42 3 c-33 2 -44 8 -46 22 -2 10 2 22 10 27 19 13 304 11 373 -2z m2019
-754 c-4 -8 -13 -15 -20 -15 -20 0 -29 -27 -15 -44 9 -10 9 -16 1 -21 -6 -4
-8 -15 -5 -26 6 -18 -22 -68 -38 -69 -5 0 -5 5 -2 10 3 6 -5 10 -19 10 -14 0
-27 -4 -30 -9 -11 -17 -15 -505 -5 -523 8 -14 23 -18 69 -18 110 0 161 36 183
130 12 49 31 70 50 51 12 -12 4 -208 -9 -221 -11 -11 -507 -15 -525 -5 -5 4
-9 15 -9 25 0 15 9 19 43 22 l42 3 1 225 c1 290 -2 320 -30 320 -36 0 -66 12
-66 25 0 27 29 35 128 36 85 0 103 3 121 20 11 11 21 15 21 9 0 -5 5 -10 10
-10 6 0 10 7 10 15 0 8 13 21 29 29 16 9 31 22 34 31 4 8 13 15 21 15 10 0 13
-6 10 -15z m-1321 -98 c126 -7 180 -29 210 -87 21 -41 17 -118 -8 -156 -19
-29 -19 -34 0 -34 12 0 13 -3 3 -19 -14 -24 -63 -32 -80 -15 -9 9 -18 10 -28
4 -11 -7 -6 -13 23 -25 50 -21 76 -78 85 -188 l7 -82 40 -5 c31 -4 40 -9 40
-25 0 -37 -119 -48 -172 -15 -48 29 -63 59 -73 150 -12 101 -33 141 -85 158
-64 21 -65 19 -65 -133 l0 -135 40 0 c43 0 65 -24 39 -41 -22 -15 -295 -7
-311 9 -18 18 6 32 55 32 l37 0 -2 278 -3 277 -40 3 c-48 4 -63 16 -45 37 9
11 33 15 101 15 50 0 91 4 94 10 4 7 11 7 18 2 7 -5 61 -12 120 -15z m-1185
-2 c29 -13 41 -13 59 -4 40 21 53 6 54 -66 1 -36 2 -71 3 -77 4 -23 -14 -48
-34 -48 -15 0 -27 15 -44 53 -32 72 -64 99 -124 105 -44 4 -53 1 -83 -26 -26
-23 -33 -37 -33 -66 0 -47 16 -59 137 -96 63 -20 109 -41 132 -61 103 -91 78
-294 -45 -356 -57 -30 -140 -31 -195 -3 -34 18 -41 18 -55 5 -22 -20 -46 -19
-54 1 -13 34 -6 162 9 178 21 20 42 11 50 -22 9 -40 55 -101 86 -118 16 -8 49
-14 75 -14 39 0 51 5 80 34 29 29 34 41 34 79 0 59 -31 86 -139 122 -103 34
-141 60 -168 115 -35 69 -25 168 24 222 47 53 157 73 231 43z m3622 -7 c6 -13
55 -151 109 -308 96 -281 98 -285 127 -288 41 -5 58 -21 42 -39 -9 -11 -39
-14 -147 -12 -145 3 -181 10 -160 35 6 8 27 14 45 14 41 0 42 8 13 84 l-22 56
-92 0 -92 0 -22 -59 c-28 -77 -27 -81 14 -81 23 0 38 -6 42 -15 3 -9 3 -18 1
-20 -9 -9 -195 -13 -208 -5 -24 15 -3 40 34 40 33 0 36 3 54 53 10 28 59 162
107 297 48 135 92 251 98 258 15 19 47 14 57 -10z m626 -1 c28 -14 32 -14 47
0 8 9 23 13 32 10 13 -6 15 -22 13 -99 -3 -84 -5 -93 -23 -96 -16 -2 -26 10
-46 57 -34 76 -74 104 -139 98 -79 -9 -127 -90 -80 -137 10 -10 59 -31 107
-45 147 -44 196 -89 209 -191 12 -103 -45 -212 -129 -243 -43 -17 -127 -13
-172 8 -35 16 -43 16 -62 3 -44 -28 -53 -12 -53 93 0 76 3 97 15 101 21 9 42
-12 50 -48 4 -16 26 -50 49 -74 39 -40 47 -44 90 -44 79 0 136 50 136 119 0
43 -32 73 -106 100 -32 12 -78 28 -101 37 -89 33 -123 84 -123 185 0 123 75
195 195 186 34 -2 75 -11 91 -20z m-4661 -3 c12 -13 15 -33 13 -98 -4 -98 -20
-107 -58 -32 -38 75 -65 90 -166 95 l-84 3 0 -127 0 -128 36 6 c46 8 72 31 80
73 6 34 22 47 43 35 8 -5 11 -46 9 -142 -3 -126 -4 -134 -23 -134 -12 0 -21 8
-23 20 -10 51 -34 85 -70 94 -19 6 -39 8 -45 4 -15 -9 -3 -206 13 -211 7 -3
21 -13 32 -24 17 -17 23 -18 49 -6 16 7 29 16 29 20 0 5 8 8 18 8 11 0 13 -3
5 -8 -23 -15 1 -29 34 -20 37 10 61 41 83 107 11 34 20 46 35 46 18 0 20 -8
23 -90 3 -108 -2 -135 -27 -135 -10 0 -22 -8 -25 -17 -4 -10 -4 -14 0 -11 14
14 44 -13 44 -40 0 -15 7 -36 15 -46 8 -11 15 -14 15 -8 0 7 4 12 10 12 5 0 9
-5 7 -12 -1 -7 13 -15 33 -18 26 -4 42 -16 68 -50 19 -25 44 -50 57 -55 13 -6
32 -21 44 -35 11 -14 20 -19 21 -12 0 17 31 15 58 -4 19 -13 22 -13 22 0 0 8
6 17 13 20 8 4 9 8 1 11 -8 4 -9 18 -4 42 10 41 30 66 37 46 3 -7 11 -13 19
-13 8 0 14 6 15 13 1 6 5 1 9 -13 6 -18 8 -20 9 -7 1 10 6 15 11 12 6 -3 10
-1 10 6 0 8 3 9 9 4 4 -6 18 -62 31 -125 28 -147 68 -267 135 -406 50 -106
145 -261 192 -314 12 -14 30 -35 40 -46 58 -68 123 -134 132 -134 5 0 20 -13
33 -28 12 -15 25 -28 28 -28 3 0 24 -14 47 -30 41 -28 53 -44 33 -44 -5 0 -10
5 -10 10 0 6 -7 10 -15 10 -8 0 -15 4 -15 10 0 5 -10 15 -22 21 -23 11 -23 11
1 -15 14 -14 22 -29 18 -32 -4 -4 -15 4 -26 17 l-20 24 -12 -33 c-8 -24 -14
-30 -20 -21 -4 7 -2 21 6 32 9 13 11 27 5 42 -5 13 -6 26 -3 29 3 3 -9 4 -26
1 -26 -3 -32 -1 -27 12 4 9 -3 24 -18 38 -33 31 -49 35 -64 16 -14 -17 -14
-10 3 31 5 13 0 20 -19 28 -15 5 -24 15 -20 23 7 18 -57 87 -82 87 -14 0 -16
2 -5 9 20 13 -26 73 -50 66 -19 -6 -35 16 -49 64 -7 24 -8 24 -16 7 -5 -13 -3
-21 4 -24 17 -5 15 -22 -2 -22 -8 0 -17 8 -20 17 -4 10 -10 13 -15 7 -13 -13
-17 -56 -8 -71 6 -9 2 -13 -13 -13 -17 0 -19 5 -15 28 3 15 2 20 -1 12 -10
-21 -26 -30 -46 -24 -10 3 -22 -4 -32 -17 -12 -17 -18 -20 -29 -11 -17 15 -57
4 -57 -15 0 -12 -6 -11 -32 6 -18 11 -33 26 -34 33 0 7 -2 16 -2 20 -1 4 -20
0 -43 -9 -29 -11 -43 -13 -48 -5 -4 6 -36 13 -71 16 -36 2 -67 5 -70 6 -3 1
-9 2 -14 1 -4 -1 -14 6 -22 16 -13 17 -13 17 -14 1 0 -19 -15 -24 -24 -9 -7
10 -25 9 -43 -2 -8 -5 -13 -3 -13 7 0 8 4 16 10 18 5 2 -6 13 -25 26 -28 18
-35 19 -35 7 0 -8 8 -15 17 -15 13 0 14 -3 6 -11 -14 -14 -47 -4 -38 11 6 10
-9 19 -37 24 -7 1 -18 4 -23 8 -6 3 -27 6 -47 5 -29 -1 -35 -4 -26 -14 6 -7
22 -13 37 -13 14 0 33 -5 41 -11 13 -9 13 -10 0 -8 -8 1 -24 -2 -34 -6 -13 -6
-23 -3 -31 8 -7 10 -22 17 -34 17 -11 0 -21 5 -21 10 0 6 -5 10 -10 10 -6 0
-5 -8 2 -20 15 -23 13 -25 -29 -33 -24 -5 -33 -3 -33 7 0 7 -12 18 -27 25 -20
9 -23 15 -14 20 8 5 -10 11 -45 15 -83 10 -104 16 -104 31 0 9 -19 11 -70 8
-64 -3 -87 5 -60 22 15 9 12 25 -5 25 -9 0 -21 13 -28 29 -10 23 -16 27 -29
20 -22 -12 -49 4 -66 39 -16 34 -15 43 3 36 21 -8 19 9 -5 36 -12 14 -18 31
-14 42 10 31 -27 98 -58 105 -16 3 -28 11 -28 18 0 18 -39 50 -64 51 -88 5
-96 8 -96 30 0 13 -4 26 -10 29 -15 9 -12 32 7 51 9 9 16 31 16 48 -1 24 5 35
21 42 26 11 25 26 -4 40 l-22 12 21 7 c21 6 30 35 11 35 -5 0 -10 5 -10 11 0
5 5 7 11 3 14 -8 29 14 29 42 0 15 8 24 25 28 14 4 25 13 25 22 0 9 10 24 23
35 19 16 19 18 5 19 -10 0 -18 5 -18 11 0 6 7 8 16 5 8 -3 22 1 30 9 8 8 23
19 32 25 16 9 16 11 0 20 -30 18 -50 42 -41 51 4 4 27 9 49 10 42 3 64 -7 113
-50 25 -22 51 -28 51 -12 0 5 7 17 16 26 13 12 14 19 5 28 -15 15 -14 27 4 27
16 0 56 -35 49 -43 -3 -3 7 -14 22 -26 26 -21 27 -22 8 -36 -18 -14 -18 -14 9
-15 15 0 27 -4 27 -10 0 -16 27 -11 34 6 3 9 6 123 6 255 l0 239 -45 0 c-38 0
-45 3 -45 19 0 11 5 21 10 23 6 2 121 4 255 6 213 2 245 0 260 -14z m1182 8
c7 -4 13 -46 15 -112 3 -101 2 -105 -19 -108 -18 -3 -24 5 -38 54 -10 35 -28
68 -45 84 -31 29 -88 46 -102 32 -5 -5 -7 -130 -6 -278 l3 -269 43 -3 c45 -3
67 -26 41 -42 -23 -15 -315 -12 -327 3 -18 21 0 35 48 39 l45 3 0 275 0 275
-35 -3 c-58 -6 -98 -44 -117 -113 -14 -50 -20 -59 -40 -59 -23 0 -23 1 -23
108 0 60 3 112 7 115 9 10 535 8 550 -1z m1291 -27 c2 -16 9 -33 15 -37 9 -6
8 -8 -2 -8 -10 0 -12 -11 -9 -44 10 -88 -30 -103 -66 -23 -27 62 -43 77 -87
81 -19 2 -41 7 -50 10 -9 4 -36 6 -60 4 l-44 -3 -3 -122 c-3 -122 -2 -123 20
-123 42 0 72 24 89 70 12 31 22 45 35 45 18 0 19 -10 19 -140 0 -129 -1 -140
-18 -140 -13 0 -23 12 -32 38 -19 55 -42 77 -82 77 l-33 0 0 -130 0 -130 74 0
c118 0 175 37 192 127 7 38 27 58 50 49 15 -6 16 -19 11 -107 -3 -56 -9 -105
-14 -110 -5 -5 -127 -8 -279 -7 -261 3 -269 4 -269 23 0 16 8 21 41 23 l41 3
7 76 c8 97 8 401 0 442 -5 23 -12 31 -28 31 -39 0 -66 12 -66 29 0 10 3 21 7
24 4 4 126 6 272 5 l266 -3 3 -30z m977 5 c0 -21 -5 -25 -35 -28 -19 -2 -39
-8 -44 -13 -11 -10 -20 -455 -10 -508 l5 -34 82 6 c76 6 83 9 116 42 23 25 38
52 46 88 10 45 15 52 36 52 24 0 24 0 24 -112 0 -62 -3 -115 -7 -118 -7 -8
-517 -7 -529 1 -5 3 -9 14 -9 24 0 15 9 19 43 22 l42 3 0 272 0 273 -25 0
c-43 0 -70 12 -70 29 0 10 3 21 7 25 4 3 79 5 167 4 l161 -3 0 -25z m-1151
-1231 c52 -24 66 -53 66 -138 0 -32 4 -61 10 -67 5 -5 14 -57 19 -114 21 -228
20 -248 -14 -220 -16 14 -20 3 -6 -19 5 -7 44 -32 87 -55 65 -34 86 -52 116
-97 20 -29 44 -74 53 -99 8 -25 21 -53 28 -62 12 -15 16 -15 54 2 l41 18 0
-24 c0 -13 -4 -24 -9 -24 -13 0 -11 -44 3 -58 9 -9 9 -12 0 -12 -6 0 -16 8
-22 18 -8 13 -9 11 -4 -13 3 -16 8 -37 11 -45 3 -8 7 -19 9 -25 1 -5 8 -30 14
-55 11 -41 10 -50 -13 -102 -14 -32 -31 -58 -37 -58 -7 0 -8 6 0 19 13 24 13
71 1 71 -5 0 -13 10 -16 23 -12 39 -57 97 -76 97 -11 0 -19 -5 -19 -12 0 -9
-3 -9 -12 0 -10 10 -10 15 2 22 8 5 18 6 22 4 4 -3 8 0 8 7 0 7 10 3 23 -9 13
-12 29 -22 35 -22 21 0 13 19 -15 35 -21 12 -23 14 -6 10 12 -3 24 -1 28 5 3
5 -2 10 -12 10 -17 1 -17 2 1 15 19 15 19 15 -1 15 -24 0 -39 15 -23 25 6 4 4
15 -6 31 -9 13 -12 24 -8 24 5 1 -2 7 -16 14 -14 8 -28 12 -32 10 -3 -2 -9 0
-13 6 -4 6 -10 8 -15 5 -5 -3 -12 5 -16 19 -7 28 -41 62 -69 69 -16 4 -15 5 6
6 24 1 41 -13 68 -58 5 -8 16 -11 25 -8 19 8 21 27 3 27 -8 0 -19 11 -25 25
-7 15 -17 22 -26 19 -8 -3 -17 -1 -21 5 -3 6 1 14 9 17 20 8 3 44 -21 44 -8 0
-31 16 -49 36 -20 21 -46 37 -63 39 -30 4 -36 -2 -88 -89 -12 -19 -13 -18 -13
17 0 24 -4 36 -12 35 -24 -5 -20 43 7 82 24 35 26 45 22 112 -5 79 -27 208
-37 208 -3 0 -28 20 -55 44 -30 27 -54 42 -63 38 -11 -4 -14 -1 -9 10 3 9 0
19 -8 22 -8 3 -17 20 -20 38 -5 26 -16 38 -49 55 -24 12 -53 19 -66 16 -14 -2
-36 0 -50 6 -21 8 -17 10 30 10 62 1 115 -11 175 -39 41 -20 73 -18 108 6 18
11 18 13 1 22 -9 5 -14 14 -10 21 9 14 9 14 60 -10z m222 -1344 c3 -19 3 -48
-2 -63 -14 -49 -10 -166 8 -208 44 -106 69 -180 74 -222 4 -26 12 -66 20 -90
8 -23 14 -62 14 -85 0 -23 7 -73 15 -112 8 -38 16 -86 19 -105 2 -19 13 -55
24 -80 21 -48 25 -66 23 -115 -1 -23 -3 -27 -11 -15 -5 8 -10 26 -10 39 0 18
-4 22 -20 18 -26 -7 -27 -5 -34 83 -4 41 -9 76 -11 78 -3 3 -11 -1 -20 -8 -20
-17 -19 -8 6 35 18 31 19 34 4 29 -14 -6 -16 -3 -10 15 5 18 2 24 -15 28 -11
3 -19 11 -17 17 2 6 0 21 -4 34 -5 13 -5 22 1 22 6 0 10 11 10 25 0 15 -6 25
-14 25 -21 0 -30 19 -27 59 2 30 0 33 -14 21 -18 -15 -17 -16 -33 31 -18 52
-15 68 7 40 12 -16 21 -20 25 -12 4 6 16 11 26 11 16 0 18 4 9 28 -5 16 -17
28 -28 29 -11 1 -37 15 -60 31 -22 16 -61 35 -86 42 -25 7 -45 16 -45 21 0 5
-7 6 -15 3 -26 -10 -45 14 -34 43 9 25 -3 81 -24 111 -10 13 -3 15 31 6 21 -6
21 -7 5 -19 -16 -12 -16 -16 7 -65 23 -49 30 -55 111 -96 48 -24 90 -48 94
-54 3 -5 11 -10 16 -10 5 0 1 10 -11 22 -11 12 -20 32 -20 44 0 13 -4 26 -10
29 -5 3 -10 15 -10 26 0 16 -5 19 -20 14 -22 -7 -24 -2 -11 23 19 37 22 72 7
72 -9 0 -21 -6 -28 -13 -19 -21 -48 -9 -44 17 3 18 9 20 40 18 27 -3 36 0 36
12 0 12 -7 14 -32 9 -18 -3 -37 -10 -42 -14 -16 -15 -63 -10 -81 7 -24 24 -5
38 36 27 44 -12 126 -5 132 11 4 9 -5 13 -24 14 -37 1 -49 9 -49 32 0 10 -10
26 -21 34 -21 14 -21 15 15 50 29 29 43 36 75 36 38 0 40 -2 47 -35z m-341
-532 c5 -21 8 -24 16 -12 6 10 9 6 9 -16 0 -16 7 -41 15 -55 l15 -25 6 23 c8
27 35 29 52 2 7 -11 18 -20 26 -20 7 0 20 -8 30 -18 14 -16 15 -27 6 -71 -6
-30 -6 -60 -1 -69 5 -10 12 -35 16 -57 5 -28 20 -52 51 -84 24 -24 42 -46 39
-49 -3 -3 -11 0 -17 6 -7 7 -19 12 -28 12 -12 0 -12 -2 -2 -9 7 -4 14 -22 14
-39 1 -18 5 -32 10 -32 4 0 8 -7 8 -15 0 -8 -7 -15 -17 -15 -14 0 -14 -2 2
-20 10 -11 24 -20 32 -20 7 0 13 -4 13 -10 0 -5 -9 -10 -19 -10 -11 0 -21 -8
-24 -17 -2 -11 -21 17 -50 76 -25 51 -43 99 -41 106 3 7 -24 76 -61 153 -36
78 -67 155 -67 172 -1 18 -7 34 -14 37 -8 3 -19 23 -25 44 -7 21 -16 39 -21
39 -5 0 -6 5 -3 10 11 18 23 11 30 -17z m2182 -519 c202 -45 382 -160 515
-328 52 -66 122 -206 149 -298 27 -95 36 -271 19 -375 -65 -407 -406 -715
-816 -740 -435 -26 -813 256 -915 683 -18 76 -20 110 -16 229 5 150 28 247 85
360 182 362 589 557 979 469z m-1905 -841 c10 -9 18 -24 18 -35 0 -14 -8 -18
-35 -18 -46 0 -45 -16 4 -64 59 -57 59 -72 0 -97 -27 -12 -49 -27 -49 -34 0
-7 -7 -18 -15 -25 -17 -14 -20 -66 -5 -75 19 -12 10 -33 -20 -45 -26 -11 -30
-18 -30 -52 0 -26 -5 -41 -16 -45 -8 -3 -20 -16 -24 -29 -9 -23 -10 -23 -47
-8 -21 9 -42 20 -47 24 -15 14 17 70 52 90 24 14 32 26 30 42 -1 13 4 45 11
71 10 35 21 52 42 62 15 8 31 25 34 37 4 13 14 31 23 40 13 16 13 20 -3 44
-20 31 -13 70 15 79 11 3 20 14 20 24 0 33 15 39 42 14z m268 -236 c0 -7 -23
-26 -51 -42 l-50 -30 25 -22 c14 -12 26 -31 26 -43 0 -30 -41 -67 -89 -80 -42
-11 -43 -16 -16 -50 7 -8 23 -48 35 -88 l23 -73 -20 -22 c-12 -12 -28 -36 -37
-54 -12 -24 -28 -35 -68 -49 -51 -17 -52 -17 -30 -32 34 -22 102 -91 102 -102
0 -6 -16 -18 -35 -27 -33 -16 -35 -20 -35 -65 0 -37 -5 -52 -21 -66 -38 -31
-59 -56 -59 -70 0 -9 -6 -12 -17 -7 -10 4 -34 9 -53 12 -59 8 -61 10 -49 37 7
14 29 32 51 41 39 15 44 42 6 29 -32 -10 -11 16 26 32 30 13 30 13 6 15 -32 3
-62 6 -77 8 -20 2 -15 18 13 46 18 18 29 23 34 15 5 -8 10 -7 19 3 6 8 34 18
63 21 l51 7 -54 33 c-30 19 -65 43 -77 55 -15 14 -34 21 -50 19 -27 -3 -29 -8
-16 -42 6 -16 5 -17 -14 -7 -12 6 -26 20 -32 31 -9 17 -7 22 12 29 71 27 206
35 166 10 -10 -7 -9 -9 4 -9 24 0 48 11 48 22 0 5 -4 6 -10 3 -17 -10 -11 11
10 38 11 14 36 31 55 37 29 9 33 15 26 29 -7 13 -19 16 -45 13 -33 -4 -35 -3
-42 34 -6 32 -4 40 15 52 27 19 27 33 -4 62 -32 30 -32 40 4 40 15 0 42 5 59
11 27 9 31 15 26 36 -5 19 -2 25 15 30 23 6 27 23 10 40 -23 23 33 73 82 73
11 0 22 7 25 15 7 18 14 19 14 2z m24 -1082 c8 -18 24 -38 35 -45 29 -15 26
-31 -13 -62 -19 -15 -48 -53 -65 -84 -29 -55 -31 -63 -31 -171 0 -89 -3 -113
-14 -113 -8 0 -19 20 -27 48 l-13 47 -4 -47 c-2 -34 -7 -48 -18 -48 -11 0 -14
20 -14 105 0 61 4 105 10 105 12 0 30 -34 36 -68 8 -44 14 -38 14 16 0 28 4
53 9 56 5 3 7 15 4 26 -3 11 -1 26 5 33 6 7 9 23 5 36 -4 16 0 27 16 37 12 9
19 20 15 25 -3 5 5 18 17 28 l23 18 -22 12 c-24 13 -27 27 -12 66 12 31 25 25
44 -20z m-534 -284 c14 -27 13 -164 -2 -179 -7 -7 -25 -12 -40 -12 l-28 0 0
105 0 105 30 0 c19 0 33 -7 40 -19z m1020 -529 c0 -5 -16 -16 -36 -25 -42 -20
-38 -32 18 -49 39 -12 40 -12 15 -19 -14 -4 -60 -6 -102 -4 -68 3 -79 7 -111
34 -19 17 -47 31 -62 32 -49 2 45 19 153 28 55 4 106 9 113 10 6 0 12 -3 12
-7z"/>
<path d="M3321 8170 c-18 -49 -30 -94 -26 -100 3 -5 33 -10 66 -10 49 0 59 3
59 17 0 24 -53 183 -61 183 -3 0 -21 -40 -38 -90z"/>
<path d="M5126 8249 c-73 -203 -73 -189 3 -189 33 0 63 5 66 10 7 11 -41 168
-56 184 -5 6 -10 4 -13 -5z"/>
<path d="M3370 7570 c0 -5 10 -10 21 -10 18 0 19 -2 9 -15 -7 -8 -16 -12 -21
-9 -5 3 -9 -41 -9 -100 0 -62 4 -107 10 -111 8 -5 7 -11 -1 -21 -9 -11 -15
-173 -9 -267 0 -12 132 -5 169 10 44 17 59 38 67 93 3 25 12 54 19 65 11 18
10 22 -10 32 -17 7 -27 7 -34 0 -8 -8 -14 -8 -23 1 -9 9 -7 12 13 13 13 1 31
2 39 3 8 1 20 -2 26 -7 7 -4 25 -9 42 -10 27 -2 29 -4 19 -30 -5 -15 -7 -39
-4 -52 2 -14 1 -25 -2 -25 -12 0 -11 -53 0 -66 9 -10 9 -14 0 -14 -6 0 -11 -6
-11 -13 0 -20 55 -9 77 15 17 19 17 20 0 33 -9 6 -17 17 -17 23 0 6 -6 12 -12
15 -7 3 -3 4 10 4 12 -1 22 -5 22 -9 0 -4 4 -8 9 -8 9 0 30 53 35 85 1 7 7 19
13 26 5 8 13 25 16 39 3 14 8 36 12 50 6 23 5 24 -8 7 -9 -11 -18 -14 -21 -8
-4 6 2 19 14 31 22 22 26 40 9 40 -6 0 -9 7 -5 15 4 11 -1 15 -17 15 -12 0
-32 3 -44 6 -18 5 -21 10 -13 25 8 15 7 17 -5 13 -8 -4 -15 -12 -15 -20 0 -8
-4 -14 -10 -14 -13 0 -13 6 1 31 9 17 7 21 -10 26 -13 3 -21 14 -22 27 0 11
-3 15 -6 8 -2 -6 -9 -10 -14 -6 -5 3 -5 13 1 24 10 18 8 19 -13 11 -14 -5 -28
-6 -33 -1 -9 8 -204 40 -244 40 -11 0 -20 -4 -20 -10z"/>
<path d="M1825 7569 c-3 -8 -4 -131 -3 -274 l3 -260 55 -3 c119 -6 170 61 178
232 7 161 -17 255 -74 288 -42 24 -152 36 -159 17z"/>
<path d="M2560 6610 l0 -110 58 0 c31 0 62 4 67 8 23 17 45 73 45 116 0 70
-30 96 -110 96 l-60 0 0 -110z"/>
<path d="M4982 6472 c-18 -48 -32 -93 -32 -99 0 -9 20 -13 65 -13 45 0 65 4
65 12 0 17 -51 171 -59 180 -4 4 -21 -32 -39 -80z"/>
<path d="M5052 3050 c-196 -52 -373 -171 -473 -317 -42 -61 -106 -197 -125
-268 -25 -92 -30 -255 -10 -349 80 -389 405 -656 796 -656 306 0 582 173 719
450 67 135 76 176 76 355 0 143 -3 168 -24 230 -93 272 -265 446 -528 535 -87
30 -112 34 -228 37 -105 2 -144 -1 -203 -17z m303 -4 c235 -36 443 -174 559
-371 88 -151 122 -287 113 -450 -7 -126 -26 -197 -81 -310 -81 -164 -195 -278
-361 -361 -302 -151 -673 -89 -910 152 -152 154 -227 337 -228 554 0 128 14
199 61 310 49 116 87 172 174 256 131 128 255 192 423 219 106 17 143 17 250
1z"/>
<path d="M5542 2671 c-20 -12 -12 -271 8 -271 5 0 10 12 12 28 4 39 44 44 58
6 7 -18 14 -24 20 -18 7 7 -6 54 -36 134 -25 69 -46 126 -47 127 -2 1 -8 -2
-15 -6z"/>
<path d="M5434 2653 c-8 -3 -7 -25 2 -80 8 -42 12 -78 10 -80 -2 -2 -21 30
-42 72 -38 73 -54 91 -54 60 0 -21 41 -249 45 -254 2 -1 8 0 13 3 6 4 5 33 -4
78 -8 39 -12 74 -9 76 2 2 20 -28 39 -67 57 -112 68 -96 40 60 -12 72 -24 132
-26 133 -2 2 -8 1 -14 -1z"/>
<path d="M5232 2619 c-32 -12 -35 -29 -22 -111 21 -133 33 -158 78 -158 37 0
47 38 33 122 -23 136 -41 165 -89 147z"/>
<path d="M4900 2425 c0 -111 3 -135 14 -135 9 0 16 12 18 28 4 38 43 44 52 7
4 -15 12 -24 19 -22 15 5 15 3 -23 107 -18 47 -36 100 -41 118 -6 17 -16 32
-24 32 -12 0 -15 -24 -15 -135z"/>
<path d="M4795 2504 c4 -22 11 -57 15 -79 5 -22 7 -41 4 -44 -5 -6 -4 -7 -43
69 -62 120 -69 110 -41 -51 12 -68 26 -128 31 -133 18 -19 21 5 10 70 -7 36
-10 68 -8 71 3 2 20 -25 38 -61 35 -68 63 -89 53 -38 -2 15 -13 72 -22 126
-11 59 -23 101 -31 104 -9 3 -11 -5 -6 -34z"/>
<path d="M5766 2293 c-16 -4 -18 -11 -12 -49 16 -123 40 -224 50 -221 12 4 13
20 1 90 -6 39 -5 47 9 47 19 0 32 -23 41 -77 7 -43 19 -61 29 -45 3 5 -2 35
-10 68 -15 54 -18 75 -22 141 -3 42 -35 59 -86 46z"/>
<path d="M5162 2178 c-27 -27 -14 -68 38 -118 38 -37 50 -55 50 -79 0 -57 -31
-46 -45 17 -8 40 -31 37 -27 -4 4 -37 28 -74 48 -74 77 0 71 102 -10 164 -27
20 -36 34 -36 57 0 18 5 29 14 29 15 0 26 -21 26 -51 0 -10 7 -19 15 -19 17 0
19 27 5 64 -7 20 -17 26 -38 26 -15 0 -33 -5 -40 -12z"/>
<path d="M4672 2103 c-19 -4 -22 -9 -17 -36 3 -18 14 -77 24 -132 l18 -100 33
2 c18 1 37 7 41 15 12 19 11 72 -2 105 -7 15 -13 48 -14 72 -2 32 -9 50 -25
63 -12 10 -25 17 -29 17 -3 -1 -16 -4 -29 -6z"/>
</g>
</svg>
