<?xml version="1.0" standalone="no"?>
<!DOCTYPE svg PUBLIC "-//W3C//DTD SVG 20010904//EN"
 "http://www.w3.org/TR/2001/REC-SVG-20010904/DTD/svg10.dtd">
<svg version="1.0" xmlns="http://www.w3.org/2000/svg"
 width="526.000000pt" height="730.000000pt" viewBox="0 0 526.000000 730.000000"
 preserveAspectRatio="xMidYMid meet">
<metadata>
Created by potrace 1.16, written by Peter Selinger 2001-2019
</metadata>
<g transform="translate(0.000000,730.000000) scale(0.100000,-0.100000)"
fill="#000000" stroke="none">
<path d="M1670 7096 c0 -8 5 -18 10 -21 6 -4 10 -141 10 -379 l0 -372 -28 -28
c-57 -53 -117 -44 -209 32 -33 27 -48 33 -68 28 -57 -14 -53 -84 7 -129 49
-36 103 -51 193 -50 171 0 280 66 314 189 7 24 11 162 11 365 0 270 2 328 15
345 8 10 15 22 15 27 0 4 -61 7 -135 7 -111 0 -135 -3 -135 -14z"/>
<path d="M4310 7105 c0 -3 7 -16 15 -29 12 -17 15 -44 13 -97 l-3 -74 -85 -5
c-118 -8 -182 -45 -226 -132 -66 -130 -34 -291 70 -349 47 -27 134 -28 192 -4
45 19 54 19 54 0 0 -20 32 -26 120 -23 69 3 75 5 71 23 -3 11 -6 172 -8 358
l-4 337 -104 0 c-58 0 -105 -2 -105 -5z m5 -280 c24 -23 25 -29 25 -162 0
-161 -8 -183 -66 -183 -74 0 -115 82 -101 202 10 84 65 167 110 168 4 0 19
-11 32 -25z"/>
<path d="M620 6886 c0 -7 7 -19 15 -26 12 -10 15 -47 15 -210 0 -181 -2 -199
-20 -222 -10 -14 -16 -28 -13 -32 3 -3 95 -6 202 -6 155 0 201 3 217 14 15 11
24 35 33 86 7 39 11 74 7 77 -3 3 -18 -9 -33 -27 -33 -39 -78 -60 -133 -60
l-40 0 0 184 c0 151 3 186 15 196 8 7 15 19 15 26 0 11 -28 14 -140 14 -112 0
-140 -3 -140 -14z"/>
<path d="M1219 6891 c-83 -27 -116 -94 -72 -143 16 -18 66 -24 97 -12 9 3 28
28 42 55 15 27 36 51 46 55 28 9 58 -23 58 -62 0 -40 -24 -58 -133 -104 -47
-19 -96 -48 -119 -71 -39 -37 -40 -40 -36 -94 5 -61 24 -90 75 -111 49 -21
104 -17 159 11 58 29 54 29 54 10 0 -24 35 -35 112 -35 l73 0 -3 197 c-5 307
-5 307 -202 310 -69 1 -137 -1 -151 -6z m171 -288 c0 -78 -16 -117 -48 -121
-30 -5 -48 11 -55 48 -12 57 38 140 84 140 17 0 19 -7 19 -67z"/>
<path d="M2105 6884 c-101 -36 -160 -124 -159 -239 2 -160 105 -255 279 -255
176 0 278 94 278 256 0 119 -57 203 -162 239 -56 19 -182 18 -236 -1z m165
-61 c35 -32 49 -79 50 -168 0 -114 -33 -175 -95 -175 -62 0 -95 69 -95 195 1
106 37 171 97 174 7 1 26 -11 43 -26z"/>
<path d="M2500 6896 c0 -2 10 -44 21 -93 18 -72 20 -106 15 -188 -3 -55 -12
-125 -21 -155 -8 -30 -15 -59 -15 -63 0 -4 55 -6 123 -5 103 3 121 5 117 18
-3 8 -6 95 -8 192 -3 198 -4 196 70 179 51 -12 78 8 78 58 0 20 -5 42 -12 49
-20 20 -62 14 -99 -13 l-34 -26 -5 23 c-6 22 -10 23 -118 26 -62 1 -112 1
-112 -2z"/>
<path d="M2904 6878 c47 -160 47 -281 1 -461 l-7 -28 123 3 c105 3 123 5 119
18 -3 8 -6 91 -8 184 -3 198 2 216 68 216 65 0 70 -16 70 -220 0 -124 4 -180
12 -188 12 -12 189 -18 201 -6 3 3 -3 20 -14 37 -17 29 -19 52 -19 215 l0 184
-35 35 -35 35 -83 -4 c-48 -3 -94 -12 -112 -22 -40 -21 -55 -20 -55 4 0 19 -7
20 -116 20 -116 0 -116 0 -110 -22z"/>
<path d="M3597 6886 c-69 -25 -100 -73 -76 -119 16 -30 28 -37 70 -37 39 0 65
21 92 76 9 17 24 34 32 38 23 9 54 -11 61 -39 12 -49 -3 -65 -120 -120 -136
-63 -166 -94 -166 -164 0 -112 121 -166 235 -106 26 14 48 24 49 23 17 -40 23
-43 109 -46 l86 -3 -5 73 c-2 40 -6 139 -8 220 -4 168 -11 187 -74 206 -54 16
-237 15 -285 -2z m183 -276 c0 -33 -7 -77 -15 -96 -12 -30 -19 -35 -42 -32
-38 4 -58 43 -49 93 9 44 54 95 85 95 19 0 21 -6 21 -60z"/>
<path d="M4665 6885 c-56 -20 -89 -60 -81 -99 8 -39 30 -56 76 -56 39 0 72 26
85 68 8 28 47 54 68 47 21 -9 40 -59 32 -85 -5 -14 -44 -39 -128 -80 -136 -66
-160 -89 -161 -156 -2 -110 126 -169 239 -109 26 14 48 24 49 23 17 -40 23
-43 111 -46 87 -3 88 -3 80 20 -4 13 -10 114 -14 225 l-6 203 -28 27 c-27 27
-31 28 -155 31 -92 1 -138 -2 -167 -13z m183 -255 c5 -51 -7 -118 -24 -135 -9
-8 -26 -15 -40 -15 -55 0 -58 115 -4 163 41 37 64 32 68 -13z"/>
<path d="M352 6826 c-13 -30 -24 -32 -42 -11 -19 23 -30 18 -30 -15 0 -28 -2
-29 -26 -19 -33 12 -37 8 -25 -24 9 -23 7 -26 -20 -32 -30 -7 -30 -7 -12 -27
17 -20 17 -21 -5 -36 l-24 -16 23 -17 c23 -17 23 -18 5 -38 -11 -12 -16 -22
-13 -22 4 -1 12 -3 17 -4 6 -1 15 -3 21 -4 7 -1 9 -12 5 -32 -5 -25 -3 -30 9
-25 8 3 22 9 30 12 11 5 15 -1 15 -19 0 -33 13 -41 33 -19 14 16 12 19 -22 41
-49 30 -73 71 -73 126 0 149 204 205 273 75 53 -99 -13 -220 -120 -220 -35 0
-35 0 -19 -35 14 -31 38 -32 104 -1 105 49 143 174 87 283 -22 43 -91 91 -144
99 -30 5 -36 3 -47 -20z"/>
<path d="M380 6765 c-13 -16 -6 -35 15 -35 7 0 25 -14 39 -30 20 -24 24 -38
20 -63 -6 -31 -46 -79 -75 -90 -12 -4 -11 -7 1 -20 13 -14 18 -14 45 -1 91 44
99 181 13 234 -39 24 -42 24 -58 5z"/>
<path d="M1373 6033 c670 -2 1764 -2 2430 0 667 1 119 2 -1218 2 -1337 0
-1882 -1 -1212 -2z"/>
<path d="M147 5623 c-4 -3 -7 -582 -7 -1285 l0 -1278 1960 0 1960 0 0 1285 0
1285 -1953 0 c-1075 0 -1957 -3 -1960 -7z m3502 -13 l404 0 -6 -400 c-4 -235
-11 -408 -16 -418 -8 -13 -10 -9 -11 21 0 20 -2 37 -6 37 -3 0 -20 -16 -38
-36 -26 -29 -39 -35 -63 -33 -17 2 -37 -2 -45 -9 -9 -7 -22 -10 -29 -7 -8 3
-21 0 -29 -5 -13 -9 -13 -11 0 -20 12 -8 10 -10 -10 -10 -14 -1 -53 -3 -88 -6
-34 -3 -76 -1 -93 5 -26 9 -30 8 -25 -4 4 -11 -2 -15 -25 -15 -17 0 -28 4 -25
9 11 17 -19 31 -50 22 -16 -5 -22 -10 -14 -10 27 -3 -21 -31 -52 -31 -26 0
-55 -30 -41 -44 3 -3 -1 -6 -10 -6 -8 0 -17 6 -19 12 -3 9 -9 8 -22 -5 -10 -9
-24 -17 -33 -17 -10 0 -13 -6 -9 -16 3 -8 -1 -22 -10 -31 -14 -14 -19 -14 -55
0 -44 17 -69 13 -69 -10 0 -13 -11 -15 -60 -11 -45 3 -60 1 -60 -9 0 -9 -15
-13 -49 -13 -56 0 -84 8 -75 21 3 5 -4 9 -15 9 -12 0 -21 -5 -21 -11 0 -8 -11
-9 -32 -4 -18 4 -53 6 -77 5 -73 -2 -119 9 -126 32 -4 11 -13 17 -21 14 -7 -3
-20 1 -28 9 -8 8 -19 15 -25 15 -6 0 -11 7 -11 15 0 8 -5 15 -12 15 -13 0 -73
63 -89 92 -5 10 -16 18 -25 18 -8 0 -17 13 -20 30 -4 17 -13 30 -21 30 -9 0
-13 6 -9 15 3 8 -1 21 -9 29 -8 7 -12 16 -9 18 7 8 -25 78 -36 78 -6 0 -10 6
-10 13 0 17 -23 67 -32 67 -3 0 -9 18 -13 40 -4 25 -12 40 -21 40 -8 0 -14 8
-14 18 0 9 -7 71 -15 137 -8 66 -15 148 -15 182 0 34 -5 65 -10 68 -6 4 -8 11
-5 16 4 5 0 9 -7 10 -7 0 -4 4 7 9 18 8 17 9 -7 9 -16 1 -28 5 -28 11 0 11
380 18 805 13 154 -1 462 -2 684 -3z m-2876 -72 c-4 -95 -6 -108 -15 -108 -4
0 -8 -4 -8 -9 0 -5 44 13 98 40 139 70 260 107 357 109 95 3 133 -3 240 -37
163 -51 249 -102 353 -213 42 -44 112 -151 112 -171 0 -16 41 -110 65 -149 49
-80 55 -158 19 -272 -18 -61 -19 -53 20 -187 25 -82 21 -203 -8 -287 -14 -39
-34 -123 -45 -186 -11 -64 -27 -128 -36 -142 -17 -25 -125 -86 -153 -86 -11 0
-13 -11 -7 -60 4 -33 3 -60 -2 -60 -7 0 -11 -39 -12 -142 0 -21 -4 -38 -9 -38
-12 0 -25 81 -16 103 3 10 -2 33 -11 53 -9 20 -13 39 -9 43 5 3 9 12 10 19 3
34 5 36 19 18 15 -20 15 -20 15 0 0 32 -9 34 -45 13 -45 -27 -78 -79 -114
-184 -17 -48 -34 -91 -37 -96 -2 -5 -48 27 -101 71 -53 44 -100 77 -106 73 -5
-3 -15 0 -21 9 -14 18 -120 98 -130 98 -5 0 -25 13 -45 28 -43 34 -160 95
-219 115 -44 15 -148 18 -169 4 -6 -4 -19 -4 -29 0 -12 4 -15 3 -10 -5 5 -8 0
-12 -12 -12 -11 0 -25 -6 -31 -14 -6 -8 -23 -16 -36 -19 -21 -3 -23 -2 -14 10
20 23 -22 4 -54 -26 -38 -34 -76 -90 -121 -176 -28 -55 -36 -65 -37 -45 -1 20
-2 21 -6 5 -2 -11 -17 -29 -33 -40 -17 -11 -30 -27 -30 -35 -1 -12 -3 -12 -13
2 -12 15 -18 13 -61 -24 -32 -28 -45 -46 -41 -56 3 -9 3 -14 0 -10 -9 9 -53
-34 -64 -63 -8 -21 -10 -17 -10 24 -1 44 5 55 90 173 113 155 186 230 262 267
43 22 55 32 48 41 -6 7 -8 15 -5 18 3 3 -2 23 -10 43 -9 21 -16 48 -16 62 0
23 -1 23 -22 9 -35 -25 -46 -19 -15 9 22 21 25 30 17 45 -13 24 -13 387 0 395
12 7 33 -16 75 -82 34 -54 30 -84 -6 -42 -17 20 -19 21 -19 3 0 -28 13 -43 35
-41 11 1 20 -4 20 -11 0 -6 13 -28 28 -47 15 -19 25 -40 22 -45 -3 -6 1 -20 9
-32 9 -12 16 -36 16 -52 0 -43 11 -25 16 26 10 96 -3 188 -29 214 -4 4 -7 17
-7 28 0 12 -8 26 -18 33 -26 16 -121 177 -131 221 -7 33 -8 35 -15 14 -8 -24
21 -102 38 -102 6 0 6 -4 -1 -11 -8 -8 -8 -20 -3 -35 6 -15 5 -26 -2 -30 -14
-9 -40 26 -34 43 3 7 2 13 -2 13 -19 0 -29 64 -27 178 2 124 5 139 24 127 15
-9 14 -42 -1 -49 -10 -3 -9 -8 3 -18 9 -7 14 -19 12 -25 -9 -25 12 -12 29 17
10 17 34 38 55 46 33 14 35 17 19 26 -14 8 -21 7 -27 -3 -7 -12 -10 -12 -21 0
-8 9 -9 12 -1 7 6 -3 16 1 21 9 7 13 14 14 36 5 38 -14 46 -13 39 7 -5 13 -3
15 13 8 10 -5 39 -10 64 -11 25 -1 58 -7 75 -13 20 -9 31 -9 33 -2 6 18 24 12
20 -6 -3 -15 -15 -18 -70 -18 -42 -1 -63 2 -55 8 7 5 0 7 -20 3 -18 -3 -35 -1
-38 3 -6 10 -45 2 -45 -9 0 -4 19 -10 41 -14 56 -9 76 -21 99 -59 16 -26 20
-28 21 -12 0 11 3 15 5 9 3 -7 15 -10 27 -8 21 4 21 4 -1 -8 -18 -9 -22 -17
-17 -32 4 -12 7 -32 7 -46 0 -24 0 -24 14 -5 11 14 27 20 57 20 36 0 44 4 55
29 11 22 11 30 2 36 -8 5 -7 9 5 14 9 3 14 10 10 15 -3 5 -1 12 4 16 6 3 2 14
-9 25 -24 24 -45 26 -36 5 6 -17 4 -18 -18 -9 -9 3 -13 10 -10 15 3 5 0 9 -7
9 -17 0 20 39 53 56 33 17 37 34 8 34 -19 0 -19 1 1 35 19 32 20 67 2 64 -27
-5 -35 1 -23 16 9 11 28 15 60 14 51 -3 74 6 64 23 -5 7 -2 9 7 6 8 -3 28 6
44 19 17 14 25 23 20 20 -6 -3 -17 -2 -25 4 -12 7 -10 9 8 9 14 0 22 5 20 12
-6 18 -57 29 -78 16 -10 -6 -25 -8 -36 -3 -36 15 -54 12 -54 -8 0 -14 -5 -18
-20 -14 -11 3 -18 0 -17 -7 1 -6 -8 -10 -23 -8 -14 2 -20 -1 -15 -5 6 -4 11
-16 13 -25 2 -13 -3 -17 -20 -15 -15 1 -22 -3 -20 -12 2 -10 -6 -12 -28 -9
-37 6 -39 -5 -2 -19 24 -10 25 -11 5 -12 -12 -1 -28 8 -36 19 -12 17 -18 18
-53 9 -21 -6 -43 -15 -49 -20 -17 -16 -25 -9 -19 15 5 20 2 25 -18 28 -36 6
41 25 135 33 42 4 77 11 77 17 0 6 -29 8 -77 4 -70 -4 -74 -4 -35 6 61 16 52
26 -13 15 -38 -7 -52 -13 -43 -20 9 -6 8 -7 -5 -3 -10 3 -30 6 -43 6 -13 0
-24 5 -24 10 0 6 6 10 13 10 6 0 25 7 42 16 19 10 42 13 62 9 20 -4 33 -2 33
5 0 5 -6 11 -12 12 -7 0 10 5 37 9 41 6 37 6 -20 3 -38 -3 -89 -5 -112 -5 -23
1 -45 -3 -48 -9 -3 -5 -21 -10 -39 -10 -36 0 -62 -21 -53 -44 3 -8 -1 -20 -9
-26 -21 -18 -18 -44 4 -35 55 22 105 36 109 31 3 -3 -13 -13 -36 -22 -22 -9
-41 -22 -41 -30 0 -8 -7 -14 -16 -14 -8 0 -32 -14 -53 -30 -58 -47 -88 -52
-165 -25 -52 18 -66 20 -66 9 0 -8 9 -14 19 -14 22 0 41 -22 24 -27 -18 -6
-74 -63 -62 -63 11 0 -18 -55 -39 -72 -10 -9 -11 -5 -2 18 l10 29 -25 -28 -25
-28 0 395 0 396 308 0 308 0 -3 -72z"/>
<path d="M1536 4949 c-51 -8 -129 -55 -134 -81 -2 -10 8 -14 34 -15 30 -1 35
2 31 17 -6 23 26 33 62 18 21 -9 23 -12 9 -15 -19 -5 -24 -28 -8 -38 6 -3 10
-2 10 3 0 5 12 12 27 15 26 5 26 4 9 -9 -11 -8 -16 -17 -13 -21 12 -11 31 15
33 45 1 15 3 29 3 31 1 2 15 -12 33 -30 22 -24 33 -30 36 -20 2 7 -2 17 -9 22
-12 8 -12 11 1 19 13 8 13 10 -1 10 -9 0 -21 11 -27 24 -13 29 -33 34 -96 25z"/>
<path d="M1100 4098 c0 -6 36 -46 80 -89 44 -43 80 -84 80 -90 0 -7 3 -10 6
-7 3 3 17 -6 32 -19 18 -17 23 -27 15 -30 -7 -3 -13 -10 -13 -16 0 -8 4 -7 12
1 15 15 48 16 48 1 0 -5 5 -7 10 -4 6 3 10 17 10 31 0 13 -4 24 -10 24 -5 0
-10 8 -10 18 1 16 1 16 14 0 17 -23 31 -23 60 3 22 19 23 23 10 48 -10 21 -26
30 -66 40 -29 8 -62 20 -73 27 -11 8 -27 14 -37 14 -12 0 -15 5 -11 17 5 12 2
15 -10 10 -20 -8 -47 1 -47 15 0 6 8 7 18 3 11 -4 13 -3 7 3 -5 5 -27 7 -48 5
-33 -5 -36 -7 -25 -21 12 -14 11 -14 -9 -1 -13 8 -23 17 -23 21 0 5 -4 8 -10
8 -5 0 -10 -5 -10 -12z"/>
<path d="M1272 2363 c-9 -3 -10 -9 -2 -17 6 -8 9 -72 7 -169 -1 -87 -1 -157 1
-157 2 0 11 4 21 10 13 6 30 5 57 -6 106 -41 197 68 150 181 -8 18 -23 38 -34
44 -26 14 -89 14 -97 1 -16 -25 -25 -5 -25 55 l0 65 -32 -1 c-18 0 -39 -3 -46
-6z"/>
<path d="M2850 2361 c-17 -5 -21 -9 -12 -15 17 -11 17 -312 0 -319 -7 -3 19
-5 57 -5 39 0 62 2 53 5 -16 4 -18 17 -18 93 0 80 2 90 21 100 41 23 49 8 49
-94 0 -66 -4 -96 -12 -99 -7 -3 19 -6 57 -6 52 0 66 2 53 10 -15 8 -18 25 -18
100 0 50 -5 99 -10 110 -15 27 -79 26 -114 -2 l-26 -20 0 75 0 76 -27 -1 c-16
-1 -39 -4 -53 -8z"/>
<path d="M183 2350 c15 -10 17 -29 17 -161 0 -146 -1 -150 -22 -159 -18 -7
-10 -9 32 -8 38 0 47 2 30 7 -25 7 -25 7 -28 141 -1 78 1 130 6 125 5 -6 33
-70 62 -143 29 -73 57 -131 63 -129 6 2 26 53 45 113 54 177 57 178 60 34 2
-109 0 -126 -15 -137 -14 -11 -5 -13 58 -12 41 1 66 3 57 6 -16 4 -18 20 -18
157 0 108 4 156 13 165 10 10 1 12 -43 9 l-55 -3 -34 -102 c-18 -57 -36 -103
-40 -103 -3 0 -24 47 -46 103 l-40 102 -60 3 c-46 1 -56 0 -42 -8z"/>
<path d="M634 2250 c-54 -27 -79 -73 -71 -130 10 -78 79 -120 159 -97 57 17
61 36 6 30 -51 -6 -76 14 -85 71 l-6 36 72 0 71 0 0 28 c0 29 -31 72 -53 72
-7 0 -21 3 -32 5 -11 3 -39 -4 -61 -15z"/>
<path d="M860 2259 c-43 -18 -60 -40 -60 -79 0 -24 7 -43 20 -55 l20 -18 -20
-22 c-23 -24 -25 -46 -8 -63 9 -9 6 -18 -13 -38 l-24 -26 24 -19 c17 -14 39
-19 88 -19 110 0 163 42 134 106 -14 31 -48 44 -117 44 -41 0 -54 4 -54 15 0
11 12 15 44 15 57 0 106 37 106 80 0 16 -4 32 -10 35 -18 11 -10 26 12 23 11
-2 23 3 26 10 3 9 -8 12 -40 11 -23 -1 -56 1 -73 4 -16 4 -41 2 -55 -4z"/>
<path d="M1940 2263 c-8 -3 -27 -15 -42 -25 -28 -19 -28 -19 -28 1 0 18 -6 21
-37 21 -21 0 -45 -5 -53 -10 -10 -6 -11 -10 -2 -10 9 0 12 -28 12 -104 0 -74
-4 -106 -12 -109 -7 -3 19 -6 57 -6 52 0 66 2 53 10 -15 8 -18 25 -18 95 0 82
1 85 26 94 44 17 54 -1 54 -96 0 -68 -3 -85 -17 -93 -14 -8 0 -10 52 -11 39 0
65 4 59 8 -7 4 -13 48 -16 105 -4 101 -12 119 -53 130 -11 3 -27 3 -35 0z"/>
<path d="M2133 2251 c-23 -11 -49 -31 -58 -44 -33 -51 -13 -151 36 -177 27
-15 93 -15 129 0 39 16 39 31 0 24 -69 -14 -100 18 -100 104 0 57 21 92 56 92
29 0 42 -24 24 -46 -16 -19 -1 -37 26 -32 26 4 30 50 7 70 -30 26 -74 30 -120
9z"/>
<path d="M2360 2257 c-106 -37 -103 -199 4 -235 103 -33 189 57 154 162 -21
63 -93 96 -158 73z m70 -26 c15 -29 13 -163 -3 -185 -23 -32 -51 -16 -60 34
-10 54 -2 137 14 156 16 20 36 17 49 -5z"/>
<path d="M2595 2261 c-38 -16 -57 -47 -50 -81 5 -24 20 -40 62 -66 42 -28 54
-40 51 -57 -2 -16 -11 -23 -33 -25 -24 -3 -35 3 -57 29 l-28 33 0 -31 c0 -29
4 -33 41 -43 85 -23 164 30 139 94 -5 14 -32 40 -60 57 -38 23 -50 37 -50 55
0 19 5 24 25 24 24 0 32 -6 60 -45 14 -19 14 -18 15 12 0 17 -3 34 -7 36 -18
11 -90 16 -108 8z"/>
<path d="M1059 2231 c-32 -33 -35 -43 -15 -60 17 -14 49 -3 42 15 -3 8 -9 20
-12 28 -8 21 31 39 56 26 15 -8 20 -21 20 -49 0 -36 -2 -38 -47 -52 -58 -17
-91 -56 -74 -88 20 -36 47 -44 88 -24 27 12 38 14 41 5 5 -16 79 -16 88 0 4 6
2 14 -4 16 -8 2 -12 32 -12 88 0 105 -14 124 -91 124 -43 0 -55 -5 -80 -29z"/>
<path d="M1564 2235 c-28 -29 -29 -68 -1 -73 20 -4 35 27 18 37 -16 10 -4 38
20 44 27 7 59 -26 59 -61 0 -25 -5 -29 -49 -41 -59 -15 -84 -39 -79 -78 5 -41
47 -59 89 -38 22 12 34 14 42 6 14 -14 67 -14 87 -1 11 7 12 12 4 18 -7 4 -13
43 -15 90 -4 74 -7 86 -28 103 -36 29 -115 26 -147 -6z"/>
<path d="M3146 2233 c-40 -40 -22 -93 22 -64 12 7 12 12 0 30 -11 20 -11 24 6
37 11 8 23 14 27 14 18 0 39 -34 39 -65 0 -30 -3 -33 -45 -44 -72 -18 -99 -56
-75 -102 12 -21 78 -27 97 -8 8 8 17 7 34 -4 18 -11 33 -12 57 -5 29 8 46 28
23 28 -5 0 -11 40 -13 90 -4 106 -14 119 -94 120 -43 0 -56 -5 -78 -27z"/>
<path d="M3371 2251 c-9 -6 -10 -11 -2 -15 7 -5 11 -43 11 -101 0 -79 -3 -96
-17 -104 -14 -8 0 -10 52 -11 39 0 65 4 58 8 -8 5 -13 45 -14 120 l-1 112 -37
0 c-20 0 -42 -4 -50 -9z"/>
<path d="M3489 2239 l-24 -20 24 7 c15 4 27 1 32 -7 13 -21 11 -173 -3 -187
-9 -9 3 -12 58 -11 38 1 61 3 52 6 -16 4 -18 17 -18 97 0 109 -13 136 -64 136
-20 0 -44 -9 -57 -21z"/>
<path d="M655 1870 c-11 -5 -14 -9 -7 -9 9 -1 12 -41 12 -166 0 -91 4 -165 8
-165 4 0 12 4 18 10 6 6 25 4 53 -6 52 -18 95 -7 132 32 33 35 35 140 4 174
-31 35 -61 42 -102 25 -19 -8 -36 -15 -37 -15 -1 0 0 29 2 65 l4 65 -33 -1
c-19 0 -43 -4 -54 -9z"/>
<path d="M1565 1870 c-11 -5 -14 -9 -7 -9 8 -1 12 -17 12 -47 0 -44 -1 -46
-25 -40 -33 8 -86 -15 -113 -49 -33 -41 -31 -123 4 -164 20 -24 34 -31 63 -31
20 0 43 6 50 13 10 10 14 9 21 -3 6 -11 21 -14 54 -12 25 2 46 8 46 13 0 5 -4
9 -10 9 -6 0 -10 62 -10 165 l0 165 -32 -1 c-18 0 -42 -4 -53 -9z"/>
<path d="M256 1770 c-67 -20 -105 -90 -87 -158 13 -45 36 -69 79 -81 36 -11
98 1 120 22 13 14 10 15 -25 10 -22 -3 -50 0 -61 6 -62 33 -40 202 25 189 14
-3 17 -12 15 -41 -3 -34 -1 -37 22 -37 53 0 41 69 -15 89 -36 12 -34 12 -73 1z"/>
<path d="M464 1766 c-49 -21 -74 -61 -74 -117 0 -60 33 -104 91 -119 34 -10
47 -8 83 10 49 23 66 53 66 115 0 51 -32 97 -80 114 -33 11 -37 6 -15 -23 17
-23 21 -140 5 -181 -15 -39 -51 -31 -63 15 -14 54 -4 160 16 175 35 25 19 32
-29 11z"/>
<path d="M975 1772 c-49 -5 -60 -11 -47 -24 8 -8 12 -47 12 -105 0 -77 -3 -94
-17 -102 -14 -8 0 -10 52 -10 39 0 64 3 58 6 -9 3 -13 37 -13 118 0 63 -3 115
-7 117 -5 2 -21 2 -38 0z"/>
<path d="M1753 1765 c-96 -41 -94 -191 3 -231 102 -43 202 58 163 164 -11 28
-26 43 -59 60 -51 25 -63 26 -107 7z m87 -109 c0 -95 -7 -116 -35 -116 -14 0
-26 7 -29 18 -22 76 -17 169 12 198 15 15 17 15 34 -6 14 -17 18 -40 18 -94z"/>
<path d="M2077 1770 c-36 -7 -62 -20 -39 -20 17 0 17 -206 0 -213 -7 -3 19 -6
57 -6 52 0 66 2 53 10 -15 8 -18 24 -18 93 0 78 1 83 25 96 40 21 47 4 43
-104 l-3 -96 60 0 c46 1 56 3 43 11 -15 8 -18 25 -18 94 0 75 2 86 21 95 43
24 51 8 47 -100 l-3 -100 55 0 c42 0 51 3 42 12 -8 8 -12 46 -12 103 0 79 -3
94 -20 110 -26 23 -65 22 -100 -4 l-29 -21 -14 21 c-20 28 -70 28 -107 0 -29
-21 -30 -21 -30 -2 0 26 -7 29 -53 21z"/>
<path d="M2540 1769 c-56 -12 -95 -80 -54 -96 25 -9 41 14 25 38 -14 23 -8 33
26 43 17 5 26 1 38 -18 27 -41 16 -66 -38 -86 -27 -10 -55 -24 -63 -30 -17
-15 -19 -61 -2 -78 16 -16 80 -16 96 0 9 9 15 9 24 0 15 -15 75 -16 84 -1 3 6
3 14 -2 18 -5 3 -9 43 -9 88 0 90 -8 107 -60 121 -17 5 -46 5 -65 1z"/>
<path d="M2743 1766 c-66 -30 -53 -99 27 -146 34 -20 45 -32 45 -51 0 -44 -74
-38 -99 9 l-15 27 -1 -32 c0 -28 4 -34 28 -39 15 -3 34 -8 42 -10 24 -6 81 13
96 33 7 10 14 30 14 46 0 28 -17 47 -80 89 -42 28 -49 53 -20 68 19 10 26 7
56 -25 27 -29 34 -33 34 -18 0 50 -67 76 -127 49z"/>
<path d="M3324 1766 c-141 -63 -61 -279 87 -235 49 15 65 33 80 90 11 41 10
50 -8 85 -30 59 -101 86 -159 60z m80 -28 c11 -41 7 -173 -6 -186 -17 -17 -45
-15 -52 4 -14 36 -17 122 -7 162 10 34 16 42 35 42 16 0 26 -7 30 -22z"/>
<path d="M3553 1765 c-66 -28 -53 -98 27 -145 34 -20 45 -32 45 -51 0 -44 -74
-38 -99 9 l-15 27 -1 -32 c0 -29 4 -33 40 -43 69 -19 140 16 140 69 0 36 -9
47 -66 84 -55 36 -66 70 -24 76 18 2 32 -6 52 -30 l28 -33 0 26 c0 14 -6 30
-12 36 -22 18 -82 21 -115 7z"/>
<path d="M1061 1761 c-8 -5 -9 -10 -3 -12 11 -4 21 -299 10 -299 -4 0 -11 7
-16 17 -12 21 -45 9 -40 -14 4 -24 50 -28 82 -8 44 29 56 72 56 204 l0 121
-37 0 c-21 0 -44 -4 -52 -9z"/>
<path d="M1205 1745 c-28 -27 -33 -63 -10 -71 8 -4 22 -1 30 6 14 11 14 15 -1
31 -18 20 -13 34 15 42 31 8 61 -20 61 -57 0 -30 -3 -33 -49 -45 -59 -15 -84
-39 -79 -77 4 -41 41 -57 86 -38 29 12 37 12 53 0 22 -15 63 -10 80 10 8 10 8
14 0 14 -7 0 -11 27 -11 79 0 64 -4 83 -21 105 -18 22 -28 26 -75 26 -45 0
-59 -4 -79 -25z"/>
<path d="M2900 1760 c-10 -6 -11 -10 -2 -10 9 0 12 -28 12 -104 0 -74 -4 -106
-12 -109 -7 -3 19 -6 57 -6 52 0 66 2 53 10 -15 9 -18 26 -18 119 l0 110 -37
0 c-21 0 -45 -5 -53 -10z"/>
<path d="M3020 1753 c6 -10 30 -63 54 -118 36 -83 47 -100 67 -103 22 -3 27 6
64 108 22 61 46 116 55 120 10 7 1 9 -30 9 -25 -1 -37 -3 -27 -6 10 -3 17 -13
16 -26 -1 -31 -33 -120 -45 -124 -5 -2 -20 29 -34 68 -20 60 -21 72 -9 80 9 6
-9 9 -54 9 -61 0 -66 -2 -57 -17z"/>
<path d="M2225 1390 c-11 -5 -14 -9 -7 -9 8 -1 12 -17 12 -45 l0 -44 -44 0
c-72 2 -116 -44 -116 -122 0 -47 15 -89 38 -106 23 -18 87 -17 102 1 10 13 9
15 -8 15 -32 0 -52 38 -52 97 0 71 13 103 44 103 32 0 37 -18 36 -115 -2 -124
-6 -115 44 -115 25 0 48 5 51 10 3 6 1 10 -4 10 -7 0 -11 56 -11 165 l0 165
-32 -1 c-18 0 -42 -4 -53 -9z"/>
<path d="M2680 1391 c-21 -6 -22 -8 -7 -14 15 -6 17 -23 17 -156 0 -132 -2
-151 -17 -160 -14 -8 0 -10 52 -10 39 0 64 3 58 6 -10 3 -13 48 -13 174 l0
169 -32 -1 c-18 -1 -44 -4 -58 -8z"/>
<path d="M3650 1390 c-14 -4 -19 -8 -12 -9 7 -1 12 -17 12 -45 l0 -43 -38 0
c-49 0 -78 -16 -102 -56 -23 -38 -25 -85 -6 -132 20 -48 70 -68 120 -49 22 8
20 24 -3 24 -33 0 -46 29 -46 100 0 74 15 103 49 98 19 -3 21 -10 23 -93 4
-133 5 -135 58 -135 25 0 45 5 45 10 0 6 -4 10 -10 10 -6 0 -10 62 -10 165 l0
165 -27 -1 c-16 -1 -39 -5 -53 -9z"/>
<path d="M333 1288 c-18 -4 -35 -13 -38 -18 -9 -15 -25 -12 -25 5 0 17 -65 21
-90 5 -10 -6 -11 -10 -2 -10 9 0 12 -28 12 -104 0 -74 -4 -106 -12 -109 -7 -3
16 -5 52 -5 36 0 59 2 53 5 -9 3 -13 32 -13 93 0 80 2 90 21 100 43 24 51 8
47 -100 l-3 -100 60 0 c46 1 56 3 43 11 -15 8 -18 25 -18 103 0 118 -17 143
-87 124z"/>
<path d="M523 1279 c-68 -34 -92 -112 -53 -176 24 -40 53 -55 101 -55 33 1 99
25 99 37 0 2 -22 1 -48 -2 -44 -5 -51 -3 -70 22 -12 15 -22 41 -22 56 l0 29
70 0 70 0 0 28 c0 63 -78 96 -147 61z"/>
<path d="M750 1289 c-62 -25 -81 -88 -39 -130 l21 -21 -21 -22 c-24 -25 -27
-46 -9 -64 9 -9 6 -18 -13 -38 l-24 -26 24 -19 c44 -36 194 -20 223 25 14 21
8 63 -12 81 -14 12 -43 20 -87 24 -76 7 -102 31 -33 31 81 0 132 61 100 120
-10 19 -9 21 11 18 12 -2 24 3 26 10 4 9 -7 12 -39 10 -23 -1 -56 1 -73 4 -16
4 -41 2 -55 -3z"/>
<path d="M984 1286 c-77 -33 -101 -136 -46 -196 34 -39 86 -52 136 -35 42 15
62 36 75 80 7 27 9 28 16 10 18 -52 26 -65 47 -79 41 -26 116 -24 149 3 l24
20 -41 -6 c-55 -7 -81 9 -94 57 -18 68 11 140 56 140 24 0 25 -2 19 -40 -6
-38 -5 -40 19 -40 52 0 46 58 -9 84 -62 30 -136 -5 -166 -79 l-12 -30 -8 32
c-9 31 -59 82 -82 84 -7 0 -21 2 -32 4 -11 2 -34 -2 -51 -9z m76 -25 c13 -25
13 -141 0 -175 -6 -16 -17 -26 -30 -26 -27 0 -40 36 -40 110 0 32 4 70 10 84
11 31 45 35 60 7z"/>
<path d="M1460 1293 c-14 -2 -36 -6 -50 -9 -22 -5 -23 -7 -7 -15 14 -8 17 -25
17 -102 0 -59 -4 -97 -12 -105 -9 -9 2 -12 53 -11 35 0 58 3 52 6 -9 3 -13 37
-13 118 0 63 -3 115 -7 117 -5 2 -19 3 -33 1z"/>
<path d="M1613 1289 c-79 -23 -112 -133 -58 -197 77 -91 218 -39 217 79 -1 85
-78 142 -159 118z m67 -35 c13 -33 13 -135 0 -169 -7 -19 -16 -26 -32 -23 -26
4 -36 31 -37 110 -1 71 12 108 39 108 13 0 24 -10 30 -26z"/>
<path d="M1845 1293 c-34 -8 -55 -34 -55 -68 0 -34 13 -50 78 -96 49 -34 53
-62 9 -67 -32 -4 -77 21 -77 43 0 8 -5 15 -11 15 -6 0 -8 -7 -5 -16 3 -9 6
-22 6 -29 0 -8 18 -19 41 -25 76 -21 150 26 135 85 -4 14 -25 39 -49 55 -62
44 -67 49 -67 70 0 16 7 20 30 20 23 0 35 -7 49 -30 10 -16 20 -28 23 -25 6 7
-2 54 -11 59 -13 7 -77 13 -96 9z"/>
<path d="M2412 1279 c-54 -27 -76 -67 -69 -127 9 -80 83 -124 162 -96 61 21
66 34 8 28 -46 -6 -51 -4 -71 21 -12 15 -22 41 -22 56 l0 29 70 0 70 0 0 28
c0 63 -78 96 -148 61z"/>
<path d="M2880 1289 c-56 -12 -95 -80 -54 -96 25 -9 41 14 26 37 -16 26 -16
27 9 40 32 18 69 -11 69 -54 0 -30 -3 -34 -32 -40 -18 -3 -48 -15 -66 -26 -28
-17 -33 -25 -30 -52 4 -45 39 -62 87 -42 23 10 38 11 45 4 13 -13 67 -13 86 1
11 8 12 12 3 16 -9 3 -13 30 -13 82 0 115 -35 149 -130 130z"/>
<path d="M3330 1289 c-38 -8 -70 -40 -70 -70 0 -25 26 -35 45 -19 14 11 14 15
-2 32 -17 19 -17 20 2 34 10 8 24 14 31 14 19 0 44 -41 44 -71 0 -24 -5 -28
-40 -34 -53 -9 -90 -39 -90 -74 0 -15 5 -32 12 -39 15 -15 63 -16 89 -2 14 8
25 7 39 -3 23 -16 64 -11 81 9 7 9 8 14 1 14 -6 0 -11 36 -13 84 -5 116 -35
144 -129 125z"/>
<path d="M3840 1287 c-71 -24 -101 -117 -60 -185 53 -86 192 -68 222 29 30
101 -62 189 -162 156z m70 -26 c18 -34 13 -166 -7 -190 -16 -19 -20 -20 -37
-8 -15 11 -19 28 -20 88 -1 93 8 129 34 129 11 0 24 -9 30 -19z"/>
<path d="M3020 1273 c6 -10 30 -63 54 -118 33 -77 48 -101 65 -103 23 -4 36
20 81 148 13 36 30 71 38 78 13 10 8 12 -29 11 -36 0 -40 -2 -21 -9 12 -5 22
-12 22 -15 0 -15 -53 -135 -60 -135 -4 0 -10 10 -13 23 -2 12 -13 44 -23 70
-16 42 -17 49 -4 57 10 7 -7 10 -53 10 -61 0 -66 -2 -57 -17z"/>
</g>
</svg>
