<?xml version="1.0" standalone="no"?>
<!DOCTYPE svg PUBLIC "-//W3C//DTD SVG 20010904//EN"
 "http://www.w3.org/TR/2001/REC-SVG-20010904/DTD/svg10.dtd">
<svg version="1.0" xmlns="http://www.w3.org/2000/svg"
 width="1200.000000pt" height="1670.000000pt" viewBox="0 0 1200.000000 1670.000000"
 preserveAspectRatio="xMidYMid meet">
<metadata>
Created by potrace 1.16, written by Peter Selinger 2001-2019
</metadata>
<g transform="translate(0.000000,1670.000000) scale(0.100000,-0.100000)"
fill="#000000" stroke="none">
<path d="M122 15563 l3 -918 5865 0 5865 0 3 918 2 917 -5870 0 -5870 0 2
-917z m1702 522 c26 -71 66 -179 88 -240 21 -60 46 -126 53 -145 13 -32 82
-223 151 -412 30 -82 31 -83 117 -102 25 -6 28 -11 25 -39 l-3 -32 -210 0
-210 0 0 30 c0 28 4 31 58 48 31 10 57 21 57 25 0 4 -24 70 -54 147 l-54 140
-161 3 c-147 2 -162 1 -167 -15 -3 -10 -13 -36 -21 -58 -8 -22 -19 -49 -23
-60 -49 -130 -59 -159 -55 -165 3 -4 25 -13 50 -19 44 -11 46 -13 43 -44 l-3
-32 -145 -3 c-79 -1 -150 0 -157 2 -25 10 5 61 49 81 39 19 44 26 90 140 52
129 62 153 80 200 6 17 22 54 35 83 12 29 23 55 23 57 0 5 114 283 136 332 8
17 14 48 14 70 0 32 5 42 28 55 15 9 45 35 67 57 21 23 42 38 45 33 4 -4 28
-65 54 -137z m6016 101 c0 -12 58 -173 71 -198 5 -10 9 -23 9 -29 0 -6 6 -25
14 -42 31 -74 96 -248 96 -261 0 -4 6 -22 14 -39 8 -18 22 -54 31 -82 10 -27
24 -64 31 -82 8 -17 14 -36 14 -42 0 -6 4 -19 9 -29 5 -9 24 -58 42 -109 33
-91 33 -92 63 -87 54 9 116 26 116 33 2 152 0 825 -3 827 -2 2 -30 10 -63 17
-55 13 -59 15 -59 43 l0 29 235 3 c256 3 324 -4 402 -46 82 -43 126 -135 113
-234 -13 -89 -105 -185 -202 -210 -44 -11 -67 -28 -38 -28 25 0 88 -36 116
-67 30 -33 45 -57 146 -240 37 -68 76 -111 111 -124 35 -14 75 -11 100 7 l22
15 0 419 0 419 -42 11 c-60 15 -73 24 -73 51 l0 24 255 3 c290 4 360 -4 465
-53 306 -142 384 -555 150 -796 -136 -141 -257 -179 -564 -179 -186 0 -189 0
-237 -27 -114 -64 -266 -8 -335 124 -8 15 -44 82 -81 147 -38 66 -68 122 -68
125 0 17 -68 85 -96 97 -66 28 -64 34 -64 -176 l0 -189 38 -10 c20 -6 50 -13
65 -16 25 -5 28 -10 25 -38 l-3 -32 -390 0 -390 0 -3 23 c-5 33 13 49 63 56
25 4 47 11 50 16 5 8 -41 144 -85 250 l-19 45 -159 3 -159 2 -57 -147 c-52
-136 -55 -149 -39 -160 9 -7 26 -13 37 -13 34 0 48 -15 44 -46 l-3 -29 -160 0
-160 0 -3 31 c-3 30 0 32 53 50 54 18 58 22 77 69 11 28 24 59 28 70 5 11 36
88 70 170 34 83 65 159 70 170 4 11 22 56 40 100 29 74 49 121 70 170 29 66
40 102 40 134 0 29 5 40 28 53 15 9 45 35 67 58 36 37 41 39 52 23 7 -9 13
-21 13 -27z m-4141 -3 c7 -21 45 -123 83 -228 38 -104 90 -246 115 -315 25
-69 49 -134 53 -145 5 -11 33 -85 62 -165 59 -160 54 -154 134 -129 l31 10 6
97 c4 53 7 242 7 419 l0 322 -62 14 c-60 13 -63 15 -63 43 l0 29 137 3 137 3
177 -208 c97 -114 236 -279 308 -365 72 -86 134 -157 138 -157 13 -1 -3 633
-16 641 -6 4 -32 11 -58 14 -46 6 -48 8 -48 40 l0 34 176 0 175 0 -3 -32 c-3
-30 -7 -33 -59 -46 l-56 -13 -6 -217 c-4 -119 -7 -337 -7 -484 l0 -268 -29 0
c-23 0 -38 11 -73 52 -60 74 -88 106 -129 152 -19 23 -147 173 -283 334 -136
160 -252 292 -258 292 -8 0 -9 -46 -5 -152 4 -83 7 -240 7 -349 l0 -198 38
-10 c20 -6 50 -13 65 -16 25 -5 28 -10 25 -38 l-3 -32 -329 0 c-302 0 -330 1
-340 18 -17 27 5 51 55 60 24 5 47 12 52 16 6 6 -19 85 -80 246 l-19 50 -160
3 -161 2 -13 -32 c-7 -18 -19 -47 -26 -65 -8 -17 -14 -36 -14 -42 0 -6 -4 -19
-9 -29 -23 -43 -51 -123 -47 -131 3 -5 26 -14 51 -20 44 -11 46 -13 43 -44
l-3 -32 -160 0 -160 0 -3 32 c-3 28 0 33 25 38 85 19 77 9 157 205 30 74 82
201 115 283 34 81 61 149 61 152 0 2 11 28 24 57 13 29 31 76 41 103 10 28 22
55 27 61 4 6 5 24 2 40 -4 24 -1 32 23 46 15 9 44 32 63 51 19 20 40 36 45 36
6 1 17 -16 24 -36z m7391 22 c0 -8 6 -29 14 -47 8 -18 40 -103 71 -188 32 -85
61 -164 65 -175 4 -11 28 -76 53 -145 25 -69 71 -195 103 -282 l58 -156 41
-12 c22 -7 46 -14 53 -16 6 -2 12 -19 12 -39 l0 -35 -194 0 c-107 0 -201 3
-210 6 -19 7 -21 47 -3 61 6 6 28 13 47 17 62 11 63 15 35 92 -14 38 -35 96
-47 129 -36 105 -18 96 -199 93 l-161 -3 -54 -145 c-51 -134 -53 -146 -37
-157 9 -7 26 -13 37 -13 34 0 48 -15 44 -46 l-3 -29 -325 0 -325 0 -3 32 c-3
28 0 33 25 39 15 3 43 10 61 16 l32 10 0 414 0 414 -27 11 c-16 6 -43 13 -61
16 -33 6 -52 38 -37 62 4 7 81 11 221 11 l215 0 -3 -32 c-3 -30 -6 -32 -66
-46 l-62 -13 2 -422 3 -422 37 -12 c64 -21 88 -5 122 80 16 39 40 96 53 125
12 29 23 55 23 58 0 3 7 20 14 37 8 18 45 106 82 197 36 91 85 213 109 271 26
63 41 115 38 130 -3 18 2 28 24 41 15 9 44 33 62 52 37 38 61 46 61 21z
m-5143 -45 c21 -7 60 -21 87 -31 l49 -19 32 37 c22 25 37 35 48 30 15 -6 17
-26 17 -170 0 -155 -5 -187 -31 -187 -4 0 -21 29 -37 65 -38 80 -100 143 -178
180 -82 39 -184 40 -266 2 -117 -53 -199 -170 -232 -329 -20 -97 -20 -149 0
-246 31 -149 98 -247 207 -300 57 -28 74 -32 148 -32 87 0 148 15 207 52 l32
20 0 158 0 157 -47 13 c-27 6 -54 14 -61 16 -8 2 -12 16 -10 36 l3 33 193 3
192 2 0 -30 c0 -27 -6 -33 -45 -50 l-45 -19 -2 -217 c-2 -141 -7 -219 -14
-221 -5 -2 -31 11 -57 28 l-47 31 -47 -29 c-97 -60 -228 -86 -355 -71 -93 11
-147 31 -230 85 -148 97 -228 256 -228 454 0 114 22 192 79 287 85 144 211
229 406 276 33 8 192 -2 232 -14z m-5032 -31 c11 -17 -4 -59 -22 -59 -8 0 -33
-5 -54 -12 l-39 -11 2 -421 3 -421 75 -3 c96 -4 106 -1 160 49 107 98 168 149
177 149 6 0 15 -6 21 -13 8 -10 -1 -44 -36 -133 -26 -65 -51 -125 -55 -131 -6
-10 -80 -13 -315 -13 -169 0 -313 4 -320 9 -17 11 -12 52 8 62 8 4 34 12 58
18 l42 12 0 418 0 418 -47 13 c-27 6 -54 14 -60 16 -14 4 -18 46 -6 57 11 12
401 8 408 -4z m1810 -23 c0 -28 -3 -30 -57 -41 -32 -6 -60 -13 -62 -16 -4 -4
70 -199 104 -274 11 -26 25 -58 96 -232 33 -79 63 -142 68 -140 4 1 14 18 21
37 7 19 35 94 63 165 151 386 171 439 169 442 -2 1 -28 9 -58 16 -50 13 -54
17 -54 43 l0 29 183 3 183 2 -3 -31 c-3 -30 -6 -33 -67 -48 l-64 -16 -49 -120
c-27 -66 -52 -127 -55 -135 -4 -8 -51 -122 -105 -252 -54 -130 -98 -239 -98
-242 0 -3 -11 -29 -24 -58 -13 -29 -33 -75 -44 -103 -18 -43 -25 -50 -48 -50
-25 0 -30 8 -66 95 -22 52 -83 199 -135 325 -53 127 -111 267 -129 313 -19 46
-42 102 -52 125 -11 23 -25 56 -31 74 -12 29 -20 34 -75 46 -58 13 -61 15 -64
45 l-3 32 228 -2 228 -3 0 -29z m4000 -1 c0 -28 -3 -30 -55 -40 l-55 -10 -3
-330 c-3 -359 1 -392 56 -456 51 -61 99 -82 193 -87 72 -4 93 -1 137 18 62 27
123 92 140 148 17 56 17 688 0 698 -7 4 -35 13 -63 19 -46 11 -50 14 -50 41
l0 29 173 3 173 2 -3 -32 c-3 -29 -7 -33 -52 -44 -27 -7 -52 -18 -56 -25 -5
-6 -10 -163 -12 -348 -4 -298 -6 -341 -23 -381 -42 -102 -115 -174 -215 -214
-67 -27 -219 -33 -300 -12 -110 28 -204 105 -255 211 -18 37 -20 67 -23 396
l-3 357 -47 12 c-26 7 -53 14 -59 16 -14 4 -18 46 -6 58 4 3 97 5 207 4 l201
-3 0 -30z"/>
<path d="M1670 15905 c-37 -91 -110 -288 -110 -296 0 -5 57 -9 126 -9 116 0
126 1 119 18 -4 9 -16 42 -27 72 -11 30 -26 69 -34 87 -8 17 -14 36 -14 42 0
6 -4 19 -9 29 -5 9 -15 33 -24 52 l-15 35 -12 -30z"/>
<path d="M8540 15866 l0 -186 56 0 c101 0 173 57 192 152 25 126 -41 206 -179
216 l-69 5 0 -187z"/>
<path d="M9428 16045 c-5 -5 -8 -195 -8 -423 l0 -414 128 4 c70 2 136 9 147
15 11 6 32 16 47 23 39 18 103 83 133 135 39 65 55 137 55 245 0 196 -67 319
-207 386 -47 22 -74 27 -172 31 -64 3 -119 2 -123 -2z"/>
<path d="M7705 15868 c-16 -40 -45 -117 -66 -170 l-37 -98 124 0 c97 0 124 3
124 13 0 12 -108 317 -115 325 -2 2 -15 -30 -30 -70z"/>
<path d="M3580 15918 c0 -12 -32 -100 -86 -233 -13 -33 -24 -66 -24 -72 0 -10
32 -13 126 -13 116 0 126 1 119 18 -4 9 -25 67 -47 127 -22 61 -44 119 -48
130 -5 11 -11 28 -14 38 -6 20 -26 23 -26 5z"/>
<path d="M10966 15878 c-10 -29 -22 -62 -27 -73 -21 -48 -69 -181 -69 -192 0
-10 30 -13 125 -13 69 0 125 2 125 5 0 2 -7 19 -14 37 -8 18 -36 90 -62 161
-26 70 -50 127 -53 127 -4 0 -15 -24 -25 -52z"/>
<path d="M3683 14538 c-40 -4 -159 -9 -265 -10 l-193 -3 0 -30 c0 -27 3 -30
28 -28 32 2 76 -30 58 -42 -20 -11 -12 -25 15 -25 20 0 24 -4 20 -18 -5 -13
-1 -18 16 -18 13 0 39 -1 58 -2 l36 -2 12 -82 c7 -46 15 -95 19 -110 5 -26 3
-28 -30 -28 -22 0 -37 6 -41 15 -7 19 -36 20 -36 1 0 -14 -48 -28 -64 -19 -4
3 -5 40 -1 82 6 70 5 74 -9 56 -15 -19 -15 -19 -9 5 6 24 6 24 -11 8 -17 -18
-40 -22 -103 -18 -33 2 -37 -3 -35 -46 0 -13 -8 -25 -22 -32 -13 -5 -31 -26
-40 -46 -9 -20 -21 -36 -26 -36 -5 0 -25 -17 -44 -37 -35 -37 -35 -37 -73 -24
-43 16 -53 26 -53 60 0 23 1 23 18 8 19 -18 44 -22 55 -10 4 3 -16 14 -44 24
-29 10 -58 28 -66 39 -8 11 -25 20 -38 20 -38 0 -56 26 -49 69 8 50 -9 63 -69
55 -45 -6 -45 -7 -40 -40 5 -29 3 -34 -15 -34 -12 0 -28 10 -36 22 -12 17 -18
20 -28 10 -7 -7 -8 -12 -3 -12 6 0 26 -14 45 -30 19 -16 38 -30 43 -30 4 0 7
-8 7 -18 0 -10 11 -33 25 -52 14 -19 25 -42 25 -53 0 -10 9 -21 20 -24 10 -3
26 -16 35 -29 10 -15 25 -24 42 -24 21 0 24 -3 15 -12 -17 -17 -15 -28 7 -28
14 0 21 -9 25 -30 3 -16 9 -44 12 -60 4 -22 13 -32 32 -37 62 -15 94 -60 34
-47 -21 4 -23 3 -12 -5 13 -9 24 -51 13 -51 -15 0 -43 23 -43 35 0 9 -10 15
-26 15 -21 0 -25 -4 -21 -19 3 -11 -1 -28 -8 -38 -19 -29 -26 -69 -15 -97 8
-21 16 -26 45 -26 30 0 37 5 49 33 8 19 10 39 5 48 -8 15 6 39 23 39 11 0 3
-82 -10 -107 -7 -13 -19 -23 -27 -23 -9 0 -23 -5 -33 -11 -20 -13 -19 -28 15
-211 24 -133 -3 -248 -58 -248 -10 0 -21 -9 -24 -20 -7 -21 -25 -28 -25 -10 0
13 -37 13 -45 0 -4 -6 -37 -10 -74 -9 -69 1 -98 -4 -139 -24 -22 -10 -28 -7
-70 39 -69 75 -234 171 -357 208 -33 10 -70 23 -83 27 -13 5 -47 9 -77 9 -54
0 -65 6 -45 26 7 7 4 16 -10 29 -11 10 -20 30 -20 44 0 15 -9 34 -20 44 -13
11 -20 28 -19 49 l1 33 13 -30 c8 -16 14 -34 15 -40 0 -5 11 -22 23 -36 16
-20 35 -28 75 -33 36 -5 52 -3 52 5 0 6 -7 9 -15 5 -10 -3 -15 1 -15 14 0 27
-18 35 -39 16 -16 -15 -19 -15 -34 1 -20 23 -34 93 -18 93 6 0 16 -11 21 -25
11 -28 30 -34 30 -9 0 8 -16 31 -36 50 -20 19 -32 34 -27 34 28 0 126 -55 160
-90 25 -24 44 -36 52 -31 13 9 18 61 7 80 -7 11 -3 13 49 15 53 2 32 21 -25
23 -30 1 -61 2 -67 2 -7 1 -13 8 -13 16 0 8 -7 15 -15 15 -14 0 -14 3 0 30 8
16 15 35 15 43 0 18 -33 33 -38 18 -4 -13 -42 -15 -42 -2 0 5 7 14 15 21 9 7
13 20 11 27 -4 11 0 13 14 8 15 -5 28 3 50 27 16 18 30 36 30 40 0 4 7 5 15 2
8 -4 21 -1 29 5 8 7 18 10 22 9 5 -2 34 14 65 35 31 20 65 37 77 37 11 0 24 5
27 10 3 6 -3 10 -14 10 -11 0 -23 5 -26 10 -3 6 -1 10 5 10 6 0 22 12 35 26
15 16 37 27 59 29 39 4 89 32 83 49 -5 14 -42 24 -97 25 -31 1 -41 4 -31 10
11 7 6 12 -20 18 -26 7 -35 15 -37 35 -5 42 -67 44 -124 4 -12 -9 -30 -16 -40
-16 -10 0 -18 -4 -18 -10 0 -5 -9 -10 -20 -10 -11 0 -20 5 -20 10 0 6 8 10 18
10 10 0 23 5 30 12 6 6 35 22 64 34 l53 23 -37 1 c-20 0 -40 -4 -43 -10 -3 -5
-15 -10 -26 -10 -11 0 -36 -7 -57 -16 -20 -9 -47 -16 -60 -15 -16 2 -25 -4
-29 -17 -3 -11 -13 -22 -24 -25 -10 -3 -19 -12 -19 -21 0 -19 -49 -23 -67 -5
-17 17 -130 39 -164 32 -23 -4 -35 -2 -43 9 -6 8 -34 22 -62 32 -58 19 -68 42
-17 42 19 0 28 -3 20 -8 -8 -5 -7 -8 6 -8 10 0 16 -4 13 -9 -6 -10 40 -22 99
-26 32 -2 140 -25 165 -35 17 -7 46 5 63 26 10 13 29 24 42 24 13 0 32 11 42
23 13 18 33 26 73 31 30 4 70 16 88 27 24 13 52 19 97 19 53 0 66 3 74 19 8
14 6 25 -9 44 -11 14 -20 34 -20 45 0 12 -4 23 -10 27 -13 8 -2 32 29 63 24
24 24 27 7 30 -10 2 -29 -2 -42 -9 -18 -9 -30 -10 -46 -2 -63 31 -74 25 -47
-25 21 -40 24 -68 9 -77 -5 -3 -10 -16 -10 -28 0 -43 -13 -50 -74 -43 -48 6
-55 10 -45 22 6 8 17 14 23 14 7 0 23 12 37 26 21 23 22 27 8 37 -9 7 -20 30
-25 52 -12 48 -24 53 -159 54 -133 1 -288 -15 -323 -33 -43 -22 -55 -41 -37
-56 13 -11 19 -8 40 14 13 14 32 26 42 26 28 0 65 -30 59 -47 -3 -8 -1 -11 4
-8 11 7 23 -34 18 -66 -5 -35 -69 -65 -111 -51 -18 5 -24 10 -14 11 9 1 17 8
17 16 0 18 -43 37 -64 29 -8 -3 -33 4 -56 16 -49 25 -70 21 -70 -14 0 -21 6
-26 35 -32 39 -7 53 -20 37 -36 -13 -13 -72 8 -85 29 -4 7 -26 13 -48 13 -33
0 -47 -6 -70 -31 -23 -24 -40 -33 -81 -38 -39 -4 -54 -11 -56 -23 -3 -15 5
-18 52 -18 30 0 58 5 61 10 13 21 43 10 54 -20 7 -21 17 -30 33 -31 13 0 41
-7 63 -14 l40 -13 -60 4 c-80 5 -325 51 -347 64 -22 13 -48 13 -48 0 0 -5 5
-10 12 -10 6 0 3 -9 -7 -20 -24 -26 -39 -25 -53 4 -10 22 -14 23 -59 16 -78
-13 -136 -34 -140 -52 -3 -10 -20 -18 -48 -22 -39 -6 -130 -56 -147 -80 -4 -7
-17 -1 -32 13 -40 37 -58 25 -86 -58 -14 -41 -31 -76 -38 -79 -7 -2 -12 1 -12
7 0 6 -4 11 -10 11 -5 0 -10 -9 -10 -21 0 -15 5 -19 15 -15 12 4 14 0 9 -22
-4 -15 -12 -33 -18 -41 -8 -10 -4 -19 17 -37 33 -28 26 -48 -14 -40 -38 7 -50
-26 -20 -58 20 -21 28 -65 15 -79 -9 -9 -34 4 -34 18 0 7 6 15 13 18 8 3 4 12
-12 26 l-25 22 -12 -22 c-12 -23 -28 -11 -18 14 6 15 -23 27 -83 33 -18 2 -45
14 -60 29 -15 14 -31 25 -35 25 -4 0 -12 18 -18 40 -6 22 -13 40 -15 40 -3 0
-5 -93 -5 -206 0 -172 2 -205 13 -195 8 6 17 8 20 4 4 -3 7 -1 7 5 0 7 11 12
25 12 18 0 31 9 43 29 9 17 24 32 32 35 20 7 53 29 61 40 7 9 51 -2 59 -14 7
-11 61 0 54 11 -3 5 5 13 17 17 19 7 20 10 6 15 -10 4 -17 13 -17 22 0 13 8
10 35 -11 19 -15 34 -34 33 -42 -4 -23 47 -50 69 -36 27 17 34 60 14 86 -45
58 -84 174 -41 123 7 -8 23 -15 36 -15 13 0 24 -5 24 -11 0 -7 11 -9 30 -6 16
4 32 2 36 -4 9 -15 37 28 30 46 -3 8 -1 17 3 19 5 3 14 -28 21 -69 14 -82 18
-85 80 -63 29 9 35 9 46 -7 19 -26 10 -33 -51 -40 -31 -4 -58 -11 -61 -16 -8
-13 50 -11 63 2 18 18 58 7 61 -18 4 -26 -16 -38 -78 -48 -25 -4 -49 -10 -55
-14 -13 -8 -49 -12 -102 -13 -28 0 -40 -4 -37 -13 3 -8 -8 -12 -32 -13 -20 -1
-43 -7 -50 -13 -8 -7 -17 -9 -21 -6 -3 4 -12 2 -19 -4 -7 -6 -34 -11 -59 -11
-25 0 -45 -4 -45 -9 0 -5 28 -9 63 -9 l63 0 -4 -42 c-3 -32 0 -45 14 -55 14
-10 17 -25 15 -75 -2 -44 -7 -66 -18 -71 -9 -6 -13 -17 -9 -32 4 -17 0 -27
-19 -39 -23 -15 -25 -15 -45 6 -11 12 -20 24 -20 28 0 3 -16 14 -36 25 l-35
19 32 16 32 17 -24 16 c-32 23 -36 22 -42 -12 -3 -16 -13 -31 -21 -34 -9 -4
-15 -3 -15 1 4 22 -4 29 -30 29 -15 0 -39 9 -52 21 -14 14 -36 22 -56 22 -27
0 -33 4 -35 23 -4 60 -15 -248 -17 -476 l-1 -257 1333 2 c1324 3 1332 3 1333
23 2 49 4 51 32 49 68 -4 68 -4 29 -25 -21 -11 -36 -26 -34 -32 5 -16 97 -13
107 3 5 9 15 8 38 -4 28 -14 170 -16 1440 -16 l1410 0 8 47 9 47 48 -3 c47 -2
66 14 30 25 -44 14 -67 27 -55 31 23 9 12 22 -23 29 -25 4 -43 1 -60 -10 -27
-18 -55 -21 -55 -7 0 5 9 13 20 16 11 3 20 13 20 21 0 19 -34 18 -50 -1 -22
-26 -43 -13 -57 35 -12 42 -12 42 -7 7 6 -47 -1 -60 -26 -45 -14 9 -22 9 -33
0 -20 -17 -38 6 -26 33 12 32 10 55 -5 55 -11 0 -16 -14 -18 -47 -4 -69 -22
-59 -26 15 l-3 62 53 0 c71 0 89 12 63 40 l-19 21 149 -2 c83 -1 162 2 178 6
16 4 27 3 27 -3 0 -5 11 -13 25 -16 47 -12 27 -27 -27 -21 -62 6 -55 2 25 -15
31 -6 55 -16 51 -21 -3 -5 -9 -7 -14 -4 -5 3 -11 1 -15 -5 -4 -6 4 -10 19 -10
20 0 60 -12 84 -26 10 -5 -13 -32 -24 -27 -8 3 -14 1 -14 -5 0 -6 -3 -17 -6
-26 -4 -11 -1 -16 10 -16 21 0 96 -47 96 -60 0 -17 46 -40 161 -80 l114 -40
304 0 304 0 -7 53 c-3 28 -6 333 -7 677 -1 344 -4 615 -6 603 -2 -13 -9 -23
-14 -23 -5 0 -9 -7 -9 -15 0 -9 -8 -19 -17 -22 -32 -12 -34 -28 -5 -40 l27
-12 -27 -1 c-20 0 -28 -5 -28 -17 0 -13 -15 -22 -53 -34 -61 -18 -77 -15 -77
12 0 10 -4 19 -10 19 -5 0 -10 5 -10 10 0 16 27 12 34 -5 3 -8 14 -15 24 -15
23 0 49 26 32 32 -7 2 -7 14 0 38 15 52 -3 57 -45 12 -34 -37 -39 -40 -66 -30
-16 5 -29 14 -29 20 0 5 -4 6 -10 3 -5 -3 -9 -16 -8 -28 2 -37 -20 -77 -42
-77 -23 0 -26 10 -8 28 9 9 8 12 -6 12 -26 0 -56 -19 -56 -35 0 -8 8 -20 18
-27 26 -20 39 -40 46 -74 l7 -32 -53 -7 c-29 -4 -60 -13 -69 -21 -8 -7 -26
-15 -40 -17 -18 -3 -25 -11 -27 -33 -3 -22 -1 -26 9 -17 9 9 16 9 31 0 16 -10
22 -8 37 9 9 12 26 26 38 32 32 17 42 -3 47 -96 4 -82 4 -82 -17 -70 -12 7
-25 11 -29 10 -3 -1 -19 13 -35 31 l-29 33 0 -50 c0 -28 4 -54 10 -58 7 -5 4
-8 -6 -8 -10 0 -18 5 -18 10 0 6 -4 10 -10 10 -5 0 -10 -9 -10 -20 0 -11 -7
-20 -16 -20 -10 0 -14 7 -12 22 2 14 -4 26 -17 33 -45 23 -95 68 -95 86 0 13
-7 19 -21 19 -15 0 -19 -4 -14 -19 6 -19 -11 -39 -23 -27 -3 4 -7 22 -8 41 -2
20 -6 40 -9 46 -13 20 -16 177 -4 184 8 6 8 10 -2 16 -11 6 -11 19 -1 67 7 32
12 69 12 81 0 22 13 57 46 126 8 17 15 42 16 58 2 19 8 27 23 28 22 2 45 5 60
8 6 1 48 3 94 4 97 2 93 -2 92 109 0 83 15 98 100 98 64 0 72 -8 56 -55 -14
-42 -34 -63 -66 -68 -17 -3 -13 -4 15 -6 28 0 44 -6 48 -17 19 -51 -12 -86
-79 -88 -25 0 -44 -5 -43 -11 2 -5 28 -9 58 -8 30 0 76 2 102 2 40 1 50 6 68
31 17 24 20 36 13 57 -9 26 -9 26 -31 -19 -24 -52 -33 -61 -55 -53 -16 7 -22
121 -6 130 12 8 12 85 -1 85 -20 0 -9 27 15 38 25 11 35 42 14 42 -6 0 -9 14
-7 33 2 27 7 32 28 32 18 0 26 -6 28 -22 2 -13 8 -23 13 -23 13 0 11 48 -3 52
-7 3 -6 7 5 11 10 4 17 2 17 -5 0 -7 8 -21 19 -32 21 -24 43 -84 36 -96 -3 -5
3 -15 13 -22 10 -7 21 -20 25 -28 3 -8 6 44 6 115 l1 131 -102 3 c-262 7
-3181 15 -3245 9z m3017 -92 c0 -8 3 -22 6 -31 5 -11 0 -18 -14 -22 -20 -5
-35 -30 -31 -49 4 -15 -13 -44 -25 -44 -8 0 -10 -24 -8 -79 l4 -78 -29 -5
c-45 -6 -48 -2 -45 58 3 39 1 54 -7 50 -6 -4 -11 -29 -11 -56 0 -43 -3 -48
-25 -54 -14 -4 -30 -4 -35 -1 -6 4 -10 41 -10 84 0 87 12 108 55 97 23 -6 24
-4 19 22 -5 23 -2 28 16 29 12 1 32 13 45 27 13 14 31 26 39 26 9 0 21 9 28
20 15 23 28 26 28 6z m-3055 -186 l0 -115 -55 -2 c-73 -2 -90 13 -90 82 0 42
5 56 24 75 15 13 32 20 40 17 12 -5 16 0 16 22 0 35 8 43 40 39 l25 -3 0 -115z
m1454 46 c38 8 51 -12 55 -82 4 -73 0 -84 -30 -84 -17 0 -24 6 -25 20 -1 11
-3 25 -4 30 -1 6 -3 21 -4 35 -2 50 -21 23 -21 -31 0 -54 0 -55 -27 -52 l-28
3 0 110 c0 108 0 109 25 115 23 6 25 3 28 -32 3 -35 5 -37 31 -32z m1191 18
c0 -41 1 -44 16 -30 8 9 24 16 34 16 16 0 18 -8 17 -60 -2 -45 2 -63 16 -77
16 -16 17 -14 17 55 0 58 3 74 16 79 35 13 46 -9 46 -87 0 -71 -1 -75 -25 -81
-14 -4 -28 -4 -32 -1 -3 3 -24 5 -45 3 -34 -2 -41 1 -49 21 l-8 23 -7 -23 c-5
-15 -15 -22 -32 -22 -24 0 -24 0 -24 108 0 60 3 112 7 115 3 4 17 7 30 7 21 0
23 -4 23 -46z m-1765 22 c16 -12 17 -16 6 -30 -9 -10 -22 -14 -37 -10 -35 9
-29 -10 11 -37 53 -36 55 -92 5 -119 -46 -25 -118 -2 -104 34 5 14 14 17 35
12 39 -7 45 9 12 30 -38 24 -53 44 -53 71 0 51 80 82 125 49z m105 -12 c0 -8
6 -23 12 -34 10 -16 10 -24 0 -40 -15 -24 -16 -57 -2 -65 6 -3 10 -17 10 -31
0 -20 -5 -24 -28 -24 -38 0 -52 17 -52 63 0 21 -4 47 -10 57 -13 24 13 87 37
92 23 6 33 0 33 -18z m1038 -16 c2 -29 8 -38 22 -38 14 0 20 9 22 38 3 32 6
37 28 37 25 0 25 0 28 -108 l3 -108 -28 3 c-24 3 -28 8 -31 41 -2 28 -8 37
-22 37 -14 0 -20 -9 -22 -37 -3 -35 -6 -38 -33 -38 l-30 0 -3 85 c-4 114 1
132 36 128 23 -3 27 -8 30 -40z m-1778 -28 c14 -14 20 -33 20 -65 0 -58 -25
-85 -79 -85 -48 0 -71 26 -71 83 0 73 82 115 130 67z m139 11 c20 -13 6 -41
-21 -42 -15 0 -18 -3 -8 -6 48 -18 63 -62 33 -95 -18 -20 -73 -24 -90 -7 -18
18 -4 39 26 39 l26 0 -32 20 c-38 23 -42 51 -13 80 21 21 55 26 79 11z m242
-1 c16 -9 19 -22 19 -85 l0 -73 -57 0 c-66 0 -83 10 -83 46 0 33 27 62 57 62
13 0 22 4 19 8 -3 5 -19 7 -36 4 -25 -4 -30 -1 -30 16 0 13 8 22 23 25 41 8
68 7 88 -3z m516 -5 c24 -17 36 -64 21 -82 -6 -7 -27 -14 -47 -14 l-36 -2 40
-6 c31 -5 40 -10 40 -26 0 -17 -8 -20 -52 -23 -44 -3 -53 0 -67 20 -54 77 27
185 101 133z m185 -3 c17 -17 16 -116 -1 -136 -7 -9 -26 -16 -42 -16 -24 0
-29 -4 -29 -25 0 -21 -5 -25 -30 -25 l-30 0 0 103 c0 57 2 106 4 108 10 10
117 2 128 -9z m329 -3 c14 -14 19 -30 17 -52 -3 -29 -7 -33 -43 -38 l-40 -6
37 -2 c40 -1 51 -11 42 -35 -10 -25 -96 -22 -119 4 -22 25 -25 102 -4 122 33
33 81 36 110 7z m179 1 c5 -8 10 -45 10 -82 l0 -68 -30 0 c-30 0 -30 1 -30 55
0 70 -18 72 -22 3 -3 -49 -5 -53 -30 -56 l-28 -3 0 80 c0 44 4 81 10 83 29 9
112 1 120 -12z m446 6 c16 -12 19 -27 19 -83 l0 -68 -62 -2 c-53 -2 -65 1 -73
17 -23 42 2 90 47 90 13 0 22 4 19 8 -3 5 -19 7 -36 4 -25 -4 -30 -1 -30 16 0
13 8 22 23 25 45 9 74 7 93 -7z m88 8 c10 -4 16 -18 16 -35 0 -38 13 -37 25 3
12 39 42 46 55 12 12 -30 28 -31 32 -2 2 15 11 23 32 25 l28 4 -6 -48 c-4 -26
-12 -65 -18 -85 -10 -34 -15 -38 -44 -38 -21 0 -37 7 -44 18 -10 16 -10 16
-20 0 -7 -11 -23 -18 -41 -18 -33 0 -43 16 -54 93 -10 68 0 86 39 71z m-1314
-379 l0 -115 -63 0 c-59 0 -65 2 -75 25 -28 62 -5 131 46 137 21 2 27 8 27 26
1 25 19 42 48 42 15 0 17 -12 17 -115z m-1319 43 c0 -7 0 -35 -1 -62 -1 -36 2
-47 12 -44 9 3 13 23 13 59 0 48 2 54 20 51 43 -6 45 -9 42 -84 l-2 -73 -60
-3 c-52 -3 -61 0 -77 20 -18 23 -26 127 -11 141 11 12 63 7 64 -5z m239 -8
c16 -16 20 -33 20 -85 l0 -65 -29 0 c-29 0 -30 2 -33 50 -4 67 -22 68 -26 2
-3 -51 -4 -53 -30 -50 -27 3 -27 4 -27 78 l0 75 45 6 c25 3 48 7 53 7 4 1 16
-7 27 -18z m440 10 c38 0 56 -106 23 -142 -20 -22 -95 -25 -113 -3 -18 22 -23
87 -8 115 13 24 51 41 76 34 8 -2 17 -4 22 -4z m194 -6 c12 -11 16 -35 16 -85
l0 -69 -30 0 c-30 0 -30 1 -30 55 0 30 -4 55 -10 55 -5 0 -10 -25 -10 -55 0
-54 0 -55 -30 -55 l-30 0 0 79 0 80 53 4 c28 2 53 4 54 5 1 1 9 -5 17 -14z
m174 -13 c29 -36 27 -94 -4 -125 -9 -10 -33 -16 -59 -16 -64 0 -89 43 -68 119
12 46 100 61 131 22z m429 -16 c23 -47 12 -65 -37 -65 -25 0 -39 -4 -35 -10 3
-5 20 -9 38 -7 26 2 33 -2 35 -20 3 -21 0 -23 -52 -23 -62 0 -86 21 -86 75 1
90 101 126 137 50z m331 23 c7 -7 12 -36 12 -78 l0 -68 -59 -1 c-67 0 -84 12
-79 55 2 19 14 33 38 46 l35 19 -30 -3 c-24 -2 -30 1 -30 17 0 32 77 41 113
13z m469 -19 c7 -13 13 -34 13 -46 0 -21 -5 -23 -47 -23 -36 -1 -44 -3 -31
-10 9 -6 27 -9 40 -8 17 2 24 -3 26 -19 3 -21 0 -23 -51 -23 -36 0 -59 5 -67
15 -18 22 -23 87 -8 115 24 45 102 45 125 -1z m173 5 c6 -14 10 -50 10 -80 0
-53 0 -54 -30 -54 -30 0 -30 0 -30 56 0 73 -24 70 -28 -4 -3 -50 -4 -52 -33
-52 l-29 0 0 73 c0 41 3 77 7 80 3 4 33 7 65 7 54 0 59 -2 68 -26z m374 10
c11 -11 16 -35 16 -80 l0 -64 -65 0 c-55 0 -66 3 -75 21 -19 34 -4 65 37 83
38 16 38 16 5 10 -24 -4 -34 -2 -38 11 -4 10 -1 21 7 26 23 15 96 10 113 -7z
m-5451 -621 c44 -4 67 -10 67 -19 0 -7 5 -14 11 -16 6 -2 13 -27 16 -55 l4
-51 -34 -6 c-39 -7 -67 1 -84 23 -9 13 -11 12 -10 -10 1 -15 7 -25 13 -22 7 2
15 0 19 -6 6 -11 -4 -14 -40 -12 -18 1 -18 0 3 -9 43 -18 18 -36 -74 -55 -28
-5 -32 -3 -38 21 -5 18 -12 25 -24 22 -18 -5 -42 13 -42 32 0 5 -4 10 -10 10
-5 0 -10 4 -10 10 0 5 13 7 29 4 16 -3 38 -1 49 5 22 12 35 69 20 88 -12 15
32 63 52 56 8 -2 45 -7 83 -10z m2114 -254 c21 -21 3 -139 -34 -219 -33 -73
-33 -75 -18 -115 15 -39 13 -37 -66 44 -45 47 -88 96 -97 109 -15 23 -14 25
29 62 24 22 52 39 61 40 9 0 23 6 30 13 7 7 25 20 41 30 15 10 27 24 27 32 0
18 12 19 27 4z"/>
<path d="M125 14531 c-4 -7 -4 -74 0 -150 7 -128 9 -141 32 -165 21 -23 43
-34 43 -22 0 2 -9 25 -20 51 -11 26 -20 49 -20 51 0 2 12 4 28 4 22 0 33 -9
55 -46 15 -25 32 -65 37 -90 6 -25 17 -62 25 -81 12 -27 13 -44 5 -73 -8 -29
-7 -46 5 -74 14 -33 35 -49 35 -26 0 5 11 12 25 16 21 5 24 11 19 28 -4 11
-13 29 -20 40 -9 14 -10 24 -2 42 6 13 15 24 19 24 5 0 4 11 -2 24 -9 18 -7
30 5 55 9 17 23 31 31 31 26 0 57 52 50 86 -8 45 2 65 30 58 16 -4 24 0 27 14
6 22 84 40 102 22 5 -5 18 -10 28 -10 28 0 1 49 -31 56 -46 10 -50 13 -57 39
-5 19 0 32 20 52 25 25 28 25 107 18 68 -5 146 -22 115 -24 -5 -1 -3 -8 4 -16
7 -8 27 -15 46 -15 18 0 36 -4 39 -10 14 -23 64 -10 104 28 22 21 44 36 50 34
6 -2 11 1 11 6 0 5 -21 15 -46 22 -38 11 -81 11 -223 2 -140 -9 -386 -10 -386
-2 0 1 -64 4 -141 7 -102 4 -144 2 -149 -6z"/>
<path d="M7146 14521 c-3 -4 -5 -441 -5 -970 l0 -961 2350 0 c1872 0 2349 3
2350 13 1 15 1 1909 0 1920 -1 10 -4689 9 -4695 -2z m2992 -130 c143 -37 217
-124 217 -256 0 -104 -33 -161 -154 -272 -53 -49 -109 -100 -126 -115 -16 -16
-33 -28 -37 -28 -5 0 -8 -4 -8 -10 0 -6 67 -11 168 -12 l167 -3 0 -105 0 -105
-352 -3 -353 -2 -6 24 c-3 13 -4 58 -1 100 4 69 6 78 33 98 16 13 36 30 44 38
8 8 74 67 145 130 164 144 202 185 209 226 23 121 -159 142 -189 22 l-7 -28
-125 0 -125 0 4 53 c17 197 248 313 496 248z m1207 4 c138 -29 221 -92 246
-186 23 -85 -31 -196 -111 -229 -37 -15 -38 -26 -3 -35 86 -21 152 -114 153
-213 0 -168 -153 -272 -401 -272 -114 0 -206 19 -272 55 -180 101 -182 331 -4
421 l48 25 -48 32 c-83 55 -120 173 -79 251 67 130 267 194 471 151z m-1856
-19 c8 -9 10 -136 9 -452 l-3 -439 -129 -3 c-71 -1 -133 1 -138 6 -5 5 -9 151
-8 326 0 174 -2 316 -5 316 -8 0 -115 -70 -148 -97 -16 -13 -37 -23 -48 -23
-19 0 -19 7 -17 116 l3 116 114 74 114 74 122 0 c91 0 125 -3 134 -14z m-1874
-216 c27 -14 30 -21 33 -66 2 -38 -2 -56 -14 -68 -15 -15 -14 -18 10 -37 39
-31 37 -95 -5 -135 -30 -29 -31 -29 -152 -29 l-122 0 -3 165 c-1 90 0 170 2
177 7 18 212 12 251 -7z m335 5 c16 -8 41 -31 56 -51 24 -31 28 -44 28 -114 1
-88 -12 -115 -74 -157 -26 -18 -47 -23 -97 -23 -71 0 -104 13 -148 60 -28 30
-30 36 -30 114 0 71 3 87 25 119 14 20 41 43 60 51 46 20 143 20 180 1z m645
-35 l0 -45 -67 -3 c-52 -2 -68 -6 -68 -17 0 -12 14 -15 59 -15 64 0 75 -7 77
-52 2 -39 -17 -50 -81 -46 -30 1 -55 0 -55 -4 0 -5 0 -11 0 -15 0 -5 30 -10
67 -13 l68 -5 0 -45 0 -45 -128 0 -129 0 2 170 c0 93 -2 166 -6 162 -5 -4 -8
-22 -8 -40 -1 -30 -3 -32 -43 -35 l-43 -3 -1 -42 c0 -23 -1 -80 -2 -127 l-2
-85 -57 -3 -58 -3 0 118 c0 65 -4 123 -8 130 -4 6 -23 13 -42 15 -32 3 -35 6
-38 36 -6 65 -20 62 285 59 l278 -2 0 -45z m2128 -510 c-1 -25 -6 -63 -12 -85
-5 -22 -17 -74 -26 -115 -9 -41 -21 -92 -26 -112 l-10 -38 -96 0 -95 0 6 118
c4 64 12 154 18 200 l12 83 116 -3 115 -3 -2 -45z m-403 -610 c63 -45 87 -140
56 -228 -32 -89 -124 -132 -217 -101 -77 26 -109 79 -109 180 0 96 35 152 105
172 42 12 134 -1 165 -23z m909 14 c42 -16 79 -69 68 -98 -8 -21 -89 -22 -107
-1 -13 16 -60 21 -60 6 0 -11 43 -28 91 -35 53 -9 82 -45 81 -102 0 -58 -32
-95 -97 -112 -60 -16 -93 -15 -135 6 -36 17 -77 82 -65 102 10 16 101 12 115
-6 14 -16 66 -16 63 1 -1 5 -17 13 -35 18 -111 26 -138 51 -138 126 0 29 7 44
33 68 47 45 115 56 186 27z m395 0 c9 -25 -10 -41 -42 -36 -30 4 -93 -25 -100
-46 -2 -7 6 -12 20 -13 81 -3 83 -4 86 -26 3 -22 0 -23 -62 -23 -51 0 -66 -3
-66 -15 0 -11 13 -14 56 -14 59 1 81 -10 71 -35 -5 -12 -21 -16 -62 -16 -52 0
-55 -1 -43 -20 14 -22 57 -40 97 -40 38 0 54 -14 46 -39 -5 -16 -14 -21 -43
-21 -78 0 -151 41 -173 98 -6 15 -17 22 -34 22 -22 0 -26 4 -23 23 2 14 11 23
26 25 31 5 29 32 -3 32 -18 0 -25 5 -25 20 0 13 7 20 19 20 11 0 30 15 42 33
49 69 75 83 160 86 35 1 48 -3 53 -15z m-2497 -6 c9 -12 19 -36 55 -128 9 -25
10 -25 28 15 11 22 19 45 20 51 0 6 7 25 16 42 15 31 18 32 75 32 l59 0 -2
-177 -3 -176 -37 0 c-21 1 -42 2 -48 2 -5 1 -10 33 -12 73 l-3 72 -21 -64
c-24 -71 -39 -86 -75 -77 -20 5 -29 20 -49 78 l-25 72 -5 -79 -5 -78 -37 -2
c-20 0 -42 2 -48 6 -9 5 -15 217 -10 343 0 13 117 8 127 -5z m391 -165 l-3
-178 -49 3 c-27 1 -52 4 -55 6 -5 3 -7 333 -2 344 1 1 26 2 56 2 l55 0 -2
-177z m142 52 l0 -124 63 -3 c60 -3 62 -4 65 -32 2 -15 1 -38 -2 -50 -5 -20
-11 -21 -113 -21 -59 0 -112 3 -118 7 -6 4 -9 71 -7 177 l3 171 54 0 55 0 0
-125z m260 0 c0 -93 3 -125 13 -126 6 0 35 -1 62 -2 l50 -2 3 -39 c2 -21 -1
-43 -7 -49 -12 -12 -201 -14 -220 -3 -7 5 -11 62 -11 177 l0 169 55 0 55 0 0
-125z m619 67 c21 -32 46 -64 56 -72 15 -12 16 -10 14 31 -5 100 -6 99 56 99
l55 0 0 -170 c0 -183 1 -178 -55 -183 -25 -2 -36 8 -89 77 l-61 80 -5 -79 c-5
-87 0 -81 -77 -76 -23 1 -23 2 -23 176 l0 175 45 0 c43 0 46 -2 84 -58z m443
36 c4 -66 7 -63 -57 -66 -56 -3 -80 -15 -69 -34 3 -4 32 -8 65 -8 l60 0 -3
-42 -3 -43 -57 -3 c-43 -2 -58 -7 -58 -17 0 -12 14 -15 60 -15 33 0 60 -4 61
-10 0 -5 1 -27 2 -47 l0 -38 -69 -5 c-38 -3 -91 -5 -119 -5 l-50 0 -3 178 -2
177 120 0 c117 0 120 0 122 -22z"/>
<path d="M11162 14187 c-15 -16 -22 -36 -22 -65 0 -37 4 -45 33 -63 91 -57
198 55 121 126 -37 34 -101 35 -132 2z"/>
<path d="M11159 13827 c-37 -25 -49 -58 -38 -101 12 -43 37 -64 83 -71 72 -11
118 21 131 91 4 21 0 36 -17 55 -48 54 -104 64 -159 26z"/>
<path d="M7826 14071 c-23 -26 -30 -89 -14 -121 11 -19 21 -25 48 -25 43 0 57
24 52 87 -3 37 -9 48 -32 61 -35 21 -33 21 -54 -2z"/>
<path d="M3990 12285 c-19 -7 -45 -14 -57 -14 -29 -1 -30 -27 -3 -41 17 -9 20
-21 20 -83 l0 -72 -59 0 c-47 0 -67 -6 -107 -31 -69 -42 -96 -94 -95 -184 1
-103 36 -156 118 -181 39 -11 46 -10 93 13 52 26 60 26 60 -2 0 -15 6 -16 38
-9 20 5 49 11 65 14 32 6 36 20 7 28 -19 5 -20 14 -20 291 0 312 4 295 -60
271z m-62 -251 c21 -14 22 -22 22 -153 0 -152 0 -151 -62 -151 -48 0 -85 47
-92 118 -17 146 51 243 132 186z"/>
<path d="M5133 12281 c-57 -17 -65 -29 -33 -49 19 -12 20 -23 20 -266 0 -252
0 -253 -22 -264 -18 -8 -4 -11 72 -11 89 0 94 1 73 16 -23 15 -23 16 -23 304
0 327 9 300 -87 270z"/>
<path d="M6590 12285 c-19 -7 -45 -14 -57 -14 -28 -1 -30 -22 -3 -39 19 -12
20 -23 20 -276 0 -300 -10 -270 96 -281 110 -12 206 30 246 108 30 58 30 155
-1 214 -40 79 -130 103 -196 52 -14 -12 -29 -19 -32 -16 -3 3 -4 65 -4 136 2
146 4 144 -69 116z m167 -285 c23 -14 35 -31 44 -62 15 -58 4 -175 -20 -208
-21 -29 -64 -37 -98 -19 -22 12 -23 16 -23 155 0 127 2 143 18 147 33 9 47 7
79 -13z"/>
<path d="M7433 12281 c-66 -21 -72 -28 -45 -47 19 -13 22 -24 22 -90 l0 -75
-33 6 c-58 11 -117 -12 -168 -64 -47 -48 -59 -80 -59 -151 0 -65 12 -100 44
-135 55 -58 143 -65 199 -17 16 15 18 14 24 -7 5 -21 9 -22 57 -16 28 4 59 12
70 17 17 9 17 11 -5 22 l-24 12 -3 282 c-2 216 -5 282 -15 281 -6 -1 -35 -9
-64 -18z m-45 -247 c21 -14 22 -22 22 -153 0 -151 0 -151 -59 -151 -36 0 -79
42 -87 86 -3 19 -5 67 -2 108 3 62 7 79 27 100 28 30 66 34 99 10z"/>
<path d="M8373 12281 c-66 -21 -73 -28 -46 -49 18 -14 22 -28 23 -77 1 -33 1
-65 1 -70 -1 -6 -27 -10 -58 -10 -72 -1 -131 -31 -170 -88 -23 -33 -28 -53
-31 -112 -6 -111 32 -172 122 -196 33 -9 45 -7 88 14 48 24 51 24 55 6 6 -22
14 -23 83 -8 46 10 70 29 36 29 -8 0 -17 7 -20 16 -3 9 -6 139 -6 290 0 213
-3 274 -12 273 -7 -1 -36 -9 -65 -18z m-38 -255 c19 -19 23 -32 20 -67 -2 -24
-4 -83 -4 -131 -1 -85 -1 -86 -29 -96 -36 -12 -85 7 -103 40 -35 65 -28 212
13 255 28 30 72 30 103 -1z"/>
<path d="M150 12211 c0 -6 14 -14 30 -17 l30 -6 0 -234 0 -234 -33 -14 c-30
-13 -23 -14 98 -14 127 0 129 0 93 15 l-38 16 0 99 c0 112 7 122 64 95 28 -13
38 -29 66 -99 47 -119 58 -128 144 -128 l70 0 -31 33 c-17 17 -41 60 -53 94
-25 69 -49 99 -94 118 -28 12 -29 14 -11 20 107 34 149 106 110 188 -30 62
-59 71 -262 75 -131 3 -183 1 -183 -7z m306 -55 c30 -30 34 -40 34 -84 0 -41
-5 -55 -28 -80 -28 -29 -99 -51 -122 -37 -6 4 -10 52 -10 121 l0 114 46 0 c39
0 51 -5 80 -34z"/>
<path d="M9698 12212 c11 -7 13 -36 10 -125 l-3 -115 38 0 c32 -1 37 1 26 14
-9 12 -16 144 -10 212 2 20 49 14 61 -7 15 -29 12 -81 -5 -87 -21 -8 -19 -24
3 -24 26 0 62 42 62 72 0 44 -33 62 -118 66 -49 2 -72 0 -64 -6z"/>
<path d="M4361 12099 l-74 -79 32 0 31 0 0 -140 c0 -82 5 -149 11 -164 22 -47
62 -53 172 -25 48 13 48 29 -1 29 -72 0 -77 11 -77 162 l0 133 58 3 c53 3 58
5 55 24 -3 18 -10 21 -58 22 l-55 1 -3 58 c-2 31 -6 57 -10 56 -4 0 -40 -36
-81 -80z"/>
<path d="M815 12070 c-84 -13 -143 -66 -131 -115 8 -32 39 -49 66 -35 28 15
36 55 16 85 -16 24 -15 25 9 31 31 8 83 -12 89 -35 3 -9 6 -38 8 -66 l2 -49
-74 -17 c-59 -14 -80 -24 -102 -48 -46 -52 -34 -111 29 -137 38 -16 91 -6 124
23 15 13 20 11 42 -11 28 -28 59 -32 104 -15 19 8 23 13 13 16 -34 12 -40 36
-40 164 0 70 -4 139 -10 153 -17 46 -74 68 -145 56z"/>
<path d="M1095 12062 c-33 -9 -62 -17 -64 -19 -3 -2 5 -13 17 -26 21 -22 22
-32 22 -233 0 -164 -3 -214 -14 -229 -13 -18 -15 -17 -29 17 -21 49 -50 65
-83 43 -72 -47 20 -121 119 -94 99 26 107 52 107 334 0 124 -3 225 -7 224 -5
0 -35 -8 -68 -17z"/>
<path d="M1378 12071 c-49 -16 -96 -51 -119 -89 -18 -30 -23 -52 -23 -112 0
-109 38 -163 135 -189 99 -27 203 34 230 134 16 59 5 140 -26 187 -39 58 -130
90 -197 69z m94 -51 c30 -42 43 -137 28 -210 -17 -79 -42 -112 -83 -108 -46 5
-67 41 -74 130 -11 144 18 222 80 216 18 -2 37 -13 49 -28z"/>
<path d="M2259 12069 c-57 -16 -92 -59 -92 -114 0 -56 18 -78 97 -116 73 -36
96 -56 96 -84 0 -45 -63 -71 -102 -42 -9 7 -32 32 -52 56 -40 48 -49 42 -44
-30 l3 -44 58 -14 c47 -11 66 -11 102 -1 61 17 105 67 105 119 0 51 -26 82
-97 116 -74 34 -93 52 -93 85 0 33 17 50 51 50 20 0 38 -12 67 -45 22 -25 42
-45 46 -45 9 0 8 98 -1 103 -19 11 -111 15 -144 6z"/>
<path d="M2515 12062 c-75 -20 -74 -20 -48 -40 20 -16 22 -28 25 -155 l3 -139
33 -29 c18 -16 44 -29 58 -29 27 0 75 22 114 52 l25 20 5 -34 c4 -23 10 -32
20 -29 8 2 36 8 63 14 51 10 58 20 27 37 -19 10 -20 21 -20 181 0 133 -3 170
-12 166 -7 -3 -39 -11 -70 -18 -62 -14 -70 -22 -38 -39 18 -10 20 -21 20 -139
0 -125 -1 -129 -22 -135 -41 -11 -68 -6 -88 14 -18 18 -20 33 -20 170 0 83 -3
149 -7 149 -5 -1 -35 -9 -68 -17z"/>
<path d="M2935 12060 c-33 -10 -62 -19 -65 -20 -3 0 6 -10 20 -21 l25 -21 3
-224 c3 -216 2 -224 -17 -236 -12 -7 -21 -16 -21 -20 0 -11 169 -8 176 3 3 5
-2 9 -10 9 -23 0 -34 29 -32 88 l1 54 51 2 c73 2 142 40 178 100 26 41 30 58
30 115 0 91 -29 145 -91 173 -44 19 -47 19 -92 3 -25 -10 -50 -22 -55 -26 -17
-15 -26 -10 -26 16 0 29 4 28 -75 5z m174 -55 c46 -23 64 -75 59 -165 -3 -59
-10 -84 -27 -109 -26 -37 -66 -41 -102 -12 -23 18 -24 27 -27 150 -4 129 -3
131 20 140 33 14 45 13 77 -4z"/>
<path d="M3435 12062 c-105 -50 -153 -175 -110 -280 23 -54 52 -80 112 -99 50
-16 56 -16 106 0 28 9 66 28 82 43 29 25 30 25 5 20 -105 -24 -162 -18 -187
20 -22 34 -35 117 -19 126 6 4 62 8 124 8 110 0 112 0 112 23 0 37 -43 110
-75 129 -49 28 -104 31 -150 10z"/>
<path d="M4175 12062 c-33 -9 -62 -17 -64 -19 -3 -2 5 -13 17 -26 20 -22 22
-33 22 -164 0 -135 -1 -140 -22 -151 -18 -8 -4 -11 72 -11 89 0 94 1 73 16
-22 15 -23 20 -23 194 0 99 -3 179 -7 178 -5 0 -35 -8 -68 -17z"/>
<path d="M4730 12073 c-112 -18 -180 -106 -116 -148 47 -31 89 22 61 77 -16
34 -6 42 40 34 46 -9 65 -39 65 -102 l0 -52 -66 -12 c-73 -14 -127 -51 -138
-96 -10 -36 20 -79 64 -94 37 -12 54 -8 143 38 4 2 7 -3 7 -10 0 -24 44 -41
87 -33 52 10 59 15 31 29 -22 11 -23 17 -28 163 -4 130 -8 154 -24 172 -16 18
-80 44 -96 40 -3 -1 -16 -4 -30 -6z"/>
<path d="M5410 12064 c-59 -15 -110 -59 -110 -94 0 -21 33 -60 50 -60 16 0 50
39 50 58 0 10 -7 27 -15 38 -17 26 -11 34 27 34 17 0 39 -10 53 -25 20 -20 25
-34 25 -78 l0 -55 -67 -13 c-89 -18 -133 -54 -133 -109 0 -30 6 -43 27 -59 43
-34 70 -36 122 -10 25 13 49 25 54 27 4 2 7 -3 7 -11 0 -22 53 -40 92 -32 48
11 53 16 26 29 -22 11 -23 17 -28 163 -6 169 -11 184 -79 203 -42 12 -33 12
-101 -6z"/>
<path d="M5895 12065 c-46 -16 -84 -56 -86 -88 -4 -70 16 -99 96 -136 34 -16
70 -37 79 -46 22 -23 21 -72 -3 -85 -42 -22 -68 -12 -120 47 l-51 57 0 -60 0
-61 51 -11 c68 -16 87 -15 136 8 80 36 104 120 51 178 -13 13 -51 38 -85 54
-35 16 -67 37 -73 48 -16 30 -2 69 27 76 34 9 65 -7 93 -50 14 -20 28 -36 33
-36 4 0 7 22 7 49 0 28 -3 52 -7 54 -24 14 -112 15 -148 2z"/>
<path d="M6165 12062 c-33 -8 -62 -16 -64 -18 -2 -2 6 -15 18 -30 19 -25 21
-39 20 -151 -1 -138 6 -160 61 -183 38 -16 84 -3 138 38 33 25 36 24 32 -15
-2 -26 1 -27 72 -12 64 13 77 23 49 38 -20 11 -21 19 -21 175 0 89 -2 165 -5
168 -5 5 -124 -20 -134 -28 -2 -2 4 -13 14 -24 15 -16 18 -37 17 -132 0 -62
-1 -118 -1 -125 -1 -15 -62 -27 -90 -18 -31 10 -42 62 -40 200 0 69 0 127 -2
129 -2 1 -31 -4 -64 -12z"/>
<path d="M7005 12062 c-33 -9 -62 -17 -64 -19 -3 -2 5 -13 17 -26 20 -22 22
-33 22 -164 0 -135 -1 -140 -22 -151 -18 -8 -2 -11 77 -11 94 0 98 1 73 15
l-28 15 0 179 c0 99 -3 179 -7 179 -5 -1 -35 -9 -68 -17z"/>
<path d="M7719 12069 c-56 -8 -105 -33 -119 -60 -16 -29 -8 -69 15 -85 18 -12
24 -11 43 2 24 16 30 62 11 81 -27 27 18 43 64 22 32 -14 47 -49 47 -104 l0
-44 -47 -7 c-99 -14 -163 -59 -163 -113 0 -59 74 -104 133 -80 18 7 40 19 49
27 16 13 20 12 44 -12 28 -28 56 -32 99 -16 l27 10 -23 19 c-22 18 -24 26 -27
165 -4 138 -5 147 -28 170 -28 28 -61 34 -125 25z"/>
<path d="M8665 12073 c-44 -11 -103 -64 -126 -110 -48 -99 -17 -223 65 -262
64 -31 89 -34 147 -17 57 17 141 74 89 61 -14 -3 -52 -9 -86 -12 -53 -5 -63
-3 -87 18 -28 26 -55 105 -44 132 5 15 24 17 122 17 l115 0 0 35 c0 91 -100
162 -195 138z"/>
<path d="M1614 12059 c-2 -3 7 -11 19 -16 16 -8 39 -53 90 -180 37 -93 67
-181 67 -194 0 -20 -9 -39 -35 -77 -2 -2 -19 7 -39 19 -34 20 -38 20 -61 5
-17 -11 -25 -26 -25 -45 0 -35 19 -52 59 -53 69 -2 97 42 202 313 51 135 78
190 97 206 15 12 25 23 22 23 -7 1 -113 2 -124 1 -4 -1 2 -9 14 -19 l22 -18
-27 -84 c-39 -125 -45 -138 -56 -119 -11 21 -69 194 -69 207 0 6 9 14 21 17
11 4 18 9 15 12 -7 8 -187 9 -192 2z"/>
<path d="M10259 11743 c0 -5 -1 -43 -2 -85 -2 -77 -2 -78 23 -78 25 0 25 1 22
69 -3 61 -1 70 16 75 43 14 54 -2 50 -75 -3 -68 -3 -69 22 -69 25 0 25 1 22
72 -2 40 -8 79 -14 86 -13 15 -60 16 -76 0 -9 -9 -15 -9 -24 0 -13 13 -38 16
-39 5z"/>
<path d="M209 11446 c-25 -7 -54 -18 -64 -23 -17 -10 -16 -12 8 -28 l27 -17 0
-253 c0 -245 -1 -254 -20 -260 -45 -14 -15 -25 70 -25 58 0 90 4 90 11 0 6 -9
13 -20 16 -19 5 -20 14 -20 299 0 229 -3 294 -12 293 -7 0 -34 -6 -59 -13z"/>
<path d="M4979 11446 c-25 -7 -54 -18 -64 -23 -17 -10 -16 -12 8 -28 l27 -17
0 -253 c0 -221 -2 -254 -16 -259 -25 -10 -52 -7 -61 7 -4 6 -10 79 -13 160
l-5 149 -29 25 c-28 23 -36 25 -103 21 -63 -4 -79 -9 -111 -35 -59 -48 -54
-113 9 -113 35 0 56 38 39 70 -5 10 -10 26 -10 36 0 14 7 16 38 11 54 -9 74
-38 70 -106 l-3 -56 -50 -6 c-95 -11 -145 -50 -145 -110 0 -78 84 -107 167
-59 32 19 33 19 48 -3 14 -20 21 -21 162 -18 82 1 150 5 153 8 3 3 -5 12 -17
20 -23 15 -23 16 -23 304 0 225 -3 289 -12 288 -7 0 -34 -6 -59 -13z"/>
<path d="M8693 11264 c-40 -42 -73 -80 -73 -85 0 -5 11 -9 25 -9 l25 0 0 -125
c0 -183 23 -223 123 -209 85 12 132 44 64 44 -18 0 -43 7 -55 16 -21 14 -22
22 -22 145 l0 129 54 0 c40 0 55 4 60 16 10 27 -3 34 -60 34 l-54 0 0 60 c0
33 -3 60 -7 60 -5 -1 -41 -35 -80 -76z"/>
<path d="M1765 11235 c-5 -2 -22 -6 -37 -9 -39 -9 -98 -64 -119 -111 -33 -71
-19 -175 29 -228 52 -58 157 -67 241 -22 28 15 49 31 46 35 -2 3 -31 2 -63 -4
-110 -18 -162 21 -162 122 l0 42 120 0 121 0 -7 38 c-9 52 -34 93 -69 113 -30
17 -82 29 -100 24z"/>
<path d="M3050 11230 c-94 -16 -160 -104 -160 -211 0 -52 44 -134 87 -159 71
-42 186 -26 239 32 78 85 70 246 -14 307 -36 25 -104 39 -152 31z m83 -52 c25
-34 39 -117 31 -193 -12 -108 -75 -158 -128 -100 -28 30 -36 65 -36 150 0 86
8 120 36 151 31 32 69 29 97 -8z"/>
<path d="M6175 11234 c-6 -1 -22 -5 -37 -8 -37 -8 -95 -61 -119 -107 -35 -70
-22 -174 30 -233 48 -54 158 -66 232 -25 54 31 64 52 17 38 -117 -33 -188 10
-188 116 l0 45 120 0 121 0 -7 38 c-9 51 -30 89 -60 108 -24 16 -90 33 -109
28z"/>
<path d="M6483 11227 c-58 -11 -98 -56 -98 -112 0 -54 20 -77 100 -117 75 -38
95 -55 95 -83 0 -36 -33 -58 -75 -51 -26 5 -43 18 -68 51 -43 59 -57 58 -57
-5 0 -62 15 -72 110 -72 83 -1 127 21 153 75 33 66 0 122 -98 167 -27 13 -58
30 -67 38 -36 30 -12 92 34 92 12 0 40 -20 65 -45 23 -25 45 -45 48 -45 3 0 5
24 3 53 l-3 52 -51 5 c-28 3 -69 2 -91 -3z"/>
<path d="M6743 11222 c-35 -7 -63 -17 -63 -21 0 -4 9 -16 20 -26 18 -16 20
-31 20 -149 0 -122 2 -133 23 -160 20 -25 31 -29 71 -29 36 0 57 7 92 31 24
18 47 32 50 32 3 0 3 -13 -1 -30 -6 -26 -4 -30 16 -30 12 0 39 5 58 11 20 7
43 14 51 16 12 4 10 8 -7 20 -22 15 -23 21 -23 181 l0 165 -43 -6 c-24 -3 -56
-11 -72 -17 l-28 -11 22 -22 c19 -21 21 -34 21 -140 0 -129 -4 -137 -69 -137
-56 0 -61 15 -61 180 0 82 -3 151 -7 153 -5 2 -36 -3 -70 -11z"/>
<path d="M433 11215 c-45 -19 -73 -51 -73 -83 0 -34 16 -52 46 -52 42 0 54 44
29 104 -8 18 -5 19 35 13 57 -7 72 -25 78 -93 5 -63 -2 -74 -55 -74 -55 0
-121 -35 -140 -75 -16 -33 -16 -37 0 -69 27 -57 116 -67 168 -20 17 16 20 15
38 -7 16 -20 28 -24 71 -22 63 1 70 7 40 31 -22 18 -23 25 -22 138 2 133 -8
186 -41 209 -27 19 -130 19 -174 0z"/>
<path d="M770 11208 c-44 -30 -62 -64 -56 -107 7 -45 30 -68 99 -102 32 -15
67 -35 78 -45 39 -36 11 -94 -46 -94 -20 0 -39 12 -67 42 -21 23 -38 45 -38
50 0 4 -7 8 -15 8 -11 0 -15 -12 -15 -50 0 -61 14 -71 109 -72 79 -2 127 20
150 67 34 71 8 123 -88 172 -34 17 -68 37 -76 43 -33 28 -7 90 37 90 12 0 40
-20 65 -45 23 -25 45 -45 48 -45 3 0 5 24 3 53 l-3 52 -75 3 c-66 2 -81 0
-110 -20z"/>
<path d="M1205 11219 c-52 -13 -62 -24 -36 -41 20 -12 21 -19 21 -244 0 -229
0 -232 -22 -247 -22 -15 -16 -16 82 -16 l105 -1 -32 21 c-30 19 -33 25 -33 72
0 29 4 57 8 62 4 6 30 11 58 11 135 4 221 121 194 262 -7 31 -19 66 -28 77
-48 58 -117 71 -185 35 -20 -11 -39 -20 -42 -20 -3 0 -5 9 -5 20 0 22 -18 24
-85 9z m218 -80 c25 -35 34 -142 17 -204 -21 -75 -78 -98 -125 -50 -24 23 -25
30 -25 148 0 68 3 127 7 131 4 4 29 6 57 4 39 -2 53 -8 69 -29z"/>
<path d="M2025 11223 c-11 -3 -31 -10 -44 -15 l-24 -9 22 -22 c19 -22 21 -34
21 -164 0 -132 -1 -141 -20 -146 -11 -3 -20 -10 -20 -16 0 -7 30 -11 85 -11
52 0 85 4 85 10 0 6 -7 13 -15 16 -12 5 -15 31 -15 143 0 93 4 141 12 149 19
19 82 15 101 -6 24 -26 25 -277 2 -286 -8 -3 -15 -10 -15 -16 0 -6 33 -10 85
-10 84 0 104 9 65 30 -18 10 -20 21 -20 144 0 146 -9 187 -45 206 -35 19 -108
7 -149 -24 -43 -33 -48 -33 -44 2 2 23 -1 27 -22 29 -14 0 -34 -1 -45 -4z"/>
<path d="M2450 11208 c-79 -53 -76 -136 7 -188 26 -17 56 -33 67 -36 12 -3 31
-16 44 -27 47 -43 12 -105 -53 -93 -26 5 -43 18 -68 51 -43 59 -57 58 -57 -5
0 -61 15 -71 109 -73 82 -1 128 21 154 77 15 31 16 44 7 69 -15 44 -36 63 -97
93 -88 41 -114 81 -77 118 26 27 55 18 101 -29 23 -25 45 -45 48 -45 3 0 5 24
3 53 l-3 52 -75 3 c-66 2 -81 0 -110 -20z"/>
<path d="M2745 11219 c-52 -13 -62 -24 -36 -41 20 -12 21 -21 21 -160 0 -138
-1 -147 -20 -153 -45 -14 -15 -25 70 -25 89 0 110 9 70 30 -19 10 -20 21 -20
185 l0 175 -22 -1 c-13 -1 -41 -5 -63 -10z"/>
<path d="M3350 11218 c-50 -14 -58 -25 -32 -44 21 -14 22 -22 22 -154 0 -129
-1 -140 -20 -150 -39 -21 -19 -30 65 -30 52 0 85 4 85 10 0 6 -7 13 -15 16
-12 5 -15 31 -15 143 0 93 4 141 12 149 19 19 82 15 101 -6 24 -26 25 -277 2
-286 -37 -14 -8 -24 70 -25 55 -1 85 3 85 10 0 6 -9 13 -19 16 -18 5 -20 17
-23 158 -3 146 -4 155 -27 179 -19 21 -34 26 -71 26 -25 0 -54 -6 -65 -13 -11
-8 -33 -22 -49 -33 l-29 -19 6 33 c6 30 5 32 -21 31 -15 0 -43 -5 -62 -11z"/>
<path d="M3835 11211 c-134 -81 -140 -291 -11 -358 48 -25 137 -19 195 12 28
16 49 31 46 35 -2 3 -31 2 -63 -4 -109 -18 -156 17 -164 119 l-3 40 124 3 123
3 -7 36 c-17 91 -66 133 -155 133 -36 0 -66 -6 -85 -19z"/>
<path d="M4166 11211 c-59 -39 -74 -110 -33 -156 12 -15 54 -43 92 -63 63 -33
70 -40 73 -70 4 -42 -12 -62 -51 -62 -24 0 -41 11 -78 50 -26 28 -50 50 -53
50 -3 0 -6 -22 -6 -50 0 -56 8 -64 80 -73 69 -9 120 7 159 49 30 32 33 41 28
80 -6 57 -15 67 -107 115 -80 41 -98 65 -79 100 12 24 51 34 78 20 11 -6 32
-27 47 -46 31 -40 44 -37 44 10 0 62 -5 65 -89 65 -58 0 -83 -5 -105 -19z"/>
<path d="M5305 11219 c-52 -13 -62 -24 -36 -41 20 -12 21 -19 21 -244 0 -229
0 -232 -22 -247 -22 -15 -16 -16 81 -16 94 -1 103 0 85 14 -10 8 -25 15 -31
15 -14 0 -18 107 -5 125 4 6 30 11 59 12 60 2 122 30 152 69 70 89 54 258 -29
308 -38 22 -92 20 -140 -4 -22 -11 -42 -20 -45 -20 -3 0 -5 9 -5 20 0 22 -18
24 -85 9z m207 -66 c35 -40 47 -138 27 -219 -19 -73 -77 -97 -124 -49 -24 23
-25 30 -25 148 0 68 3 127 7 130 14 15 100 7 115 -10z"/>
<path d="M5744 11220 c-69 -16 -71 -18 -41 -46 27 -25 27 -26 27 -159 0 -124
-2 -135 -20 -145 -40 -21 -19 -30 70 -30 58 0 90 4 90 11 0 6 -9 13 -20 16
-19 5 -20 14 -20 144 0 129 1 139 20 149 18 9 25 6 49 -19 32 -34 52 -39 75
-16 25 25 29 54 12 80 -24 36 -75 34 -119 -5 -19 -16 -37 -30 -41 -30 -3 0 -6
14 -6 30 0 33 -12 36 -76 20z"/>
<path d="M7150 11219 c-67 -19 -67 -19 -43 -39 22 -18 23 -23 24 -246 1 -198
-1 -229 -15 -240 -9 -6 -16 -14 -16 -18 0 -3 42 -6 93 -6 91 1 92 1 70 19 -19
16 -23 29 -23 83 l0 63 53 1 c124 3 201 85 201 214 0 113 -52 180 -139 180
-22 0 -57 -9 -78 -20 -20 -11 -39 -20 -42 -20 -3 0 -5 9 -5 20 0 22 -21 25
-80 9z m214 -82 c18 -24 21 -43 21 -121 0 -71 -4 -98 -18 -119 -22 -34 -62
-45 -96 -26 -26 15 -26 16 -29 157 l-3 143 52 -3 c44 -3 55 -8 73 -31z"/>
<path d="M7585 11223 c-11 -3 -31 -10 -45 -15 l-25 -10 23 -18 c21 -17 22 -26
22 -138 0 -162 10 -185 87 -207 23 -6 87 19 132 52 l24 18 -7 -28 c-9 -37 11
-43 76 -25 56 15 71 32 38 41 -19 5 -20 12 -20 172 l0 168 -43 -6 c-24 -3 -57
-11 -73 -18 l-29 -11 23 -15 c21 -15 22 -22 22 -143 0 -141 0 -140 -65 -140
-57 0 -65 23 -65 187 l0 143 -27 -1 c-16 -1 -37 -4 -48 -6z"/>
<path d="M8065 11215 c-43 -24 -65 -45 -86 -87 -53 -104 -21 -226 74 -275 47
-24 125 -19 186 11 60 31 67 48 14 35 -74 -17 -120 -11 -153 19 -26 23 -31 35
-33 82 l-2 55 120 5 c113 5 120 6 117 25 -7 47 -24 84 -52 110 -26 25 -40 30
-93 33 -44 2 -71 -2 -92 -13z"/>
<path d="M8395 11212 c-45 -28 -58 -48 -58 -92 0 -55 19 -78 103 -125 82 -45
96 -61 86 -98 -14 -59 -93 -43 -146 28 -18 24 -37 42 -42 39 -4 -3 -8 -27 -8
-54 0 -61 13 -70 108 -73 82 -2 128 20 155 76 33 67 -1 124 -100 168 -67 31
-87 55 -77 93 13 52 64 45 118 -14 20 -22 38 -40 41 -40 4 0 5 24 3 53 l-3 52
-75 3 c-59 2 -81 -2 -105 -16z"/>
<path d="M8978 11197 c-53 -41 -81 -96 -82 -162 -1 -122 70 -198 184 -198 65
0 105 18 148 67 79 90 61 237 -37 303 -27 18 -48 23 -102 23 -61 0 -72 -3
-111 -33z m157 -12 c46 -51 46 -249 0 -299 -46 -49 -97 -29 -120 46 -18 61
-19 132 -4 193 21 83 77 110 124 60z"/>
<path d="M9706 11008 c-21 -30 -20 -71 2 -90 9 -9 34 -23 55 -33 43 -20 60
-50 43 -77 -16 -26 -59 -22 -86 7 -34 37 -40 32 -31 -25 1 -3 25 -7 55 -8 41
-2 59 3 80 19 36 28 36 80 0 108 -15 12 -32 21 -38 21 -6 0 -24 11 -41 24 -26
22 -29 27 -17 45 14 25 15 31 3 31 -6 0 -17 -10 -25 -22z"/>
<path d="M10332 10661 c-11 -7 -11 -12 -1 -28 18 -30 5 -71 -23 -68 -13 1 -15
0 -6 -2 30 -8 39 -30 36 -90 -3 -54 -5 -58 -29 -61 -15 -2 -34 4 -43 13 -18
19 -21 77 -5 107 17 32 -1 36 -27 5 -34 -40 -34 -110 0 -132 13 -9 32 -16 43
-15 10 0 36 2 58 3 25 1 40 7 39 15 -1 6 -2 68 -2 137 -2 127 -6 138 -40 116z"/>
<path d="M10621 10661 c-12 -8 -12 -12 -2 -25 22 -26 10 -60 -24 -67 -21 -5
-24 -7 -9 -8 35 -2 45 -24 42 -88 -3 -54 -5 -58 -29 -61 -15 -2 -34 4 -43 13
-18 19 -21 77 -5 107 15 27 3 35 -21 13 -23 -21 -35 -73 -26 -111 8 -30 62
-57 88 -43 9 5 31 6 49 2 30 -6 32 -5 26 18 -4 13 -7 77 -7 142 0 120 -4 130
-39 108z"/>
<path d="M122 9518 l3 -23 4578 -3 4577 -2 0 25 0 25 -4581 0 -4580 0 3 -22z"/>
<path d="M127 9373 c-4 -3 -7 -886 -7 -1960 0 -1919 2 -2029 30 -1984 5 10 10
9 21 -2 8 -8 39 -20 69 -27 30 -7 65 -19 77 -27 24 -16 47 -9 39 13 -8 20 11
27 34 11 16 -11 18 -16 8 -24 -20 -16 -77 -33 -92 -27 -7 3 -19 -2 -26 -11 -8
-9 -17 -12 -24 -6 -6 4 -39 6 -73 3 l-63 -4 0 -304 c0 -214 3 -304 11 -304 6
0 25 10 42 22 35 25 118 35 160 19 36 -14 66 -80 67 -144 0 -27 5 -91 12 -143
l11 -94 1259 0 1258 0 0 58 c0 46 4 63 20 77 28 25 35 13 22 -34 -7 -21 -12
-52 -12 -70 l0 -31 225 0 c151 0 225 3 225 11 0 5 26 22 58 36 31 14 60 30 64
36 11 18 29 108 23 117 -12 20 -45 -5 -63 -50 l-20 -48 -64 -4 c-34 -2 -70 -6
-78 -8 -12 -4 -15 4 -13 37 3 76 86 177 180 218 31 14 61 25 68 25 15 0 25
-46 30 -141 5 -81 21 -147 42 -171 9 -10 12 -25 8 -37 l-6 -21 795 0 c438 0
796 2 796 5 0 3 -7 17 -16 30 -10 15 -13 32 -9 46 7 20 9 18 27 -20 10 -23 16
-46 13 -51 -3 -6 3 -10 15 -10 17 0 20 4 15 23 l-7 22 17 -22 c13 -19 65 -34
65 -18 0 2 -21 27 -47 55 -41 44 -48 49 -54 33 -7 -16 -8 -16 -8 -1 -1 9 -12
38 -25 63 -14 25 -22 53 -19 62 4 11 2 14 -5 9 -7 -4 -12 -2 -12 3 0 6 3 11 8
11 4 0 6 17 4 39 -9 92 40 34 53 -63 6 -44 16 -59 83 -133 42 -46 84 -83 94
-83 15 0 11 9 -18 47 -20 26 -53 81 -75 122 -21 42 -50 95 -65 119 -20 33 -23
42 -11 42 14 0 61 -68 131 -193 15 -26 37 -56 48 -67 20 -18 24 -19 37 -5 14
14 13 20 -8 61 -14 25 -46 80 -73 122 -42 67 -46 77 -31 85 12 7 20 5 30 -9
20 -26 113 -185 154 -261 l33 -63 1217 0 c884 0 1220 3 1225 11 10 16 -17 89
-38 103 -10 6 -18 23 -18 38 0 21 -6 29 -24 34 -18 4 -27 15 -32 37 -3 18 -10
37 -15 43 -6 7 -2 17 10 28 27 25 17 54 -17 49 -26 -4 -26 -4 -8 11 16 13 17
19 8 28 -7 7 -12 22 -12 35 0 16 -6 23 -20 23 -13 0 -20 -7 -20 -20 0 -11 -5
-20 -11 -20 -8 0 -8 -5 1 -15 11 -13 8 -15 -13 -15 -36 0 -57 40 -36 66 6 7 4
16 -6 24 -8 7 -15 19 -15 26 0 12 -12 18 -31 16 -4 -1 -5 18 -2 41 2 23 5 58
7 77 2 29 7 36 29 38 19 2 29 -4 42 -25 9 -15 34 -41 56 -58 21 -16 44 -45 51
-63 12 -32 43 -50 70 -39 7 2 22 1 33 -3 13 -5 28 -1 44 11 13 10 27 16 31 14
5 -3 11 -1 15 5 5 9 -2 12 -21 9 -3 -1 -19 12 -35 27 -16 15 -37 29 -46 30
-36 6 -57 69 -23 69 15 0 35 34 25 43 -3 3 -5 0 -5 -7 0 -7 -5 -9 -10 -6 -6 3
-10 16 -10 29 0 12 -6 28 -12 34 -10 10 -10 17 -1 31 15 24 -6 57 -31 48 -23
-9 -20 -26 4 -20 14 4 20 0 20 -11 0 -11 -7 -16 -17 -14 -10 1 -24 -1 -30 -5
-24 -15 -33 4 -33 66 -1 47 -3 58 -11 44 -5 -9 -13 -17 -17 -17 -10 0 -32 50
-32 71 0 18 -19 29 -52 29 -12 0 -18 3 -14 8 4 4 13 7 19 7 7 0 13 8 15 18 2
12 -3 17 -18 17 -13 0 -20 5 -17 13 2 6 12 11 22 9 11 -2 15 2 12 10 -2 7 -12
12 -21 12 -21 -2 -21 15 2 22 9 3 29 12 44 20 14 8 33 14 41 14 8 0 26 9 39
20 24 19 34 19 219 10 176 -8 271 -21 367 -49 46 -14 167 -98 196 -135 13 -17
27 -42 31 -56 4 -14 16 -36 25 -50 37 -52 50 -127 50 -281 0 -136 9 -237 42
-471 l12 -88 223 0 223 0 0 2501 0 2500 -185 -2 c-102 -1 -188 -5 -191 -10 -3
-5 18 -9 45 -9 51 0 51 0 51 -32 0 -51 -42 -88 -100 -88 -50 0 -90 21 -90 48
0 9 -7 26 -15 36 -19 25 -11 36 28 36 25 0 29 3 17 10 -19 13 -878 12 -886 -1
-3 -5 18 -9 46 -9 46 0 51 -2 45 -17 -4 -10 -13 -65 -22 -123 -8 -58 -26 -175
-40 -260 -14 -85 -29 -184 -34 -220 -10 -84 -44 -286 -64 -375 -15 -67 -15
-71 5 -106 28 -51 27 -209 -2 -334 -34 -147 -36 -297 -4 -340 12 -17 14 -17
42 2 16 11 43 29 61 39 45 27 155 123 170 148 7 12 16 30 22 41 5 12 16 27 25
34 9 7 16 24 16 37 0 22 21 79 41 114 5 8 13 24 18 35 5 12 16 27 25 34 9 8
28 36 43 63 19 34 44 60 86 88 74 50 112 52 156 11 37 -34 40 -67 9 -106 -20
-26 -24 -27 -89 -23 -59 5 -68 3 -72 -13 -3 -9 -1 -22 4 -28 5 -6 7 -9 3 -7
-9 7 -44 -33 -44 -50 0 -9 -9 -18 -20 -21 -11 -3 -20 -10 -20 -15 0 -6 8 -7
17 -4 9 4 20 1 25 -6 12 -19 10 -26 -8 -30 -9 -2 -24 -23 -34 -48 -18 -47 -40
-64 -41 -33 0 14 -2 13 -10 -5 -5 -13 -7 -27 -4 -32 3 -4 -4 -10 -15 -13 -23
-6 -27 -37 -5 -37 22 0 19 -17 -10 -54 -14 -18 -25 -40 -25 -48 0 -9 -7 -21
-15 -28 -17 -14 -20 -40 -5 -40 5 0 17 12 27 26 10 14 27 35 38 47 11 12 32
39 47 59 15 20 34 42 41 50 7 7 25 30 41 50 16 22 58 54 101 77 67 37 76 40
107 29 73 -24 110 -87 82 -140 -17 -33 -42 -41 -91 -32 -21 5 -42 7 -47 6 -4
-2 -15 3 -23 10 -13 10 -19 8 -34 -11 -11 -13 -19 -30 -19 -38 0 -9 -10 -26
-22 -38 -36 -36 -53 -59 -51 -67 2 -4 -6 -12 -16 -17 -10 -6 -24 -25 -32 -43
-7 -18 -25 -46 -41 -62 -15 -16 -25 -32 -23 -36 3 -4 -4 -15 -15 -25 -11 -10
-20 -25 -20 -34 -1 -9 -9 -32 -18 -51 -15 -31 -16 -38 -3 -67 9 -18 18 -33 22
-33 11 0 72 53 149 129 66 66 74 78 72 109 -3 36 11 62 34 62 10 0 11 -6 2
-31 -13 -38 -9 -42 26 -24 16 8 35 15 42 15 8 0 14 5 14 10 0 6 19 10 41 10
35 0 47 -6 75 -36 38 -39 41 -61 19 -104 -19 -38 -68 -67 -63 -37 2 7 -7 12
-22 12 -14 0 -31 7 -38 15 -11 12 -14 12 -19 2 -3 -7 -16 -17 -29 -22 -17 -7
-24 -17 -24 -35 0 -14 -5 -25 -11 -25 -17 0 -59 -37 -51 -45 4 -3 2 -6 -3 -5
-24 5 -36 -2 -52 -32 -9 -18 -16 -36 -15 -40 1 -4 -11 -14 -27 -22 -16 -9 -51
-40 -78 -71 -49 -55 -50 -56 -40 -98 6 -26 20 -51 38 -65 l29 -23 32 22 c18
13 35 27 36 31 2 4 9 8 17 8 7 0 18 7 26 16 7 8 21 13 31 11 10 -3 21 -1 24 4
9 16 44 10 74 -13 24 -17 30 -29 30 -60 0 -27 -4 -38 -15 -38 -8 0 -15 -5 -15
-11 0 -5 -4 -8 -9 -4 -5 3 -13 1 -16 -5 -4 -7 -11 -7 -18 -2 -18 14 -61 22
-72 14 -6 -4 -20 -28 -32 -54 -27 -57 -52 -75 -124 -88 -30 -6 -56 -15 -57
-20 -2 -6 -9 -16 -16 -23 -7 -6 -15 -20 -19 -30 -4 -9 -20 -20 -37 -23 -16 -4
-30 -10 -30 -15 0 -5 -9 -9 -21 -9 -12 0 -34 -11 -50 -24 -15 -13 -48 -27 -71
-31 -24 -4 -50 -15 -59 -25 -10 -10 -40 -20 -73 -24 -31 -3 -65 -12 -76 -18
-15 -10 -22 -10 -32 0 -16 16 -45 15 -51 0 -5 -16 -47 18 -47 37 0 7 -7 18
-16 26 -23 19 -49 76 -64 137 -7 29 -27 75 -46 102 -33 48 -74 181 -74 241 0
15 -4 30 -9 33 -12 8 -25 -11 -46 -67 -10 -27 -33 -63 -52 -80 -18 -17 -33
-35 -33 -40 0 -10 -70 -77 -81 -77 -4 0 -11 -10 -14 -21 -6 -18 -13 -20 -40
-16 -35 6 -75 -1 -75 -12 0 -3 10 -11 22 -16 25 -12 38 -38 14 -29 -10 4 -16
1 -16 -7 0 -8 -8 -4 -19 10 -13 17 -20 20 -26 12 -4 -7 0 -20 9 -30 29 -32 20
-38 -44 -28 -66 11 -178 0 -267 -26 -70 -20 -166 -81 -215 -136 -69 -78 -118
-218 -118 -339 0 -93 -16 -93 -23 0 -10 127 -8 172 9 214 58 144 96 188 206
242 104 50 169 69 264 78 73 7 75 8 81 36 3 17 15 33 26 37 17 7 14 11 -28 35
-37 22 -55 27 -84 22 -21 -3 -57 1 -85 9 -59 18 -263 20 -315 4 -77 -24 -201
-111 -226 -157 -7 -15 -28 -41 -44 -59 -17 -18 -31 -35 -31 -38 0 -4 -11 -21
-24 -38 -27 -37 -56 -95 -56 -112 0 -7 -7 -18 -15 -25 -8 -7 -15 -21 -15 -31
0 -10 -11 -38 -24 -63 -13 -25 -22 -54 -20 -63 3 -12 -9 -32 -36 -58 -36 -35
-42 -38 -56 -24 -19 19 -11 60 18 85 15 14 21 15 27 6 6 -10 11 -10 20 2 14
17 7 36 -15 36 -18 0 -18 21 1 67 15 35 16 36 36 17 20 -18 20 -18 9 11 -6 16
-16 35 -21 42 -15 18 0 124 22 151 12 16 16 33 12 52 -3 16 -1 42 5 59 15 41
3 46 -24 10 -15 -21 -25 -52 -29 -95 -4 -35 -11 -67 -16 -70 -5 -3 -9 -18 -9
-35 0 -16 -4 -37 -9 -47 -5 -9 -12 -26 -16 -37 -5 -15 -8 -16 -14 -6 -5 7 -13
11 -19 7 -5 -3 -15 8 -22 24 -19 47 -60 36 -60 -16 0 -10 7 -13 25 -8 18 4 27
1 31 -10 3 -9 12 -16 19 -16 40 0 13 -75 -30 -86 -32 -8 -65 12 -65 39 0 18
-14 8 -78 -54 -70 -68 -96 -89 -184 -142 -34 -21 -88 -22 -114 -2 -10 8 -27
15 -36 15 -20 0 -24 15 -7 26 6 4 -1 13 -19 24 -24 15 -29 23 -25 44 5 22 2
26 -19 26 -14 0 -47 16 -73 37 -39 29 -45 38 -34 47 21 16 12 45 -17 52 -34 9
-30 33 14 101 21 32 44 70 51 84 7 15 24 33 37 40 13 7 24 18 24 25 0 7 9 28
19 46 34 58 7 107 -54 99 -15 -1 -13 2 8 13 21 11 34 13 47 6 24 -13 30 -13
30 0 0 6 -7 10 -15 10 -23 0 -18 27 6 33 19 5 21 11 16 41 -4 25 -2 34 7 30
19 -7 39 39 31 74 -3 18 -2 33 4 37 17 10 13 36 -11 88 -21 44 -38 60 -38 37
0 -5 -7 -10 -15 -10 -8 0 -15 -4 -15 -10 0 -5 -4 -10 -10 -10 -5 0 -10 11 -10
25 0 26 -15 34 -23 13 -12 -29 -6 41 8 101 14 56 14 66 1 73 -8 4 -12 16 -9
26 3 12 -2 18 -14 19 -20 2 -45 -40 -37 -62 3 -7 1 -16 -5 -20 -7 -3 -11 2
-11 13 0 36 -27 33 -45 -4 -9 -19 -20 -32 -25 -29 -12 7 -1 72 18 110 l15 30
14 -22 c17 -26 43 -20 36 8 -3 10 -9 19 -14 19 -11 0 0 30 20 53 13 16 13 19
1 27 -18 11 -27 3 -32 -30 l-4 -25 -14 28 c-7 15 -19 27 -26 27 -7 0 -14 3
-17 8 -2 4 -1 0 1 -8 11 -33 -5 -140 -22 -140 -11 0 -29 -36 -40 -80 -10 -42
-23 -57 -38 -42 -20 20 -47 14 -54 -13 -8 -30 -20 -32 -29 -4 -9 28 -29 18
-33 -17 -2 -16 -8 -33 -13 -38 -5 -6 -9 -18 -9 -29 0 -10 -5 -15 -10 -12 -6 4
-8 10 -5 15 3 5 1 11 -4 14 -5 3 -11 -8 -15 -25 -4 -21 -11 -29 -19 -26 -10 4
-13 -2 -9 -20 4 -23 2 -24 -19 -18 -19 6 -22 5 -13 -6 16 -21 37 -117 28 -130
-11 -19 -34 19 -34 58 0 28 -4 33 -22 33 -18 0 -20 2 -8 10 23 14 22 71 -1 77
-14 4 -17 11 -13 29 3 13 2 24 -4 24 -10 0 -21 41 -25 90 -1 14 -6 28 -11 32
-5 3 -9 23 -8 43 1 20 -7 51 -16 68 -33 60 -93 147 -100 147 -4 0 -16 14 -26
31 -10 17 -20 28 -23 25 -9 -9 6 -51 32 -91 15 -20 24 -44 21 -51 -7 -18 -75
-29 -97 -15 -11 6 -25 11 -33 11 -8 0 -16 7 -20 15 -6 17 -36 21 -36 5 0 -7
-6 -7 -18 -1 -10 6 -28 7 -40 4 -12 -3 -22 -1 -22 5 0 6 -16 8 -40 5 -23 -3
-40 -1 -40 4 0 10 131 33 185 33 34 0 75 24 75 44 0 18 -25 27 -38 14 -6 -6
-36 -6 -89 2 -72 11 -84 10 -114 -6 -19 -10 -56 -21 -84 -25 -40 -5 -46 -8
-27 -14 31 -10 28 -25 -6 -25 -63 0 -81 79 -34 152 34 54 174 241 186 249 5 4
6 14 3 22 -4 10 1 18 13 22 42 13 32 88 -16 120 -13 8 -24 22 -24 30 0 18 -37
38 -56 31 -10 -4 -14 -23 -14 -65 0 -33 -4 -62 -8 -65 -5 -3 -26 -3 -46 1
l-37 6 5 166 c2 91 7 173 11 182 3 9 32 28 63 43 45 22 66 26 94 21 41 -8 45
-15 54 -117 4 -38 10 -68 14 -68 12 0 46 44 86 110 42 71 126 160 218 230 l59
45 101 3 c280 8 367 6 399 -11 16 -7 18 -6 12 12 -4 15 -2 21 9 21 8 0 18 -5
21 -11 11 -17 58 -32 93 -30 39 3 43 -16 5 -25 -34 -9 -50 -24 -58 -57 -5 -17
-12 -23 -24 -20 -19 5 -31 -19 -31 -61 0 -10 -14 -41 -30 -68 -16 -26 -30 -62
-30 -78 0 -20 -5 -30 -15 -30 -11 0 -14 7 -9 24 3 13 1 27 -5 30 -6 4 -13 -5
-17 -21 -4 -15 -11 -31 -16 -34 -18 -12 -11 -97 12 -133 12 -20 25 -36 28 -36
15 0 88 -77 101 -105 7 -16 20 -42 28 -57 8 -17 11 -38 7 -55 -7 -25 -6 -27 9
-15 14 12 17 10 22 -15 4 -15 10 -37 14 -48 5 -11 6 -36 4 -55 -5 -35 -5 -35
21 13 27 50 33 82 17 92 -5 3 -12 -3 -14 -12 -3 -11 -5 -8 -6 10 -1 35 8 34
50 -3 23 -20 40 -28 53 -24 27 9 116 74 116 85 0 5 7 9 16 9 11 0 15 -6 11
-20 -3 -11 -1 -20 4 -20 5 0 9 14 9 30 0 24 6 33 28 42 15 6 41 18 58 26 27
13 38 13 77 3 57 -16 92 -53 117 -122 21 -56 27 -157 11 -187 -5 -9 -22 -42
-37 -72 -14 -30 -35 -66 -45 -79 -16 -20 -17 -26 -5 -35 7 -6 18 -31 24 -56
18 -73 49 -134 80 -157 16 -12 40 -42 52 -67 12 -25 28 -46 36 -46 7 0 25 -18
39 -40 14 -23 30 -38 35 -35 6 3 10 -1 10 -9 0 -8 -5 -18 -11 -22 -8 -5 -6
-10 5 -16 22 -13 57 10 85 55 11 18 36 42 56 52 34 19 36 19 97 1 35 -10 97
-23 138 -30 45 -8 106 -28 154 -51 65 -32 88 -38 135 -37 88 2 110 10 140 52
21 29 31 36 40 27 6 -6 11 -7 11 -3 0 4 -9 15 -20 24 -20 17 -20 17 0 97 11
44 25 88 30 97 6 10 10 27 10 39 0 12 9 37 21 56 17 26 23 58 28 151 5 65 14
128 21 142 7 13 16 74 21 136 5 62 13 121 18 131 22 41 32 94 38 201 3 62 10
115 15 118 4 3 8 18 8 34 0 16 6 33 14 37 18 10 21 78 6 153 -14 69 -27 165
-35 250 -3 36 -8 72 -11 80 -29 79 -37 306 -14 417 l11 53 177 0 c97 0 172 4
165 8 -6 4 -286 9 -623 10 l-611 4 -25 -27 c-21 -22 -31 -26 -72 -23 -38 2
-49 7 -57 26 -8 17 -18 22 -48 22 -38 0 -39 0 -31 -32 12 -57 11 -63 -19 -66
-16 -2 -31 -10 -34 -18 -7 -19 -73 -18 -101 2 -23 16 -53 76 -49 97 1 8 -22
13 -71 15 -50 2 -72 -1 -67 -8 3 -5 12 -10 19 -10 7 0 32 -20 55 -45 24 -25
54 -53 67 -61 29 -20 31 -34 3 -34 -11 0 -29 -5 -40 -11 -18 -9 -29 -3 -84 50
-35 34 -66 61 -70 61 -4 0 -4 -10 -1 -22 36 -122 36 -143 1 -136 -19 3 -62
118 -69 183 -2 22 -9 31 -25 33 -11 2 -21 -1 -21 -5 0 -10 67 -200 75 -213 6
-10 -54 -42 -66 -34 -5 3 -9 10 -9 16 0 6 -15 31 -33 57 -38 51 -71 112 -87
153 l-9 28 -2649 0 c-1457 0 -2652 -3 -2655 -7z m2903 -17 c0 -3 -16 -45 -36
-93 -26 -66 -34 -97 -30 -123 4 -29 1 -38 -15 -49 -18 -11 -21 -20 -17 -61 3
-27 1 -53 -3 -57 -5 -5 -10 -17 -12 -28 -1 -11 -5 -24 -7 -30 -5 -9 -5 -21 -1
-69 1 -15 10 -8 42 28 47 53 80 73 136 82 85 13 170 -34 204 -114 45 -104 2
-217 -124 -327 -71 -62 -223 -136 -309 -150 -34 -5 -38 -3 -44 20 -4 18 -1 32
12 46 13 15 22 57 35 182 10 89 24 172 30 184 9 17 9 26 -1 38 -23 27 -7 215
28 320 39 123 78 205 97 205 8 0 15 -2 15 -4z m3340 -74 c-30 -15 -80 -38
-109 -51 -59 -25 -321 -149 -438 -208 -40 -19 -73 -40 -73 -44 0 -5 -6 -9 -14
-9 -8 0 -16 -4 -18 -10 -1 -5 -13 -7 -26 -4 -17 5 -21 11 -17 25 8 24 -12 25
-37 2 -20 -18 -25 -4 -6 15 9 9 10 17 2 30 -7 10 -14 33 -18 52 -5 29 -4 31 4
12 9 -20 14 -22 47 -16 21 4 74 19 118 34 44 16 161 54 260 85 99 31 189 60
200 65 42 19 141 49 160 49 12 0 -3 -11 -35 -27z m-1990 -226 c30 0 79 6 109
12 91 20 306 12 298 -11 -1 -5 -34 -11 -72 -14 -81 -5 -163 -24 -232 -54 -70
-31 -134 -49 -170 -49 -39 0 -73 30 -73 64 0 33 26 92 53 119 l22 22 5 -45 5
-45 55 1z m-1530 -975 c5 -11 7 -27 4 -35 -4 -11 -1 -16 10 -16 18 0 19 -2 10
-24 -4 -11 -19 -16 -50 -16 -33 0 -46 -5 -54 -19 -15 -30 -13 -32 30 -25 33 5
40 4 40 -10 0 -9 -7 -16 -15 -16 -16 0 -25 -4 -92 -38 -23 -12 -44 -22 -47
-22 -15 0 -3 28 22 56 38 44 52 70 52 98 0 26 46 84 67 85 7 1 17 -8 23 -18z
m-719 -328 c19 -6 47 -18 62 -28 23 -15 27 -24 27 -64 0 -57 -8 -69 -56 -91
-33 -16 -41 -16 -72 -3 -19 8 -50 16 -68 17 -37 4 -104 35 -104 49 0 5 -6 15
-14 23 -24 23 8 92 48 104 36 10 125 7 177 -7z m789 -167 c0 -13 -7 -26 -15
-30 -8 -3 -15 -14 -15 -23 0 -10 -6 -27 -14 -38 -19 -28 -25 -63 -31 -193 -3
-62 -10 -123 -15 -136 -10 -28 -25 -368 -17 -390 10 -26 47 2 47 36 0 15 5 30
12 34 8 5 9 -3 3 -32 -4 -21 -9 -78 -11 -126 -1 -59 -6 -92 -16 -101 -9 -9
-13 -28 -10 -51 4 -36 22 -41 22 -7 0 10 6 24 14 30 26 22 26 -28 0 -84 -13
-30 -24 -63 -24 -75 0 -33 -23 -18 -32 21 -4 19 -10 99 -13 179 -4 80 -8 159
-10 175 -13 95 -17 336 -6 399 7 38 16 122 20 187 6 87 14 129 30 161 11 25
21 52 21 60 0 15 16 24 48 27 6 0 12 -10 12 -23z m1456 -110 c3 -8 14 -16 25
-19 19 -5 27 -27 9 -27 -5 0 -14 -9 -21 -21 -10 -19 -9 -20 11 -14 32 10 21
-16 -13 -33 -34 -16 -34 -30 -1 -42 14 -6 22 -14 19 -20 -8 -13 -5 -13 42 4
49 17 92 21 116 11 10 -4 23 -2 32 5 15 12 55 5 55 -10 0 -5 -7 -16 -16 -24
-12 -12 -20 -13 -35 -5 -11 6 -29 7 -42 2 -23 -8 -32 -10 -56 -12 -9 -1 -12
-10 -9 -26 8 -39 -5 -38 -56 7 -26 23 -56 46 -69 52 -42 21 -52 55 -37 124 14
60 34 80 46 48z m396 -260 c-1 -18 4 -62 11 -98 12 -54 12 -68 0 -83 -7 -11
-13 -31 -13 -46 0 -15 -4 -31 -10 -34 -5 -3 -10 -15 -10 -26 0 -21 -46 -72
-69 -77 -38 -8 -81 -33 -81 -46 0 -10 -6 -13 -15 -10 -10 4 -20 -5 -30 -29 -8
-20 -19 -38 -25 -42 -5 -3 -7 -17 -4 -31 4 -17 1 -26 -10 -30 -13 -5 -12 -9 9
-26 14 -11 25 -29 25 -42 0 -12 5 -27 12 -34 9 -9 9 -12 1 -12 -13 0 -28 19
-28 35 0 6 -10 11 -22 13 -17 3 -23 10 -23 28 0 17 -6 24 -20 24 -13 0 -26 13
-39 42 -18 40 -18 44 -3 71 10 16 28 38 41 48 28 22 40 103 16 113 -28 10 -29
71 -1 130 27 57 33 96 16 96 -5 0 -10 9 -10 20 0 11 5 20 11 20 5 0 8 -4 4 -9
-3 -5 2 -16 10 -24 8 -9 12 -23 9 -31 -4 -9 0 -18 10 -22 31 -12 87 19 158 86
40 37 75 66 78 64 2 -3 3 -20 2 -38z m-3863 -318 c93 -118 185 -187 336 -253
22 -10 74 -34 115 -54 141 -68 166 -75 270 -73 66 1 90 -1 80 -8 -8 -5 -38
-10 -66 -10 -70 0 -79 -13 -75 -106 3 -104 -1 -114 -53 -114 -61 0 -142 26
-211 68 -33 21 -77 45 -97 54 -21 9 -38 23 -38 31 0 8 -10 21 -23 30 -12 8
-57 49 -101 91 -43 42 -91 83 -106 91 -16 8 -32 25 -36 37 -3 13 -14 31 -23
40 -30 32 -41 47 -41 58 0 5 -4 10 -10 10 -5 0 -10 20 -10 44 0 35 5 48 22 60
27 19 54 20 67 4z m-319 -203 c41 -9 113 -20 160 -26 46 -6 100 -17 118 -25
19 -8 42 -14 51 -14 9 0 36 -21 60 -45 25 -25 49 -45 53 -45 4 0 8 -4 8 -10 0
-5 -7 -7 -15 -4 -8 3 -18 3 -23 0 -15 -9 12 -77 43 -108 22 -24 23 -28 8 -28
-22 1 -53 23 -53 39 0 6 -5 11 -12 11 -7 0 -24 12 -39 26 -15 15 -43 28 -61
30 -18 2 -42 8 -53 12 -28 13 -80 31 -152 56 -35 12 -63 26 -63 31 0 6 -21 18
-48 28 -26 10 -55 23 -64 28 -15 8 -18 5 -18 -16 0 -32 -12 -32 -27 1 -15 33
-3 61 29 67 13 2 23 5 23 6 0 0 34 -6 75 -14z m6475 -50 c0 -6 -30 -13 -68
-17 -68 -6 -176 -37 -232 -65 -38 -19 -104 -73 -150 -121 -50 -53 -45 -18 6
47 45 56 128 110 211 137 85 27 233 39 233 19z m-58 -41 c1 -5 -48 -29 -109
-54 -107 -43 -117 -49 -191 -125 -112 -115 -157 -212 -157 -341 0 -81 36 -193
90 -278 17 -26 30 -51 30 -56 0 -6 5 -10 10 -10 6 0 10 -7 10 -15 0 -8 -4 -15
-10 -15 -5 0 -10 6 -10 13 0 15 -47 44 -56 35 -3 -4 22 -33 55 -66 37 -36 61
-68 61 -81 0 -30 -15 -26 -30 8 -6 16 -45 64 -86 107 -107 112 -108 114 -100
258 4 67 9 141 11 166 3 33 2 38 -4 20 -7 -22 -9 -23 -16 -7 -4 9 -3 23 3 30
5 6 12 28 16 48 4 21 13 42 21 49 8 7 15 19 15 28 0 8 7 22 15 31 8 9 33 39
55 68 56 73 147 135 245 165 28 9 64 21 80 26 34 11 47 10 52 -4z m-2387 -75
c0 -5 -17 -26 -37 -44 -28 -26 -33 -35 -20 -35 9 0 38 19 62 41 25 23 45 37
45 30 0 -11 -104 -141 -179 -223 -75 -82 -183 -118 -250 -83 -49 25 -56 84
-16 128 31 32 45 34 45 7 0 -11 -3 -20 -8 -20 -4 0 -13 -9 -20 -21 -11 -17
-11 -25 3 -45 17 -27 40 -31 48 -10 9 22 60 28 75 8 9 -11 16 -14 26 -7 7 6
34 25 59 44 26 19 47 42 47 50 0 9 9 27 20 41 29 37 24 48 -8 17 -31 -29 -48
-34 -55 -14 -2 6 -13 -6 -25 -28 -12 -25 -35 -49 -56 -60 -34 -18 -37 -19 -53
-2 -13 13 -14 20 -5 29 19 19 14 37 -8 31 -25 -7 -26 8 -2 36 14 17 129 81
146 81 15 0 3 -18 -19 -30 -14 -7 -25 -18 -25 -23 0 -5 6 -4 14 2 11 9 17 9
28 -2 11 -13 18 -10 48 18 108 101 120 109 120 84z m-3684 -98 c-3 -4 -37 -8
-76 -8 -67 0 -91 -6 -77 -19 3 -3 40 -11 82 -17 64 -8 78 -8 86 4 5 8 9 12 9
9 5 -26 6 -72 3 -62 -4 9 -12 7 -31 -6 -43 -30 -85 -41 -130 -32 -23 4 -63 4
-89 0 -55 -9 -218 -4 -235 6 -7 4 -14 2 -16 -4 -2 -7 -10 -12 -17 -12 -28 0
-35 74 -7 88 21 12 87 22 173 27 36 3 83 11 105 19 42 15 229 22 220 7z m306
-313 c10 -10 32 -18 49 -18 23 0 44 -11 73 -38 29 -26 55 -41 83 -45 44 -7 72
-30 53 -42 -21 -13 -190 20 -190 37 0 4 4 8 9 8 6 0 9 9 8 20 -2 24 -33 36
-52 20 -7 -6 -15 -7 -17 -3 -1 4 -16 16 -33 25 -20 11 -30 25 -30 41 -1 28 16
26 47 -5z m2008 2 c14 -11 33 -20 44 -20 55 0 126 -74 126 -132 0 -17 -2 -18
-15 -8 -8 7 -15 19 -15 26 0 8 -9 14 -21 14 -18 0 -20 -4 -15 -26 5 -19 0 -33
-18 -55 -14 -16 -31 -47 -37 -68 -10 -33 -8 -48 15 -114 27 -79 34 -173 16
-208 -25 -46 -139 -68 -159 -31 -13 25 -40 145 -35 154 3 4 -1 18 -8 30 -6 13
-11 30 -10 40 2 9 -1 19 -6 22 -23 14 -19 -188 4 -226 3 -5 8 -50 10 -101 8
-173 11 -207 22 -219 5 -7 13 -42 17 -78 6 -58 4 -68 -15 -93 -12 -15 -31 -27
-43 -27 -38 0 -51 -14 -40 -46 9 -27 21 -37 54 -48 10 -2 22 -21 29 -41 12
-35 11 -38 -19 -67 -16 -16 -34 -27 -39 -24 -5 3 -17 -3 -27 -14 -14 -16 -16
-23 -7 -32 16 -16 15 -53 -2 -67 -20 -17 -52 69 -36 98 10 19 8 21 -20 21 -20
0 -30 5 -30 15 0 23 -17 18 -23 -7 -9 -32 -19 -16 -19 29 1 35 -39 153 -59
178 -4 6 -11 44 -15 86 -5 62 -4 78 10 91 15 15 14 24 -5 110 -30 130 -39 140
-114 134 -33 -2 -89 -11 -125 -19 -62 -13 -67 -13 -103 7 -26 14 -40 29 -44
48 -3 15 -13 34 -22 42 -19 18 -117 31 -125 17 -3 -5 -25 -12 -49 -16 -52 -9
-91 -29 -111 -56 -20 -30 -64 -50 -92 -43 -14 4 -31 1 -40 -7 -14 -11 -19 -10
-36 10 -10 14 -16 31 -13 39 3 8 0 21 -6 28 -9 11 -8 15 4 20 8 3 18 15 21 27
22 83 273 214 321 168 20 -19 106 -41 123 -32 9 5 46 11 81 15 68 6 136 -7
240 -45 61 -22 72 -18 72 32 0 60 30 222 52 283 14 39 38 78 74 116 49 54 56
58 109 63 31 3 62 11 67 16 18 18 80 12 107 -9z m5139 -29 c16 -10 13 -11
-184 -57 -66 -15 -179 -46 -251 -70 -203 -65 -217 -66 -174 -11 11 14 20 29
20 34 0 5 10 19 23 31 45 42 518 103 566 73z m-8009 -124 l45 -22 3 -65 c3
-53 -1 -73 -20 -107 -14 -27 -30 -43 -41 -43 -10 0 -16 -4 -12 -9 12 -21 -35
-22 -63 -1 -43 32 -64 76 -69 141 -4 62 -1 67 58 112 30 22 45 21 99 -6z
m8794 -51 c80 -55 81 -58 79 -147 -1 -55 -6 -84 -14 -90 -15 -9 -39 7 -39 26
0 7 -14 13 -32 13 -18 0 -53 2 -77 3 -29 1 -48 -3 -55 -13 -6 -8 -17 -13 -24
-11 -6 3 -16 -6 -21 -19 -9 -22 -10 -22 -17 10 -8 38 -28 37 -32 -1 -4 -33
-24 -37 -21 -4 5 58 -1 97 -16 97 -8 0 -15 7 -15 15 0 8 3 14 8 13 11 -4 14 5
7 25 -9 21 11 47 36 47 12 0 19 7 19 18 0 11 12 22 33 28 43 14 155 8 181 -10z
m-3315 -163 c1 -43 3 -89 4 -102 1 -13 -4 -26 -10 -28 -8 -3 -13 5 -13 22 0
35 -17 23 -25 -18 -4 -17 -12 -35 -18 -38 -5 -4 -10 -25 -11 -47 0 -22 -4 -38
-8 -36 -4 2 -11 -3 -17 -13 -8 -16 -10 -15 -16 9 -8 32 2 68 19 68 7 0 20 29
29 69 22 88 21 95 -3 71 -11 -11 -20 -31 -20 -44 0 -31 -25 -53 -34 -30 -12
31 -6 46 33 81 23 20 37 41 34 49 -3 9 37 58 53 64 0 0 2 -35 3 -77z m-4170
-157 c9 -11 9 -15 -1 -19 -9 -4 -8 -6 3 -6 18 -1 33 -27 23 -42 -3 -5 -20 -9
-39 -9 -19 0 -37 -4 -40 -10 -3 -5 -19 -10 -36 -10 -16 0 -37 -5 -47 -10 -24
-14 -200 -70 -221 -70 -9 0 -21 -4 -26 -9 -6 -6 -50 -23 -100 -40 -71 -23
-109 -30 -180 -31 -121 -1 -148 2 -161 19 -9 11 -31 12 -128 5 -138 -11 -250
-4 -268 15 -11 11 -7 13 24 8 25 -4 40 -1 48 9 9 10 17 11 31 4 14 -8 21 -6
31 9 9 16 16 17 31 9 12 -6 37 -7 61 -3 23 4 66 8 96 10 128 5 168 15 206 51
27 24 46 34 70 34 18 0 36 5 39 10 4 6 13 7 24 1 12 -7 26 -6 42 3 35 18 122
30 206 29 41 -1 71 3 67 8 -3 5 -15 9 -27 9 -18 0 -19 2 -7 10 8 5 47 10 85
11 39 1 84 5 100 9 49 12 82 11 94 -4z m4515 -663 c42 -30 88 -107 148 -251
l27 -63 -29 -6 c-16 -3 -32 -6 -35 -7 -4 0 -28 51 -55 114 -35 81 -59 123 -82
143 -37 31 -46 33 -76 11 -35 -24 -28 -65 36 -184 61 -116 61 -129 7 -133 -26
-2 -33 7 -112 148 -111 200 -114 214 -42 218 19 1 48 13 64 26 39 30 92 24
149 -16z m-349 -87 c82 -38 168 -145 134 -167 -20 -12 -135 -49 -154 -49 -8 0
-15 -6 -15 -14 0 -16 56 -66 74 -66 20 0 56 30 56 47 0 12 7 14 37 10 53 -9
58 -18 35 -70 -41 -92 -133 -98 -214 -14 -85 89 -131 225 -97 288 10 20 66 59
84 59 6 0 33 -11 60 -24z m-354 -52 c21 -23 29 -25 69 -20 43 6 47 4 63 -23
21 -36 21 -41 0 -41 -10 0 -25 -5 -33 -10 -13 -8 -13 -12 -1 -32 8 -13 29 -53
47 -89 18 -36 40 -71 49 -79 14 -12 17 -10 22 9 5 18 10 21 32 16 40 -10 52
-24 45 -54 -10 -41 -33 -61 -72 -61 -53 0 -88 33 -137 128 -58 116 -67 127
-105 127 -23 0 -35 7 -48 28 -16 27 -16 29 1 38 22 13 22 27 0 51 -15 17 -15
20 -3 28 25 16 45 11 71 -16z"/>
<path d="M4580 8170 c-84 -6 -96 -14 -69 -43 12 -12 28 -35 35 -52 8 -16 19
-37 24 -45 6 -8 15 -28 20 -43 7 -21 16 -28 33 -27 43 4 45 1 43 -50 -2 -47
-1 -50 23 -50 24 0 24 0 5 16 -13 10 -15 17 -7 20 39 16 78 52 75 69 -3 14 1
16 15 10 10 -4 32 -8 48 -9 17 -2 38 -6 49 -11 17 -7 17 -6 6 16 -20 37 -102
89 -140 89 -11 0 -20 4 -20 10 0 13 45 24 65 16 10 -3 13 -2 10 5 -4 6 0 9 8
7 9 -2 17 2 19 7 2 6 -12 11 -29 13 -20 2 -33 9 -33 17 0 8 -12 17 -27 20 -16
3 -41 9 -58 13 -16 4 -59 5 -95 2z"/>
<path d="M5845 7502 c-11 -10 -58 -36 -105 -58 -69 -31 -96 -38 -142 -38 -32
1 -58 -2 -58 -5 0 -3 16 -23 35 -43 35 -39 65 -49 65 -23 0 21 60 57 86 51 20
-5 54 23 54 44 0 6 9 10 19 10 24 0 81 47 81 66 0 19 -12 18 -35 -4z"/>
<path d="M9663 7364 c-3 -8 -1 -20 4 -25 5 -5 431 -8 1099 -7 l1089 3 3 23 3
22 -1096 0 c-986 0 -1096 -2 -1102 -16z"/>
<path d="M10320 6995 l0 -115 69 0 c90 0 101 5 101 44 l-1 31 -22 -27 c-21
-26 -40 -33 -79 -30 -24 3 -27 92 -3 92 9 0 18 -7 21 -15 11 -29 24 -15 24 27
l0 42 -21 -22 c-28 -31 -39 -20 -39 39 0 46 -2 49 -25 49 l-25 0 0 -115z"/>
<path d="M11116 7029 c-21 -16 -26 -29 -26 -63 0 -75 66 -110 123 -66 34 27
41 63 22 104 -24 49 -74 60 -119 25z"/>
<path d="M10305 6300 l0 -110 34 0 c27 0 32 3 23 12 -17 17 -16 184 1 191 24
9 67 -5 82 -26 20 -28 19 -107 -1 -135 -9 -13 -26 -27 -38 -32 -20 -8 -20 -9
5 -9 33 -1 73 29 89 69 10 25 10 39 1 71 -17 55 -58 79 -136 79 l-60 0 0 -110z"/>
<path d="M10517 6083 c-4 -3 -2 -12 4 -19 6 -7 9 -23 7 -36 -2 -18 -10 -24
-35 -26 -44 -4 -83 -46 -83 -89 0 -44 41 -88 73 -78 12 4 37 6 56 5 27 -1 32
2 27 15 -3 9 -6 66 -6 126 0 99 -2 109 -18 109 -10 0 -22 -3 -25 -7z"/>
<path d="M9915 5992 c-6 -4 -10 -54 -10 -114 l0 -108 29 0 c21 0 26 3 19 13
-18 23 -8 41 26 48 69 14 102 89 61 142 -21 26 -53 36 -64 18 -3 -5 5 -16 19
-25 19 -13 25 -25 25 -54 -1 -62 -41 -94 -67 -54 -6 11 -10 41 -9 68 4 68 -4
85 -29 66z"/>
<path d="M10985 5968 c-32 -38 -29 -81 11 -115 53 -48 124 -10 124 67 0 81
-82 111 -135 48z"/>
<path d="M10943 5640 c-49 -20 -58 -92 -17 -134 29 -28 53 -32 87 -14 34 17
46 39 47 80 0 60 -56 92 -117 68z"/>
<path d="M10218 5268 c3 -71 0 -103 -9 -115 -12 -14 -6 -15 63 -12 62 4 80 8
93 24 21 28 15 67 -13 81 -22 11 -22 11 -2 29 36 32 16 84 -33 85 -16 0 -16
-2 -1 -25 15 -23 15 -27 0 -50 -9 -14 -25 -25 -36 -25 -17 0 -20 7 -20 49 0
43 -3 49 -22 53 -23 4 -23 3 -20 -94z"/>
<path d="M11088 5280 c-26 -27 -30 -36 -25 -68 12 -71 94 -99 136 -46 36 46
27 105 -20 129 -41 22 -57 19 -91 -15z"/>
<path d="M130 3525 l0 -25 1095 0 1095 0 0 25 0 25 -1095 0 -1095 0 0 -25z"/>
<path d="M2697 3543 c-4 -3 -7 -15 -7 -25 0 -17 70 -18 2101 -18 l2100 0 -3
23 -3 22 -2091 3 c-1150 1 -2094 -1 -2097 -5z"/>
<path d="M8423 3543 c632 -2 1662 -2 2290 0 628 1 112 2 -1148 2 -1259 0
-1773 -1 -1142 -2z"/>
<path d="M5595 3383 c-47 -10 -49 -12 -31 -31 19 -22 19 -25 6 -73 -9 -32 -16
-38 -55 -49 -80 -22 -145 -108 -145 -189 1 -43 16 -66 55 -81 22 -9 34 -7 61
10 34 20 34 20 54 0 24 -24 28 -24 69 -7 32 14 32 14 10 28 l-22 15 18 114 c9
63 23 150 29 193 13 84 13 84 -49 70z m-60 -197 c18 -13 18 -18 4 -92 -13 -71
-17 -79 -42 -88 -38 -14 -52 4 -52 62 1 59 10 96 31 116 19 20 35 20 59 2z"/>
<path d="M7280 1715 l0 -1665 2290 0 2290 0 0 1665 0 1665 -2290 0 -2290 0 0
-1665z m1039 1315 c135 -22 277 -117 346 -229 20 -34 34 -65 31 -69 -3 -5 -50
-8 -105 -7 -94 1 -101 2 -124 27 -34 37 -93 72 -155 93 -145 47 -323 -34 -398
-182 -26 -52 -29 -68 -29 -153 0 -81 4 -103 26 -150 47 -101 138 -170 253
-194 57 -12 75 -12 128 0 68 16 130 48 166 86 21 24 22 26 7 68 -30 85 -12
177 52 256 87 110 253 136 367 59 l36 -24 0 34 0 35 70 0 c65 0 70 -2 70 -21
0 -16 4 -19 18 -14 65 28 101 36 135 31 50 -8 114 -41 129 -66 19 -30 27 -24
30 23 3 39 5 42 36 45 l32 3 0 80 0 79 65 0 64 0 3 -77 3 -78 80 -5 80 -5 5
-182 c5 -175 6 -182 29 -207 46 -49 130 -41 159 16 8 15 13 85 15 198 l2 175
68 3 67 3 0 -271 0 -270 -70 0 c-39 0 -69 3 -68 8 5 13 -7 14 -37 1 -16 -7
-60 -13 -96 -13 -85 -1 -135 29 -173 105 -24 48 -26 63 -26 174 0 67 -3 124
-6 128 -3 3 -12 3 -20 0 -11 -4 -14 -43 -14 -204 l0 -199 -65 0 -65 0 0 210 0
210 -27 0 -28 0 3 -210 4 -210 -66 0 -66 0 0 173 c0 189 -4 203 -61 233 -39
20 -90 4 -119 -36 -18 -26 -20 -44 -20 -199 l0 -171 -70 0 -70 0 0 160 c0 88
-2 160 -5 160 -12 0 -220 -185 -223 -198 -6 -24 107 -11 145 16 17 12 34 22
37 22 3 0 6 -32 6 -70 l0 -71 -42 -19 c-48 -22 -137 -26 -187 -9 -29 10 -34 9
-74 -29 -58 -53 -177 -110 -257 -123 -185 -31 -360 28 -486 163 -105 113 -152
250 -141 407 9 130 60 240 154 334 123 123 291 176 472 147z m1928 -361 c9 -9
20 -9 44 0 17 6 61 11 95 11 l64 0 0 -135 c0 -157 5 -164 63 -77 21 31 61 91
90 132 l53 75 69 3 c37 2 72 -1 76 -5 5 -5 -9 -33 -29 -63 -21 -30 -83 -120
-137 -200 -55 -80 -130 -190 -168 -245 -38 -55 -81 -119 -95 -142 l-27 -43
-82 0 c-46 0 -83 3 -83 6 0 3 32 51 70 107 l70 101 0 167 c0 92 -4 170 -9 173
-5 3 -20 -3 -32 -13 -23 -19 -24 -24 -27 -200 l-4 -181 -64 0 -64 0 0 263 c0
145 3 267 7 270 11 11 108 8 120 -4z m687 -376 c64 -23 140 -92 167 -151 15
-35 21 -68 22 -127 1 -117 -30 -172 -200 -346 -73 -75 -133 -139 -133 -142 0
-4 79 -7 175 -7 l175 0 0 -85 0 -85 -310 0 -310 0 0 83 0 82 191 190 c118 117
198 205 210 230 40 85 12 175 -63 203 -82 32 -169 -22 -182 -112 l-7 -46 -81
0 -81 0 6 63 c10 117 62 195 162 243 63 30 184 33 259 7z m426 -463 l0 -480
-95 0 -95 0 0 404 0 405 -32 3 -33 3 -3 73 -3 72 131 0 130 0 0 -480z m-1763
116 c21 -8 115 -39 208 -69 450 -144 591 -191 601 -199 7 -5 11 -28 10 -51 -1
-36 -4 -42 -21 -39 -20 3 -292 90 -654 208 l-195 64 -195 -66 c-108 -36 -225
-76 -261 -89 -36 -13 -101 -35 -145 -49 -44 -14 -118 -39 -165 -55 -47 -17
-88 -31 -93 -31 -4 0 -7 23 -5 51 l3 51 280 94 c154 52 345 117 425 144 80 27
151 49 157 50 7 0 30 -6 50 -14z m468 -360 l40 -14 3 -112 3 -111 -48 3 -48 3
-3 123 c-1 67 1 122 5 122 4 0 26 -7 48 -14z m-524 -130 c2 -2 2 -27 1 -55
l-4 -51 -921 2 -922 3 -3 39 c-2 21 -1 44 2 52 5 12 147 14 924 14 505 0 921
-2 923 -4z m-254 -330 l28 -24 0 -132 0 -132 -28 -24 c-39 -34 -115 -34 -154
0 l-28 24 0 132 0 132 28 24 c39 34 115 34 154 0z m1308 -1 c16 -15 25 -36 25
-55 0 -27 -3 -30 -30 -30 -23 0 -30 5 -30 19 0 45 -62 52 -74 8 -3 -12 -6 -61
-6 -109 0 -65 4 -90 16 -102 30 -31 64 -12 64 36 0 24 4 28 30 28 28 0 30 -2
30 -39 0 -74 -78 -114 -154 -80 -39 18 -48 55 -44 184 3 114 4 117 31 141 40
34 108 34 142 -1z m510 0 c16 -15 25 -36 25 -55 0 -26 -3 -30 -29 -30 -24 0
-30 5 -34 30 -5 24 -12 30 -31 30 -29 0 -48 -27 -36 -50 5 -8 33 -33 64 -55
84 -61 101 -122 47 -176 -24 -24 -38 -29 -76 -29 -38 0 -52 5 -76 29 -36 36
-41 91 -9 91 11 0 23 1 27 3 4 1 10 -11 14 -27 13 -47 59 -63 79 -27 15 29 4
46 -66 101 -70 55 -89 98 -63 147 17 31 41 42 97 42 33 1 49 -5 67 -24z m245
-25 c6 -21 14 -58 19 -81 12 -59 38 -169 47 -196 6 -21 3 -23 -29 -23 -37 0
-47 12 -47 56 0 17 -7 25 -24 30 -45 11 -60 1 -69 -44 -8 -40 -10 -42 -44 -42
-29 0 -34 3 -28 18 4 9 13 44 20 77 44 200 58 244 79 247 47 7 66 -3 76 -42z
m-2330 30 c29 -16 44 -82 27 -122 -19 -45 -38 -58 -94 -66 l-48 -7 -3 -68 c-3
-68 -3 -68 -30 -65 l-27 3 -3 168 -2 167 80 0 c45 0 90 -5 100 -10z m557 -5
c12 -8 24 -28 28 -43 6 -30 -9 -82 -27 -93 -7 -4 -5 -15 5 -30 8 -13 18 -55
21 -92 l7 -68 -33 3 c-33 3 -33 3 -38 68 -5 64 -5 64 -40 71 -19 4 -38 5 -42
1 -4 -4 -8 -36 -10 -72 l-3 -65 -32 -3 -33 -3 0 170 0 171 88 0 c62 0 94 -4
109 -15z m403 -5 c0 -16 -7 -20 -34 -20 -19 0 -36 -6 -39 -13 -2 -7 -5 -71 -6
-142 0 -72 -1 -133 -1 -137 0 -5 -13 -8 -30 -8 l-29 0 -3 148 -3 147 -32 3
c-25 2 -33 8 -33 23 0 18 8 19 105 19 98 0 105 -1 105 -20z m100 -114 c0 -146
7 -166 55 -166 38 0 45 28 45 169 l0 131 30 0 30 0 0 -140 c0 -82 -5 -149 -11
-164 -25 -55 -143 -62 -186 -11 -22 25 -23 35 -23 171 l0 144 30 0 30 0 0
-134z m748 102 c6 -18 20 -78 32 -133 12 -55 26 -113 31 -129 13 -43 12 -46
-25 -46 -31 0 -34 3 -42 43 -8 36 -13 42 -37 45 -37 4 -55 -12 -59 -51 -3 -29
-7 -32 -39 -35 l-36 -3 13 58 c8 32 18 72 23 88 4 17 17 67 27 113 l19 82 42
0 c38 0 42 -3 51 -32z m-2904 -669 c20 -16 26 -29 26 -60 0 -52 -27 -79 -80
-79 -51 0 -80 29 -80 81 0 44 36 79 80 79 15 0 39 -9 54 -21z m95 4 c6 -10 18
-27 26 -38 15 -20 17 -19 49 19 18 22 37 36 43 33 6 -4 10 -39 9 -79 -1 -61
-4 -73 -18 -76 -15 -3 -18 4 -18 40 l-1 43 -21 -29 -21 -28 -28 33 -28 34 -1
-47 c0 -36 -4 -48 -15 -48 -12 0 -15 16 -15 80 0 64 3 80 15 80 8 0 19 -8 24
-17z m269 1 c15 -10 22 -25 22 -48 0 -40 -16 -55 -64 -63 -21 -3 -36 -11 -36
-19 0 -8 -7 -14 -15 -14 -12 0 -15 15 -15 73 0 41 3 77 7 80 12 13 79 7 101
-9z m157 4 c30 -14 42 -50 26 -84 -8 -18 -8 -31 -1 -45 9 -16 7 -19 -8 -19
-11 0 -25 7 -32 15 -7 8 -20 15 -30 15 -10 0 -20 -7 -24 -15 -3 -8 -12 -15
-21 -15 -12 0 -15 14 -15 73 0 41 3 77 7 80 10 11 70 8 98 -5z m343 -4 c25
-17 31 -71 10 -92 -9 -9 -9 -15 0 -24 7 -7 12 -16 12 -20 0 -14 -27 -9 -40 7
-7 8 -23 15 -36 15 -15 0 -24 -6 -24 -15 0 -8 -7 -15 -15 -15 -12 0 -15 15
-15 73 0 41 3 77 7 80 12 13 79 7 101 -9z m654 -30 l33 -47 5 44 c3 30 10 44
20 44 12 0 16 -17 18 -77 3 -72 1 -78 -17 -78 -13 0 -32 18 -53 48 l-33 47 -3
-47 c-2 -34 -7 -48 -18 -48 -11 0 -14 17 -14 80 0 96 12 103 62 34z m222 25
c21 -16 26 -29 26 -64 0 -55 -25 -75 -92 -75 l-48 0 0 80 0 80 44 0 c29 0 52
-7 70 -21z m326 1 c23 -23 26 -51 8 -80 -10 -15 -10 -22 0 -32 18 -18 15 -28
-8 -28 -11 0 -23 7 -26 15 -4 8 -17 15 -30 15 -15 0 -24 -6 -24 -15 0 -8 -7
-15 -15 -15 -12 0 -15 16 -15 80 l0 80 45 0 c32 0 51 -6 65 -20z m714 -1 c24
-19 27 -27 24 -78 l-3 -56 -57 -3 c-69 -4 -98 19 -98 79 0 69 78 102 134 58z
m720 0 c30 -23 33 -54 9 -81 -15 -17 -15 -19 2 -38 18 -19 17 -20 -2 -20 -11
0 -26 7 -33 15 -7 8 -21 15 -32 15 -10 0 -21 -7 -24 -15 -4 -8 -12 -15 -20
-15 -11 0 -14 17 -14 73 0 41 3 77 7 80 14 15 81 6 107 -14z"/>
<path d="M8684 2544 c-65 -22 -104 -75 -104 -139 0 -19 3 -35 6 -35 10 0 194
161 194 170 0 14 -59 17 -96 4z"/>
<path d="M9179 1083 c-22 -25 -19 -207 3 -229 22 -22 64 -12 72 18 12 48 6
183 -10 206 -18 26 -46 29 -65 5z"/>
<path d="M400 3361 c-17 -5 -21 -9 -12 -15 8 -5 12 -43 12 -132 0 -118 -1
-124 -20 -124 -13 0 -25 11 -34 33 -8 17 -21 48 -30 69 -9 20 -16 41 -16 47 0
6 -4 19 -9 29 -5 9 -14 30 -20 46 -17 41 -31 23 -81 -102 -23 -59 -47 -113
-52 -119 -8 -10 -2 -13 23 -13 24 0 30 3 22 11 -11 11 -1 60 18 84 4 6 10 27
14 48 6 32 10 36 21 25 7 -7 15 -24 17 -38 2 -14 12 -42 21 -63 13 -30 14 -42
5 -53 -10 -12 3 -14 86 -14 84 0 96 2 91 16 -3 9 -6 74 -6 145 0 137 1 134
-50 120z"/>
<path d="M2773 3316 c20 -15 21 1 -13 -231 -8 -55 -18 -85 -31 -97 -28 -24
-24 -28 26 -28 45 0 60 12 29 24 -13 5 -15 15 -10 54 16 116 40 242 46 242 4
0 10 -23 14 -50 4 -28 11 -61 15 -73 5 -12 17 -59 27 -104 9 -46 22 -83 28
-83 6 0 45 66 86 146 41 80 79 148 84 151 9 6 7 -10 -14 -167 -9 -68 -18 -100
-31 -112 -11 -9 -19 -19 -19 -22 0 -3 32 -6 70 -6 71 0 81 4 55 24 -11 8 -12
20 -6 51 5 22 16 93 26 157 17 110 19 118 44 127 20 8 10 10 -49 8 l-75 -2
-55 -112 c-30 -62 -60 -112 -66 -112 -6 -1 -16 29 -23 67 -7 37 -18 88 -23
115 l-10 47 -71 0 c-63 -1 -70 -2 -54 -14z"/>
<path d="M3331 3227 c-105 -33 -170 -191 -105 -252 33 -30 40 -31 83 -4 l33
20 23 -21 c21 -20 27 -21 59 -10 41 13 46 25 15 33 -18 5 -20 11 -15 34 3 15
10 64 16 107 6 43 12 84 13 90 1 6 -5 9 -13 7 -21 -5 -32 -5 -55 1 -11 3 -35
1 -54 -5z m34 -44 c12 -12 15 -25 10 -47 -4 -17 -9 -49 -12 -71 -10 -63 -63
-89 -84 -41 -16 35 -3 128 22 155 24 25 42 27 64 4z"/>
<path d="M3540 3232 c-19 -6 -60 -43 -60 -53 0 -5 7 -6 15 -3 25 10 42 -14 64
-89 12 -40 26 -89 33 -110 13 -42 2 -74 -33 -95 -17 -11 -21 -9 -31 13 -20 43
-78 21 -63 -25 17 -54 84 -45 134 19 50 65 151 271 151 311 0 17 -46 45 -53
32 -2 -4 -12 -51 -22 -104 -10 -54 -22 -98 -26 -98 -5 0 -11 17 -14 38 -6 37
-14 64 -36 122 -13 34 -36 50 -59 42z"/>
<path d="M4008 3210 c-36 -36 -42 -37 -36 -5 6 27 3 28 -54 19 -23 -4 -38 -12
-38 -20 0 -8 5 -14 10 -14 14 0 12 -40 -4 -135 -8 -44 -12 -83 -10 -87 3 -4
18 -8 33 -8 28 0 28 1 45 100 19 106 32 123 75 101 11 -6 22 -11 25 -11 10 0
36 32 36 45 0 16 -27 45 -41 45 -6 0 -24 -13 -41 -30z"/>
<path d="M4185 3228 c-68 -24 -115 -91 -115 -163 0 -56 21 -91 63 -104 50 -17
137 17 137 53 0 6 -5 5 -12 -2 -21 -21 -85 -15 -102 10 -24 34 -21 68 7 68 31
0 89 18 109 33 27 21 32 60 11 85 -22 26 -59 34 -98 20z"/>
<path d="M4382 3220 c-70 -43 -67 -100 8 -154 52 -37 62 -63 35 -86 -20 -16
-67 2 -59 23 3 8 -4 24 -14 38 -17 20 -22 21 -36 10 -27 -23 -20 -59 17 -82
77 -48 189 24 157 102 -7 15 -34 41 -61 58 -53 33 -64 62 -29 81 17 9 23 5 45
-30 22 -35 28 -39 45 -30 41 22 14 72 -45 84 -21 4 -40 0 -63 -14z"/>
<path d="M4583 3226 c-43 -10 -52 -23 -32 -43 9 -9 9 -29 0 -77 -6 -36 -16
-96 -22 -133 -16 -105 -18 -113 -34 -113 -8 0 -15 -4 -15 -10 0 -6 28 -10 65
-10 66 0 76 4 51 24 -9 7 -12 24 -9 47 4 33 8 37 52 48 132 34 204 228 100
271 -24 11 -34 9 -64 -9 -44 -25 -43 -25 -47 -3 -3 15 -9 16 -45 8z m125 -69
c11 -22 11 -39 2 -79 -16 -78 -58 -112 -90 -73 -15 18 1 147 21 171 18 22 52
13 67 -19z"/>
<path d="M4903 3224 c-48 -20 -85 -76 -91 -134 -6 -68 3 -98 41 -120 42 -26
73 -25 122 3 52 29 85 87 85 150 0 57 -20 92 -62 106 -39 14 -55 13 -95 -5z
m82 -53 c13 -60 -13 -160 -49 -190 -12 -10 -18 -9 -35 8 -37 37 -24 157 22
208 25 28 53 16 62 -26z"/>
<path d="M5140 3224 c-25 -7 -47 -13 -49 -13 -2 -1 4 -10 14 -21 16 -18 16
-24 1 -107 -22 -120 -22 -123 13 -123 17 0 32 4 35 9 3 5 11 44 17 87 15 112
22 126 62 122 36 -3 37 -7 23 -135 -7 -65 -6 -72 12 -82 15 -8 30 -7 57 2 l37
13 -25 17 -25 16 14 73 c19 97 18 114 -7 139 -22 22 -47 19 -91 -12 -34 -24
-42 -24 -35 1 7 27 0 28 -53 14z"/>
<path d="M5765 3225 c-73 -33 -121 -125 -103 -195 12 -42 23 -54 66 -68 36
-12 81 -1 120 29 24 18 23 18 -27 12 -59 -7 -91 12 -91 54 0 25 5 28 62 38 47
7 98 49 98 79 0 48 -70 77 -125 51z"/>
<path d="M6131 3227 c-70 -23 -131 -108 -131 -184 0 -35 6 -49 26 -68 33 -30
40 -31 83 -4 l33 20 22 -20 c19 -18 27 -19 59 -10 36 10 51 29 23 29 -8 0 -18
4 -21 10 -5 8 11 119 30 213 2 13 -3 17 -23 16 -15 0 -36 2 -47 4 -11 3 -35 0
-54 -6z m31 -41 c11 -11 12 -29 5 -89 -8 -63 -14 -77 -33 -87 -51 -28 -75 19
-56 108 6 30 17 60 23 68 15 18 44 18 61 0z"/>
<path d="M653 2863 c-23 -4 -29 -14 -16 -27 4 -4 8 -28 8 -54 2 -73 12 -92 46
-92 17 0 39 5 50 10 13 8 19 7 19 0 0 -6 12 -10 27 -8 26 3 26 3 24 83 -1 44
-5 83 -9 87 -4 4 -21 4 -37 0 -19 -5 -25 -11 -17 -16 7 -4 12 -31 12 -67 l0
-60 -32 3 -33 3 -3 73 c-2 39 -6 71 -10 71 -4 -1 -17 -4 -29 -6z"/>
<path d="M5486 2793 c-47 -14 -48 -15 -30 -34 16 -18 17 -26 7 -77 -36 -186
-47 -280 -34 -296 16 -20 50 -20 85 -2 l27 14 -26 6 c-14 4 -25 12 -25 19 0
11 14 106 43 295 7 46 11 85 8 86 -4 2 -28 -3 -55 -11z"/>
<path d="M6570 2798 c-44 -12 -46 -14 -30 -33 15 -18 5 -104 -13 -109 -75 -22
-111 -42 -138 -79 -40 -55 -53 -109 -39 -153 19 -56 71 -71 117 -34 l26 20 14
-20 c8 -12 25 -20 41 -20 30 1 89 29 61 30 -32 0 -39 22 -28 90 25 161 39 248
45 283 7 41 4 42 -56 25z m-65 -191 c15 -12 17 -23 12 -73 -8 -89 -20 -114
-57 -114 -24 0 -33 6 -40 26 -17 43 12 155 43 167 19 8 22 8 42 -6z"/>
<path d="M2755 2740 c3 -5 13 -10 22 -10 16 0 15 -25 -13 -189 -8 -46 -14 -94
-14 -107 0 -15 -9 -28 -27 -38 -27 -14 -27 -14 25 -17 52 -4 65 3 36 19 -13 7
-14 19 -4 93 16 122 36 216 42 199 9 -24 68 -283 68 -298 0 -35 30 5 93 124
37 71 71 137 74 147 3 9 10 17 15 17 11 0 9 -20 -11 -155 -18 -119 -19 -123
-42 -130 -11 -4 -18 -9 -16 -12 8 -8 157 -9 157 0 0 4 -6 7 -14 7 -22 0 -23
15 -9 103 7 45 18 117 24 160 11 71 14 77 36 77 12 0 23 5 23 10 0 7 -26 10
-71 8 l-71 -3 -59 -115 c-33 -63 -63 -116 -68 -118 -5 -2 -11 12 -14 30 -2 18
-12 72 -22 121 l-17 87 -75 0 c-47 0 -72 -4 -68 -10z"/>
<path d="M3285 2635 c-38 -19 -81 -84 -90 -135 -16 -96 75 -162 163 -116 89
46 124 178 64 239 -26 26 -98 32 -137 12z m81 -30 c32 -50 -4 -205 -50 -214
-56 -10 -63 136 -11 215 20 31 40 30 61 -1z"/>
<path d="M3538 2633 c-15 -10 -33 -30 -39 -46 -16 -38 1 -71 55 -107 21 -15
43 -34 48 -44 13 -24 -9 -48 -41 -44 -20 2 -27 10 -31 32 -6 37 -32 55 -54 37
-22 -19 -20 -38 9 -66 34 -35 96 -34 142 1 29 22 34 31 31 62 -3 31 -11 43
-55 76 -37 27 -53 46 -53 61 0 29 31 43 45 19 25 -42 43 -57 58 -51 25 9 21
53 -5 71 -29 21 -76 20 -110 -1z"/>
<path d="M3800 2643 c-63 -24 -110 -95 -110 -165 1 -87 85 -135 161 -91 41 24
47 45 8 31 -79 -27 -123 45 -84 139 19 44 43 73 62 73 9 0 12 -7 7 -24 -7 -29
18 -56 45 -49 30 8 33 42 6 69 -23 23 -61 30 -95 17z"/>
<path d="M3984 2641 c-50 -12 -58 -20 -40 -40 14 -15 14 -25 -1 -98 -16 -76
-16 -82 0 -107 22 -33 53 -34 99 -2 l36 24 11 -24 c12 -27 44 -31 86 -12 l25
11 -23 12 c-18 9 -21 18 -19 51 2 21 7 53 12 69 5 17 12 51 16 77 l6 48 -33
-7 c-19 -3 -45 -10 -59 -15 -24 -9 -24 -10 -6 -23 18 -13 18 -20 7 -87 -12
-73 -27 -98 -62 -98 -38 0 -43 25 -26 118 10 48 17 93 17 100 0 13 -1 13 -46
3z"/>
<path d="M4421 2632 c-76 -38 -119 -134 -91 -202 24 -58 98 -76 158 -40 41 25
48 25 55 0 7 -25 48 -27 70 -2 9 10 23 33 31 52 l14 35 11 -28 c6 -16 11 -32
11 -36 0 -15 36 -41 56 -41 10 0 28 7 39 16 17 13 18 16 5 24 -8 5 -18 10 -21
10 -7 0 -49 97 -49 114 0 7 9 22 21 35 16 17 24 19 34 11 24 -20 55 -2 55 30
0 24 -5 31 -27 36 -22 6 -31 2 -55 -27 -15 -18 -28 -39 -28 -47 0 -23 -18 -3
-25 28 -8 36 -35 53 -69 44 -31 -7 -57 -34 -34 -34 19 0 41 -26 57 -67 14 -35
10 -67 -12 -97 -12 -16 -16 -17 -35 -5 -19 12 -26 11 -54 -4 -53 -28 -91 -31
-116 -10 -32 27 -33 64 -2 73 95 28 112 36 121 51 39 73 -37 124 -120 81z"/>
<path d="M4884 2641 c-48 -12 -58 -21 -38 -35 15 -12 15 -20 -1 -127 -9 -63
-19 -131 -22 -152 -3 -23 -13 -43 -26 -52 -20 -14 -16 -15 48 -15 59 1 67 3
53 13 -14 11 -15 20 -6 55 9 35 15 42 35 42 49 0 114 51 147 117 40 80 1 173
-67 159 -17 -3 -38 -13 -47 -21 -23 -21 -33 -19 -27 5 5 21 1 22 -49 11z m127
-62 c16 -30 2 -122 -22 -153 -24 -31 -40 -33 -63 -7 -15 16 -15 26 -5 92 7 41
17 77 23 81 21 15 55 8 67 -13z"/>
<path d="M5174 2640 c-18 -4 -40 -10 -49 -14 -17 -6 -17 -7 0 -20 14 -10 16
-21 12 -52 -18 -112 -19 -154 -7 -169 19 -22 59 -18 96 10 18 14 35 25 37 25
3 0 8 -11 11 -25 7 -29 35 -33 86 -11 l32 13 -26 7 c-31 8 -32 17 -7 141 10
50 16 93 14 98 -4 7 -39 1 -82 -15 -22 -8 -22 -10 -8 -26 14 -16 15 -27 5 -83
-11 -66 -34 -99 -69 -99 -20 0 -44 34 -34 50 10 16 33 165 26 171 -3 3 -20 3
-37 -1z"/>
<path d="M5623 2634 c-56 -28 -62 -98 -12 -136 83 -64 85 -66 73 -85 -7 -11
-23 -18 -40 -18 -24 0 -30 5 -34 29 -6 37 -32 55 -54 37 -22 -19 -20 -38 9
-66 54 -55 175 -13 175 62 0 36 -5 43 -61 81 -26 17 -49 38 -52 46 -8 20 21
49 40 42 8 -3 17 -6 19 -6 2 0 4 -8 4 -18 0 -40 42 -55 60 -22 9 17 6 25 -14
45 -29 29 -66 32 -113 9z"/>
<path d="M5873 2629 c-21 -11 -51 -38 -68 -62 -26 -36 -30 -51 -30 -104 0 -50
4 -65 20 -77 28 -21 62 -20 92 4 l26 20 14 -20 c16 -22 49 -26 88 -8 l25 11
-23 12 c-19 9 -22 17 -19 60 2 28 9 79 16 115 l12 65 -57 2 c-39 1 -70 -5 -96
-18z m48 -19 c22 -13 25 -79 5 -145 -9 -33 -16 -41 -40 -43 -35 -4 -46 10 -46
65 0 44 14 86 38 116 18 20 18 20 43 7z"/>
<path d="M6112 2640 c-43 -10 -46 -14 -31 -38 11 -17 10 -38 -4 -117 -10 -53
-15 -100 -13 -104 3 -4 18 -6 35 -3 25 3 30 10 35 40 28 169 39 192 85 177 28
-9 30 -22 14 -113 -17 -92 -11 -112 36 -112 29 1 87 29 60 30 -34 0 -40 23
-28 107 7 44 9 92 5 107 -11 44 -63 44 -124 -1 -23 -16 -23 -16 -17 10 8 29 4
31 -53 17z"/>
<path d="M6725 2634 c-46 -24 -63 -43 -81 -90 -36 -95 6 -174 91 -174 74 0
137 61 151 146 16 103 -70 166 -161 118z m81 -35 c34 -66 -25 -232 -73 -203
-34 21 -29 161 8 208 27 34 45 33 65 -5z"/>
<path d="M1260 2495 c-18 -19 -32 -25 -50 -22 -14 3 -33 1 -43 -5 -18 -9 -18
-11 -1 -29 21 -23 42 -25 50 -4 4 8 12 15 19 15 9 0 11 -15 8 -56 -6 -69 13
-104 57 -104 16 0 32 5 35 10 3 6 -1 10 -9 10 -24 0 -37 36 -34 88 3 43 5 47
31 50 35 4 35 20 0 24 -19 2 -29 10 -33 26 l-5 24 -25 -27z"/>
<path d="M3925 2208 c-39 -14 -42 -17 -25 -28 16 -10 15 -87 -2 -107 -6 -7
-21 -13 -34 -13 -64 0 -145 -90 -151 -170 -7 -87 43 -126 113 -88 33 18 38 18
46 4 12 -21 81 -21 98 -1 10 13 9 15 -10 15 -21 0 -22 3 -17 58 3 31 13 98 22
147 8 50 18 114 22 143 6 58 0 62 -62 40z m-46 -192 c13 -15 8 -83 -10 -142
-12 -37 -51 -51 -76 -26 -19 20 -13 104 11 151 18 34 54 42 75 17z"/>
<path d="M4500 2208 c-45 -13 -47 -16 -26 -31 15 -11 16 -20 6 -77 -20 -115
-33 -214 -34 -260 l-1 -45 41 -3 c27 -2 45 2 54 13 11 13 9 15 -9 15 -16 0
-21 6 -21 28 0 28 47 324 56 355 6 20 -11 21 -66 5z"/>
<path d="M976 2171 c-12 -5 -15 -10 -9 -14 7 -4 11 -51 12 -122 1 -115 1 -115
-23 -115 -30 0 -45 19 -53 64 -4 24 0 44 11 61 15 22 15 25 1 25 -9 0 -27 -12
-40 -26 -54 -58 -10 -161 60 -144 6 1 34 2 64 2 42 -1 52 1 43 10 -8 8 -12 55
-12 140 0 138 -1 140 -54 119z"/>
<path d="M3196 2145 c-31 -16 -66 -52 -66 -67 0 -5 10 -2 22 6 29 20 72 20 92
0 40 -39 1 -120 -109 -222 -35 -33 -61 -63 -58 -66 4 -3 55 -6 114 -6 l107 0
16 47 c22 64 20 70 -10 43 -18 -18 -38 -25 -74 -27 -28 -1 -52 2 -55 7 -3 5
21 29 54 54 33 25 69 62 81 81 28 45 29 111 3 136 -26 26 -82 33 -117 14z"/>
<path d="M3476 2150 c-29 -9 -76 -47 -76 -62 0 -4 15 0 34 9 43 20 84 11 92
-21 8 -35 -12 -65 -58 -86 -40 -18 -40 -18 -17 -30 48 -25 69 -52 69 -90 0
-46 -15 -60 -62 -60 -37 0 -38 1 -38 35 0 39 -24 60 -53 44 -41 -23 -2 -98 52
-100 87 -3 127 12 152 59 27 48 3 132 -37 132 -8 0 -11 6 -8 15 4 8 12 15 19
15 19 0 55 49 55 75 0 52 -62 84 -124 65z"/>
<path d="M5638 2087 c-57 -52 -70 -69 -45 -64 9 1 11 -12 8 -48 -2 -27 -4 -79
-5 -115 l-1 -65 42 -3 c24 -2 54 3 70 12 l28 15 -26 1 c-43 0 -52 20 -44 97
11 102 17 113 64 113 61 0 67 -15 46 -120 -9 -50 -14 -97 -11 -105 7 -20 89
-20 106 0 10 12 9 15 -8 15 -30 0 -32 18 -11 121 10 52 18 100 19 107 0 15
-31 16 -65 0 -19 -9 -28 -9 -37 0 -7 7 -27 12 -46 12 l-34 0 7 40 c4 22 5 40
3 40 -1 -1 -29 -24 -60 -53z"/>
<path d="M2844 2058 c-76 -20 -140 -115 -131 -195 2 -25 11 -52 19 -60 21 -21
74 -19 99 3 20 18 21 18 35 0 16 -22 61 -24 96 -5 22 13 22 13 3 17 -11 2 -24
7 -28 11 -7 7 16 182 29 215 4 11 -7 15 -46 17 -28 2 -62 1 -76 -3z m30 -47
c17 -18 16 -23 -9 -147 -6 -26 -50 -40 -71 -23 -35 29 2 189 44 189 10 0 26
-8 36 -19z"/>
<path d="M4042 2046 c-30 -11 -32 -14 -17 -26 13 -10 15 -24 11 -54 -3 -23 -8
-71 -12 -108 -6 -62 -5 -68 12 -69 41 -3 70 3 84 17 12 12 11 14 -8 14 -27 0
-28 13 -7 130 8 47 15 91 15 98 0 15 -33 14 -78 -2z"/>
<path d="M4187 2048 c-26 -9 -27 -12 -13 -27 13 -14 13 -27 5 -81 -6 -36 -16
-103 -22 -148 -10 -68 -17 -87 -36 -103 l-23 -19 73 0 c64 1 72 2 57 14 -20
15 -23 42 -8 80 8 21 16 26 45 26 30 0 45 9 84 48 68 68 86 155 43 205 -21 24
-82 22 -110 -3 l-22 -21 0 21 c0 23 -25 26 -73 8z m152 -60 c19 -50 -19 -168
-53 -168 -48 0 -57 36 -35 140 10 48 12 50 45 50 27 0 36 -5 43 -22z"/>
<path d="M4641 2033 c-38 -30 -70 -93 -71 -139 0 -17 10 -46 23 -65 21 -31 28
-34 77 -37 70 -3 109 20 140 83 28 58 24 124 -11 161 -33 35 -111 34 -158 -3z
m109 -24 c25 -59 -16 -199 -58 -199 -31 0 -42 22 -42 85 1 79 29 145 63 145
18 0 28 -8 37 -31z"/>
<path d="M4887 2048 c-27 -10 -27 -11 -11 -29 16 -17 16 -25 0 -117 -9 -54
-16 -101 -16 -105 0 -4 15 -7 33 -7 l33 0 17 102 c10 56 20 105 23 110 8 13
61 9 67 -5 2 -7 1 -35 -4 -62 -5 -28 -12 -71 -15 -97 l-7 -48 31 0 c17 0 33 4
37 10 3 5 11 49 17 97 6 48 15 94 21 101 5 6 22 12 38 12 26 0 29 -3 29 -32 0
-18 -5 -62 -10 -96 -11 -82 -7 -92 40 -92 45 0 73 24 39 33 -20 5 -21 10 -15
49 24 158 19 188 -33 188 -25 0 -69 -23 -83 -44 -4 -5 -12 2 -19 17 -15 33
-61 37 -99 7 -32 -25 -40 -25 -40 0 0 23 -26 25 -73 8z"/>
<path d="M5385 2041 c-93 -56 -133 -184 -74 -236 24 -23 75 -22 100 1 18 17
20 16 33 -1 16 -22 72 -23 95 -1 14 15 13 16 -7 16 -18 0 -22 6 -22 33 0 17 4
48 9 67 5 19 12 59 15 88 l7 52 -63 0 c-44 0 -72 -6 -93 -19z m64 -25 c12 -14
10 -57 -6 -139 -6 -33 -39 -50 -67 -35 -16 9 -18 19 -14 79 4 47 11 76 23 89
21 24 48 26 64 6z"/>
<path d="M5978 2044 c-29 -15 -71 -81 -82 -126 -7 -32 15 -94 42 -114 26 -20
103 -17 132 6 30 23 23 34 -14 21 -34 -14 -74 4 -82 36 -11 40 2 109 25 142
26 37 51 41 51 8 0 -44 50 -65 69 -29 10 18 -2 50 -23 64 -18 13 -89 8 -118
-8z"/>
<path d="M6201 2038 c-59 -40 -85 -119 -65 -195 16 -58 119 -75 179 -28 42 31
63 70 71 127 5 35 1 50 -18 78 -22 32 -28 35 -79 38 -44 2 -61 -2 -88 -20z
m100 -20 c15 -29 6 -135 -15 -177 -14 -26 -22 -32 -44 -29 -20 2 -29 11 -36
37 -11 39 5 130 29 167 19 30 51 31 66 2z"/>
<path d="M6449 2031 c-49 -50 -42 -70 58 -160 41 -37 35 -61 -13 -61 -29 0
-34 3 -34 23 0 13 -9 32 -20 42 -19 17 -22 17 -37 3 -20 -21 -10 -63 19 -79
33 -18 103 -14 132 8 29 21 43 72 28 100 -6 11 -31 32 -56 48 -48 30 -59 46
-50 70 11 27 49 18 61 -16 9 -24 17 -30 35 -27 16 2 24 11 26 27 5 33 -21 51
-76 51 -35 0 -49 -6 -73 -29z"/>
<path d="M270 1778 c-15 -6 -20 -12 -12 -15 7 -3 12 -22 12 -44 0 -30 -4 -39
-17 -39 -16 0 -15 -1 1 -13 23 -17 20 -140 -4 -145 -29 -5 -52 23 -57 70 -4
37 -2 49 16 67 17 17 18 21 5 21 -8 0 -29 -13 -45 -29 -38 -38 -40 -91 -5
-126 22 -21 32 -24 83 -20 32 2 67 4 77 4 16 1 17 4 8 13 -8 8 -12 54 -12 140
0 136 0 137 -50 116z"/>
<path d="M1320 1778 c-15 -6 -20 -12 -12 -15 9 -3 12 -40 12 -134 l0 -129 25
0 c22 0 25 4 25 40 0 48 19 46 43 -5 13 -26 23 -35 42 -35 33 0 32 13 -7 66
l-32 44 34 35 34 35 -32 0 c-21 0 -32 -5 -30 -12 3 -15 -31 -68 -43 -68 -5 0
-9 43 -9 95 0 101 -1 104 -50 83z"/>
<path d="M837 1710 c-9 -22 -17 -47 -17 -54 0 -8 -4 -18 -10 -21 -5 -3 -10
-13 -10 -21 0 -26 18 -5 26 29 3 17 13 41 20 52 12 17 14 6 14 -88 l0 -107 33
0 32 0 0 125 0 125 -35 0 c-32 0 -37 -4 -53 -40z"/>
<path d="M386 1654 c-57 -58 -22 -155 57 -153 18 0 41 4 52 9 16 7 13 9 -16 9
-40 1 -69 26 -69 59 0 19 7 21 58 24 51 3 57 5 54 23 -10 59 -89 76 -136 29z"/>
</g>
</svg>
