<?xml version="1.0" standalone="no"?>
<!DOCTYPE svg PUBLIC "-//W3C//DTD SVG 20010904//EN"
 "http://www.w3.org/TR/2001/REC-SVG-20010904/DTD/svg10.dtd">
<svg version="1.0" xmlns="http://www.w3.org/2000/svg"
 width="660.000000pt" height="821.000000pt" viewBox="0 0 660.000000 821.000000"
 preserveAspectRatio="xMidYMid meet">
<metadata>
Created by potrace 1.16, written by Peter Selinger 2001-2019
</metadata>
<g transform="translate(0.000000,821.000000) scale(0.100000,-0.100000)"
fill="#000000" stroke="none">
<path d="M410 7500 l0 -460 2890 0 2890 0 2 456 c2 251 1 458 -1 460 -2 2
-1304 4 -2893 4 l-2888 0 0 -460z m2784 339 c3 -3 -25 -33 -63 -67 -61 -55
-75 -62 -110 -62 -23 0 -41 4 -41 8 0 5 17 33 38 63 34 49 42 54 82 59 59 7
87 6 94 -1z m-2106 -8 c9 -1 12 -73 12 -326 l0 -325 -65 0 -65 0 0 324 0 325
23 3 c19 3 55 2 95 -1z m2698 -329 l-1 -317 -62 -3 c-58 -3 -63 -1 -63 18 0
25 -12 26 -35 0 -43 -48 -151 -49 -223 -3 -121 78 -138 307 -32 413 66 66 194
76 251 19 10 -10 21 -19 24 -19 3 0 5 49 5 110 l0 109 58 3 c31 2 62 0 68 -5
8 -5 11 -99 10 -325z m-2113 314 c175 -76 153 -344 -32 -396 -20 -5 -78 -10
-128 -10 l-93 0 0 -62 c0 -35 -3 -86 -6 -115 -7 -58 -12 -61 -96 -55 l-48 4 0
324 0 324 185 0 c137 0 194 -4 218 -14z m2295 -38 l-3 -53 -65 0 -65 0 -3 53
-3 52 71 0 71 0 -3 -52z m-3181 -123 c86 -26 152 -122 153 -222 l0 -53 -171 0
-171 0 7 -27 c11 -46 33 -71 71 -82 44 -12 108 7 131 38 11 17 25 21 69 21 62
0 65 -5 29 -66 -47 -79 -153 -119 -254 -94 -112 27 -181 116 -181 236 0 130
61 218 175 251 56 16 84 15 142 -2z m1326 -1 c87 -29 165 -152 155 -241 l-3
-28 -167 -3 -168 -2 0 -24 c0 -84 130 -118 199 -52 21 20 37 26 72 26 25 0 48
-3 52 -6 11 -11 -30 -80 -67 -112 -72 -63 -211 -65 -298 -3 -48 34 -86 103
-94 173 -22 187 146 331 319 272z m485 -51 l3 -63 -48 0 c-52 0 -85 -17 -105
-53 -8 -13 -15 -77 -18 -162 l-5 -140 -67 -3 -68 -3 0 236 0 235 65 0 65 0 0
-34 0 -33 36 33 c36 34 83 54 119 51 17 -2 20 -10 23 -64z m523 51 c61 -18
110 -59 142 -119 30 -58 30 -184 0 -241 -41 -77 -136 -134 -223 -134 -48 0
-130 30 -166 62 -66 58 -93 147 -74 248 18 94 78 162 167 186 65 17 90 17 154
-2z m1221 -4 c21 -6 54 -27 73 -47 33 -34 60 -97 49 -115 -3 -4 -30 -8 -60 -8
-52 0 -56 2 -75 34 -40 68 -131 66 -172 -3 -21 -36 -23 -138 -2 -187 33 -79
138 -77 179 4 16 31 19 32 76 32 69 0 72 -5 40 -74 -69 -152 -309 -166 -405
-24 -50 74 -57 196 -16 276 58 112 172 153 313 112z m448 9 c104 -23 167 -101
177 -216 13 -156 -63 -256 -210 -278 -156 -24 -277 86 -277 251 0 123 62 211
168 240 58 16 85 16 142 3z m-820 -245 l0 -234 -70 0 -70 0 0 235 0 234 58 3
c31 2 63 1 70 -1 9 -2 12 -58 12 -237z m-1210 1 l0 -235 -65 0 -65 0 0 235 0
235 65 0 65 0 0 -235z"/>
<path d="M3503 7556 c-49 -22 -66 -57 -66 -134 -1 -83 20 -128 69 -148 35 -14
77 -11 102 9 60 47 59 215 -1 265 -23 19 -70 23 -104 8z"/>
<path d="M1420 7693 c-1 -15 -2 -57 -3 -91 -1 -35 2 -66 7 -70 11 -6 142 -3
174 5 51 12 68 103 28 150 -23 26 -30 28 -115 31 l-91 4 0 -29z"/>
<path d="M663 7555 c-26 -11 -63 -58 -63 -80 0 -3 48 -5 106 -5 105 0 105 0
99 23 -18 57 -85 87 -142 62z"/>
<path d="M2003 7563 c-28 -6 -73 -51 -73 -74 0 -17 9 -19 100 -19 55 0 100 4
100 9 0 30 -24 64 -55 76 -19 8 -38 14 -42 14 -4 -1 -18 -4 -30 -6z"/>
<path d="M3020 7563 c-42 -13 -60 -29 -74 -65 -31 -76 -14 -177 35 -212 31
-21 98 -20 128 3 32 25 52 104 40 165 -12 63 -23 81 -63 100 -36 17 -41 18
-66 9z"/>
<path d="M4680 7553 c-43 -22 -69 -72 -70 -136 0 -90 41 -146 111 -149 69 -2
105 36 114 122 14 125 -65 208 -155 163z"/>
<path d="M466 6612 c-3 -5 -8 -118 -10 -251 l-4 -241 64 0 63 0 3 88 3 87 60
3 c80 4 101 -15 110 -95 9 -82 12 -86 75 -86 l55 0 -4 69 c-3 75 -21 130 -48
149 -16 12 -14 16 15 49 27 32 32 44 32 90 0 60 -21 96 -73 123 -38 20 -330
33 -341 15z m265 -112 c22 -12 27 -68 7 -88 -7 -7 -42 -12 -85 -12 l-73 0 0
55 0 55 66 0 c36 0 74 -5 85 -10z"/>
<path d="M1587 6613 c-4 -3 -7 -42 -7 -85 0 -43 -3 -78 -7 -78 -3 0 -15 8 -26
18 -14 12 -36 17 -77 17 -52 0 -63 -4 -90 -30 -42 -40 -60 -86 -60 -152 0 -73
32 -147 76 -174 47 -29 116 -29 154 0 23 16 30 18 30 7 0 -17 98 -27 109 -11
4 6 6 26 5 45 -1 19 -2 128 -3 243 l-1 207 -48 0 c-27 0 -52 -3 -55 -7z m-32
-233 c23 -25 31 -101 15 -140 -21 -51 -96 -54 -118 -5 -19 42 -15 109 9 139
25 32 68 35 94 6z"/>
<path d="M2160 6535 c0 -47 -3 -85 -7 -85 -3 0 -15 8 -26 18 -14 12 -36 17
-79 17 -56 0 -62 -2 -93 -37 -76 -82 -73 -222 5 -300 27 -28 47 -38 71 -40 56
-2 73 1 102 22 22 17 27 18 27 5 0 -15 9 -17 70 -17 17 0 35 1 40 1 7 1 9 86
8 249 l-3 247 -57 3 -58 3 0 -86z m-21 -161 c15 -18 21 -41 21 -73 0 -59 -18
-93 -54 -102 -24 -7 -33 -3 -57 21 -24 24 -29 37 -29 80 0 41 5 56 25 75 32
33 68 32 94 -1z"/>
<path d="M5197 6614 c-4 -4 -7 -43 -7 -86 0 -43 -3 -78 -7 -78 -3 0 -15 7 -25
16 -10 10 -39 19 -65 21 -95 9 -158 -67 -158 -187 1 -78 30 -141 78 -170 43
-27 116 -27 150 0 30 24 37 25 37 6 0 -17 100 -27 106 -11 3 6 3 118 2 250
l-3 240 -50 3 c-28 2 -54 0 -58 -4z m-37 -224 c39 -21 47 -133 12 -172 -20
-24 -74 -23 -96 1 -9 10 -19 35 -23 54 -14 89 43 151 107 117z"/>
<path d="M6000 6535 c0 -47 -3 -85 -7 -85 -3 0 -15 7 -25 16 -10 10 -39 19
-65 21 -85 8 -149 -56 -160 -159 -7 -75 11 -135 57 -180 49 -49 119 -56 173
-17 22 16 27 17 27 4 0 -16 1 -17 60 -17 22 0 45 1 50 1 7 1 9 86 8 249 l-3
247 -57 3 -58 3 0 -86z m-21 -161 c15 -19 21 -41 21 -79 0 -63 -22 -97 -64
-97 -43 0 -69 32 -74 96 -4 48 -2 57 21 80 34 34 70 33 96 0z"/>
<path d="M1024 6471 c-49 -22 -93 -76 -105 -128 -11 -48 5 -133 32 -168 68
-85 224 -93 302 -14 22 21 37 44 35 51 -8 23 -76 21 -115 -3 -47 -29 -91 -27
-120 7 -45 50 -36 54 113 54 l137 0 -7 46 c-14 107 -74 165 -174 171 -41 3
-69 -2 -98 -16z"/>
<path d="M2454 6480 c-155 -36 -184 -275 -43 -348 54 -27 138 -31 192 -9 43
18 87 62 87 87 0 26 -80 26 -113 0 -50 -40 -137 -14 -137 40 0 19 7 20 130 20
l130 0 0 38 c-1 126 -113 204 -246 172z"/>
<path d="M2974 6479 c-69 -20 -104 -92 -73 -151 13 -24 77 -53 136 -63 24 -4
53 -15 65 -26 l23 -19 -24 -20 c-37 -31 -86 -24 -101 14 -7 19 -16 22 -61 21
-51 0 -54 -1 -51 -25 7 -64 66 -100 165 -100 76 0 111 11 150 48 22 21 27 34
27 73 0 63 -33 92 -124 109 -75 14 -102 30 -93 54 10 25 83 22 97 -4 8 -16 21
-20 60 -20 54 0 60 8 38 54 -24 54 -143 82 -234 55z"/>
<path d="M3365 6471 c-149 -67 -149 -294 0 -351 44 -17 138 -13 182 7 38 18
87 78 77 94 -3 5 -27 9 -53 9 -35 0 -53 -5 -66 -20 -28 -31 -88 -27 -114 6
-40 51 -33 54 109 54 l130 0 0 48 c0 128 -141 210 -265 153z"/>
<path d="M3740 6472 c-86 -43 -116 -178 -60 -270 40 -66 123 -90 185 -53 45
26 45 26 45 -4 0 -38 -20 -73 -46 -79 -26 -7 -74 9 -74 24 0 6 -26 10 -60 10
-51 0 -60 -3 -60 -17 1 -52 73 -93 164 -93 94 0 154 30 177 87 4 12 9 107 9
210 l2 188 -56 3 c-45 2 -56 0 -56 -13 0 -20 -7 -19 -37 5 -32 25 -86 26 -133
2z m145 -97 c50 -49 18 -155 -45 -155 -36 0 -70 44 -70 90 0 46 34 90 70 90
12 0 32 -11 45 -25z"/>
<path d="M4686 6480 c-16 -5 -39 -19 -52 -31 l-24 -22 0 26 c0 26 -2 27 -55
27 l-55 0 2 -181 3 -182 48 1 c26 0 52 1 57 1 6 1 10 45 10 110 0 106 1 110
26 130 17 13 41 21 66 21 l39 0 -3 52 c-3 57 -11 63 -62 48z"/>
<path d="M5459 6480 c-44 -13 -77 -40 -88 -72 -6 -17 -11 -33 -11 -34 0 -2 24
-4 53 -4 41 0 58 5 72 20 36 40 125 14 98 -28 -6 -11 -36 -21 -81 -29 -120
-20 -152 -46 -152 -123 0 -33 6 -48 29 -71 26 -25 37 -29 88 -29 32 0 71 7 87
15 20 11 33 12 40 5 5 -5 34 -10 62 -10 l53 0 -4 147 c-4 165 -12 186 -76 209
-38 14 -130 16 -170 4z"/>
<path d="M4080 6334 c0 -162 9 -193 62 -215 43 -18 108 -13 139 10 34 25 39
26 39 6 0 -12 13 -15 60 -15 l60 0 -2 178 -3 177 -57 3 -58 3 0 -116 c0 -110
-1 -117 -25 -140 -27 -28 -52 -31 -81 -11 -17 13 -19 29 -22 140 l-4 126 -54
0 -54 0 0 -146z"/>
<path d="M4777 6473 c-7 -7 -10 -347 -3 -354 2 -2 29 -2 60 -1 l56 4 0 179 0
179 -53 0 c-30 0 -57 -3 -60 -7z"/>
<path d="M4244 5925 c-3 -14 -4 -46 -2 -70 7 -54 1 -61 -28 -34 -27 26 -94 28
-130 4 -33 -21 -54 -72 -54 -130 0 -77 40 -131 102 -141 36 -6 98 17 98 36 0
6 5 10 10 10 6 0 10 -9 10 -21 0 -12 5 -19 13 -16 17 5 18 378 0 384 -7 3 -15
-7 -19 -22z m-30 -135 c15 -14 21 -37 24 -84 4 -62 3 -67 -26 -96 -49 -49
-112 -37 -138 25 -27 65 -7 156 38 175 31 13 79 4 102 -20z"/>
<path d="M530 5839 c-13 -6 -33 -17 -42 -26 -17 -15 -18 -14 -18 6 0 14 -5 21
-12 19 -10 -4 -14 -53 -16 -191 -2 -162 0 -187 13 -187 12 0 15 14 15 70 0 72
6 84 27 50 18 -28 78 -36 119 -17 43 21 63 53 71 114 6 56 -21 134 -54 151
-31 17 -77 21 -103 11z m90 -46 c41 -37 51 -111 22 -163 -51 -93 -165 -46
-166 68 -2 106 75 157 144 95z"/>
<path d="M793 5839 c-34 -10 -63 -42 -63 -71 0 -27 18 -21 35 12 30 58 135 46
135 -15 0 -29 -21 -41 -92 -50 -63 -8 -92 -33 -92 -78 0 -44 26 -75 70 -83 40
-7 69 1 93 28 l19 20 11 -21 c7 -12 21 -21 31 -21 23 0 27 25 5 34 -12 4 -15
26 -15 106 0 87 -3 103 -20 120 -11 11 -29 20 -39 20 -11 0 -25 2 -33 4 -7 2
-27 0 -45 -5z"/>
<path d="M1206 5839 c-39 -11 -66 -38 -66 -66 0 -31 16 -29 32 4 28 58 129 50
136 -9 4 -32 -15 -43 -90 -53 -64 -8 -92 -32 -92 -80 0 -43 39 -85 79 -85 33
0 76 18 90 37 11 15 13 15 24 -5 13 -24 51 -30 51 -8 0 8 -5 16 -12 18 -7 3
-13 39 -15 101 -3 103 -12 133 -40 140 -45 13 -70 14 -97 6z"/>
<path d="M1669 5843 c-30 -5 -66 -39 -71 -68 -4 -28 20 -25 35 5 27 55 128 46
135 -12 4 -32 -15 -43 -92 -53 -92 -12 -124 -79 -66 -137 27 -27 36 -30 71
-25 23 3 51 15 63 26 21 20 22 20 34 1 14 -23 52 -27 52 -5 0 8 -7 15 -15 15
-12 0 -15 18 -15 103 0 95 -2 105 -22 124 -24 22 -66 32 -109 26z"/>
<path d="M1920 5842 c-36 -5 -70 -41 -70 -73 0 -39 30 -63 100 -82 60 -17 85
-41 74 -70 -7 -18 -47 -37 -80 -37 -25 0 -74 40 -74 60 0 5 -7 10 -16 10 -13
0 -15 -6 -10 -27 18 -75 133 -97 192 -38 49 49 23 106 -58 125 -29 7 -63 19
-76 27 -30 19 -26 53 10 72 33 19 78 6 93 -27 8 -19 45 -32 45 -17 0 23 -35
66 -58 71 -15 3 -31 7 -37 8 -5 1 -21 0 -35 -2z"/>
<path d="M2603 5840 c-63 -15 -93 -61 -93 -142 0 -94 64 -159 143 -144 39 7
87 55 87 87 0 29 -16 23 -38 -16 -52 -87 -162 -39 -162 70 0 48 16 81 51 108
36 26 85 15 108 -24 18 -33 41 -38 41 -10 0 21 -46 71 -66 71 -7 0 -18 2 -26
4 -7 2 -28 0 -45 -4z"/>
<path d="M3090 5839 c-13 -6 -33 -17 -42 -26 -17 -15 -18 -15 -18 5 0 12 -4
22 -10 22 -12 0 -11 9 -12 -150 -1 -108 1 -125 16 -128 14 -3 16 9 16 92 0
111 10 143 47 157 70 26 97 -23 91 -165 -2 -67 0 -81 12 -81 12 0 15 18 17 90
4 114 8 131 38 151 32 21 81 11 92 -19 4 -12 7 -67 8 -122 0 -82 3 -100 15
-100 12 0 15 20 15 117 0 107 -2 119 -22 139 -29 30 -97 30 -126 1 -21 -21
-21 -21 -42 -3 -26 25 -64 33 -95 20z"/>
<path d="M3493 5839 c-34 -10 -63 -42 -63 -71 0 -27 18 -21 35 12 30 57 135
46 135 -15 0 -29 -26 -45 -72 -45 -79 0 -133 -59 -108 -119 25 -61 125 -68
166 -13 10 14 13 13 23 -6 6 -12 21 -22 31 -22 23 0 27 25 5 34 -12 4 -15 26
-15 106 0 87 -3 103 -20 120 -11 11 -29 20 -39 20 -11 0 -25 2 -33 4 -7 2 -27
0 -45 -5z"/>
<path d="M3733 5835 c-53 -23 -70 -78 -34 -114 10 -10 43 -24 72 -31 85 -20
109 -50 69 -90 -37 -37 -112 -22 -130 26 -5 13 -16 24 -25 24 -19 0 -19 -4 1
-45 26 -55 102 -71 161 -35 66 40 52 115 -27 138 -103 31 -120 45 -100 82 22
40 99 37 118 -5 11 -25 42 -35 42 -14 0 24 -24 52 -55 65 -42 17 -51 17 -92
-1z"/>
<path d="M4855 5841 c-42 -13 -75 -48 -75 -80 0 -21 27 -11 38 14 21 45 88 59
122 25 45 -45 20 -73 -74 -85 -85 -11 -123 -79 -77 -136 28 -35 109 -34 145 0
20 19 26 21 26 9 0 -16 20 -28 46 -28 8 0 14 7 14 15 0 8 -7 15 -15 15 -12 0
-15 18 -15 100 0 94 -2 103 -25 125 -13 14 -33 25 -44 25 -11 0 -25 2 -33 4
-7 2 -22 1 -33 -3z"/>
<path d="M5715 5843 c-31 -6 -62 -35 -69 -64 -8 -37 24 -75 71 -84 69 -13 103
-32 103 -58 0 -33 -30 -57 -71 -57 -37 0 -79 29 -79 55 0 8 -7 15 -15 15 -21
0 -19 -33 5 -63 36 -45 130 -48 170 -4 26 27 26 79 1 101 -10 10 -42 23 -71
31 -28 7 -58 19 -66 25 -40 34 12 90 69 74 18 -5 36 -19 42 -32 12 -27 35 -29
35 -4 0 39 -69 75 -125 65z"/>
<path d="M6035 5843 c-35 -9 -65 -44 -65 -79 0 -40 12 -49 96 -77 57 -18 70
-26 72 -45 5 -33 -25 -62 -63 -62 -35 0 -85 33 -85 56 0 8 -7 14 -15 14 -35 0
-4 -65 42 -89 53 -27 141 3 154 52 15 56 -12 84 -103 107 -75 19 -90 59 -36
89 33 19 78 6 93 -27 8 -19 45 -32 45 -17 0 18 -32 64 -47 68 -39 11 -69 14
-88 10z"/>
<path d="M2180 5832 c0 -5 6 -25 14 -43 7 -19 30 -78 50 -131 52 -135 60 -133
119 32 51 140 54 154 35 148 -7 -3 -31 -55 -54 -116 -22 -61 -42 -114 -45
-117 -3 -2 -23 48 -45 113 -28 83 -44 118 -57 120 -9 2 -17 -1 -17 -6z"/>
<path d="M4364 5822 c-70 -56 -66 -201 6 -250 49 -34 113 -26 152 17 31 34 36
61 13 61 -8 0 -15 -4 -15 -9 0 -4 -12 -20 -26 -35 -26 -25 -64 -33 -99 -20
-19 8 -45 55 -45 84 0 19 6 20 100 20 l100 0 0 31 c0 34 -13 64 -43 97 -26 28
-110 31 -143 4z"/>
<path d="M5191 5814 c-113 -95 -11 -308 120 -253 30 12 69 61 69 87 0 20 -28
14 -35 -8 -20 -62 -89 -78 -136 -31 -25 25 -29 37 -29 83 0 29 6 64 13 78 29
58 115 63 143 9 16 -32 41 -34 36 -3 -10 64 -123 87 -181 38z"/>
<path d="M417 4626 c-10 -27 -8 -126 2 -126 6 0 13 5 16 10 9 15 88 12 111 -4
20 -15 24 -71 14 -175 l-5 -44 64 -23 c67 -24 89 -39 78 -51 -4 -3 -25 3 -46
15 -21 12 -50 22 -64 22 -22 0 -27 -6 -32 -33 -4 -18 -5 -44 -4 -57 5 -59 0
-70 -28 -69 -16 1 -43 -1 -60 -5 -32 -7 -33 -6 -33 23 0 16 -4 32 -9 36 -6 3
-10 -34 -10 -90 -1 -86 1 -95 18 -95 12 0 20 9 24 29 7 35 19 40 83 34 46 -5
52 -8 62 -37 7 -18 12 -48 12 -68 0 -23 6 -38 15 -42 23 -8 18 -25 -10 -36
-14 -5 -25 -14 -25 -20 0 -5 -7 -10 -15 -10 -9 0 -15 -9 -15 -24 0 -32 -20
-44 -27 -18 -3 11 -18 26 -34 32 -16 7 -33 19 -38 27 -6 12 -13 13 -27 5 -16
-9 -19 -24 -22 -106 l-3 -95 30 -16 c32 -16 52 -5 32 18 -12 16 -3 57 13 57 6
0 16 -11 23 -25 6 -14 7 -23 3 -20 -13 8 -20 -9 -9 -25 8 -13 11 -12 20 3 5 9
16 17 23 17 23 0 13 -55 -20 -106 -18 -27 -35 -68 -39 -92 -9 -57 3 -145 20
-138 7 2 -1 -30 -21 -82 -19 -47 -34 -91 -34 -98 0 -7 -5 -16 -12 -20 -8 -5
-9 0 -5 15 3 14 1 21 -6 18 -7 -2 -13 -25 -14 -51 -2 -40 1 -49 17 -53 11 -3
20 -11 20 -18 0 -19 48 -47 73 -43 17 2 21 10 23 41 0 22 6 42 13 47 10 5 9 9
-3 13 -17 7 -36 66 -36 115 0 47 39 112 68 112 25 0 30 -18 7 -26 -8 -4 -15
-15 -15 -26 0 -19 2 -19 36 7 19 15 37 25 38 24 2 -2 10 -19 20 -38 22 -46 12
-94 -26 -126 -20 -17 -24 -25 -14 -25 23 0 20 -19 -4 -28 -17 -6 -18 -10 -7
-32 7 -14 22 -26 34 -28 12 -2 27 -10 33 -18 18 -21 43 -17 63 11 19 26 9 40
-27 40 -11 0 -21 6 -24 14 -3 10 2 11 18 6 21 -7 22 -5 16 21 -4 16 -11 59
-16 96 -5 37 -16 83 -26 103 -9 20 -14 39 -10 42 3 3 6 -1 6 -11 0 -11 6 -16
18 -14 9 2 17 9 16 16 -1 6 -2 26 -3 44 -1 28 -2 30 -14 14 -13 -18 -53 -23
-103 -12 -22 5 -34 3 -44 -9 -19 -23 -31 -18 -24 9 3 13 1 27 -5 30 -5 4 -13
27 -17 52 -6 45 -5 47 41 94 45 46 47 50 37 79 -8 22 -8 31 0 31 5 0 23 11 40
25 41 35 86 33 122 -4 29 -30 29 -38 10 -103 -3 -11 5 -22 26 -34 17 -11 30
-27 30 -39 1 -17 4 -16 30 13 33 36 69 42 77 13 3 -11 11 -22 18 -25 7 -2 20
-19 29 -36 14 -29 14 -35 1 -53 -19 -27 -19 -37 -2 -37 8 0 22 -9 32 -20 10
-11 26 -20 35 -20 13 0 17 -8 16 -36 -1 -25 4 -38 14 -41 13 -4 13 -3 0 6 -12
9 -10 10 10 8 14 -2 39 2 56 9 17 7 34 11 37 7 4 -3 18 2 31 11 14 8 31 13 39
10 8 -3 20 2 27 11 10 11 10 15 0 15 -7 0 -25 11 -42 25 -16 14 -40 25 -54 25
-28 0 -30 15 -9 57 22 43 61 58 115 42 54 -16 77 -47 86 -115 9 -73 -15 -137
-57 -156 -24 -11 -29 -19 -29 -48 0 -25 -10 -50 -31 -78 -20 -27 -29 -50 -26
-62 8 -32 -11 -33 -40 -4 -25 25 -26 28 -8 34 14 5 16 8 5 15 -15 9 -49 -30
-50 -57 0 -25 -70 -100 -87 -94 -7 3 -13 1 -13 -4 0 -6 7 -10 17 -10 14 0 14
-2 -2 -20 -25 -28 -38 -25 -32 8 4 21 1 31 -14 40 -11 7 -19 8 -19 2 0 -19
-19 -10 -26 13 -8 24 -7 85 2 99 4 5 16 0 28 -11 28 -27 83 -25 118 4 15 13
32 25 38 27 6 2 13 20 17 41 4 28 1 42 -12 57 -10 11 -14 20 -10 20 5 0 -3 13
-18 28 -15 16 -24 32 -20 36 5 5 -9 1 -31 -8 -21 -9 -51 -16 -65 -16 -57 0
-95 -71 -74 -133 13 -37 12 -43 -5 -66 -21 -28 -43 -41 -112 -65 -47 -17 -56
-29 -95 -136 -10 -25 -23 -59 -31 -77 -8 -17 -14 -37 -14 -45 0 -7 -7 -26 -15
-42 -17 -32 -15 -107 4 -129 6 -8 31 -27 56 -43 26 -16 45 -36 45 -46 0 -20
-30 -25 -30 -5 0 13 -91 75 -117 79 -14 3 -17 -8 -18 -59 -1 -61 -21 -106 -35
-83 -4 7 -14 -6 -24 -30 -9 -24 -20 -40 -23 -36 -7 7 16 85 29 100 4 6 8 18 8
28 0 10 4 18 9 18 14 0 19 59 6 70 -9 8 -19 -12 -39 -77 -38 -123 -63 -210
-77 -265 -8 -33 -15 -45 -25 -41 -10 4 -14 -4 -14 -31 0 -32 3 -36 26 -36 15
0 23 -4 19 -10 -4 -6 -15 -8 -26 -5 -19 6 -19 -5 -19 -487 l0 -494 35 -13 c20
-7 35 -19 36 -29 5 -76 12 -93 31 -74 9 9 9 15 1 23 -9 9 -8 18 4 35 16 25 14
46 -8 101 -14 33 -5 59 11 33 7 -12 12 -12 21 -3 10 10 16 9 30 -3 16 -14 18
-13 24 15 4 20 1 38 -11 57 -30 45 -21 162 16 215 24 32 24 32 38 11 8 -12 21
-22 28 -22 8 0 14 -6 14 -13 0 -8 9 -22 20 -32 11 -10 20 -24 20 -30 0 -7 9
-15 20 -18 38 -10 18 -126 -26 -150 -20 -12 -17 -24 9 -32 32 -11 79 -5 92 11
8 12 20 9 70 -15 33 -15 69 -38 79 -50 23 -25 36 -27 36 -4 0 15 2 15 14 3 24
-27 46 -98 40 -130 -4 -20 -2 -37 8 -48 31 -38 41 -71 34 -114 -4 -24 -7 -51
-7 -60 0 -10 -4 -20 -10 -23 -18 -12 -9 -44 13 -47 37 -5 32 -26 -6 -25 -22 1
-36 6 -36 14 0 7 -4 13 -8 13 -5 0 -7 -46 -5 -102 3 -57 4 -120 3 -141 -1 -31
3 -39 25 -47 39 -15 85 -1 96 29 5 14 14 35 20 47 8 15 8 32 0 60 -7 25 -7 42
-1 48 7 7 10 4 10 -7 0 -20 16 -23 23 -4 3 9 8 9 16 1 14 -13 63 -6 55 8 -4 6
0 14 7 19 19 12 29 11 29 -2 0 -16 -42 -110 -47 -105 -3 2 0 13 5 23 14 25 4
38 -32 40 -27 2 -28 2 -11 -18 10 -10 15 -22 11 -26 -4 -4 -15 3 -25 16 -12
16 -20 20 -25 12 -4 -6 0 -14 9 -17 13 -5 13 -9 3 -22 -11 -13 -9 -15 14 -10
15 3 25 1 22 -3 -3 -5 5 -9 16 -9 19 0 21 -4 16 -27 -4 -16 -16 -36 -27 -45
-23 -20 -54 -103 -63 -174 -11 -79 -8 -77 -142 -70 -66 3 -126 6 -134 5 -8 0
-61 -1 -118 -3 -56 -2 -105 0 -107 4 -3 5 4 29 15 55 11 26 21 59 22 74 1 14
7 34 14 45 10 15 10 25 -1 50 -7 17 -18 58 -25 91 -6 33 -15 74 -20 92 -9 36
-5 43 22 43 10 0 18 5 18 10 0 6 -12 10 -27 10 -24 0 -31 8 -52 58 -14 31 -30
64 -38 73 -17 20 -17 29 1 29 7 0 19 7 26 15 8 9 25 14 44 12 18 -2 41 0 51 4
15 6 9 8 -20 8 -22 1 -50 8 -62 16 -18 13 -22 13 -33 0 -6 -8 -8 -19 -4 -26 4
-7 2 -10 -7 -7 -8 3 -13 10 -12 17 3 10 -78 92 -97 99 -4 2 -14 -18 -21 -44
-9 -29 -25 -55 -42 -67 l-27 -21 0 -388 0 -388 1735 0 c1644 0 1734 1 1728 18
-3 9 -10 22 -15 29 -5 7 -8 29 -7 50 4 47 -7 66 -31 58 -13 -4 -24 2 -37 22
l-18 27 -5 -34 -5 -35 -115 0 c-156 0 -208 10 -220 40 -5 13 -18 29 -30 35
-23 12 -28 69 -10 116 11 28 -1 55 -24 53 -7 0 -6 -2 2 -6 14 -5 16 -23 3 -23
-5 0 -14 14 -20 30 -9 27 -8 29 8 21 32 -17 161 -43 179 -36 67 28 143 21 191
-16 21 -17 37 -20 91 -17 l65 3 0 -45 c0 -48 -2 -50 -79 -65 -34 -7 -32 -10
12 -18 23 -5 31 -3 26 5 -4 6 -3 8 3 5 16 -10 45 -105 43 -141 -1 -17 1 -41 5
-54 l7 -22 370 0 369 0 -3 171 -3 171 -48 26 c-41 21 -47 28 -42 46 14 45 66
367 75 466 11 119 12 209 11 758 l-1 392 -25 -16 c-14 -9 -25 -22 -25 -29 0
-7 -5 -15 -11 -17 -18 -6 -1 -43 26 -58 36 -19 31 -25 -19 -25 -24 0 -47 -3
-50 -6 -4 -3 1 -43 10 -89 16 -87 14 -104 -12 -78 -11 11 -17 39 -19 91 -2 41
-5 79 -8 84 -3 5 3 17 14 26 10 9 19 25 19 36 0 10 7 21 15 25 18 7 20 67 4
99 -7 11 -13 40 -15 63 l-2 42 34 -5 c22 -4 34 -2 34 6 0 10 -16 13 -85 15
-27 1 -30 4 -30 36 -1 19 -4 51 -9 72 -6 30 -4 42 14 66 31 41 70 59 86 38 6
-9 21 -16 32 -16 20 0 21 5 24 157 2 125 0 159 -11 171 -12 11 -12 18 -3 33
12 19 18 238 6 227 -7 -8 -12 -35 -13 -72 -2 -51 -23 -14 -33 55 -10 75 -26
111 -55 124 -22 9 -43 50 -43 84 -1 17 -67 54 -82 45 -4 -3 -8 -15 -8 -27 0
-12 -12 -31 -26 -42 -38 -30 -26 -63 22 -63 19 0 42 -6 51 -13 9 -8 26 -14 37
-14 12 0 22 -8 24 -18 3 -15 0 -18 -16 -13 -13 4 -22 1 -26 -9 -3 -8 -16 -15
-28 -15 -19 0 -20 2 -8 10 14 9 12 11 -20 14 -8 0 -16 11 -18 24 -6 38 -44 28
-64 -17 -10 -20 -18 -43 -18 -49 0 -7 -5 -21 -12 -32 -10 -16 -8 -27 12 -66
27 -56 38 -137 20 -159 -10 -12 -7 -15 17 -20 58 -12 76 -21 94 -45 23 -30 31
-110 17 -151 -7 -22 -7 -34 0 -41 16 -16 -62 -78 -96 -78 -15 0 -38 11 -52 23
-24 21 -72 126 -72 157 0 34 14 105 22 115 6 7 5 16 -2 23 -9 9 -8 18 1 38 10
22 9 29 -1 35 -7 4 -9 11 -6 15 4 4 3 15 -3 26 -7 14 -6 22 6 34 20 20 15 39
-11 40 -52 3 -58 4 -49 13 6 5 21 11 35 13 19 2 26 12 35 44 7 29 14 40 25 37
10 -3 8 1 -4 11 -23 18 -33 12 -38 -24 -3 -18 -8 -10 -18 33 -8 36 -20 62 -32
68 -18 10 -27 69 -10 69 15 0 32 -24 32 -47 0 -13 5 -23 11 -23 5 0 7 5 4 10
-3 6 1 13 10 16 9 4 14 12 11 19 -3 8 2 11 14 8 27 -7 89 16 100 37 15 28 12
126 -3 139 -8 6 -17 8 -20 4 -4 -3 -7 -1 -7 5 0 7 -9 12 -19 12 -26 0 -34 15
-18 29 10 8 24 6 53 -8 48 -23 71 -48 76 -81 2 -21 10 -26 43 -30 29 -4 35 -7
23 -12 -26 -11 -22 -28 7 -28 14 0 25 4 25 9 0 5 2 16 6 24 3 10 -4 16 -26 20
-49 10 -66 83 -32 141 22 37 36 38 40 3 3 -21 8 -27 19 -23 23 9 62 -4 68 -24
6 -18 -10 -71 -24 -80 -13 -8 -22 -60 -11 -60 5 0 10 6 10 14 0 22 17 28 40
16 20 -10 20 -8 22 127 1 76 1 152 1 168 -3 167 -6 236 -10 218 -6 -28 -49
-56 -79 -50 -25 4 -28 0 -18 -27 8 -21 24 -21 24 0 0 13 3 14 15 4 11 -9 12
-17 3 -33 -6 -12 -12 -30 -13 -42 -1 -11 -3 -24 -4 -28 0 -5 -6 -7 -13 -5 -10
4 -21 33 -51 146 -12 43 -23 53 -33 27 -4 -8 -13 -15 -21 -15 -11 0 -13 11
-11 48 l3 47 43 3 c24 2 49 -2 57 -8 18 -15 94 -17 103 -3 4 6 6 40 4 76 -3
54 -7 66 -23 70 -12 3 -19 14 -19 29 0 33 -15 52 -35 44 -13 -5 -16 -15 -13
-41 3 -28 1 -35 -13 -35 -10 0 -21 -4 -24 -10 -23 -37 -28 18 -10 98 7 29 11
32 46 32 22 0 39 5 39 10 0 6 -17 10 -39 10 -43 0 -41 -4 -56 135 -7 60 -8 61
-56 87 -26 15 -55 25 -64 22 -9 -4 -15 -1 -15 7 0 11 -2 11 -10 -1 -11 -18
-25 -6 -16 16 3 9 12 14 21 10 19 -7 41 30 22 38 -6 3 0 3 16 0 30 -7 31 -5
28 66 -3 55 -28 80 -81 80 -28 0 -46 8 -70 30 -32 30 -74 41 -98 26 -22 -13
-2 -26 43 -26 52 0 61 -15 34 -60 -19 -31 -23 -32 -67 -27 -33 3 -62 -1 -97
-14 -27 -10 -58 -19 -68 -19 -10 0 -22 -12 -28 -27 -6 -16 -21 -50 -34 -78
-12 -27 -28 -63 -34 -79 -11 -27 -13 -28 -31 -11 -14 12 -28 15 -52 10 -61
-12 -77 -25 -84 -70 -5 -36 -2 -46 20 -70 l26 -28 0 27 c0 21 5 26 24 26 17 0
27 7 32 23 8 21 8 21 13 -7 7 -35 26 -45 33 -18 4 15 12 19 32 15 15 -3 26 -1
26 6 0 6 11 11 24 11 32 0 70 -62 62 -101 -6 -32 17 -42 77 -32 l38 6 -3 -34
c-4 -43 -34 -50 -79 -19 -24 18 -38 21 -72 16 -22 -4 -47 -12 -54 -18 -7 -5
-20 -8 -29 -4 -12 4 -14 1 -10 -14 3 -11 9 -29 12 -40 4 -16 1 -20 -18 -20
-13 0 -30 6 -39 13 -16 13 -23 87 -8 87 5 0 9 7 9 15 0 8 -8 15 -19 15 -10 0
-24 7 -31 15 -16 19 -30 19 -30 1 0 -8 -21 -22 -46 -32 -25 -10 -53 -28 -61
-41 -11 -16 -19 -21 -26 -14 -6 6 -4 15 7 27 16 15 16 18 -3 36 -12 10 -21 25
-21 33 0 7 -11 26 -24 42 -24 29 -27 50 -31 228 -2 89 -3 92 -27 116 -24 22
-94 69 -104 69 -3 0 -4 -19 -3 -42 3 -40 1 -43 -20 -40 -20 2 -22 0 -11 -13
19 -23 7 -28 -16 -7 -11 10 -24 17 -30 15 -14 -5 -41 36 -46 68 -4 31 -64 65
-100 56 -62 -16 -77 -53 -63 -147 6 -40 -9 -76 -43 -98 l-24 -16 7 45 c5 35 3
48 -9 58 -11 9 -14 22 -9 39 4 17 2 23 -5 18 -13 -8 -32 24 -32 52 0 10 -6 19
-12 19 -7 0 -20 4 -29 7 -10 5 -19 -1 -27 -18 -11 -25 -56 -45 -69 -32 -4 3
-12 22 -19 41 l-12 35 41 -7 c32 -5 38 -3 32 7 -6 10 -4 12 7 7 15 -5 38 9 38
24 0 3 -33 7 -72 8 -69 1 -74 0 -101 -29 -16 -16 -41 -33 -55 -36 -45 -9 -54
-18 -91 -88 -35 -66 -35 -69 -16 -80 10 -6 39 -29 63 -52 l44 -40 -16 -32 c-9
-18 -20 -32 -25 -32 -10 0 -33 28 -51 63 -17 34 -26 34 -44 -2 -10 -19 -12
-38 -7 -57 l8 -29 7 29 7 29 27 -27 c15 -15 40 -37 56 -49 17 -14 27 -30 25
-42 -4 -17 -5 -17 -21 -2 -9 9 -26 29 -37 43 -20 25 -22 26 -39 10 -21 -18
-39 -21 -44 -6 -2 6 -30 14 -63 18 -36 5 -59 13 -58 19 2 7 -4 28 -12 48 -14
32 -14 36 0 41 8 4 15 14 15 25 0 43 78 53 109 12 12 -14 24 -24 27 -21 12 13
-17 87 -41 102 -17 11 -25 26 -25 44 0 29 -38 73 -72 85 -10 4 -18 15 -18 26
0 29 -22 32 -210 28 -116 -2 -171 -7 -186 -16 -14 -9 -24 -33 -33 -75 -6 -33
-16 -76 -22 -94 -6 -17 -8 -40 -5 -50 5 -16 -9 -51 -17 -42 -2 3 -14 33 -26
67 -13 34 -29 67 -37 74 -13 11 -23 48 -27 104 l-2 30 -80 0 c-68 0 -80 -2
-80 -17 0 -28 -12 -30 -29 -3 -16 24 -20 25 -110 23 l-94 -2 -4 -74 c-3 -57
-7 -76 -21 -83 -9 -6 -17 -21 -17 -34 0 -35 -23 -31 -41 8 -26 55 -54 102 -61
105 -15 7 -8 20 13 25 15 4 20 12 17 29 -3 21 -9 23 -60 26 -88 5 -120 -7
-143 -53 -10 -22 -20 -60 -22 -85 -1 -25 -2 -49 -2 -54 -1 -4 -8 -6 -16 -2
-11 4 -15 -2 -15 -22 0 -19 3 -23 9 -14 4 8 19 19 32 26 16 8 26 23 29 45 l5
34 60 1 c45 1 60 -2 60 -13 0 -8 -9 -19 -20 -25 -74 -40 -85 -51 -85 -86 0
-25 6 -39 21 -48 15 -10 18 -17 11 -24 -8 -8 -15 -8 -24 -1 -18 15 -100 12
-116 -4 -23 -23 -50 -14 -91 29 -34 35 -38 43 -25 52 12 9 13 17 5 39 -6 16
-8 39 -5 53 6 25 40 50 61 46 6 -1 14 2 18 8 11 18 31 11 43 -15 6 -14 16 -25
22 -25 6 0 1 18 -10 40 -11 22 -27 40 -35 40 -8 0 -15 5 -15 10 0 6 -17 10
-38 10 -38 0 -72 -23 -72 -48 0 -20 -25 -14 -48 11 -29 31 -28 42 9 60 30 14
24 15 -106 15 -125 1 -136 -1 -129 -16 4 -9 8 -29 9 -44 1 -15 6 -33 12 -40
21 -28 20 -46 -6 -94 -28 -50 -69 -76 -56 -35 5 15 3 19 -7 16 -8 -3 -27 6
-42 20 -36 33 -32 65 12 84 17 8 32 19 32 25 0 5 9 20 21 32 l21 22 -23 13
c-13 6 -73 14 -134 17 -99 4 -113 3 -118 -12z m1367 -41 c23 -17 62 -20 71 -5
11 18 26 0 16 -18 -7 -12 -5 -22 6 -34 14 -15 14 -19 -1 -33 -9 -9 -16 -21
-16 -26 0 -13 18 -11 23 4 6 18 16 5 23 -31 5 -27 4 -31 -9 -26 -9 3 -13 12
-10 20 9 24 -13 15 -25 -10 -13 -29 -6 -37 24 -30 18 5 26 1 35 -19 16 -34 5
-61 -18 -49 -10 5 -24 7 -32 4 -9 -3 -11 1 -6 17 10 32 -17 27 -43 -9 -12 -16
-22 -35 -22 -41 0 -17 -30 -49 -47 -49 -8 0 -13 -12 -13 -31 0 -28 -3 -31 -22
-25 -13 3 -30 6 -38 7 -8 0 -4 4 10 8 27 7 35 35 10 37 -8 1 -25 2 -38 2 -22
2 -29 12 -47 70 -5 18 -3 25 13 29 11 2 24 15 30 28 14 31 77 43 103 19 18
-16 19 -16 19 3 0 10 -13 31 -28 46 -28 26 -29 27 -80 13 -29 -7 -52 -9 -52
-5 0 5 -11 9 -25 9 -30 0 -33 -15 -5 -30 16 -8 19 -17 14 -33 -3 -12 -8 -24
-10 -26 -8 -9 -34 25 -43 55 -7 24 -4 35 13 57 l22 27 21 -20 c18 -16 27 -18
48 -10 48 18 104 12 130 -15 14 -13 25 -33 25 -45 0 -11 5 -20 10 -20 13 0 13
67 0 75 -7 5 -8 11 -1 19 7 8 2 15 -19 24 -31 14 -64 57 -55 72 8 13 16 12 39
-5z m657 -6 c5 -8 9 -32 9 -54 0 -35 3 -41 23 -41 12 0 27 7 33 15 10 13 13
12 22 -6 10 -18 8 -23 -11 -35 -31 -21 -75 -30 -82 -18 -11 18 -25 11 -25 -14
0 -33 -20 -87 -30 -81 -5 3 -6 22 -3 43 6 37 6 37 -14 19 -20 -17 -21 -17 -42
19 -14 24 -20 46 -16 61 6 24 -9 33 -18 11 -3 -8 -6 -7 -6 4 -1 9 4 20 9 23 6
4 8 11 5 16 -4 5 1 9 9 9 8 0 23 10 32 23 14 18 26 23 57 21 22 -1 43 -8 48
-15z m875 -114 c7 -51 -13 -138 -30 -127 -21 13 -80 31 -86 26 -7 -8 31 -34
41 -28 5 3 9 1 9 -4 0 -5 -11 -14 -25 -20 -23 -11 -27 -9 -44 19 -17 28 -20
55 -12 122 1 5 15 6 31 2 18 -4 30 -3 30 3 0 6 14 9 31 7 19 -3 29 0 27 7 -5
14 -69 17 -87 4 -10 -8 -12 -6 -10 9 5 23 75 47 101 34 10 -6 19 -27 24 -54z
m-1176 -35 c0 -5 -5 -10 -12 -10 -9 0 -9 -3 0 -12 8 -8 15 -8 26 1 10 8 16 9
21 1 3 -5 17 -7 30 -4 22 6 23 4 21 -65 0 -39 -4 -71 -8 -71 -5 0 -8 5 -8 10
0 6 -13 4 -30 -5 -44 -23 -57 -19 -85 25 -31 49 -33 95 -5 103 11 3 20 12 20
21 0 9 7 16 15 16 8 0 15 -4 15 -10z m-1145 -108 c5 -12 15 -22 22 -22 15 0
17 -16 4 -24 -5 -4 -12 -24 -16 -46 -9 -52 -42 -95 -61 -79 -8 6 -14 9 -14 5
0 -12 -42 30 -56 56 -15 30 -19 88 -5 88 5 0 11 9 14 19 3 14 16 21 43 24 54
5 58 4 69 -21z m2378 12 c-4 -12 -2 -15 8 -12 8 3 13 11 12 17 -2 6 4 11 12
11 8 0 14 -5 13 -11 -2 -6 3 -14 11 -17 10 -3 12 0 8 12 -9 23 15 20 36 -4 19
-23 22 -46 7 -55 -17 -10 -11 -32 15 -56 28 -27 35 -51 8 -26 -16 14 -20 14
-42 -4 -43 -35 -101 -18 -101 30 0 34 -24 94 -33 84 -4 -3 -7 -1 -7 5 0 7 6
12 14 12 8 0 16 7 20 15 3 8 10 15 15 15 6 0 8 -7 4 -16z m-329 -29 c22 -9 44
-29 54 -47 9 -17 25 -39 35 -50 28 -29 22 -80 -13 -113 -18 -17 -30 -38 -28
-49 4 -24 28 -34 28 -12 0 45 119 41 130 -4 8 -35 30 -37 31 -3 2 43 -2 57
-17 66 -18 11 -18 27 1 27 8 0 15 4 15 8 0 9 53 42 68 42 14 0 52 -84 52 -115
0 -14 -9 -34 -20 -45 -11 -11 -20 -33 -20 -49 0 -29 -1 -29 -48 -27 -40 2 -51
-1 -66 -21 -18 -24 -18 -25 3 -47 12 -12 21 -28 21 -35 0 -7 -11 1 -25 16
l-24 28 -1 -27 c0 -16 -5 -28 -11 -28 -5 0 -15 -13 -20 -30 -6 -16 -15 -30
-20 -30 -13 0 -31 40 -25 55 2 7 -4 21 -15 31 -10 9 -19 28 -19 42 0 32 -21
102 -31 102 -4 0 -11 -9 -14 -20 -3 -11 -11 -20 -16 -20 -6 0 -7 6 -2 13 4 6
8 15 9 20 1 4 2 8 3 10 1 1 4 19 6 40 3 27 0 37 -10 37 -8 0 -17 -4 -20 -10
-14 -22 -60 -10 -87 22 -21 25 -28 29 -28 16 0 -10 -6 -18 -14 -18 -7 0 -16
-9 -19 -20 -3 -11 -11 -20 -17 -20 -8 0 -7 8 4 25 9 14 15 29 12 34 -6 9 17
92 36 131 13 27 68 90 79 90 3 0 23 -7 43 -15z m-1863 -105 c12 0 0 -119 -13
-135 -4 -5 -17 -22 -29 -37 -11 -16 -29 -28 -38 -28 -23 0 -71 47 -71 70 0 10
-7 31 -15 46 -8 16 -15 34 -15 40 0 17 43 32 71 24 18 -5 33 -2 50 11 13 10
30 16 37 14 8 -3 18 -5 23 -5z m1012 -182 c-1 -51 3 -57 22 -32 9 12 16 14 31
6 10 -5 31 -15 47 -21 15 -6 27 -17 27 -26 0 -8 6 -15 14 -15 13 0 46 -65 60
-120 4 -14 12 -34 17 -46 8 -16 6 -30 -10 -60 -12 -21 -21 -54 -21 -73 0 -28
-2 -32 -15 -21 -12 10 -16 9 -21 -4 -10 -25 -34 -19 -34 8 0 14 -4 28 -10 31
-5 3 -10 30 -10 59 0 75 -13 88 -94 92 -70 3 -82 -10 -18 -22 20 -4 46 -8 56
-10 28 -5 34 -14 41 -59 5 -34 4 -37 -7 -22 -7 10 -18 26 -24 34 -8 11 -17 14
-30 8 -10 -4 -25 -7 -32 -6 -8 1 -23 -5 -33 -15 -13 -12 -19 -13 -19 -4 0 10
-3 10 -16 -1 -14 -11 -16 -10 -13 6 2 11 0 25 -4 32 -4 6 -3 14 2 18 9 5 -21
45 -33 45 -2 0 -11 -19 -20 -42 -16 -47 -33 -308 -19 -308 4 0 23 9 41 20 38
23 42 24 42 8 0 -7 -14 -21 -32 -31 -18 -10 -28 -21 -22 -25 12 -9 17 -42 6
-42 -5 0 -15 11 -22 25 -12 23 -15 24 -29 10 -13 -13 -14 -19 -2 -37 11 -18
11 -20 -3 -15 -19 7 -39 -24 -30 -47 3 -9 1 -16 -5 -16 -6 0 -11 -5 -11 -11 0
-6 9 -8 22 -3 20 6 21 5 9 -10 -7 -9 -19 -16 -26 -16 -8 0 -19 -13 -26 -30
-12 -26 -15 -28 -30 -14 -11 10 -19 12 -24 5 -11 -19 -30 -12 -47 17 -21 37
-33 92 -19 92 6 0 11 -11 11 -23 0 -22 17 -44 47 -61 8 -4 11 7 11 39 0 31 -4
45 -13 45 -8 0 -17 9 -20 20 -7 21 -25 28 -25 10 0 -5 -7 -10 -15 -10 -16 0
-27 -32 -23 -70 4 -34 -55 -330 -65 -330 -5 0 -5 4 -2 10 8 13 -14 130 -30
155 -16 27 -35 106 -35 147 0 18 -7 42 -15 52 -17 23 -20 92 -5 101 6 4 17 2
25 -5 10 -8 15 -8 21 1 4 6 0 16 -10 21 -22 12 -20 25 5 39 17 9 25 8 37 -5
15 -14 14 -17 -2 -29 -18 -13 -18 -14 -1 -21 10 -3 24 -1 31 5 21 17 54 -15
46 -44 -5 -19 -4 -20 11 -8 9 7 21 29 27 49 8 29 6 41 -8 60 -40 57 -43 66
-22 76 27 12 25 26 -4 26 -17 0 -25 7 -28 25 -7 33 14 61 56 75 32 10 35 15
46 78 15 77 40 141 64 161 15 12 16 6 16 -68 0 -44 -3 -81 -7 -81 -5 0 -8 -31
-9 -68 0 -37 -4 -81 -7 -97 l-7 -30 15 25 c8 14 14 33 15 44 0 15 3 16 15 6
12 -10 15 -10 15 4 0 9 5 16 10 16 14 0 13 33 -2 48 -9 9 -8 12 5 12 22 0 22
16 0 28 -15 9 -14 15 7 80 21 64 22 74 10 99 -8 15 -16 31 -18 36 -6 12 43 8
56 -5 7 -7 12 -26 12 -43 0 -42 6 -46 41 -28 16 8 36 12 44 9 8 -3 19 3 25 13
8 17 4 19 -40 25 -53 7 -85 37 -78 73 4 24 62 50 107 49 l36 -1 -2 -47z m1898
-68 c20 11 31 0 35 -36 1 -12 15 -48 30 -79 22 -47 25 -62 15 -76 -6 -10 -11
-41 -11 -69 0 -44 3 -52 24 -60 24 -9 44 -45 32 -58 -4 -3 -21 5 -38 18 -31
23 -40 24 -134 18 -34 -2 -40 -6 -36 -20 2 -10 -1 -18 -7 -18 -6 0 -11 7 -11
15 0 8 -5 15 -12 15 -17 0 -48 31 -48 48 0 26 -31 52 -62 52 -15 0 -28 4 -28
9 0 11 36 21 79 21 33 0 34 0 16 -20 -15 -17 -16 -20 -3 -20 9 0 18 7 22 15 3
8 16 15 28 15 29 1 53 19 62 48 9 26 15 27 42 7 10 -8 32 -15 48 -15 24 0 27
2 16 15 -10 12 -16 13 -26 4 -8 -6 -15 -8 -16 -3 0 5 -2 14 -3 19 -2 6 -3 15
-4 21 -1 15 -41 11 -51 -5 -4 -8 -13 -10 -19 -7 -6 4 -25 -2 -41 -14 l-30 -21
0 21 c0 12 13 33 29 48 38 36 64 79 56 92 -10 16 5 34 18 21 6 -6 16 -7 28 -1z
m-499 -42 c9 -29 8 -43 -1 -61 -7 -13 -13 -62 -14 -111 -1 -90 -8 -106 -45
-109 -16 -1 -19 -5 -11 -18 5 -10 9 -34 9 -53 0 -47 17 -46 29 2 6 20 17 47
26 59 24 34 68 14 95 -44 25 -54 36 -49 77 35 52 106 64 117 84 80 7 -12 14
-17 18 -10 4 7 14 5 30 -7 20 -15 22 -21 12 -39 -6 -11 -11 -30 -11 -41 0 -12
-5 -21 -11 -21 -8 0 -8 -5 1 -15 10 -12 9 -16 -4 -21 -9 -3 -16 -12 -16 -20 0
-18 71 -19 88 -2 21 21 13 31 -20 24 -30 -6 -31 -5 -14 12 9 11 14 26 10 36
-10 25 9 19 40 -13 l28 -29 -16 -74 c-19 -84 -34 -126 -55 -150 -22 -26 -29
-23 -50 25 -35 80 -41 98 -41 122 0 29 -40 106 -52 99 -4 -3 -8 -12 -8 -19 0
-8 -9 -19 -20 -25 -11 -6 -30 -31 -42 -57 -45 -91 -116 -94 -159 -7 -11 25
-29 52 -38 61 -9 9 -16 19 -17 22 0 3 -9 25 -18 49 -12 28 -26 44 -42 48 -27
7 -84 -13 -84 -28 0 -6 -9 -8 -20 -5 -21 5 -28 -7 -10 -18 6 -4 7 -11 4 -17
-4 -6 -6 -35 -5 -65 2 -50 1 -53 -23 -53 -14 0 -28 5 -31 11 -14 21 -38 4 -41
-30 -5 -42 -51 -124 -67 -118 -7 2 -13 18 -15 35 -4 35 -16 42 -26 15 -13 -32
-38 10 -42 68 -1 34 -7 55 -16 58 -23 7 -27 24 -24 88 5 88 32 116 71 73 10
-11 21 -17 25 -15 4 3 19 -5 34 -16 43 -34 73 -15 68 44 -1 10 5 29 14 42 9
13 13 29 9 35 -16 25 16 6 48 -29 30 -33 38 -37 48 -25 15 19 33 18 25 -1 -7
-18 5 -20 23 -2 10 10 16 8 28 -10 9 -13 22 -23 30 -23 12 0 14 8 8 38 -4 20
-9 51 -12 67 -2 17 -11 53 -19 82 -17 63 -17 64 1 57 10 -4 18 3 25 23 10 27
14 29 65 29 l55 1 12 -39z m-748 -89 c15 -12 26 -30 26 -44 0 -13 6 -25 13
-28 9 -3 9 -9 -1 -27 -14 -23 -7 -44 7 -21 10 16 31 6 31 -13 0 -8 -15 -17
-34 -20 -19 -4 -45 -15 -59 -26 -26 -20 -63 -26 -83 -12 -14 9 -38 52 -40 72
-1 8 -5 23 -9 33 -4 10 -3 17 4 17 6 0 11 11 11 25 0 18 10 31 33 45 41 25 68
25 101 -1z m-1529 -14 c14 -13 25 -35 25 -49 0 -14 5 -28 10 -31 14 -9 13 -58
-2 -73 -18 -18 9 -62 38 -62 12 0 24 -7 28 -15 7 -19 -3 -45 -18 -45 -6 0 -26
-13 -44 -29 -17 -17 -32 -26 -32 -21 0 5 11 17 25 26 30 20 31 25 4 42 -19 12
-24 11 -48 -11 -41 -38 -58 -40 -82 -8 -14 19 -27 27 -40 24 -24 -7 -26 29 -4
71 11 20 12 32 5 41 -10 12 -8 28 10 70 5 11 10 29 12 39 3 19 51 54 76 55 7
1 24 -10 37 -24z m217 -105 c2 -23 -1 -40 -7 -41 -5 0 0 -4 13 -9 15 -7 36 -5
64 5 64 22 68 10 31 -77 -12 -28 -22 -38 -38 -38 -12 0 -36 -3 -53 -6 -28 -6
-32 -3 -38 22 -4 16 -18 39 -31 51 -28 27 -29 39 -3 55 11 7 20 16 20 20 0 17
20 58 29 58 5 0 11 -18 13 -40z m978 -47 c0 -25 1 -26 14 -8 13 18 14 17 30
-14 14 -26 15 -39 7 -63 -22 -62 0 -61 26 1 9 20 18 31 20 25 4 -13 -9 -45
-39 -94 -11 -19 -22 -42 -23 -50 0 -9 -4 -21 -9 -28 -4 -7 -2 -12 5 -12 8 0 7
-5 -4 -12 -18 -14 -32 -87 -20 -103 4 -5 17 -15 28 -21 11 -6 22 -19 24 -29 3
-17 2 -18 -14 -2 -21 22 -36 22 -29 0 5 -19 7 -21 -32 35 -10 14 -16 12 -50
-16 -48 -40 -61 -41 -33 -2 18 23 20 32 10 44 -11 13 -17 12 -46 -5 -38 -23
-62 -16 -89 23 -11 16 -16 18 -16 7 0 -8 5 -20 12 -27 9 -9 8 -16 -5 -30 -11
-12 -15 -26 -11 -38 6 -15 4 -17 -6 -7 -7 6 -13 22 -14 35 -1 16 -8 24 -25 26
-21 3 -23 7 -17 43 6 38 6 39 -24 39 -16 0 -30 -4 -30 -10 0 -5 5 -10 11 -10
5 0 7 -5 3 -11 -3 -6 -1 -15 6 -19 20 -12 -9 -37 -37 -32 -33 6 -37 18 -19 56
23 49 81 64 108 29 17 -23 38 -27 38 -8 0 8 -4 15 -8 15 -12 0 -34 51 -27 59
4 3 11 -2 17 -12 9 -17 12 -17 33 -3 22 15 24 14 30 -4 7 -22 25 -26 43 -8 8
8 15 8 27 -2 12 -10 15 -10 15 3 0 24 22 32 36 13 8 -12 14 -14 19 -6 5 9 10
9 18 1 15 -15 27 -14 27 4 0 8 -9 15 -20 15 -18 0 -20 4 -14 35 5 27 3 36 -10
41 -9 3 -16 15 -16 25 0 10 -5 19 -11 19 -14 0 -2 38 21 68 11 14 20 18 22 10
6 -17 28 0 28 23 0 10 5 19 10 19 6 0 10 -12 10 -27z m1665 -163 c13 -41 14
-56 5 -85 -6 -19 -9 -44 -5 -55 4 -13 -1 -29 -14 -46 -12 -15 -21 -41 -21 -61
0 -36 -15 -73 -29 -73 -5 0 -29 35 -54 78 -42 71 -45 81 -40 128 3 32 1 54 -6
58 -16 10 -14 46 3 46 7 0 19 7 26 15 7 9 21 13 30 10 9 -3 28 3 41 14 36 30
46 26 64 -29z m-1283 -26 c36 -12 52 -13 67 -4 26 13 28 -1 7 -57 -25 -70 -36
-109 -36 -126 0 -9 -4 -17 -10 -17 -5 0 -7 -8 -4 -17 5 -15 3 -15 -10 1 -18
22 -22 76 -6 76 14 0 12 13 -4 35 -12 16 -16 17 -30 6 -9 -7 -16 -26 -16 -42
0 -42 -17 -79 -37 -80 -11 0 -13 -3 -5 -6 15 -6 16 -23 2 -23 -6 0 -15 12 -21
27 -8 21 -7 30 3 38 19 15 29 140 16 209 l-7 39 23 -22 c12 -11 43 -28 68 -37z
m566 30 l52 -5 0 -40 c0 -51 -18 -88 -32 -68 -7 11 -11 11 -15 1 -2 -6 -8 -10
-13 -7 -4 3 -29 7 -54 10 -39 4 -44 2 -39 -13 3 -9 10 -22 15 -29 5 -7 5 -14
-1 -18 -6 -3 -17 11 -26 31 -18 43 -19 54 -5 54 6 0 10 13 10 29 0 60 9 64
108 55z m-79 -274 c20 -17 42 -35 49 -41 13 -10 16 -56 6 -84 -4 -9 -17 -21
-30 -25 -13 -5 -32 -28 -43 -53 -34 -75 -3 -134 78 -148 30 -6 38 -2 68 30
l33 36 0 -46 c0 -26 -7 -59 -15 -75 -8 -16 -12 -39 -8 -53 8 -31 -14 -19 -27
15 -12 30 -47 44 -112 44 l-50 0 7 39 c4 22 2 48 -3 57 -8 14 -12 1 -17 -52
-8 -71 -34 -138 -58 -147 -20 -7 -47 -97 -45 -147 2 -47 -13 -70 -35 -51 -12
9 -16 7 -21 -15 -4 -14 -5 -28 -3 -30 7 -7 73 24 87 40 7 9 18 16 25 16 19 0
35 47 28 81 -6 30 -5 31 17 18 12 -8 32 -20 44 -26 33 -20 83 -15 130 11 58
32 75 22 56 -34 -13 -40 -38 -51 -32 -14 3 16 0 15 -14 -5 -21 -30 -9 -54 32
-61 26 -5 30 -10 36 -50 3 -25 8 -54 10 -65 2 -15 -6 -23 -39 -34 -46 -16 -63
-11 -43 14 10 12 10 15 -1 15 -19 -1 -49 -24 -71 -57 l-19 -28 6 34 c4 19 18
43 30 55 13 12 26 38 29 61 6 37 5 39 -9 21 -8 -11 -18 -17 -21 -13 -4 4 -1
13 5 21 11 13 8 14 -23 9 -24 -4 -44 0 -61 11 -14 9 -25 13 -26 9 0 -5 -4 2
-10 15 -5 13 -13 20 -19 17 -7 -4 -7 -13 0 -26 6 -10 13 -37 15 -60 2 -23 11
-49 19 -58 9 -10 16 -22 16 -27 0 -20 43 -99 47 -86 8 20 22 4 16 -19 -4 -16
-8 -17 -14 -7 -6 8 -9 1 -9 -21 0 -19 -8 -43 -17 -54 -17 -19 -17 -20 -1 -14
15 5 16 2 7 -20 -7 -19 -6 -32 6 -50 18 -27 10 -53 -8 -29 -7 8 -25 22 -42 31
-28 14 -29 16 -9 21 19 5 20 9 10 30 -13 29 -26 32 -19 4 3 -11 1 -20 -5 -20
-5 0 -12 9 -15 21 -5 17 -8 18 -25 8 -13 -8 -27 -9 -48 -2 -28 9 -29 12 -28
71 0 38 -4 62 -10 62 -6 0 -4 5 4 11 11 8 12 12 3 16 -7 2 -13 21 -13 41 0 28
-3 33 -10 22 -5 -8 -10 -25 -10 -37 0 -39 -19 -25 -26 19 -7 39 -8 40 -16 17
-7 -17 -4 -38 10 -74 31 -77 35 -105 17 -105 -9 0 -25 8 -36 19 -11 10 -34 22
-51 25 -35 7 -58 23 -58 40 0 6 4 5 9 -3 20 -32 45 29 46 114 0 22 4 55 9 73
6 24 4 32 -6 32 -10 0 -19 22 -27 68 -15 78 -30 122 -42 122 -11 0 -3 65 17
136 9 34 22 57 38 68 19 12 26 26 28 58 3 38 6 43 29 46 23 3 25 1 21 -33 -5
-41 10 -46 26 -10 6 14 19 25 27 25 13 0 15 9 10 50 -6 48 -4 52 34 92 34 36
42 40 55 29 10 -8 16 -29 16 -52 0 -32 3 -39 20 -39 23 0 26 20 8 53 -10 20
-10 21 5 9 9 -8 19 -22 22 -33 10 -30 25 -22 25 14 0 30 -29 88 -30 60 0 -7
-5 -13 -11 -13 -6 0 -8 7 -5 16 4 9 2 22 -3 28 -9 11 3 56 15 56 3 0 23 -14
43 -30z m-1165 -32 c9 -12 16 -38 16 -56 0 -26 4 -33 15 -29 23 9 26 -8 4 -26
-11 -10 -19 -29 -19 -46 0 -17 -11 -42 -24 -58 -13 -16 -26 -40 -28 -53 -2
-19 -10 -26 -30 -28 -23 -3 -30 2 -39 25 l-10 28 -17 -28 c-9 -15 -21 -26 -27
-24 -10 4 -15 74 -6 92 3 5 4 44 2 86 -4 112 14 135 106 138 33 1 45 -4 57
-21z m191 -30 c26 -86 21 -133 -10 -92 -14 18 -14 18 -15 1 0 -10 -7 -20 -15
-23 -8 -4 -15 -14 -15 -24 0 -10 7 -23 15 -30 8 -7 15 -25 15 -40 0 -15 7 -43
15 -62 9 -22 12 -50 8 -73 l-6 -37 -14 39 c-14 39 -25 102 -24 138 0 11 -8 27
-19 35 -12 9 -21 32 -24 60 -3 25 -8 56 -12 70 -6 21 -5 23 7 13 12 -10 20 -7
44 17 37 35 41 36 50 8z m1511 -26 c6 -12 21 -33 33 -46 25 -27 25 -71 1 -71
-9 0 -14 7 -12 17 2 12 -6 19 -25 24 -15 3 -34 8 -41 10 -22 7 -72 -25 -72
-46 0 -29 -29 -25 -40 6 -13 32 -13 47 0 39 5 -3 19 4 31 16 12 12 29 19 40
16 15 -4 17 -2 9 13 -6 10 -7 26 -4 35 10 25 66 16 80 -13z m-43 -212 c9 0 25
12 36 27 12 14 24 23 28 19 4 -4 7 -33 8 -64 0 -44 -5 -64 -23 -89 l-23 -33
26 0 c30 0 25 -17 -8 -29 -19 -8 -22 -17 -25 -82 -2 -52 -7 -77 -18 -85 -13
-10 -13 -12 1 -18 8 -3 15 -12 15 -19 0 -8 18 -19 40 -26 48 -14 50 -23 8 -39
-27 -10 -36 -9 -56 4 -27 18 -33 14 -52 -35 -35 -87 -105 -111 -162 -54 -23
24 -29 40 -34 93 -4 38 -1 83 6 108 10 39 14 43 33 36 12 -4 50 -8 85 -7 62 0
62 0 62 -28 0 -20 5 -29 16 -29 26 0 12 73 -20 105 -23 23 -55 27 -41 5 3 -4
-2 -10 -10 -14 -11 -4 -15 2 -15 19 0 22 -4 25 -37 25 -28 0 -34 3 -23 10 8 5
34 10 56 10 23 0 55 7 70 15 16 8 37 15 46 15 23 0 33 19 14 26 -9 3 -16 12
-16 19 0 8 -8 16 -18 19 -20 7 -42 70 -42 122 l0 36 29 -31 c16 -17 36 -31 44
-31z m-1143 -10 c0 -21 15 -27 25 -9 5 7 13 5 24 -5 12 -11 28 -14 47 -10 37
7 64 -17 45 -40 -7 -8 -17 -44 -22 -81 -6 -42 -16 -74 -29 -88 -12 -12 -23
-32 -26 -44 -7 -26 -34 -31 -34 -6 0 9 -7 24 -16 34 -12 14 -14 24 -7 46 5 15
14 26 19 23 5 -3 8 -9 6 -13 -1 -5 2 -6 8 -2 5 3 10 12 10 20 0 24 -18 27 -39
6 -20 -20 -20 -20 -26 0 -4 10 -10 19 -15 19 -5 0 -7 14 -3 30 3 19 1 30 -6
30 -16 0 -13 62 5 88 19 27 34 28 34 2z m-828 -73 c37 19 123 13 145 -10 14
-13 14 -22 3 -59 -7 -24 -12 -61 -11 -82 1 -27 -6 -50 -23 -75 -14 -20 -28
-48 -31 -63 -7 -29 -30 -29 -40 0 -3 10 -23 37 -45 61 -49 54 -57 77 -36 100
19 21 20 25 2 64 -8 18 -16 43 -19 56 -5 22 -4 23 9 9 14 -14 19 -14 46 -1z
m533 -164 c37 6 45 2 64 -35 11 -22 12 -36 3 -64 -6 -20 -8 -42 -5 -50 3 -8
-2 -25 -11 -38 -13 -21 -22 -24 -64 -22 -58 3 -68 8 -93 50 -17 27 -19 28 -19
9 0 -12 5 -25 10 -28 16 -10 12 -35 -5 -29 -8 4 -15 1 -15 -5 0 -6 4 -11 9
-11 5 0 17 -17 26 -37 17 -35 17 -37 -1 -50 -10 -7 -26 -13 -37 -13 -14 0 -17
-5 -12 -20 4 -11 2 -20 -4 -20 -6 0 -11 -6 -11 -14 0 -11 9 -13 35 -9 37 6 45
-6 25 -37 -8 -12 -10 -12 -10 -1 0 10 -3 11 -14 2 -7 -6 -22 -9 -32 -5 -18 5
-18 5 -1 -6 18 -12 24 -40 7 -40 -19 0 -10 -18 12 -23 12 -4 19 -9 15 -13 -3
-3 -14 -3 -24 1 -10 5 -24 7 -30 6 -7 -1 -13 5 -13 14 0 8 5 15 10 15 6 0 3
11 -6 25 -17 26 -16 44 10 110 17 45 21 132 6 155 -7 11 0 24 26 51 32 32 34
38 23 62 -10 22 -8 30 16 61 27 36 28 36 53 20 16 -10 36 -14 57 -11z m-880
-53 c25 -20 45 -28 57 -24 40 12 108 -52 108 -101 0 -23 6 -38 15 -41 12 -5
13 -10 4 -20 -8 -10 -6 -20 10 -42 l20 -29 -22 -18 c-82 -70 -129 -81 -183
-40 -36 28 -45 22 -46 -28 0 -18 -10 -42 -21 -54 -21 -24 -44 -32 -31 -11 5 8
2 9 -9 5 -32 -12 -26 10 12 47 61 59 64 114 9 142 -16 9 -27 18 -24 21 3 4 0
16 -7 27 -8 12 -19 42 -26 67 -16 59 -5 84 52 109 23 10 43 19 43 19 1 1 18
-13 39 -29z m-234 -189 c-16 -30 -13 -56 9 -76 15 -14 20 -31 20 -74 0 -31 -4
-72 -10 -90 -7 -24 -6 -39 1 -48 9 -9 8 -17 -1 -28 -21 -25 -16 -103 13 -214
15 -57 26 -106 23 -108 -3 -3 -12 2 -20 10 -9 8 -20 17 -26 19 -6 2 -12 23
-15 48 -2 25 -11 65 -20 89 -8 24 -15 68 -15 97 0 40 -4 54 -14 54 -9 0 -16
15 -19 43 -3 23 -10 58 -15 77 -11 37 -13 30 -17 -48 -1 -23 -9 -50 -17 -60
-23 -26 -28 -72 -11 -114 8 -21 19 -38 23 -38 16 0 18 -28 3 -58 -9 -19 -20
-29 -29 -25 -8 3 -14 -1 -14 -11 0 -25 -38 -19 -56 9 -9 14 -24 25 -34 25 -10
0 -20 6 -23 13 -3 9 -8 9 -21 -2 -14 -12 -19 -12 -26 -2 -6 10 -10 8 -15 -9
-8 -24 -4 -31 -63 100 -21 46 -38 115 -34 137 2 6 -2 14 -8 18 -5 3 -10 21
-10 39 0 17 -6 38 -12 45 -11 11 -10 13 4 8 18 -6 28 11 28 47 0 25 17 46 37
46 7 0 13 -6 13 -14 0 -7 14 -19 31 -27 30 -12 33 -11 56 16 13 15 28 24 32
19 14 -15 32 -105 26 -125 -7 -20 9 -49 26 -49 5 0 9 6 9 13 0 7 11 28 23 47
13 19 31 57 41 85 25 74 76 153 106 163 20 7 26 5 28 -9 2 -10 -2 -27 -7 -38z
m1606 -27 c-5 -29 -1 -43 18 -68 31 -41 39 -75 25 -111 l-12 -30 -11 25 c-5
14 -9 32 -8 40 2 13 1 13 -8 0 -9 -12 -14 -13 -31 -2 -11 6 -39 12 -63 12 -43
0 -44 1 -54 43 -6 23 -14 50 -18 59 -6 14 1 18 44 24 32 4 51 11 51 20 0 7 12
15 28 17 15 2 31 5 36 6 5 0 6 -15 3 -35z m-268 -30 c11 -13 51 -95 51 -105 0
-3 -14 -9 -32 -13 -39 -8 -88 -52 -88 -80 1 -62 25 -84 51 -46 20 29 59 35 59
9 0 -32 19 -21 26 15 3 19 16 44 29 56 l24 22 31 -22 c25 -18 35 -20 60 -12
22 8 31 7 41 -4 6 -8 18 -14 25 -14 8 0 14 -7 14 -16 0 -8 -4 -13 -9 -10 -12
8 -22 -33 -14 -61 4 -19 8 -21 19 -12 36 29 5 -62 -34 -105 l-27 -28 23 -15
c23 -16 30 -47 12 -58 -6 -3 -10 4 -11 17 0 23 0 23 -9 2 -10 -26 -18 -460 -8
-469 4 -4 -6 -18 -23 -32 -40 -34 -99 -154 -99 -203 0 -21 -4 -42 -10 -45 -5
-3 -10 -17 -10 -30 0 -13 -9 -69 -20 -124 -11 -56 -22 -131 -25 -168 -4 -38
-10 -95 -15 -128 -7 -47 -8 -35 -5 62 3 67 9 142 14 165 5 24 12 68 15 98 4
30 9 76 12 101 3 25 7 61 8 80 5 51 60 163 91 186 28 20 28 20 29 144 1 70 -5
156 -13 197 -11 58 -12 78 -3 93 11 17 9 19 -18 19 -16 0 -30 5 -30 11 0 5 -4
7 -10 4 -6 -4 -1 -18 11 -34 16 -22 19 -33 11 -47 -5 -11 -13 -43 -17 -71 -4
-29 -10 -53 -14 -53 -5 0 -11 39 -14 88 -6 79 -18 141 -34 182 -3 8 -7 20 -8
25 -1 6 -3 13 -3 17 -1 4 -14 3 -28 -3 -21 -7 -31 -6 -45 7 -22 20 -33 15 -23
-10 3 -9 17 -16 30 -16 13 0 24 -4 24 -10 0 -5 -16 -10 -35 -10 -24 0 -35 5
-35 14 0 8 -14 24 -30 36 -53 38 -56 57 -15 95 l36 34 -20 63 c-25 78 -26 91
-16 151 5 32 17 58 37 79 29 31 30 32 44 13 7 -11 18 -25 23 -31z m1787 -229
c10 -21 9 -25 -7 -30 -20 -7 -27 -35 -9 -35 19 0 25 5 22 18 -4 19 15 14 31
-8 8 -11 17 -17 20 -13 4 3 7 -7 7 -24 0 -18 -6 -33 -15 -37 -8 -3 -15 -13
-15 -23 0 -10 -18 -38 -41 -63 -22 -25 -38 -39 -34 -32 4 7 -1 12 -14 12 -13
0 -21 -7 -21 -17 0 -13 -7 -10 -30 12 -21 20 -30 38 -30 61 0 22 -7 38 -21 47
-13 10 -23 30 -26 56 -6 43 7 55 27 24 10 -17 10 -17 20 0 14 22 55 24 46 2
-4 -10 1 -15 14 -15 22 0 26 10 9 27 -9 9 -8 18 5 37 21 33 48 33 62 1z
m-3578 -17 c-6 -18 -20 -46 -30 -63 -22 -37 -23 -59 -3 -51 18 6 20 -5 4 -21
-9 -9 -5 -14 14 -18 33 -9 47 0 47 28 0 18 2 19 10 7 15 -23 13 -63 -4 -57
-13 5 -83 -7 -116 -19 -21 -8 27 -26 50 -19 13 4 17 -2 18 -30 1 -22 -3 -35
-11 -35 -16 1 -42 22 -50 40 -4 10 -6 8 -6 -7 -1 -27 -21 -41 -22 -16 -5 65
-3 80 12 110 10 19 20 53 24 76 5 27 18 54 38 75 17 17 32 32 33 32 2 0 -2
-15 -8 -32z m1622 3 c0 -10 -11 -35 -25 -55 -27 -39 -32 -70 -14 -81 6 -4 -3
-17 -23 -30 -22 -15 -39 -38 -48 -64 -13 -40 -30 -50 -57 -33 -15 10 29 196
56 232 34 47 111 69 111 31z m-603 -77 c14 -30 9 -44 -13 -44 -16 0 -18 -9 -5
-28 5 -8 17 -11 34 -7 20 5 26 2 32 -15 10 -31 -47 -87 -96 -95 -30 -5 -39 -1
-62 25 -15 16 -27 35 -27 40 0 6 -7 24 -15 40 -14 27 -14 29 2 23 10 -4 24
-13 31 -20 15 -14 62 -7 74 11 4 6 5 19 2 29 -8 25 4 67 19 67 6 0 17 -12 24
-26z m-1167 -24 c-6 -11 -12 -41 -14 -67 -2 -26 -9 -74 -16 -106 -6 -33 -9
-65 -6 -73 3 -8 -3 -31 -14 -52 -10 -20 -20 -55 -22 -77 -2 -37 -1 -40 22 -37
l24 2 -22 -23 c-20 -21 -20 -25 -6 -52 18 -35 10 -45 -45 -52 -34 -5 -40 -9
-36 -24 7 -22 -13 -35 -28 -19 -9 10 -9 14 1 17 6 3 12 13 12 23 0 10 6 21 13
23 7 3 5 6 -5 6 -11 1 -18 9 -18 20 0 14 5 18 19 14 20 -5 28 9 37 65 3 18 12
51 19 73 8 21 12 39 9 39 -2 0 3 14 11 31 9 17 14 37 11 46 -7 16 20 176 40
241 2 7 8 10 14 7 7 -4 7 -12 0 -25z m3458 -105 c41 -6 52 -11 52 -26 0 -10 4
-20 9 -23 4 -3 11 -28 15 -55 5 -37 2 -59 -11 -85 -15 -33 -15 -37 0 -49 19
-14 32 -62 19 -71 -5 -3 -15 7 -22 22 -18 38 -25 11 -11 -43 7 -29 8 -59 1
-94 -5 -28 -9 -66 -8 -86 1 -20 -6 -43 -15 -53 -10 -10 -17 -32 -17 -48 0 -20
-3 -25 -9 -15 -5 7 -14 10 -20 6 -9 -5 -9 -10 0 -22 10 -12 10 -16 -2 -24 -8
-5 -20 -7 -28 -4 -23 9 -61 -40 -85 -113 -14 -39 -29 -79 -34 -88 -18 -32 -22
4 -8 68 11 46 15 140 16 353 1 160 -1 309 -4 333 -3 26 -2 41 4 37 9 -5 30 32
44 77 6 19 5 19 114 3z m-1472 -70 c19 -55 17 -88 -6 -118 -11 -14 -20 -35
-20 -46 0 -12 -6 -21 -14 -21 -15 0 -37 71 -29 99 2 10 -5 39 -18 65 -12 26
-19 49 -17 52 7 7 58 -17 58 -28 0 -4 5 -8 10 -8 6 0 8 11 4 26 -11 43 16 25
32 -21z m-400 -144 c-25 -27 -20 -31 38 -28 45 2 56 6 60 22 8 31 25 6 32 -48
6 -43 4 -51 -22 -78 -26 -27 -27 -31 -12 -46 9 -8 40 -24 70 -34 72 -25 123
-82 137 -152 28 -141 36 -240 31 -367 -1 -14 2 -45 5 -70 5 -32 2 -57 -10 -85
-17 -40 -18 -40 -27 -15 -9 23 -10 24 -19 7 -8 -13 -7 -27 4 -50 8 -18 18 -68
22 -112 3 -44 13 -129 20 -190 8 -60 17 -142 21 -180 l6 -70 -38 -27 c-41 -30
-60 -28 -43 4 18 33 14 252 -5 333 -9 39 -19 85 -22 104 -3 18 -11 46 -19 62
-8 15 -15 34 -15 40 0 17 -40 59 -57 59 -7 0 -13 -7 -13 -16 0 -13 -7 -15 -32
-11 -19 2 -45 -2 -61 -10 -16 -8 -31 -13 -33 -10 -9 9 50 40 80 42 17 2 33 3
36 4 5 1 -59 61 -65 61 -2 0 -1 -9 2 -20 3 -11 0 -20 -6 -20 -9 0 -13 10 -14
40 0 3 -15 18 -33 33 l-34 29 0 -64 c-1 -34 -7 -81 -15 -103 -8 -22 -15 -51
-15 -65 0 -34 -11 -70 -20 -70 -14 0 -20 120 -7 141 10 17 9 22 -6 34 -19 14
-68 7 -74 -11 -2 -6 5 -19 16 -28 19 -18 19 -20 4 -50 -12 -23 -18 -68 -21
-166 -5 -141 -9 -164 -30 -151 -17 10 -22 67 -25 308 -1 117 -5 213 -9 213 -4
0 -12 -8 -17 -17 -6 -10 -11 -13 -11 -8 0 6 7 21 16 33 14 21 14 25 0 47 -9
13 -16 28 -16 33 0 13 49 22 56 10 3 -4 10 -6 15 -3 5 4 9 -1 9 -9 0 -9 7 -16
15 -16 8 0 15 7 15 15 0 8 -4 15 -10 15 -27 0 3 51 34 56 6 1 26 5 44 8 24 5
32 3 32 -8 0 -8 13 -29 29 -47 l30 -32 29 33 c19 20 31 27 34 19 3 -8 9 -9 17
-4 11 6 13 34 9 124 -6 117 4 291 17 324 4 9 3 17 -2 17 -6 0 -16 -19 -23 -42
-19 -60 -22 -64 -31 -40 -14 37 -28 26 -18 -14 8 -25 7 -39 -2 -50 -9 -11 -9
-17 1 -29 10 -12 9 -15 -8 -15 -25 0 -107 -35 -116 -49 -11 -17 -36 -13 -30 4
5 11 -1 15 -20 15 -16 0 -26 -6 -26 -15 0 -8 -6 -15 -13 -15 -7 0 -28 -16 -47
-35 -19 -19 -38 -35 -42 -35 -5 0 -8 18 -8 41 0 22 -5 61 -11 85 -10 37 -18
49 -45 62 -19 8 -34 19 -34 23 0 21 103 105 165 134 39 18 80 44 93 58 l23 24
-25 38 c-30 44 -33 60 -10 51 11 -4 32 8 63 36 38 36 46 40 49 25 2 -10 -3
-26 -12 -36z m-510 7 c24 -8 38 -24 55 -60 12 -26 20 -51 16 -54 -3 -4 -2 -15
4 -25 7 -14 5 -21 -11 -31 -11 -7 -20 -22 -20 -33 0 -11 -11 -53 -24 -95 -13
-41 -32 -104 -43 -139 -10 -36 -24 -66 -30 -68 -15 -5 -28 86 -14 100 22 22
12 44 -19 43 -27 -1 -30 -4 -25 -24 6 -25 -15 -142 -26 -142 -14 0 -42 130
-36 170 3 22 -1 64 -8 93 -7 28 -13 86 -13 127 0 60 4 81 21 105 12 16 26 33
32 37 16 12 105 9 141 -4z m-519 -38 c14 -24 14 -24 10 -2 -7 30 3 28 37 -10
18 -21 31 -28 33 -20 5 14 33 17 33 3 0 -16 -30 -33 -50 -28 -13 3 -20 0 -20
-9 0 -20 -13 -17 -33 6 -9 11 -23 17 -30 14 -9 -3 -16 3 -20 15 -10 40 -25 20
-23 -31 1 -47 -1 -53 -19 -53 -11 -1 -25 -4 -32 -8 -17 -11 -43 3 -43 23 0 13
6 16 25 12 20 -3 25 0 25 17 0 26 3 25 -48 1 -41 -20 -62 -20 -62 1 0 5 7 9
15 9 8 0 15 5 15 10 0 6 -9 10 -20 10 -11 0 -20 5 -20 10 0 6 7 10 16 10 9 0
14 8 13 18 -1 9 -1 19 0 22 1 3 42 5 92 5 86 0 92 -2 106 -25z m1983 -82 c-1
-13 -7 -34 -15 -48 -26 -46 -19 -94 20 -136 19 -20 35 -38 35 -40 0 -2 -11 -4
-25 -4 -14 0 -25 -4 -25 -9 0 -5 -11 -16 -24 -24 l-24 -16 2 45 c1 36 -2 44
-16 44 -10 0 -23 9 -30 21 -24 38 -75 62 -121 56 -23 -3 -36 -4 -29 -1 14 7
16 40 2 49 -15 9 -42 65 -32 65 5 0 14 -12 21 -26 9 -21 16 -25 34 -19 24 8
34 8 91 1 41 -6 62 -16 32 -16 -10 0 -16 -6 -14 -12 6 -18 38 -23 38 -6 1 7
14 24 30 38 17 13 30 32 30 42 0 10 5 18 10 18 6 0 10 -10 10 -22z m-1907
-180 l-6 -87 -31 -3 -31 -3 2 -68 c3 -82 -9 -80 -27 5 -10 47 -11 63 -2 66 23
7 11 28 -23 41 -19 7 -40 22 -46 33 -12 22 -13 22 38 1 11 -4 17 11 25 61 2
10 10 22 18 26 31 16 75 27 82 21 4 -4 5 -45 1 -93z m3050 67 c39 -6 47 -11
52 -34 3 -15 2 -38 -3 -52 -12 -30 -60 -79 -78 -79 -25 0 -73 54 -79 90 -5 28
-1 42 16 63 12 16 27 26 34 23 7 -2 33 -7 58 -11z m-861 -102 c14 -31 50 -71
58 -63 3 3 6 -12 8 -33 2 -24 -5 -56 -21 -90 -18 -41 -24 -72 -26 -137 -2 -99
-10 -150 -22 -150 -5 0 -9 4 -9 9 0 12 -28 41 -40 41 -4 0 -11 -11 -14 -24 -6
-25 -53 -42 -70 -26 -5 5 -17 -1 -28 -13 l-19 -22 6 25 c4 14 16 33 27 43 12
10 19 20 16 22 -2 3 -13 -3 -24 -13 -25 -24 -112 -28 -138 -7 -15 11 -17 18
-9 26 12 12 -12 78 -36 102 -6 6 -11 26 -11 44 0 24 -5 33 -16 33 -13 0 -14
-3 -5 -14 15 -18 -4 -32 -23 -17 -8 7 -23 7 -45 1 -24 -7 -43 -5 -72 7 -54 21
-51 40 7 38 41 -2 47 1 55 24 8 19 12 22 19 12 6 -11 16 -6 44 24 20 21 36 42
36 48 0 6 2 8 5 6 2 -3 0 -20 -5 -38 -6 -21 -5 -42 2 -59 l10 -27 20 45 c30
70 43 80 105 80 33 0 63 -6 79 -16 26 -18 54 -72 54 -107 0 -17 3 -18 12 -9 8
8 12 39 12 77 -1 54 -5 70 -24 90 -23 25 -22 55 3 55 8 0 22 9 32 20 24 27 33
25 47 -7z m-2255 -356 c13 -52 13 -67 -1 -138 -9 -44 -16 -97 -16 -119 0 -21
-5 -42 -10 -45 -6 -4 -8 -21 -4 -41 7 -37 -1 -84 -15 -84 -5 0 -7 10 -3 23 5
21 4 21 -15 5 -21 -19 -43 -24 -43 -9 0 5 9 30 21 55 11 26 18 54 15 62 -3 9
-1 12 4 9 17 -11 11 7 -7 21 -17 13 -17 15 0 28 15 12 15 15 2 26 -8 7 -15 25
-15 40 0 15 -7 41 -15 56 -8 16 -15 39 -15 52 0 13 -4 20 -10 17 -5 -3 -10
-16 -10 -27 0 -30 -13 -14 -27 34 -13 46 -9 62 14 54 9 -4 21 0 27 8 12 15 71
36 95 33 8 -1 20 -26 28 -60z m559 -292 c8 -13 14 -28 11 -32 -3 -4 3 -23 12
-42 l18 -34 7 26 c6 27 20 35 31 18 6 -11 -14 -100 -27 -117 -13 -18 -2 -76
26 -124 31 -54 32 -66 6 -73 -11 -3 -28 -19 -37 -36 -11 -18 -24 -29 -32 -26
-15 6 -81 -31 -81 -46 0 -19 -27 -8 -57 24 -38 40 -55 91 -48 146 3 25 1 49
-5 56 -16 20 -70 175 -60 175 4 0 14 -10 22 -22 15 -22 15 -21 22 27 4 28 9
58 12 68 6 19 44 23 74 7 13 -7 21 -7 25 0 3 5 15 10 26 10 10 0 19 5 19 10 0
18 19 10 36 -15z m1257 -84 c4 -16 13 -18 58 -16 56 3 89 -13 89 -43 0 -10 7
-12 25 -8 23 6 24 5 14 -21 -5 -14 -8 -32 -5 -40 3 -7 0 -38 -6 -69 -9 -44 -8
-64 1 -91 16 -43 6 -53 -53 -53 l-39 0 19 22 c19 21 19 21 -1 13 -63 -25 -96
-19 -146 28 -27 25 -39 45 -44 78 -4 24 -16 54 -28 67 -18 19 -18 22 -4 22 9
0 17 -4 17 -10 0 -5 9 -10 20 -10 11 0 20 4 20 9 0 5 -9 11 -20 14 -28 7 -25
19 15 67 19 23 35 46 35 51 0 17 28 9 33 -10z"/>
<path d="M4842 4531 c-8 -5 -12 -30 -10 -82 l3 -74 110 -1 c61 0 112 1 115 2
3 1 3 26 0 56 -4 46 -8 53 -29 56 -35 5 -71 -7 -71 -23 0 -17 16 -20 25 -5 8
13 45 13 45 1 0 -5 -16 -15 -35 -21 -19 -6 -39 -18 -43 -27 -6 -9 -20 -13 -43
-11 l-34 3 -3 60 c-3 64 -10 79 -30 66z"/>
<path d="M5149 4511 c-32 -33 -36 -58 -14 -100 25 -49 81 -56 122 -15 22 22
25 32 20 67 -10 77 -75 101 -128 48z"/>
<path d="M5313 4532 c-7 -4 -13 -38 -14 -82 -2 -63 0 -76 14 -78 14 -3 17 5
17 44 0 53 13 50 27 -6 13 -49 38 -51 53 -3 19 59 30 62 30 10 0 -35 4 -47 15
-47 12 0 15 15 15 79 0 44 -4 83 -10 86 -19 12 -48 -15 -57 -52 -11 -46 -23
-43 -43 10 -16 42 -27 52 -47 39z"/>
<path d="M5125 4256 c-25 -18 -13 -44 25 -57 16 -6 30 -15 30 -20 0 -13 -34
-11 -47 2 -8 8 -13 7 -18 -1 -17 -27 49 -49 80 -27 16 13 22 13 40 1 13 -9 34
-11 58 -7 37 6 37 6 37 55 0 42 -3 50 -25 60 -19 8 -31 8 -50 0 -28 -13 -34
-37 -7 -29 9 2 23 6 31 8 7 2 16 -2 18 -8 3 -8 -3 -13 -14 -13 -10 0 -30 -7
-45 -14 -16 -8 -28 -11 -28 -6 0 5 -12 13 -27 16 -39 9 -47 15 -32 24 7 5 20
3 30 -3 25 -16 38 1 15 19 -25 18 -47 18 -71 0z"/>
<path d="M5510 3836 c0 -25 -26 -39 -50 -26 -12 7 -33 9 -47 6 -19 -5 -24 -12
-21 -33 2 -20 12 -29 38 -39 30 -10 32 -13 16 -19 -11 -5 -27 -3 -37 3 -27 17
-33 -4 -7 -22 30 -21 51 -20 73 4 23 25 13 49 -25 56 -45 9 -36 21 15 21 l45
0 0 -43 c0 -33 4 -43 20 -47 11 -3 23 -1 26 4 3 5 13 5 23 -1 10 -5 36 -8 57
-6 39 4 39 4 42 49 3 69 -43 100 -94 63 -25 -19 -11 -32 20 -18 23 10 36 7 36
-9 0 -4 -14 -10 -30 -14 -17 -4 -35 -15 -40 -26 -6 -10 -15 -19 -20 -19 -13 0
-13 67 -1 74 12 8 -11 56 -26 56 -7 0 -13 -6 -13 -14z"/>
<path d="M5687 3553 c1 -57 5 -78 15 -78 8 0 14 16 16 48 4 56 22 64 22 10 0
-21 4 -43 8 -49 4 -6 40 -12 85 -12 l77 -2 0 55 c0 50 -2 55 -25 61 -35 9 -75
-3 -75 -22 0 -11 5 -14 18 -9 26 11 37 11 40 0 1 -5 -9 -11 -23 -13 -14 -2
-31 -12 -38 -23 -18 -29 -39 -24 -33 9 14 71 11 92 -13 92 -10 0 -22 -10 -26
-22 -8 -22 -8 -22 -12 5 -3 17 -10 27 -21 27 -15 0 -17 -10 -15 -77z"/>
<path d="M5625 3378 c-9 -20 -16 -23 -59 -20 -33 3 -51 0 -57 -10 -16 -24 -9
-37 26 -49 19 -7 35 -16 35 -20 0 -16 -20 -19 -39 -7 -27 16 -41 0 -17 -18 38
-28 86 -12 86 29 0 12 -11 23 -30 30 -42 16 -37 25 12 23 29 -2 43 -7 44 -17
0 -8 2 -26 2 -40 2 -30 28 -45 47 -29 10 8 19 8 34 -2 30 -19 76 0 76 32 0 19
-7 26 -32 34 -41 11 -44 30 -3 21 37 -8 41 11 5 27 -19 9 -29 7 -50 -6 -33
-22 -29 -36 19 -60 27 -13 34 -21 25 -27 -7 -4 -21 -3 -31 2 -10 6 -28 7 -38
4 -17 -5 -20 -2 -20 28 0 20 6 38 13 40 8 4 9 8 1 14 -6 4 -13 16 -17 26 -9
23 -20 21 -32 -5z"/>
<path d="M5940 2254 c0 -13 -30 -20 -55 -14 -5 1 -39 4 -73 5 l-64 3 5 -37 c2
-20 10 -50 17 -67 13 -29 12 -34 -12 -62 -25 -30 -25 -33 -12 -73 8 -23 15
-57 16 -75 1 -30 4 -33 22 -27 34 12 125 3 180 -18 28 -10 68 -19 89 -19 l37
0 0 70 c0 77 -17 170 -31 170 -5 0 -9 -8 -9 -17 -1 -14 -4 -12 -14 7 -15 26
-10 51 6 29 6 -10 8 -5 6 16 -2 23 -8 31 -28 33 -14 2 -33 13 -44 24 -18 19
-18 20 5 16 18 -2 24 2 24 17 0 14 -9 21 -32 26 -25 5 -33 3 -33 -7z"/>
<path d="M5085 2163 c-11 -3 -25 -9 -31 -14 -6 -5 -18 -7 -26 -4 -22 9 -27
-12 -34 -124 -3 -54 -8 -120 -12 -147 l-7 -49 -78 1 -77 2 0 -114 0 -114 423
2 c369 3 422 5 419 18 -2 8 -5 58 -5 110 l-2 95 -82 -3 c-69 -2 -83 0 -83 13
0 13 -4 14 -20 5 -21 -11 -424 -15 -442 -4 -10 6 -8 48 6 149 12 86 52 135 83
104 14 -14 80 -21 88 -9 3 5 1 10 -6 10 -8 0 -8 4 1 15 10 12 9 16 -4 21 -9 3
-13 10 -10 15 3 5 -9 9 -25 9 -17 0 -31 5 -31 10 0 10 -11 11 -45 3z"/>
<path d="M880 360 c-2 -3 -4 -22 -5 -42 -2 -27 2 -38 12 -38 15 0 12 -25 -10
-69 -9 -19 -9 -25 0 -28 7 -2 9 -12 6 -21 -3 -12 -2 -13 4 -4 5 7 30 13 56 14
45 0 47 2 63 43 8 23 14 51 13 61 -2 11 0 24 4 31 11 17 -34 27 -88 20 -39 -6
-44 -4 -48 16 -2 12 -6 20 -7 17z"/>
<path d="M3469 337 c-10 -8 -18 -34 -21 -74 -6 -63 -2 -73 20 -51 9 9 12 9 12
0 0 -7 5 -12 10 -12 6 0 10 9 10 20 0 22 35 35 75 28 13 -3 22 -1 19 3 -3 5
18 9 45 9 28 0 51 -4 51 -10 0 -5 6 -10 14 -10 7 0 18 -6 24 -13 8 -10 4 -16
-19 -26 -33 -14 -34 -34 -2 -39 15 -2 22 4 27 22 3 13 17 38 31 54 l25 30 -31
26 c-17 14 -41 29 -54 32 -33 8 -110 -19 -174 -61 -29 -19 -54 -35 -56 -35 -6
0 3 89 10 100 10 17 2 20 -16 7z"/>
</g>
</svg>
