<?xml version="1.0" standalone="no"?>
<!DOCTYPE svg PUBLIC "-//W3C//DTD SVG 20010904//EN"
 "http://www.w3.org/TR/2001/REC-SVG-20010904/DTD/svg10.dtd">
<svg version="1.0" xmlns="http://www.w3.org/2000/svg"
 width="750.000000pt" height="968.000000pt" viewBox="0 0 750.000000 968.000000"
 preserveAspectRatio="xMidYMid meet">
<metadata>
Created by potrace 1.16, written by Peter Selinger 2001-2019
</metadata>
<g transform="translate(0.000000,968.000000) scale(0.100000,-0.100000)"
fill="#000000" stroke="none">
<path d="M7062 9570 c3 -23 0 -25 -39 -26 -46 0 -83 -26 -109 -76 -10 -20 -22
-28 -41 -28 -25 0 -25 -1 -10 -18 15 -17 15 -20 1 -41 -16 -23 -14 -38 5 -27
5 3 26 35 46 71 42 75 72 100 113 92 36 -7 236 -116 280 -152 52 -43 46 -68
-64 -261 -53 -93 -110 -194 -126 -224 -110 -199 -152 -262 -184 -278 -32 -15
-35 -14 -81 10 -27 15 -68 37 -93 50 -157 83 -182 108 -173 175 4 26 2 31 -14
30 -14 -2 -18 5 -18 33 0 34 1 35 43 38 36 3 46 8 62 35 11 18 20 37 20 44 0
19 -28 4 -35 -18 -9 -28 -22 -23 -34 12 -21 62 -16 76 37 92 26 9 59 18 74 21
21 5 35 20 53 57 24 46 24 49 6 40 -11 -6 -23 -20 -26 -32 -10 -29 -29 -18
-39 24 -13 49 4 83 51 104 21 10 40 19 42 20 2 1 -2 17 -10 35 -7 18 -12 41
-11 51 3 16 -148 17 -3046 17 l-3050 0 -16 25 c-22 33 -63 33 -152 -1 -64 -24
-80 -26 -226 -24 l-157 1 -3 -63 c-2 -50 -6 -62 -18 -61 -18 3 -50 -45 -50
-74 0 -10 6 -30 14 -45 8 -15 17 -42 21 -60 4 -18 11 -37 15 -43 17 -23 23
-89 22 -244 -1 -159 0 -164 25 -205 30 -48 81 -97 141 -132 23 -14 42 -30 42
-35 0 -5 6 -9 13 -9 11 0 95 -36 106 -46 6 -5 -42 -104 -51 -104 -15 0 -96 39
-103 50 -3 5 -14 10 -23 10 -9 0 -28 10 -42 21 -45 36 -102 71 -108 65 -10
-10 40 -56 95 -87 29 -17 53 -35 53 -40 0 -6 4 -8 9 -4 8 4 90 -34 110 -51 3
-3 -27 -93 -34 -102 -4 -4 -108 48 -115 57 -3 3 -26 17 -52 30 -27 13 -48 28
-48 33 0 5 -4 6 -10 3 -18 -11 -10 -23 40 -55 34 -22 50 -39 50 -54 0 -15 3
-17 9 -7 6 9 16 11 32 6 36 -12 84 -42 82 -52 -1 -4 -4 -22 -7 -38 l-6 -30 15
33 c8 17 18 32 21 32 4 0 28 -8 55 -17 52 -19 57 -30 39 -77 -12 -32 -55 -35
-109 -7 -20 10 -56 28 -81 40 -25 11 -52 25 -60 30 -55 31 -79 40 -85 32 -3
-6 12 -19 35 -31 22 -11 40 -25 40 -30 0 -6 7 -10 15 -10 20 0 85 -32 85 -42
0 -4 -39 -7 -87 -6 l-88 2 -3 -161 c-2 -135 0 -162 12 -166 9 -3 1623 -5 3588
-4 l3573 2 3 635 c2 550 0 632 -12 620 -14 -15 -68 -146 -100 -247 -12 -35
-34 -69 -70 -107 -49 -50 -54 -59 -58 -113 -3 -32 -32 -132 -63 -223 -31 -91
-60 -183 -64 -204 l-6 -40 -313 1 c-173 1 -316 4 -319 7 -7 6 28 82 62 137
l25 38 -83 130 c-113 180 -140 186 -135 30 l3 -94 33 -10 c21 -6 32 -15 30
-25 -5 -23 -221 -22 -226 1 -2 11 6 18 26 22 17 4 31 14 33 24 2 10 3 121 1
246 l-3 228 -29 6 c-21 4 -30 11 -30 25 0 19 7 20 168 16 155 -3 170 -5 205
-26 47 -30 71 -74 71 -132 0 -60 -25 -104 -77 -137 -23 -15 -44 -28 -46 -30
-4 -2 110 -163 115 -163 2 0 13 21 24 48 17 37 22 65 21 137 -1 76 2 98 23
140 14 28 33 61 44 74 l20 25 48 -31 c27 -16 95 -56 151 -87 89 -50 106 -56
138 -50 45 8 57 25 178 239 241 432 240 430 275 430 37 0 39 5 12 30 -11 10
-20 29 -20 42 0 13 -5 34 -11 45 -9 17 -6 25 20 52 17 18 31 34 31 37 0 2 -30
6 -67 7 -37 1 -70 7 -73 13 -4 6 -6 38 -4 71 l3 61 -35 -34 c-18 -18 -32 -35
-29 -37 3 -3 -5 -12 -16 -20 -20 -14 -24 -11 -76 39 -48 48 -54 51 -51 29z
m-4684 -226 c12 -4 22 -13 22 -20 0 -20 17 -17 22 4 4 15 15 19 52 19 41 1 49
-2 57 -24 9 -25 29 -23 29 3 0 8 4 14 9 14 5 0 23 3 40 6 35 7 44 -10 10 -19
-12 -3 -18 -10 -14 -16 11 -18 30 -12 40 12 13 28 82 40 71 12 -3 -9 -6 -23
-6 -31 0 -8 -4 -14 -10 -14 -5 0 -10 9 -10 20 0 11 -4 20 -10 20 -5 0 -10 -9
-10 -20 0 -12 -6 -20 -12 -19 -7 1 -21 -1 -31 -6 -11 -4 -23 -3 -29 3 -7 7
-17 8 -27 3 -19 -10 -101 -8 -119 3 -7 4 -20 2 -28 -5 -11 -9 -18 -8 -35 7
-17 15 -24 16 -39 6 -27 -17 -30 -15 -30 11 0 37 12 43 58 31z m-1681 -461
c10 -4 11 -9 2 -19 -12 -15 -4 -34 15 -34 7 0 20 -6 30 -13 17 -13 17 -15 2
-46 -10 -18 -20 -31 -24 -28 -4 2 -22 9 -39 16 -18 7 -33 17 -33 22 0 5 -9 9
-20 9 -20 0 -31 7 -71 43 -26 23 -21 49 11 58 24 8 99 3 127 -8z m-222 -12
c-6 -21 47 -91 70 -91 7 0 18 -6 24 -14 10 -12 2 -24 -39 -63 -29 -26 -56 -50
-62 -52 -22 -8 -131 81 -154 125 -10 19 -8 26 11 44 20 19 127 69 148 70 5 0
6 -9 2 -19z m443 -77 c47 -31 71 -69 55 -85 -14 -14 -101 -13 -117 1 -7 5 -16
7 -19 4 -3 -4 -14 -3 -24 1 -10 4 -27 8 -38 9 -16 1 -20 7 -18 29 3 42 19 58
49 47 36 -14 76 -9 62 7 -18 22 7 15 50 -13z m3121 -242 c100 -265 110 -287
141 -297 11 -3 20 -15 20 -26 0 -18 -8 -19 -109 -19 -61 0 -112 4 -116 9 -7
12 22 41 41 41 18 0 17 13 -10 85 l-22 60 -94 0 -94 0 -18 -55 c-24 -78 -23
-87 12 -95 21 -5 30 -13 30 -26 0 -18 -6 -20 -97 -17 -76 2 -98 6 -98 17 0 8
14 19 32 25 18 6 36 16 41 21 6 6 49 124 98 264 69 199 92 255 109 261 11 4
25 5 31 3 6 -2 53 -115 103 -251z m1099 244 c91 -25 102 -36 102 -110 0 -34
-3 -66 -6 -69 -13 -12 -41 13 -47 41 -15 74 -100 123 -177 102 -88 -24 -140
-117 -140 -253 0 -96 22 -166 67 -211 89 -88 215 -59 256 59 21 60 41 52 45
-17 2 -32 -2 -66 -7 -77 -16 -28 -105 -55 -186 -55 -133 0 -231 74 -269 203
-20 69 -20 123 0 191 48 163 192 241 362 196z m-3380 -68 c3 -62 1 -68 -17
-68 -15 0 -23 10 -31 40 -6 21 -14 41 -18 43 -4 3 -51 8 -104 12 l-98 7 0
-116 0 -116 59 0 c62 0 77 9 83 50 2 17 9 25 23 25 18 0 20 -8 23 -94 2 -53
-2 -99 -7 -104 -15 -15 -39 9 -43 41 -3 25 -8 28 -58 34 -30 4 -61 5 -68 3 -9
-4 -12 -33 -10 -117 l3 -113 90 3 c117 4 122 6 136 52 12 40 36 60 45 36 3 -7
4 -40 2 -72 l-3 -59 -217 -3 c-210 -2 -218 -2 -218 17 0 13 9 21 30 26 l30 7
0 244 0 245 -30 6 c-21 4 -30 11 -30 24 0 19 10 19 213 17 l212 -3 3 -67z
m267 52 c0 -8 -10 -16 -22 -18 -42 -6 -43 -19 -41 -268 l3 -239 90 3 c117 4
122 6 136 50 15 49 26 60 43 42 9 -11 11 -32 7 -75 l-6 -60 -217 -3 c-213 -2
-218 -2 -218 18 0 13 7 20 19 20 48 0 51 16 51 255 0 239 -3 255 -51 255 -12
0 -19 7 -19 20 0 20 5 21 113 18 92 -2 112 -6 112 -18z m783 -52 c3 -62 1 -68
-17 -68 -14 0 -23 12 -33 43 l-13 42 -88 8 c-48 5 -95 6 -103 3 -11 -4 -14
-30 -14 -126 l0 -120 51 0 c56 0 89 13 89 36 0 27 20 54 36 47 12 -4 14 -23
12 -102 -3 -82 -5 -96 -21 -99 -12 -3 -19 5 -23 28 -8 39 -29 50 -94 50 l-51
0 3 -102 3 -103 33 -10 c21 -6 32 -15 30 -25 -3 -12 -24 -16 -116 -18 -105 -2
-112 -2 -112 17 0 13 9 21 30 26 l30 7 0 244 0 245 -30 6 c-21 4 -30 11 -30
24 0 19 10 19 213 17 l212 -3 3 -67z m262 53 c0 -13 -9 -20 -30 -24 l-30 -6 0
-245 0 -244 30 -7 c21 -5 30 -13 30 -26 0 -19 -7 -19 -112 -17 -121 3 -146 16
-84 42 l36 15 0 236 0 236 -35 15 c-34 14 -42 24 -28 37 3 4 55 7 115 7 99 0
108 -2 108 -19z m290 -96 c38 -60 94 -152 126 -203 31 -51 60 -94 64 -97 7 -4
2 329 -5 352 -2 7 -19 16 -37 21 -18 4 -33 15 -33 23 0 11 21 15 98 17 92 3
97 2 97 -18 0 -14 -7 -20 -23 -20 -46 0 -47 -9 -47 -287 l0 -263 -32 0 c-32 0
-37 7 -182 240 -82 132 -152 240 -155 240 -5 0 -4 -232 2 -369 2 -52 3 -55 37
-66 19 -7 35 -18 35 -26 0 -11 -20 -14 -94 -14 -104 0 -128 14 -67 39 l36 15
0 233 c0 242 -3 258 -41 258 -10 0 -21 5 -24 10 -14 23 10 31 92 28 l85 -3 68
-110z m1077 53 c22 -35 80 -127 129 -205 49 -79 92 -143 96 -143 3 0 4 78 1
173 -5 181 -10 197 -55 197 -11 0 -18 7 -18 20 0 19 7 20 95 20 88 0 95 -1 95
-20 0 -14 -7 -20 -23 -20 -46 0 -47 -9 -47 -287 l0 -263 -32 0 c-32 0 -37 6
-138 170 -58 94 -124 201 -146 237 -23 37 -45 68 -50 70 -8 3 -8 -201 -1 -366
2 -52 3 -55 37 -66 19 -7 35 -18 35 -26 0 -11 -20 -14 -94 -14 -104 0 -128 14
-67 39 l36 15 0 233 c0 248 -2 258 -47 258 -16 0 -23 6 -23 20 0 18 7 20 89
20 l89 0 39 -62z m1068 42 c0 -8 -9 -16 -20 -18 -44 -9 -45 -13 -45 -259 l0
-234 36 -15 c62 -26 37 -39 -83 -42 -92 -2 -112 0 -116 13 -5 10 4 19 28 29
l35 15 0 233 c0 242 -3 258 -42 258 -11 0 -18 7 -18 20 0 20 5 21 113 18 91
-2 112 -6 112 -18z m466 8 c0 -7 3 -39 5 -71 5 -56 4 -58 -17 -55 -16 2 -25
13 -31 34 -4 17 -14 36 -20 42 -7 5 -55 13 -105 17 l-93 7 0 -116 0 -116 54 0
c61 0 86 16 86 56 0 17 6 24 19 24 18 0 20 -9 23 -86 3 -91 -4 -128 -24 -122
-7 3 -16 19 -20 37 -10 36 -12 37 -85 46 l-53 6 0 -120 0 -120 93 6 c109 7
124 13 135 56 6 22 15 33 31 35 22 3 22 2 15 -60 -3 -35 -10 -66 -13 -71 -4
-4 -101 -6 -216 -5 -219 3 -254 11 -181 42 l36 15 0 233 c0 242 -3 258 -41
258 -21 0 -33 16 -24 30 10 16 425 13 426 -2z m-5691 -16 c0 -37 127 -143 212
-178 27 -10 48 -25 48 -31 0 -7 -14 -35 -31 -62 l-30 -50 -37 20 c-20 11 -44
24 -52 28 -8 5 -27 14 -42 21 -15 7 -37 21 -47 32 -11 10 -24 18 -29 18 -19 0
-102 105 -102 131 0 14 81 88 98 89 6 0 12 -8 12 -18z m484 -92 c22 -8 26 -16
27 -52 2 -34 3 -37 6 -13 7 44 15 48 79 34 103 -22 154 -14 154 22 0 33 24 8
60 -64 54 -109 36 -131 -100 -123 -90 5 -168 17 -188 30 -7 4 -13 22 -13 39
-2 27 -2 28 -6 7 -3 -14 -8 -28 -12 -33 -7 -7 -68 9 -83 22 -7 6 39 141 47
141 2 0 15 -4 29 -10z m-157 -136 c49 -19 52 -31 23 -98 l-19 -46 -52 19 c-28
11 -53 22 -56 25 -6 5 48 116 56 116 3 0 25 -7 48 -16z m136 -51 c19 -9 27
-20 23 -30 -3 -8 -9 -32 -12 -54 -4 -22 -11 -42 -16 -45 -11 -7 -108 25 -108
36 0 6 15 54 35 108 5 15 30 10 78 -15z m108 -29 c27 -9 83 -16 147 -17 92 -2
105 0 118 17 20 28 31 11 39 -60 6 -58 5 -61 -20 -78 -40 -26 -244 -22 -261 5
-3 5 -10 7 -15 3 -6 -3 -30 -1 -55 6 -49 14 -52 21 -33 96 13 49 18 51 80 28z
m-287 -79 c40 -17 40 -18 9 -92 -15 -38 -19 -38 -100 -3 l-43 19 26 51 c28 57
31 57 108 25z m110 -37 c58 -16 61 -21 46 -68 -7 -22 -10 -43 -7 -46 3 -4 11
15 18 41 11 45 13 47 43 42 17 -3 45 -11 61 -17 32 -13 91 -19 197 -21 47 -2
74 3 92 15 14 9 28 16 31 16 7 0 6 -85 -1 -105 -12 -30 -60 -45 -149 -45 -86
0 -269 33 -293 52 -7 6 -15 8 -18 5 -6 -6 -93 21 -111 35 -8 7 -6 22 9 59 23
54 23 54 82 37z m-133 -121 c7 -10 -16 -75 -31 -91 -11 -11 -111 24 -117 42
-5 12 13 67 29 89 7 8 22 6 61 -10 29 -11 55 -25 58 -30z m90 -23 c27 -9 51
-20 54 -24 8 -13 -36 -101 -48 -98 -7 2 -34 10 -60 17 -53 15 -55 22 -28 94
12 32 16 32 82 11z m137 -40 c15 -3 34 -8 42 -12 18 -7 30 -8 142 -18 57 -4
102 -3 133 5 26 7 49 10 52 7 9 -8 -38 -86 -60 -100 -49 -30 -171 -27 -331 8
-38 9 -71 18 -73 20 -6 6 17 77 30 94 6 7 17 10 25 7 7 -3 26 -8 40 -11z
m5460 -286 l1 -98 -34 -1 c-19 -1 -50 -2 -67 -3 -43 -3 -59 10 -52 40 7 27 13
26 -103 27 -86 0 -88 2 -77 45 7 26 34 30 34 5 1 -16 2 -16 15 1 14 19 17 17
19 -11 2 -21 21 -15 24 7 4 23 22 28 22 5 0 -8 5 -15 10 -15 6 0 10 7 10 15 0
8 5 15 10 15 6 0 13 -7 16 -15 8 -20 24 -19 24 1 0 8 4 13 9 10 21 -13 41 7
41 40 l0 34 48 -1 49 -2 1 -99z m602 11 c0 -13 7 -19 22 -19 12 0 29 -7 38
-15 15 -14 18 -14 30 0 16 19 54 20 69 1 7 -8 9 -25 5 -43 -11 -46 -42 -57
-71 -24 -16 19 -17 19 -42 1 -17 -13 -35 -17 -53 -13 -27 5 -28 8 -28 67 0 35
3 66 6 69 11 10 24 -3 24 -24z m-472 8 c6 -7 9 -22 6 -33 -3 -11 1 -26 9 -32
12 -11 14 -6 14 30 0 24 4 43 11 46 8 2 12 -16 12 -62 0 -37 -4 -66 -10 -66
-5 0 -10 7 -10 15 0 8 -5 15 -10 15 -6 0 -13 -7 -16 -15 -4 -10 -20 -15 -50
-15 l-44 0 0 58 c0 32 3 62 7 65 11 12 70 7 81 -6z m-1888 -14 c0 -15 1 -15
18 0 24 22 32 21 33 0 0 -15 2 -15 9 2 9 20 9 20 15 -2 6 -17 11 -20 29 -14
26 10 46 4 46 -15 0 -22 17 -16 23 8 6 20 7 20 31 4 17 -10 26 -12 26 -5 0 8
12 10 37 6 21 -4 42 -2 50 5 19 15 30 1 16 -22 -10 -15 -9 -19 5 -25 14 -5 14
-7 2 -15 -9 -5 -19 -5 -26 1 -6 5 -19 7 -28 3 -12 -4 -16 0 -16 15 0 12 -4 21
-10 21 -5 0 -10 -8 -10 -19 0 -15 -9 -18 -60 -20 -51 -1 -60 1 -60 16 -1 17
-1 17 -14 1 -18 -25 -56 -24 -56 1 0 11 -4 23 -10 26 -6 4 -10 -5 -10 -20 0
-17 -5 -25 -12 -22 -7 2 -12 11 -10 21 2 9 -2 16 -8 16 -5 0 -10 -9 -10 -20 0
-25 -16 -26 -29 -2 -9 15 -10 15 -11 1 0 -25 -26 -30 -45 -9 -25 27 -3 54 37
46 23 -5 28 -2 28 14 0 11 5 20 10 20 6 0 10 -7 10 -17z m755 -15 c77 5 114
-6 99 -30 -3 -4 4 -8 15 -8 12 0 21 7 21 15 0 21 26 32 65 27 26 -3 35 -9 35
-23 0 -10 7 -19 15 -19 18 0 19 12 3 28 -9 9 -5 12 18 12 27 0 31 -3 31 -30 0
-29 -2 -30 -44 -30 -38 0 -43 3 -44 23 l-2 22 -4 -22 c-2 -13 -11 -23 -20 -23
-9 0 -13 6 -9 15 3 8 1 15 -4 15 -6 0 -10 -7 -10 -15 0 -24 -90 -21 -91 3 -1
16 -2 16 -6 -1 -5 -19 -28 -18 -28 1 0 5 -3 14 -7 18 -5 4 -8 -3 -8 -15 0 -17
-4 -22 -16 -17 -8 3 -24 1 -34 -4 -15 -8 -24 -6 -41 11 -20 20 -20 21 -3 40
11 12 24 17 33 13 9 -4 25 -6 36 -6z m1288 -15 c18 -17 19 -17 28 0 14 24 64
22 82 -3 14 -21 14 -21 20 -1 4 17 13 20 67 20 65 -1 79 -12 75 -62 -3 -35
-23 -31 -27 5 -4 42 -22 43 -26 1 -2 -20 -9 -33 -17 -33 -8 0 -15 13 -17 33
-2 17 -7 32 -13 32 -5 0 -11 -15 -13 -32 -4 -36 -32 -47 -32 -13 0 18 -2 17
-25 -5 -29 -30 -35 -31 -67 -6 -24 20 -25 20 -41 0 -21 -24 -42 -24 -67 1 -23
23 -24 33 -10 61 13 24 57 25 83 2z"/>
<path d="M3849 8573 c-17 -54 -34 -104 -37 -110 -3 -10 15 -13 72 -13 52 0 76
4 76 12 0 21 -64 208 -71 208 -4 0 -22 -44 -40 -97z"/>
<path d="M6839 9167 c-35 -72 -26 -86 100 -157 107 -60 110 -61 139 -46 31 16
46 41 36 58 -4 6 -29 7 -63 3 -97 -11 -121 8 -150 119 -9 33 -22 61 -28 63 -7
3 -22 -16 -34 -40z"/>
<path d="M6180 8636 l0 -126 59 0 c44 0 65 5 84 20 54 43 57 147 6 196 -23 22
-41 29 -89 32 l-60 4 0 -126z"/>
<path d="M280 7363 c-86 -233 -96 -256 -112 -261 -11 -2 -18 -14 -18 -28 0
-23 3 -24 75 -24 73 0 75 1 75 25 0 16 -6 25 -16 25 -10 0 -14 7 -12 23 3 19
10 23 63 28 33 3 66 4 73 1 18 -6 15 -52 -3 -52 -9 0 -15 -9 -15 -25 0 -25 1
-25 84 -25 76 0 84 2 89 21 4 14 0 22 -15 28 -16 6 -35 46 -78 162 l-56 154
-56 3 -56 3 -22 -58z"/>
<path d="M4830 7361 c0 -20 -6 -30 -20 -34 -11 -3 -20 -14 -20 -25 0 -11 9
-22 20 -25 18 -5 20 -14 20 -90 0 -75 3 -87 25 -111 20 -22 33 -26 75 -26 50
0 51 1 48 27 -2 19 -10 29 -28 33 -24 6 -25 10 -28 88 -3 81 -3 82 22 82 25 0
37 15 28 38 -2 6 -15 12 -28 12 -20 0 -24 5 -24 30 0 29 -2 30 -45 30 -43 0
-45 -1 -45 -29z"/>
<path d="M6187 7363 c-3 -4 -8 -25 -12 -46 -4 -21 -14 -41 -22 -44 -9 -4 -12
-14 -9 -28 4 -14 0 -28 -9 -35 -8 -7 -12 -16 -10 -21 3 -4 -3 -12 -12 -18 -16
-9 -18 -31 -19 -245 -1 -191 2 -236 13 -236 7 0 13 -7 13 -15 0 -9 -6 -12 -15
-9 -13 5 -15 -14 -15 -135 l0 -141 40 0 40 0 2 -42 c3 -66 0 -89 -17 -142 -15
-46 -15 -50 0 -58 9 -6 21 -22 27 -36 l10 -27 16 33 16 32 77 0 78 0 7 38 c5
20 6 55 5 77 -5 60 -4 135 3 180 14 97 16 191 6 205 -9 11 -13 12 -17 3 -2 -7
-8 -13 -12 -13 -13 0 0 53 17 72 14 16 12 20 -12 39 -25 19 -36 49 -18 49 5 0
17 -9 27 -20 28 -31 41 -24 59 31 23 70 5 114 -32 77 -14 -14 -14 -15 -16 38
-3 50 -13 69 -30 55 -15 -13 -40 27 -50 78 l-6 35 24 -23 c30 -28 53 -22 62
15 6 21 2 31 -16 46 -29 24 -47 23 -61 -3 -8 -16 -13 -18 -22 -9 -9 9 -7 16
11 27 12 9 22 24 22 34 0 10 5 21 10 24 6 3 10 17 10 30 0 13 -4 27 -10 30 -5
3 -10 21 -10 40 0 40 -4 43 -61 49 -24 2 -51 7 -60 11 -10 3 -19 3 -22 -2z
m169 -875 c-4 -24 -10 -62 -13 -85 -3 -23 -14 -50 -25 -60 -18 -16 -20 -16
-42 11 -18 23 -28 28 -53 24 -29 -4 -32 -2 -35 29 -5 41 -2 46 41 68 34 17 35
17 51 -5 15 -19 18 -20 29 -6 8 9 11 16 7 16 -4 0 1 11 10 25 25 38 38 31 30
-17z"/>
<path d="M737 7322 c-22 -14 -29 -14 -36 -4 -5 9 -25 12 -62 10 -46 -3 -54 -6
-57 -24 -2 -15 3 -23 17 -27 19 -5 21 -13 21 -86 0 -70 -3 -82 -20 -91 -11 -6
-20 -20 -20 -30 0 -18 7 -20 75 -20 72 0 75 1 75 24 0 13 -7 26 -15 30 -21 8
-21 114 1 144 17 24 56 29 72 9 6 -7 12 -43 13 -80 2 -56 -1 -70 -16 -81 -11
-8 -16 -20 -12 -30 5 -13 21 -16 82 -16 69 0 75 2 75 21 0 12 -8 23 -20 26
-18 5 -20 14 -20 92 0 66 -4 91 -18 107 -36 46 -88 56 -135 26z"/>
<path d="M1304 7330 c-12 -5 -25 -13 -29 -19 -9 -16 -25 -13 -25 4 0 13 -11
15 -57 13 -50 -3 -58 -6 -61 -24 -2 -15 3 -23 17 -27 19 -5 21 -13 21 -85 0
-71 -2 -81 -22 -94 -14 -9 -19 -20 -15 -31 5 -14 20 -17 77 -17 64 0 70 2 70
21 0 11 -6 27 -14 34 -16 16 -11 130 7 153 17 21 53 14 65 -13 18 -39 16 -134
-3 -141 -8 -4 -15 -17 -15 -30 0 -23 3 -24 70 -24 62 0 70 2 70 19 0 10 -7 24
-15 31 -21 17 -20 118 1 148 17 24 43 29 62 10 15 -15 17 -158 2 -158 -5 0
-10 -11 -10 -25 0 -26 1 -26 72 -23 61 3 73 6 76 21 3 12 -4 20 -17 24 -19 5
-21 13 -21 92 0 99 -11 123 -64 141 -27 9 -42 8 -69 -3 -19 -8 -38 -20 -42
-27 -5 -8 -13 -6 -29 9 -26 24 -72 34 -102 21z"/>
<path d="M1762 7330 c-124 -29 -146 -202 -35 -267 38 -22 52 -25 99 -20 80 8
120 45 138 128 13 62 -34 134 -103 158 -38 12 -51 12 -99 1z m90 -77 c34 -31
19 -135 -23 -148 -26 -9 -67 11 -75 38 -11 36 -6 88 12 108 21 23 61 25 86 2z"/>
<path d="M2207 7321 c-32 -16 -39 -17 -44 -5 -4 10 -22 14 -64 14 -55 0 -59
-1 -59 -24 0 -15 7 -26 20 -29 19 -5 20 -14 20 -136 0 -120 -2 -131 -20 -141
-11 -6 -20 -20 -20 -31 0 -18 6 -20 82 -17 69 3 83 6 86 20 2 12 -6 21 -22 28
-20 7 -26 16 -26 40 0 33 14 38 44 15 47 -35 136 -2 162 60 55 132 -47 264
-159 206z m57 -66 c49 -49 19 -155 -45 -155 -35 0 -67 66 -55 114 13 52 67 74
100 41z"/>
<path d="M2470 7326 c-45 -12 -58 -29 -41 -55 8 -12 16 -12 53 -2 31 9 51 9
71 2 24 -9 28 -16 27 -48 0 -5 -20 -7 -44 -5 -87 7 -146 -42 -131 -110 10 -46
51 -71 105 -64 25 4 80 6 123 5 71 0 77 1 77 20 0 11 -9 25 -20 31 -17 9 -20
21 -20 89 0 92 -18 124 -78 141 -45 12 -64 12 -122 -4z"/>
<path d="M2890 7314 c-34 -29 -40 -30 -40 -4 0 19 -5 21 -57 18 -50 -3 -58 -6
-61 -24 -2 -15 3 -23 17 -27 19 -5 21 -13 21 -86 0 -70 -3 -82 -20 -91 -11 -6
-20 -20 -20 -30 0 -18 7 -20 85 -20 79 0 85 2 85 20 0 13 -10 24 -25 30 -22 8
-25 16 -25 58 0 68 22 96 70 89 36 -5 38 -3 44 25 10 49 7 55 -20 61 -17 3
-34 -3 -54 -19z"/>
<path d="M3050 7327 c-45 -12 -58 -30 -41 -55 6 -11 17 -11 51 -2 56 15 100
-1 100 -36 0 -23 -3 -24 -39 -18 -113 18 -183 -75 -111 -148 28 -27 35 -29 78
-24 26 4 82 6 125 5 73 0 77 1 77 21 0 13 -8 24 -20 27 -18 5 -20 14 -20 85 0
90 -15 123 -67 144 -38 17 -72 17 -133 1z"/>
<path d="M3720 7333 c-8 -3 -22 -12 -32 -20 -14 -13 -17 -12 -25 2 -7 12 -22
15 -64 13 -46 -3 -54 -6 -57 -24 -2 -15 3 -23 17 -27 19 -5 21 -13 21 -90 0
-75 -2 -85 -19 -90 -12 -3 -19 -12 -17 -23 2 -16 14 -19 79 -22 71 -3 77 -1
77 17 0 11 -7 24 -15 29 -13 7 -15 24 -13 82 3 72 4 75 32 85 24 8 31 6 47
-14 25 -30 27 -138 4 -147 -8 -4 -15 -17 -15 -30 0 -23 3 -24 75 -24 73 0 75
1 75 25 0 14 -6 25 -14 25 -10 0 -15 22 -18 83 -3 46 -11 93 -17 105 -20 38
-80 60 -121 45z"/>
<path d="M4325 7326 c-116 -53 -122 -217 -11 -270 44 -21 112 -20 156 2 43 21
49 44 15 62 -21 11 -27 11 -43 -3 -30 -27 -77 -22 -101 12 -12 16 -21 32 -21
35 0 3 46 7 103 8 l102 3 -3 35 c-5 46 -25 83 -56 104 -36 23 -105 29 -141 12z"/>
<path d="M4692 7315 c-36 -30 -42 -31 -42 -5 0 19 -5 21 -57 18 -50 -3 -58 -6
-61 -24 -2 -15 3 -23 17 -27 19 -5 21 -13 21 -81 0 -64 -3 -79 -20 -93 -11
-10 -20 -25 -20 -35 0 -16 10 -18 85 -18 79 0 85 2 85 20 0 13 -10 24 -25 30
-22 8 -25 16 -25 58 0 68 22 96 71 89 37 -5 38 -5 44 35 5 29 3 43 -6 49 -22
14 -36 11 -67 -16z"/>
<path d="M950 7305 c0 -16 6 -25 15 -25 8 0 15 -3 16 -7 0 -5 1 -43 1 -87 1
-64 -1 -80 -15 -88 -9 -5 -17 -18 -17 -28 0 -18 7 -20 80 -20 75 0 80 1 80 21
0 12 -8 23 -20 26 -19 5 -20 14 -20 119 l0 114 -60 0 c-57 0 -60 -1 -60 -25z"/>
<path d="M3360 7306 c0 -15 7 -26 20 -29 18 -5 20 -14 20 -87 0 -73 -2 -82
-20 -87 -13 -3 -20 -14 -20 -29 0 -23 2 -24 80 -24 75 0 80 1 80 21 0 12 -8
23 -20 26 -19 5 -20 14 -20 119 l0 114 -60 0 c-57 0 -60 -1 -60 -24z"/>
<path d="M3887 7323 c-14 -13 -7 -42 11 -47 13 -4 31 -40 57 -109 21 -56 42
-107 46 -113 9 -11 99 -8 111 4 6 7 17 35 60 156 14 38 27 60 40 64 13 3 18
12 16 26 -3 19 -9 21 -73 21 -64 0 -70 -2 -73 -21 -2 -15 3 -23 17 -27 20 -5
20 -6 -5 -81 -14 -42 -29 -76 -32 -76 -4 0 -17 33 -29 73 -20 63 -21 73 -8 83
8 6 15 21 15 33 0 20 -5 21 -73 21 -41 0 -77 -3 -80 -7z"/>
<path d="M5010 7305 c0 -15 6 -25 14 -25 20 0 26 -23 26 -102 0 -61 -2 -70
-20 -75 -13 -3 -20 -14 -20 -29 0 -23 2 -24 80 -24 75 0 80 1 80 21 0 12 -8
23 -20 26 -19 5 -20 14 -20 119 l0 114 -60 0 c-57 0 -60 -1 -60 -25z"/>
<path d="M5197 7323 c-14 -13 -6 -41 13 -46 18 -5 20 -14 20 -86 0 -70 -3 -82
-20 -91 -11 -6 -20 -20 -20 -30 0 -18 7 -20 85 -20 83 0 85 0 85 24 0 18 -6
26 -22 28 -20 3 -22 8 -19 63 3 70 19 89 68 81 35 -5 43 5 43 55 0 26 -3 29
-35 29 -24 0 -39 -6 -47 -20 -7 -11 -18 -20 -25 -20 -7 0 -13 9 -13 20 0 18
-7 20 -53 20 -30 0 -57 -3 -60 -7z"/>
<path d="M6621 7147 c-18 -9 -21 -17 -18 -45 6 -43 24 -63 37 -42 6 9 10 10
10 3 0 -6 -4 -15 -10 -18 -14 -9 -12 -17 11 -44 17 -21 23 -23 40 -13 23 15
25 6 3 -15 -8 -9 -13 -24 -11 -34 5 -20 -7 -26 -18 -9 -9 15 -25 12 -25 -4 0
-7 11 -21 23 -29 22 -14 25 -14 40 4 10 10 16 23 15 27 -1 8 18 60 31 82 5 9
20 14 37 12 21 -2 25 0 15 7 -12 8 -13 12 -1 25 7 9 10 20 6 24 -4 4 -12 -1
-17 -11 -13 -22 -29 -13 -29 17 0 13 -9 31 -20 41 -25 23 -90 34 -119 22z"/>
<path d="M6489 7104 c-5 -15 -7 -29 -5 -32 3 -2 -1 -17 -9 -33 -19 -36 -19
-64 1 -94 9 -15 18 -57 21 -105 3 -44 10 -83 15 -86 17 -11 31 14 35 60 3 41
1 47 -21 57 -18 9 -25 21 -28 50 -6 62 32 63 48 2 7 -28 30 -30 43 -5 14 26
-9 68 -35 63 -18 -3 -18 -2 -2 15 23 27 21 112 -3 124 -30 17 -49 11 -60 -16z"/>
<path d="M7041 7001 c-35 -33 -39 -60 -13 -84 14 -13 21 -14 30 -5 10 10 19 6
43 -20 39 -42 62 -41 78 3 12 33 11 37 -17 71 -24 28 -72 64 -87 64 -2 0 -17
-13 -34 -29z"/>
<path d="M3641 6868 c-10 -27 -6 -38 15 -38 10 0 14 -12 14 -41 0 -40 0 -41
-22 -27 -59 38 -132 21 -169 -38 -41 -67 -18 -188 42 -219 40 -21 92 -19 123
6 21 17 26 18 26 5 0 -12 11 -16 50 -16 28 0 53 -1 58 -2 4 -2 8 9 10 25 2 19
-1 27 -12 27 -13 0 -16 24 -18 168 l-3 167 -53 3 c-47 3 -53 1 -61 -20z m11
-165 c26 -23 25 -106 -2 -133 -43 -43 -91 -14 -98 58 -4 41 -1 53 17 71 25 25
58 27 83 4z"/>
<path d="M6831 6863 c-1 -17 4 -35 9 -38 17 -11 11 -44 -11 -55 -11 -6 -19
-19 -17 -28 1 -9 -1 -23 -5 -29 -5 -7 -5 -17 -2 -23 10 -15 35 -12 35 5 0 8 9
15 20 15 11 0 20 -5 20 -11 0 -13 42 -1 52 15 4 6 2 13 -3 17 -6 3 6 14 25 23
20 9 36 19 36 21 0 3 -14 12 -31 21 -23 11 -34 13 -42 5 -16 -16 -27 -14 -27
4 0 9 -7 18 -15 22 -9 3 -22 20 -30 37 l-13 31 -1 -32z"/>
<path d="M6974 6863 c-2 -19 2 -22 17 -18 22 7 23 2 8 -27 -10 -18 -8 -24 11
-38 21 -16 22 -21 12 -61 -11 -42 -10 -45 14 -63 19 -14 22 -21 13 -32 -6 -8
-9 -20 -6 -29 4 -8 2 -17 -3 -20 -6 -4 -10 -18 -10 -33 1 -26 1 -26 15 -8 14
19 15 18 15 -12 0 -25 4 -32 19 -32 11 0 21 9 24 23 4 12 16 27 29 32 16 7 22
17 20 33 -3 18 2 22 22 22 23 0 26 -4 26 -37 0 -21 7 -47 15 -57 8 -11 15 -29
15 -40 -1 -17 -4 -16 -17 9 -22 41 -20 41 -46 18 -12 -11 -41 -28 -64 -38 -40
-17 -42 -21 -40 -54 2 -20 9 -47 16 -60 12 -22 9 -123 -5 -173 -5 -16 5 -18
115 -18 l120 0 3 38 c2 20 2 142 0 270 -3 230 -3 233 -25 242 -12 4 -37 20
-56 34 -24 18 -42 24 -58 20 -17 -5 -23 -2 -23 9 0 9 5 19 10 22 8 5 7 11 -1
21 -9 11 -14 10 -30 -9 -10 -12 -18 -18 -19 -13 0 5 -7 3 -15 -4 -8 -7 -15
-29 -15 -50 0 -22 -7 -43 -16 -51 -14 -11 -15 -8 -9 32 3 24 8 52 11 62 3 10
-5 30 -20 48 -14 17 -26 36 -26 44 0 7 -10 15 -23 17 -17 3 -22 -1 -23 -19z"/>
<path d="M4265 6866 c-70 -31 -89 -97 -42 -144 l26 -26 -32 -27 c-26 -22 -32
-33 -32 -68 0 -33 7 -47 32 -73 63 -62 203 -46 237 27 23 48 20 70 -16 111
-27 31 -30 37 -16 45 8 5 21 22 28 38 34 83 -87 160 -185 117z"/>
<path d="M268 6778 c-49 -13 -94 -65 -103 -117 -9 -57 26 -129 75 -153 48 -24
126 -23 168 2 37 23 41 40 12 58 -17 10 -25 10 -43 -3 -30 -21 -73 -19 -97 5
-41 41 -28 50 75 50 112 0 119 6 89 78 -15 37 -28 52 -64 70 -48 24 -57 25
-112 10z"/>
<path d="M635 6770 c-47 -24 -45 -24 -45 -5 0 13 -11 15 -57 13 -51 -3 -58 -6
-61 -25 -2 -14 3 -23 17 -28 19 -6 21 -14 21 -90 0 -75 -2 -83 -21 -88 -14 -4
-20 -12 -17 -27 2 -11 6 -21 11 -20 4 0 36 0 72 0 52 0 67 4 72 16 4 10 -1 22
-10 29 -22 16 -27 136 -7 160 19 23 62 15 77 -15 21 -41 17 -122 -7 -143 -22
-19 -27 -46 -7 -48 12 -1 124 0 140 1 4 0 7 11 7 24 0 15 -7 26 -20 29 -18 5
-20 14 -20 92 0 78 -2 88 -25 110 -13 14 -31 25 -39 25 -8 0 -20 2 -28 5 -7 3
-31 -4 -53 -15z"/>
<path d="M1246 6779 c-15 -4 -37 -16 -47 -25 -18 -16 -20 -16 -42 4 -28 26
-98 30 -117 7 -16 -19 -30 -19 -30 0 0 13 -11 15 -57 13 -52 -3 -58 -5 -61
-26 -3 -17 2 -25 17 -29 19 -5 21 -13 21 -84 0 -68 -3 -80 -20 -89 -23 -12
-27 -50 -5 -51 8 0 38 0 65 0 28 0 55 0 60 0 15 1 12 37 -5 51 -21 17 -20 118
1 148 17 24 43 29 62 10 15 -15 16 -150 1 -165 -6 -6 -9 -19 -7 -28 3 -17 37
-21 121 -16 21 1 23 39 2 47 -22 9 -21 136 1 158 21 22 51 20 64 -3 16 -32 13
-148 -5 -155 -17 -6 -21 -46 -5 -47 6 0 38 0 73 -1 56 0 62 2 65 21 2 12 -3
24 -12 27 -13 5 -16 22 -16 81 0 48 -6 87 -16 109 -9 19 -17 34 -18 34 0 0
-15 4 -31 8 -17 5 -43 5 -59 1z"/>
<path d="M1530 6783 c-14 -2 -40 -9 -58 -14 -27 -9 -32 -14 -26 -32 9 -30 8
-30 56 -20 54 11 89 3 98 -22 11 -30 3 -35 -44 -29 -111 16 -179 -93 -99 -156
28 -22 102 -27 120 -9 6 6 21 8 34 3 20 -6 66 -8 109 -5 18 2 10 40 -10 51
-17 9 -20 21 -20 91 0 76 -2 82 -29 110 -17 16 -40 29 -54 29 -14 0 -31 2 -39
4 -7 2 -24 1 -38 -1z"/>
<path d="M2604 6776 c-18 -8 -35 -19 -38 -25 -5 -8 -16 -5 -33 9 -30 24 -91
26 -119 5 -25 -19 -34 -19 -34 0 0 13 -11 15 -57 13 -50 -3 -58 -6 -61 -24 -2
-15 3 -23 17 -27 19 -5 21 -13 21 -90 0 -76 -2 -85 -20 -90 -12 -3 -20 -14
-20 -25 0 -18 8 -21 71 -24 77 -3 93 7 71 43 -16 25 -15 152 0 167 15 15 55
16 64 1 11 -18 5 -148 -8 -168 -21 -35 -5 -46 63 -45 56 1 64 3 67 21 2 11 -4
26 -13 33 -21 17 -21 118 1 148 17 24 43 29 62 10 15 -15 16 -158 1 -158 -6 0
-9 -12 -7 -27 2 -16 9 -28 16 -27 6 1 39 2 72 3 54 1 60 3 60 22 0 12 -8 23
-20 26 -18 5 -20 14 -20 85 0 88 -16 133 -52 143 -48 14 -54 14 -84 1z"/>
<path d="M3909 6778 c-95 -25 -133 -145 -74 -234 43 -66 192 -73 243 -11 10
12 7 18 -13 31 -23 15 -28 15 -47 1 -31 -21 -74 -19 -98 5 -41 41 -28 49 78
52 91 3 97 4 100 25 4 29 -31 96 -60 115 -32 21 -86 28 -129 16z"/>
<path d="M4690 6783 c-54 -8 -100 -24 -100 -36 1 -32 17 -40 61 -29 53 13 92
-1 97 -36 3 -21 1 -22 -36 -16 -79 12 -142 -28 -142 -91 1 -53 41 -85 107 -85
22 0 45 6 51 12 9 9 17 10 30 2 14 -8 70 -11 115 -5 17 2 6 43 -13 48 -18 5
-20 14 -20 90 0 80 -2 86 -29 114 -16 16 -38 29 -49 29 -11 0 -26 2 -34 4 -7
2 -24 2 -38 -1z"/>
<path d="M1767 6773 c-13 -12 -7 -43 8 -43 8 0 30 -21 49 -46 l36 -46 -36 -44
c-20 -24 -43 -44 -50 -44 -8 0 -14 -10 -14 -24 0 -22 5 -24 50 -28 28 -1 55
-1 60 0 13 5 13 42 0 42 -14 0 -12 12 6 35 15 20 15 20 34 -3 16 -19 17 -27 7
-43 -17 -28 -1 -35 75 -34 57 1 63 4 66 24 3 16 -2 24 -16 28 -21 5 -82 74
-82 93 0 6 23 34 51 62 62 62 59 78 -15 78 -57 0 -71 -11 -54 -42 5 -11 4 -25
-4 -37 -11 -18 -14 -19 -29 -5 -13 11 -16 25 -12 50 l6 34 -65 0 c-36 0 -68
-3 -71 -7z"/>
<path d="M2080 6754 c0 -17 7 -28 18 -31 15 -4 19 -17 21 -83 2 -71 0 -80 -19
-90 -14 -7 -20 -19 -18 -33 3 -20 8 -22 78 -21 70 1 75 2 78 23 3 16 -2 24
-17 28 -20 5 -21 12 -21 119 l0 114 -60 0 c-58 0 -60 -1 -60 -26z"/>
<path d="M2849 6757 c-63 -42 -82 -130 -43 -198 53 -92 215 -92 268 0 25 44
26 119 2 155 -44 68 -159 89 -227 43z m134 -54 c28 -32 26 -99 -3 -131 -45
-48 -100 -12 -100 65 0 54 21 83 60 83 15 0 34 -8 43 -17z"/>
<path d="M3157 6760 c-31 -24 -41 -63 -26 -93 17 -31 37 -44 89 -57 70 -18 88
-40 50 -60 -25 -13 -49 -7 -81 21 -36 31 -63 22 -67 -25 -4 -46 9 -58 50 -44
21 8 33 7 41 -1 14 -14 67 -14 103 -1 38 15 53 38 54 82 0 44 -28 68 -105 90
-38 10 -50 18 -50 33 0 28 31 30 81 5 24 -12 48 -18 54 -15 5 3 10 24 10 46 0
34 -3 39 -23 39 -13 0 -28 -5 -34 -11 -8 -8 -17 -8 -31 0 -32 17 -87 13 -115
-9z"/>
<path d="M4900 6756 c0 -15 7 -26 18 -28 16 -5 18 -16 18 -87 -1 -68 -4 -84
-18 -92 -19 -11 -25 -49 -8 -50 6 0 38 0 73 -1 54 0 62 2 65 19 2 11 -4 26
-13 33 -24 20 -21 124 5 150 24 24 43 25 64 4 22 -22 23 -149 1 -158 -17 -6
-21 -46 -5 -47 6 0 37 0 70 0 33 0 65 0 70 0 19 2 10 43 -10 48 -18 5 -20 14
-20 84 0 88 -11 122 -47 138 -34 15 -86 14 -109 -4 -25 -19 -34 -19 -34 0 0
12 -13 15 -60 15 -57 0 -60 -1 -60 -24z"/>
<path d="M5334 6770 c-11 -4 -32 -22 -46 -39 -81 -96 -11 -241 117 -241 86 0
146 47 161 126 8 45 -26 118 -68 144 -35 21 -123 27 -164 10z m120 -72 c23
-33 21 -99 -4 -126 -51 -55 -108 -5 -100 88 4 57 73 82 104 38z"/>
<path d="M5615 6755 c-32 -31 -34 -86 -4 -114 11 -10 42 -24 67 -31 72 -18 90
-40 52 -60 -24 -13 -49 -7 -80 20 -43 37 -70 22 -70 -40 0 -33 28 -47 60 -30
14 7 26 8 39 0 59 -31 151 12 151 72 0 57 -34 88 -112 102 -35 6 -54 28 -42
47 10 16 57 9 80 -12 35 -33 64 -18 64 32 0 36 -2 39 -29 39 -16 0 -31 -5 -33
-11 -3 -9 -9 -9 -25 0 -38 20 -91 14 -118 -14z"/>
<path d="M6948 6682 c-14 -3 -16 -13 -12 -75 4 -71 -6 -73 -21 -4 -4 22 -10
27 -23 22 -28 -12 -86 -21 -106 -17 -15 3 -17 10 -13 38 6 35 -4 43 -32 25 -8
-5 -24 -6 -37 0 -19 7 -26 4 -35 -12 -6 -11 -16 -18 -24 -15 -16 6 -25 -23
-25 -80 0 -27 -7 -51 -21 -68 -20 -25 -20 -29 -6 -43 15 -15 17 -14 28 11 13
27 34 31 34 5 0 -9 13 -15 33 -17 18 -2 32 -9 32 -16 0 -16 -38 -28 -46 -15
-7 12 -44 12 -44 0 0 -5 10 -11 23 -13 18 -2 23 -11 27 -48 3 -25 9 -51 14
-58 4 -8 8 -45 7 -83 l-1 -69 39 0 c32 0 40 4 43 20 4 27 22 27 26 0 3 -18 9
-21 39 -18 l36 3 1 117 c1 97 4 120 18 135 17 16 18 15 24 -15 4 -18 10 -32
14 -32 13 0 30 61 29 105 0 81 -4 130 -12 142 -4 6 -2 13 4 15 6 2 9 17 7 33
-2 22 -8 30 -20 27z"/>
<path d="M6621 6251 c-1 -8 -9 -11 -22 -8 -22 6 -69 -10 -81 -28 -4 -5 -8 0
-8 13 0 30 -18 28 -25 -3 -3 -14 -7 -36 -10 -50 l-5 -25 101 0 c100 0 101 0
95 23 -3 12 -6 28 -6 35 0 6 -6 12 -14 12 -8 0 -17 10 -19 23 -2 12 -5 16 -6
8z"/>
<path d="M172 6064 c-24 -17 -29 -46 -9 -61 27 -21 48 -22 64 -3 17 19 17 19
35 0 23 -25 29 -25 61 0 25 20 25 20 30 -1 7 -26 48 -17 85 20 l27 26 3 -28
c4 -37 24 -43 62 -20 27 15 32 16 40 3 16 -25 20 -6 6 33 -18 53 -23 54 -42 8
-16 -42 -52 -60 -39 -21 4 12 2 20 -6 20 -8 0 -8 4 1 15 17 20 5 32 -15 15
-11 -9 -18 -10 -29 -1 -21 18 -45 2 -48 -32 -2 -20 -8 -32 -18 -32 -11 0 -14
9 -12 33 2 18 -1 32 -7 32 -6 0 -11 -7 -11 -15 0 -21 -13 -19 -27 4 -15 25
-52 20 -72 -9 -7 -11 -19 -20 -26 -20 -7 0 -15 -7 -19 -15 -7 -20 -36 -8 -36
16 0 12 9 21 25 25 14 3 22 10 19 15 -7 13 -16 11 -42 -7z"/>
<path d="M551 5924 c-12 -15 -22 -24 -22 -20 -1 3 -2 10 -3 15 -3 26 -16 20
-16 -7 0 -37 -10 -41 -29 -11 -11 18 -11 23 1 30 9 6 7 9 -9 9 -29 0 -40 -20
-20 -35 20 -14 22 -32 5 -38 -7 -2 -9 -8 -5 -13 4 -4 17 -2 29 5 16 10 22 10
28 1 5 -9 9 -9 14 -1 4 6 4 16 1 21 -10 16 0 12 25 -10 28 -25 48 -25 67 -2
10 12 16 14 19 5 8 -18 24 -16 24 2 0 22 17 18 30 -6 7 -11 14 -18 17 -16 8 9
9 78 1 83 -5 3 -8 -4 -8 -15 0 -27 -16 -27 -30 -1 -13 24 -30 26 -30 3 0 -14
-3 -13 -23 5 -30 28 -41 28 -66 -4z"/>
<path d="M6607 5463 c-11 -10 -8 -101 3 -108 6 -3 10 2 10 12 0 10 14 26 30
35 30 17 31 17 40 -7 21 -56 100 -56 114 0 16 62 -59 101 -103 54 l-19 -21
-11 21 c-11 20 -50 29 -64 14z"/>
<path d="M6270 4381 c14 -11 19 -21 12 -21 -7 0 -20 7 -28 15 -22 21 -37 19
-31 -6 4 -15 -1 -22 -18 -29 -13 -5 -26 -13 -29 -19 -4 -6 -14 -8 -24 -5 -14
5 -15 4 -2 -5 13 -9 13 -11 -2 -11 -21 0 -23 -11 -6 -28 14 -14 4 -27 -15 -19
-18 7 -22 98 -4 109 19 12 57 9 57 -4 0 -9 4 -8 10 2 16 25 12 28 -40 27 l-50
-2 0 -150 c0 -86 4 -144 9 -137 6 10 10 8 14 -8 4 -16 2 -20 -9 -16 -8 3 -14
-1 -14 -9 0 -23 36 -18 67 9 22 19 25 26 15 38 -6 8 -9 18 -6 21 9 8 -16 67
-27 67 -5 0 -14 -11 -19 -25 -5 -14 -11 -25 -13 -25 -6 0 -1 44 7 68 9 26 21
28 35 5 8 -14 9 -6 6 29 -5 65 9 74 73 46 56 -25 65 -41 30 -53 -20 -6 -20 -8
-5 -12 20 -5 23 -43 3 -43 -7 0 -19 -6 -25 -13 -8 -11 -5 -19 12 -35 41 -38
115 -57 103 -26 -8 20 21 55 39 48 8 -3 13 -23 14 -47 1 -68 5 -90 18 -94 8
-3 10 11 8 49 -2 29 -7 115 -11 191 -5 121 -8 138 -23 135 -11 -3 -15 -12 -13
-32 3 -26 1 -28 -20 -22 -13 4 -33 10 -45 13 -13 3 -23 12 -23 19 0 8 -4 14
-9 14 -5 0 -18 3 -28 6 -13 4 -11 0 7 -15z"/>
<path d="M6866 4392 c-3 -5 -1 -24 4 -43 14 -52 8 -144 -12 -166 -22 -23 -40
-73 -34 -89 3 -7 -7 -22 -22 -33 l-28 -19 -22 25 c-12 14 -27 21 -33 17 -8 -5
-3 -13 15 -26 14 -11 24 -24 20 -29 -8 -14 -24 -11 -24 6 0 21 -13 19 -41 -7
-22 -21 -24 -31 -24 -105 1 -59 -3 -84 -12 -87 -9 -4 -13 3 -13 19 0 14 -4 25
-9 25 -13 0 -22 -16 -14 -24 3 -3 8 -20 10 -38 2 -18 10 -42 19 -55 17 -26 11
-45 -11 -36 -8 3 -15 2 -15 -1 0 -4 10 -10 23 -15 26 -10 42 -52 53 -138 4
-34 3 -53 -4 -53 -5 0 -12 -9 -15 -21 -4 -15 -12 -20 -29 -17 l-23 3 2 -208
c1 -138 5 -213 13 -222 7 -8 11 -58 12 -129 0 -132 -4 -127 93 -124 41 1 64 6
71 17 10 12 15 13 27 3 22 -19 110 -23 300 -16 l167 7 -2 291 c-3 251 -5 291
-18 291 -8 0 -51 12 -95 27 -82 28 -125 61 -125 98 0 17 -5 19 -44 14 -37 -6
-44 -4 -48 13 -5 19 -10 19 -61 10 -55 -10 -56 -11 -59 -46 -3 -35 -4 -36 -43
-36 -44 0 -56 20 -36 59 6 11 15 33 21 49 11 31 31 37 23 7 -4 -14 0 -20 11
-20 20 0 21 24 0 55 -22 34 -41 31 -57 -7 l-14 -33 -13 53 c-15 64 -6 222 16
264 17 33 59 63 74 53 6 -4 17 -1 25 5 9 8 25 9 42 5 16 -5 37 -8 48 -9 12 -1
21 -11 25 -26 4 -16 13 -24 24 -23 9 0 15 -2 12 -5 -4 -3 1 -16 10 -30 12 -19
13 -26 4 -32 -7 -4 -9 -13 -6 -19 4 -6 11 -9 16 -6 13 8 30 -29 30 -64 0 -18
-7 -34 -17 -40 -31 -17 -10 -19 85 -9 64 8 96 8 103 1 9 -9 -3 -104 -26 -210
-5 -21 -2 -23 44 -23 l49 0 1 295 c1 198 -2 295 -9 295 -5 0 -10 -4 -10 -10 0
-5 -7 -10 -15 -10 -19 0 -33 35 -33 84 0 20 -3 40 -6 43 -3 4 -6 -3 -6 -15 0
-11 -4 -24 -10 -27 -5 -3 -10 1 -10 11 0 20 -28 43 -53 44 -13 0 -16 5 -11 24
4 17 -1 31 -15 45 -16 16 -21 17 -21 6 0 -8 5 -15 11 -15 8 0 8 -4 2 -12 -5
-7 -9 -53 -8 -101 0 -61 -3 -91 -12 -99 -7 -6 -13 -22 -13 -37 0 -20 -2 -23
-10 -11 -5 8 -7 23 -4 33 4 12 -2 26 -16 39 -17 16 -24 17 -36 7 -13 -10 -17
-10 -26 2 -7 11 -11 11 -15 2 -2 -7 -11 -13 -18 -13 -22 0 -28 -19 -11 -36 15
-14 17 -14 22 0 8 20 24 21 24 2 0 -23 -39 -26 -60 -4 -33 36 -34 65 -2 108
31 43 48 41 61 -6 4 -16 14 -30 23 -32 12 -2 15 5 12 40 -5 55 -52 100 -96 91
-20 -4 -28 -1 -29 8 0 8 -1 50 -2 94 -2 65 -5 80 -19 83 -9 2 -19 -1 -22 -6z
m257 -999 c4 -3 0 -14 -9 -24 -17 -19 -11 -39 12 -39 17 0 19 -46 4 -85 -6
-17 -20 -27 -40 -31 -16 -4 -27 -10 -24 -15 9 -15 -14 -10 -30 7 -10 9 -16 33
-16 57 0 23 -5 58 -10 77 -8 29 -7 37 7 48 18 13 95 17 106 5z m-269 -113 c2
-58 8 -131 12 -162 l7 -58 46 1 c54 0 156 21 168 33 4 5 -9 5 -32 1 -22 -4
-58 -9 -80 -11 -22 -2 -49 -5 -60 -7 -12 -1 -21 5 -23 16 -3 13 3 17 25 18 15
0 35 2 43 4 73 17 126 24 146 19 26 -7 31 -19 12 -28 -7 -3 2 -3 20 0 37 6 37
6 15 -44 -9 -20 -17 -48 -17 -61 -1 -34 -43 -61 -101 -66 -54 -5 -157 -16
-165 -19 -11 -3 -27 180 -29 324 -1 85 0 152 3 149 2 -2 7 -51 10 -109z"/>
<path d="M6357 4044 c5 -13 3 -16 -9 -11 -22 8 -29 -2 -17 -24 13 -25 -16 -27
-29 -2 -9 15 -12 14 -41 -6 -28 -20 -45 -41 -22 -27 5 3 12 -16 16 -44 l7 -50
45 0 c39 0 44 2 38 18 -17 41 -17 54 4 76 12 12 18 26 14 30 -5 5 3 5 17 1 14
-4 27 -11 30 -15 3 -3 16 -3 30 1 25 7 24 7 -7 14 -23 5 -33 13 -33 26 0 11
-4 19 -9 19 -5 0 -17 3 -25 6 -12 5 -15 2 -9 -12z"/>
<path d="M6276 3811 c-7 -11 -11 -239 -4 -246 5 -5 128 -9 181 -6 14 1 17 10
16 54 0 28 -4 61 -8 72 -8 20 -8 20 -15 -1 -5 -17 -14 -20 -42 -19 -19 1 -38
5 -41 9 -15 14 -43 5 -43 -14 0 -11 -7 -20 -15 -20 -17 0 -20 16 -4 25 7 5 5
15 -6 31 -14 22 -14 39 2 97 4 14 11 17 29 13 14 -4 24 -2 24 4 0 12 -67 14
-74 1z"/>
<path d="M6098 3774 c-7 -10 -4 -266 3 -299 1 -5 4 6 8 25 7 41 48 63 81 42
11 -7 22 -12 25 -12 3 0 5 33 3 73 l-3 72 -30 0 c-16 0 -36 4 -42 8 -9 5 -13
3 -13 -8 0 -9 -5 -13 -10 -10 -6 4 -9 9 -7 13 8 13 -8 107 -15 96z"/>
<path d="M6535 3678 c-2 -7 -6 -48 -8 -91 -4 -67 -2 -81 14 -96 10 -9 18 -25
18 -36 0 -11 3 -65 6 -120 4 -75 3 -96 -5 -82 -17 27 -30 20 -30 -18 0 -37 8
-43 28 -23 9 9 12 8 12 -8 1 -55 14 -210 25 -294 11 -89 12 -77 9 177 -1 150
-5 276 -7 280 -10 16 -4 108 8 123 8 9 10 23 5 35 -8 18 -9 18 -9 2 -2 -34
-36 -15 -39 22 -3 32 -2 33 25 27 27 -7 27 -7 -11 28 -30 28 -37 41 -34 61 5
26 0 34 -7 13z"/>
<path d="M144 3446 c-7 -19 -1 -67 9 -66 4 0 279 0 612 0 l605 0 0 40 0 40
-610 0 c-517 0 -611 -2 -616 -14z"/>
<path d="M1666 3418 c-43 -43 -54 -98 -30 -157 19 -48 55 -71 112 -71 39 0 82
26 82 49 0 16 -8 14 -37 -9 -64 -50 -138 1 -138 96 0 85 90 130 141 71 30 -35
34 -34 34 7 0 28 -4 34 -22 35 -13 0 -42 3 -65 7 -39 6 -46 3 -77 -28z"/>
<path d="M3564 3431 c-41 -25 -58 -69 -52 -133 7 -68 47 -108 109 -108 105 0
165 113 106 201 -40 60 -105 76 -163 40z m115 -27 c75 -62 35 -194 -59 -194
-12 0 -35 13 -51 29 -24 25 -29 38 -29 79 0 71 28 103 97 111 6 0 25 -11 42
-25z"/>
<path d="M3950 3441 c0 -6 7 -11 15 -11 11 0 15 -11 15 -35 0 -32 -2 -35 -19
-25 -34 18 -80 12 -106 -15 -35 -34 -35 -106 0 -140 26 -27 82 -34 103 -13 9
9 15 9 24 0 17 -17 48 -15 48 2 0 8 -5 16 -11 18 -7 2 -12 44 -12 113 l-2 110
-27 3 c-16 2 -28 -1 -28 -7z"/>
<path d="M4197 3432 c-10 -10 -17 -24 -17 -32 0 -7 -8 -19 -17 -26 -17 -12
-17 -13 0 -19 24 -10 25 -130 1 -139 -25 -10 -6 -26 31 -26 37 0 56 16 31 26
-12 5 -16 21 -16 69 0 59 2 63 25 69 38 10 45 0 45 -57 0 -29 6 -63 13 -77 12
-23 18 -25 86 -25 70 -1 99 9 67 21 -13 5 -16 23 -16 85 0 72 -2 79 -19 79
-27 0 -34 -15 -16 -30 23 -19 20 -95 -5 -120 -23 -23 -53 -26 -68 -7 -6 7 -12
44 -14 82 l-3 70 -30 1 c-16 0 -38 1 -47 2 -25 3 -23 42 2 49 11 3 20 9 20 14
0 16 -36 9 -53 -9z"/>
<path d="M5340 3442 c0 -6 7 -12 15 -16 9 -3 15 -18 15 -36 0 -27 -2 -30 -19
-20 -34 18 -80 12 -106 -15 -19 -18 -25 -35 -25 -70 0 -35 6 -52 25 -70 26
-27 82 -34 102 -14 8 8 17 7 32 -2 16 -11 23 -11 33 -1 10 10 10 15 1 20 -8 5
-13 45 -15 117 l-3 110 -27 3 c-16 2 -28 -1 -28 -6z m8 -98 c29 -20 31 -85 2
-114 -43 -43 -100 -13 -100 53 0 68 47 97 98 61z"/>
<path d="M2785 3335 c-21 -58 -44 -110 -52 -116 -20 -17 -6 -29 33 -29 34 0
49 23 22 32 -10 4 -10 10 -1 30 9 21 19 26 52 26 36 1 43 -3 56 -29 14 -26 14
-29 0 -29 -8 0 -15 -7 -15 -15 0 -11 11 -15 40 -15 41 0 50 9 26 29 -7 6 -26
46 -40 89 -43 123 -47 132 -65 132 -13 0 -28 -28 -56 -105z"/>
<path d="M2980 3431 c0 -5 7 -11 15 -15 12 -4 15 -25 15 -95 0 -78 -3 -92 -20
-104 -25 -17 -16 -27 26 -27 37 0 52 14 29 28 -13 7 -15 24 -13 93 l3 84 42
-88 c25 -52 48 -87 55 -85 14 5 19 14 61 103 l32 70 3 -84 c2 -69 0 -86 -13
-93 -23 -14 -8 -28 30 -28 37 0 56 16 31 26 -25 9 -23 191 2 210 15 12 13 13
-19 14 -44 0 -49 -5 -86 -94 -16 -39 -34 -71 -40 -73 -5 -2 -27 35 -48 82 -37
82 -39 85 -72 85 -18 0 -33 -4 -33 -9z"/>
<path d="M1939 3372 c-16 -11 -23 -11 -34 -2 -8 7 -23 9 -32 5 -17 -6 -17 -7
0 -19 22 -17 24 -117 2 -136 -21 -18 -9 -30 31 -30 34 0 49 22 21 33 -16 6
-20 59 -7 92 12 30 45 48 76 41 22 -6 24 -11 24 -70 0 -49 -4 -65 -16 -70 -25
-10 -6 -26 32 -26 24 0 34 5 34 15 0 8 -4 15 -10 15 -5 0 -10 35 -12 78 l-3
77 -43 6 c-29 4 -49 1 -63 -9z"/>
<path d="M5505 3383 c-30 -7 -63 -42 -70 -73 -8 -35 16 -95 43 -109 30 -16 88
-13 106 5 26 25 18 36 -14 19 -42 -22 -66 -19 -90 12 -28 35 -21 48 26 49 107
1 107 2 99 32 -11 48 -54 76 -100 65z"/>
<path d="M2503 3373 c-29 -11 -10 -23 27 -17 44 7 70 -6 70 -37 0 -17 -5 -18
-39 -13 -34 5 -43 3 -66 -20 -28 -28 -27 -60 2 -83 22 -17 153 -14 153 4 0 7
-4 13 -10 13 -6 0 -10 26 -10 58 0 78 -18 102 -73 101 -23 0 -48 -3 -54 -6z"/>
<path d="M4759 3351 c-38 -39 -39 -87 -3 -130 22 -26 33 -31 70 -31 61 0 94
34 94 97 0 35 -6 49 -26 68 -39 36 -96 34 -135 -4z m113 -8 c27 -24 25 -97 -4
-117 -50 -35 -108 -2 -108 61 0 61 68 96 112 56z"/>
<path d="M6304 3296 c-21 -20 -21 -31 -23 -254 -1 -183 2 -233 12 -230 6 3 13
17 15 31 4 29 19 36 28 13 6 -17 54 -9 54 9 0 8 9 17 21 20 16 5 18 10 8 21
-17 20 -4 43 20 37 25 -6 27 6 6 33 -17 22 -20 54 -5 54 6 0 10 -7 10 -15 0
-8 5 -15 10 -15 16 0 12 60 -5 66 -9 4 -15 17 -14 33 1 17 3 20 6 9 2 -10 8
-18 12 -18 16 0 19 13 9 35 -7 16 -7 29 1 42 12 23 -2 89 -25 113 -12 12 -14
12 -14 -5 0 -17 -2 -17 -10 -5 -8 13 -13 13 -30 2 -27 -17 -38 -9 -32 23 3 20
0 25 -14 24 -11 -1 -29 -11 -40 -23z"/>
<path d="M6200 3255 c0 -8 -9 -24 -19 -34 -12 -12 -17 -28 -14 -39 2 -11 0
-23 -7 -27 -18 -11 -50 25 -51 59 0 28 -1 29 -9 9 -5 -12 -8 -62 -6 -110 2
-49 5 -107 5 -129 1 -33 5 -41 19 -40 9 0 16 -5 14 -12 -3 -18 28 -28 38 -11
5 7 12 11 15 7 3 -3 -4 -23 -15 -43 -23 -40 -17 -55 23 -55 10 0 17 -5 15 -11
-2 -6 -6 -9 -9 -7 -3 2 -13 -3 -21 -10 -13 -10 -14 -17 -4 -37 6 -14 14 -25
17 -25 3 0 17 17 30 38 21 32 25 48 22 98 -1 32 -3 97 -3 144 0 148 -11 250
-26 250 -8 0 -14 -7 -14 -15z"/>
<path d="M2040 3071 c0 -5 5 -13 10 -16 6 -3 10 -20 10 -37 0 -25 -3 -29 -17
-22 -33 15 -83 8 -106 -15 -17 -16 -22 -33 -22 -72 0 -43 4 -54 28 -75 29 -25
81 -32 92 -14 4 6 21 8 41 4 33 -6 43 3 24 22 -5 5 -11 59 -12 119 -3 105 -4
110 -25 113 -13 2 -23 -1 -23 -7z"/>
<path d="M2720 3066 c0 -9 5 -16 10 -16 6 0 10 -14 10 -31 0 -26 -3 -30 -17
-23 -100 45 -181 -80 -103 -158 26 -26 36 -29 63 -23 18 3 49 6 70 5 20 0 37
4 37 10 0 5 -4 10 -10 10 -5 0 -11 50 -12 118 -3 113 -4 117 -25 120 -16 2
-23 -2 -23 -12z"/>
<path d="M4614 3066 c-49 -22 -74 -61 -74 -118 0 -27 7 -62 15 -78 28 -55 106
-77 155 -43 57 39 47 55 -13 23 l-44 -23 -34 19 c-62 36 -69 134 -14 182 34
29 70 28 97 -3 30 -34 47 -32 46 6 -1 25 -5 30 -20 26 -10 -3 -31 1 -46 9 -32
17 -29 17 -68 0z"/>
<path d="M4770 3066 c0 -9 5 -16 10 -16 6 0 10 -39 10 -97 0 -76 -4 -100 -17
-115 -15 -17 -14 -18 25 -18 39 0 57 13 30 22 -15 5 -12 107 4 125 16 20 66
16 78 -6 16 -31 13 -111 -5 -117 -28 -11 -15 -24 25 -24 40 0 53 13 25 24 -11
4 -15 22 -15 70 0 59 -2 67 -26 82 -21 15 -31 15 -58 6 -44 -16 -43 -17 -42
31 1 36 -2 42 -21 45 -16 2 -23 -2 -23 -12z"/>
<path d="M2184 3000 c-60 -24 -73 -112 -25 -161 17 -17 40 -29 55 -29 34 0 76
20 76 37 0 17 -10 16 -34 -2 -11 -8 -28 -15 -38 -15 -24 0 -58 35 -58 60 0 18
7 20 70 20 62 0 70 2 70 19 0 33 -11 51 -41 66 -31 17 -44 18 -75 5z"/>
<path d="M2367 2995 c-83 -47 -48 -185 48 -185 81 0 126 103 73 165 -29 32
-83 41 -121 20z m95 -32 c29 -26 24 -87 -8 -112 -34 -27 -50 -26 -79 4 -47 46
-23 125 37 125 17 0 40 -7 50 -17z"/>
<path d="M2840 2983 c-26 -23 -31 -36 -32 -72 0 -38 4 -49 31 -73 37 -33 79
-36 112 -9 32 26 19 36 -19 14 -25 -14 -34 -15 -56 -5 -26 11 -48 49 -39 65 2
4 35 7 74 7 65 0 69 1 69 23 -1 26 -17 49 -47 65 -34 19 -60 14 -93 -15z"/>
<path d="M3321 3001 c-34 -9 -42 -36 -8 -27 14 3 31 8 39 11 18 7 46 -15 50
-40 2 -14 -2 -19 -12 -16 -80 23 -143 -46 -90 -99 17 -17 30 -20 82 -16 59 4
82 16 59 31 -6 3 -11 33 -11 66 0 86 -31 112 -109 90z"/>
<path d="M3843 2998 c-12 -6 -29 -26 -39 -46 -44 -93 61 -183 140 -121 38 30
49 64 36 105 -21 62 -81 89 -137 62z m81 -24 c23 -9 39 -66 26 -98 -21 -55
-99 -55 -121 1 -26 68 27 123 95 97z"/>
<path d="M4110 2998 c-29 -15 -50 -52 -50 -88 0 -34 34 -87 60 -95 29 -9 85 2
99 19 18 22 -5 30 -31 12 -31 -22 -45 -20 -73 9 -43 42 -34 54 48 57 70 3 72
4 69 28 -6 52 -73 83 -122 58z"/>
<path d="M5122 3000 c-36 -15 -17 -28 33 -23 40 5 46 3 54 -18 11 -29 -1 -44
-25 -31 -20 11 -73 -1 -86 -20 -16 -26 -8 -67 16 -83 19 -13 38 -15 85 -9 34
3 61 11 61 15 0 5 -4 9 -10 9 -6 0 -10 28 -10 63 -1 36 -6 69 -14 80 -17 21
-72 30 -104 17z"/>
<path d="M5369 2999 c-8 -5 -34 -6 -59 -3 -40 5 -43 4 -27 -9 14 -12 17 -31
17 -110 0 -53 -4 -99 -10 -102 -20 -13 -9 -25 23 -25 42 0 52 9 28 27 -20 13
-22 44 -4 50 6 2 14 -1 18 -6 12 -20 65 -12 90 13 40 40 45 95 13 139 -16 22
-71 38 -89 26z"/>
<path d="M5533 3000 c-38 -16 -27 -31 17 -24 44 7 70 -6 70 -36 0 -15 -6 -17
-40 -13 -49 7 -80 -16 -80 -58 0 -45 35 -62 109 -53 58 6 73 15 51 29 -5 3
-10 32 -10 64 0 47 -4 61 -23 79 -24 23 -57 27 -94 12z"/>
<path d="M3062 1968 l3 -683 839 -3 839 -2 67 69 c73 75 125 103 223 122 76
15 129 14 158 -2 20 -10 21 -9 16 10 -3 11 -1 21 4 21 5 0 9 -6 9 -14 0 -8 28
-29 63 -46 65 -32 109 -68 153 -125 l26 -35 193 0 c145 0 194 3 198 13 2 6 4
314 3 682 l-1 670 -474 0 -474 0 -4 -26 c-2 -14 3 -39 12 -55 17 -33 19 -51 6
-56 -5 -1 6 -29 25 -61 34 -57 34 -59 34 -177 0 -112 -1 -120 -19 -120 -17 0
-19 -7 -18 -44 1 -32 7 -46 18 -49 21 -6 28 -52 18 -119 -9 -66 -11 -213 -3
-221 4 -3 16 0 28 8 48 34 59 20 86 -108 11 -54 14 -58 56 -77 24 -11 44 -25
44 -30 0 -21 -22 -19 -65 5 -78 43 -95 57 -95 76 0 10 -4 21 -10 24 -13 8 -70
-35 -70 -54 -1 -11 -8 -8 -25 12 -13 15 -28 27 -33 27 -6 0 -12 7 -16 15 -3 8
-12 15 -19 15 -19 0 -44 30 -52 63 -13 50 -28 44 -21 -9 11 -75 26 -215 27
-251 2 -61 -1 -73 -18 -73 -26 1 -79 160 -58 176 11 9 10 15 -10 40 -13 16
-25 36 -25 44 -1 8 -14 26 -31 38 l-29 24 -50 -32 c-54 -35 -58 -41 -35 -60 8
-7 24 -27 36 -46 17 -28 19 -43 14 -89 -4 -31 -12 -54 -17 -53 -9 3 -25 39
-47 108 -36 111 -154 300 -241 387 l-23 22 26 10 c24 9 26 15 25 57 -2 32 -8
48 -20 55 -27 15 -25 145 2 200 21 41 19 64 -6 55 -11 -4 -12 -2 -4 14 5 10
15 22 20 25 6 3 10 25 10 49 0 30 6 48 19 60 11 10 22 28 25 41 6 22 71 83
126 116 39 25 120 41 163 33 28 -4 37 -3 33 5 -5 8 -236 11 -822 11 l-814 0 2
-682z m387 476 c17 -9 44 -31 59 -50 15 -19 45 -47 67 -61 22 -15 50 -36 63
-47 19 -17 26 -18 42 -8 29 18 64 16 56 -4 -5 -13 0 -15 34 -9 36 6 40 5 40
-14 0 -12 -5 -21 -12 -21 -6 0 -31 -10 -55 -21 -48 -23 -65 -19 -40 9 10 10
17 22 17 25 0 11 -48 8 -55 -3 -3 -6 -20 -17 -36 -26 l-30 -15 16 25 17 25
-39 -2 c-34 -2 -38 -5 -41 -32 -2 -16 -14 -40 -28 -53 -13 -13 -26 -33 -29
-43 -4 -10 -9 -19 -13 -19 -11 0 -43 80 -37 90 3 5 1 18 -4 28 -8 15 -5 24 17
43 15 13 33 26 40 29 8 4 -12 25 -53 58 -64 52 -77 76 -53 100 15 15 19 15 57
-4z m308 -324 c15 -21 21 -41 17 -55 -3 -14 2 -34 12 -51 26 -39 25 -128 -2
-174 -20 -35 -94 -86 -104 -71 -3 4 -16 10 -30 13 -14 3 -33 9 -42 13 -15 6
-18 2 -18 -19 0 -14 -5 -26 -11 -26 -19 0 -47 85 -54 165 -6 72 -5 83 14 105
l21 25 17 -21 c10 -12 27 -25 38 -29 18 -7 18 -9 3 -12 -10 -3 -18 -11 -18
-19 0 -17 12 -18 28 -2 9 9 12 9 12 1 0 -7 -4 -14 -10 -18 -15 -10 10 -54 34
-57 13 -2 20 -9 18 -20 -2 -12 3 -15 18 -11 11 3 17 9 14 15 -3 5 -1 15 6 23
6 8 10 40 8 77 -3 54 -6 64 -25 73 -27 12 -28 22 -7 75 19 47 30 47 61 0z
m401 -256 c13 -9 29 -13 37 -10 11 4 15 -2 15 -24 0 -34 -13 -39 -32 -12 -7
11 -20 19 -28 19 -8 0 -22 2 -30 4 -9 3 -16 -5 -18 -18 -4 -27 -9 -28 -31 -9
-26 22 -71 29 -71 11 0 -8 5 -15 10 -15 6 0 10 -7 10 -15 0 -21 -21 -19 -27 4
-4 16 -50 35 -138 56 -22 5 125 23 200 24 59 1 87 -3 103 -15z"/>
<path d="M4690 1894 c0 -11 5 -25 11 -31 7 -7 9 -18 6 -26 -7 -18 -70 -31 -94
-19 -10 5 -33 16 -50 25 -21 10 -35 12 -39 6 -3 -6 -13 -8 -22 -4 -8 3 -19 0
-23 -6 -5 -8 -15 -4 -33 14 -21 21 -28 24 -32 12 -8 -19 31 -72 67 -90 16 -9
29 -19 29 -24 0 -5 8 -11 18 -14 9 -4 36 -18 60 -31 23 -14 42 -24 42 -21 0 2
-10 20 -22 40 -17 29 -18 39 -8 45 20 13 33 3 54 -40 21 -43 26 -46 43 -29 14
14 6 39 -13 39 -8 0 -14 5 -14 10 0 6 7 10 15 10 8 0 17 11 21 25 3 14 10 25
15 25 4 0 12 8 18 18 7 13 2 25 -20 52 -24 29 -29 31 -29 14z"/>
<path d="M5004 1431 c-27 -9 -62 -24 -77 -33 -14 -10 -29 -18 -32 -18 -4 0
-26 -19 -51 -42 -39 -36 -42 -43 -28 -51 13 -7 21 -5 29 7 11 15 13 15 19 1 7
-18 37 -20 54 -3 10 10 15 10 23 -2 8 -13 12 -12 27 5 35 40 51 49 67 35 12
-10 15 -10 15 1 0 11 3 11 11 -1 8 -12 9 -10 4 8 -7 25 19 42 38 23 8 -8 5
-17 -13 -36 -26 -27 -26 -27 47 -30 32 -1 43 2 46 16 6 22 -22 35 -29 14 -7
-18 -44 -20 -44 -3 0 6 7 19 16 29 15 17 19 17 58 2 22 -9 60 -30 84 -47 38
-27 46 -29 72 -19 18 7 32 7 36 2 7 -12 34 -12 34 1 0 5 -15 25 -32 43 -101
104 -243 141 -374 98z"/>
<path d="M695 1343 c-29 -6 -76 -30 -103 -51 -22 -17 -21 -17 55 -16 66 2 85
-2 120 -22 23 -13 53 -24 68 -24 33 0 42 -23 21 -55 -16 -24 -16 -28 0 -60 9
-19 22 -35 28 -35 14 0 56 82 56 111 0 20 -33 73 -60 97 -25 22 -119 62 -143
61 -12 -1 -31 -3 -42 -6z"/>
<path d="M3656 1213 c-4 -4 -87 -6 -186 -6 l-180 1 0 -24 c0 -24 14 -32 24
-15 9 14 54 19 65 8 6 -6 11 -7 11 -3 0 5 7 3 15 -4 11 -9 18 -10 29 -1 14 12
73 5 82 -11 3 -5 13 -3 21 4 11 9 44 12 105 11 86 -1 95 1 80 23 -9 14 -57 26
-66 17z"/>
<path d="M878 1020 c3 -24 1 -29 -11 -25 -15 6 -31 -20 -22 -35 3 -4 -5 -6
-17 -2 -14 3 -19 1 -14 -6 4 -6 -3 -22 -14 -34 -46 -51 -56 -64 -70 -90 -13
-28 -36 -34 -97 -29 -31 2 -29 -5 6 -24 49 -25 84 -22 137 13 48 31 84 88 69
111 -3 5 -1 12 5 16 5 3 10 16 10 28 0 13 15 35 37 53 39 32 38 54 -1 54 -19
0 -22 -4 -18 -30z"/>
<path d="M6090 873 l0 -108 302 3 303 2 42 48 c23 26 42 51 43 55 0 5 -19 31
-42 58 l-41 49 -304 0 -303 0 0 -107z m176 22 c-7 -19 8 -20 23 -1 13 16 137
20 147 5 3 -6 10 -6 17 -1 19 14 120 13 114 -1 -2 -7 -1 -21 4 -32 7 -18 8
-17 8 7 1 34 18 45 35 23 12 -17 13 -17 19 -1 10 25 27 10 27 -24 0 -33 -15
-47 -35 -30 -7 6 -16 7 -19 2 -7 -11 -297 -9 -315 2 -10 6 -16 5 -19 -2 -2 -7
-15 -12 -28 -12 -21 0 -24 5 -24 33 0 39 6 47 33 47 13 0 17 -5 13 -15z"/>
<path d="M1610 903 c0 -38 -1 -142 -1 -234 -1 -121 3 -174 14 -200 l14 -34 22
43 21 42 1110 0 1110 0 14 -35 c8 -19 19 -35 24 -35 4 0 16 16 25 35 l17 35
935 0 935 0 0 225 0 225 -2120 0 -2120 0 0 -67z m1664 1 c5 -14 9 -14 22 -3
13 10 17 10 24 0 5 -9 10 -10 14 -2 14 23 26 10 26 -28 0 -38 -1 -39 -35 -38
-19 1 -35 5 -35 10 0 4 -6 5 -12 1 -22 -14 -291 -15 -299 -2 -4 6 -14 8 -25 3
-11 -4 -38 -10 -61 -12 -35 -3 -44 1 -54 18 -9 18 -7 25 10 43 18 17 24 19 41
9 10 -7 21 -9 24 -5 3 5 77 7 165 6 94 -2 161 1 161 7 0 15 28 10 34 -7z
m-1029 -17 c12 -16 13 -16 18 3 6 22 36 27 54 9 8 -8 16 -7 31 2 18 11 24 10
41 -5 16 -15 18 -22 9 -42 -12 -25 -51 -33 -63 -14 -5 7 -11 8 -19 1 -6 -5
-41 -9 -77 -9 -62 0 -67 2 -76 27 l-11 26 -1 -28 c-1 -28 -2 -28 -58 -25 -54
3 -58 5 -59 28 -1 43 11 48 107 46 74 -1 93 -5 104 -19z m546 -140 c1 -34 2
-37 8 -17 8 31 56 40 75 15 11 -15 13 -15 25 -1 14 17 61 22 61 7 0 -5 14 -4
30 2 24 9 35 9 52 -2 16 -10 23 -10 26 -2 6 17 72 14 78 -4 5 -12 9 -12 30 2
13 8 33 13 43 10 15 -3 21 1 23 17 4 27 33 28 34 1 1 -11 3 -31 4 -45 l2 -25
7 25 c8 28 43 39 67 20 8 -7 14 -30 14 -51 0 -32 -4 -40 -24 -45 -13 -3 -33
-1 -44 5 -11 6 -22 7 -26 3 -11 -10 -79 -10 -100 0 -13 7 -21 6 -26 -2 -12
-20 -30 -2 -30 31 0 16 -4 29 -10 29 -5 0 -10 -16 -10 -36 0 -28 -4 -35 -17
-32 -9 2 -20 14 -24 28 -7 24 -7 24 -8 3 -1 -30 -46 -42 -69 -20 -14 15 -17
15 -28 -1 -12 -16 -15 -16 -44 0 -16 9 -30 13 -30 8 0 -15 -46 -23 -68 -11
-13 7 -22 7 -31 -2 -10 -9 -15 -8 -23 7 -8 14 -12 15 -18 6 -5 -7 -19 -14 -32
-15 -12 -1 -23 -8 -23 -16 0 -23 -32 -22 -38 2 -4 14 -11 20 -21 16 -13 -5
-16 1 -16 28 0 44 -18 46 -22 3 -2 -21 -8 -33 -18 -33 -10 0 -16 12 -18 33 -2
17 -7 32 -11 32 -4 0 -6 -13 -3 -29 5 -33 -22 -50 -37 -24 -8 15 -10 15 -26 0
-19 -20 -29 -21 -56 -7 -13 7 -25 7 -38 0 -14 -7 -27 -7 -45 2 -33 14 -37 71
-7 88 27 14 58 13 64 -2 4 -10 7 -10 18 0 16 15 51 16 67 0 8 -8 15 -8 25 0
14 12 108 14 124 3 6 -3 13 -13 16 -21 4 -10 6 -8 6 8 1 19 6 22 39 22 21 0
43 -5 50 -12 9 -9 12 -8 12 8 0 23 19 46 32 38 4 -3 8 -24 9 -47z m1159 27 c0
-8 8 -14 17 -14 9 0 25 -8 36 -17 19 -18 20 -17 13 9 -5 21 -2 30 13 38 24 12
35 -1 26 -29 -7 -23 10 -38 19 -16 7 18 47 20 65 3 11 -10 14 -10 18 0 3 8 26
12 68 12 49 0 64 -4 69 -16 6 -16 8 -16 24 0 34 30 83 14 96 -30 9 -29 -37
-67 -68 -58 -12 4 -22 11 -24 15 -2 5 -10 2 -19 -6 -20 -20 -33 -10 -33 26 0
40 -18 37 -22 -3 -2 -21 -8 -33 -18 -33 -10 0 -16 12 -18 33 -4 40 -22 43 -22
3 0 -33 -16 -49 -32 -33 -7 7 -16 7 -28 0 -13 -8 -25 -7 -49 5 -26 13 -31 13
-31 1 0 -8 -7 -14 -15 -14 -8 0 -15 7 -15 15 0 19 -7 19 -27 0 -17 -18 -73
-16 -80 2 -4 10 -10 9 -26 -2 -28 -19 -46 -19 -69 2 -17 15 -18 15 -18 -5 0
-24 -27 -42 -63 -42 -20 0 -26 6 -31 33 -17 81 -4 107 55 107 30 0 39 -4 39
-17 0 -15 1 -15 18 0 21 19 57 22 67 7 10 -16 25 -11 25 8 0 21 20 43 32 36 4
-3 8 -12 8 -20z m1058 0 c2 -17 10 -19 65 -17 48 1 65 -2 75 -15 11 -15 14
-15 22 -2 7 11 29 15 82 16 80 2 98 -6 98 -43 0 -17 5 -23 18 -21 11 2 17 -3
17 -16 0 -15 -7 -20 -35 -20 -32 -1 -35 1 -38 32 -4 42 -22 42 -22 -1 0 -32 0
-32 -47 -32 -27 1 -56 5 -67 10 -12 5 -21 4 -26 -5 -12 -20 -30 -2 -30 31 0
16 -4 29 -10 29 -5 0 -10 -16 -10 -36 0 -45 -24 -42 -28 4 -4 42 -20 41 -24 0
-3 -31 -6 -33 -38 -32 -32 0 -35 3 -38 32 -4 39 -22 33 -22 -7 0 -27 -2 -28
-44 -27 -60 1 -88 27 -74 67 9 28 33 41 68 37 45 -4 68 3 73 23 7 25 31 20 35
-7z m-3202 -19 c7 -40 13 -43 36 -15 13 14 29 19 63 18 44 -1 45 -1 45 -34 0
-43 18 -45 22 -2 3 30 5 32 48 34 25 1 50 -2 57 -7 7 -7 13 -6 18 1 9 14 48
13 64 -2 11 -10 14 -10 18 0 6 17 68 15 82 -2 17 -21 10 -91 -9 -91 -10 0 -16
12 -18 33 -4 40 -22 43 -22 3 0 -31 -14 -49 -25 -32 -3 6 -16 6 -35 0 -20 -7
-35 -7 -49 1 -12 6 -27 7 -34 3 -22 -13 -126 -11 -138 4 -10 11 -14 10 -24 -4
-11 -14 -17 -15 -37 -6 -16 7 -30 8 -41 1 -13 -7 -19 -5 -23 6 -8 21 -41 20
-52 -1 -6 -9 -16 -14 -25 -10 -15 5 -14 12 3 62 24 71 27 75 50 75 14 0 21
-10 26 -35z m1714 8 c0 -21 3 -24 12 -15 15 15 54 16 63 2 11 -18 25 -10 25
15 0 18 5 25 20 25 18 0 20 -7 20 -64 0 -50 -4 -65 -17 -70 -9 -4 -20 -2 -23
5 -5 8 -13 7 -29 -2 -17 -11 -25 -11 -41 -1 -16 10 -30 10 -61 2 -35 -10 -44
-9 -60 6 -35 32 -15 94 32 94 10 0 19 7 19 15 0 8 9 15 20 15 15 0 20 -7 20
-27z m1162 -2 c10 -14 18 -17 28 -10 45 28 85 -5 74 -60 -7 -35 -33 -47 -65
-31 -16 9 -23 9 -29 1 -7 -13 -40 -4 -40 11 0 5 -7 2 -16 -6 -24 -25 -34 -19
-34 19 0 44 -18 46 -22 3 -3 -30 -5 -31 -55 -34 -64 -3 -76 9 -65 62 6 30 13
40 30 42 13 2 29 -2 37 -8 10 -8 15 -8 20 0 4 6 25 10 46 9 21 -2 44 2 51 9
17 17 25 15 40 -7z m874 -40 c14 11 18 11 22 1 5 -16 43 -52 55 -52 4 0 7 10
5 23 -3 20 2 22 44 25 40 3 47 0 53 -18 13 -40 -6 -46 -127 -42 -62 2 -128 4
-146 4 -30 -1 -33 2 -30 26 2 22 8 27 30 27 15 0 33 6 40 13 10 10 15 10 25
-4 11 -15 15 -15 29 -3z"/>
<path d="M144 886 c-9 -38 2 -147 16 -156 6 -4 14 -20 19 -36 7 -28 9 -29 84
-32 l77 -3 -6 33 c-7 42 -35 98 -49 98 -5 0 -16 13 -23 29 -8 17 -28 35 -53
46 -22 10 -44 25 -49 34 -7 13 -10 10 -16 -13z"/>
<path d="M950 882 c-69 -21 -80 -28 -80 -52 0 -17 2 -17 30 -3 38 19 160 19
172 1 4 -7 8 -30 8 -50 0 -21 3 -38 8 -38 12 0 72 39 72 47 -1 17 -48 62 -91
87 -53 30 -47 30 -119 8z"/>
</g>
</svg>
